<svg xmlns="http://www.w3.org/2000/svg" width="540" height="960" viewBox="0 0 540 960">
  <g transform="translate(100.5 207) scale(1.5) translate(-100.5 -207)" opacity="0.95"><rect x="84.5" y="187" width="32" height="20" rx="4" fill="#2e3363"/><circle cx="93.5" cy="181" r="10" fill="#2e3363" opacity="0.85"/><circle cx="108.5" cy="179" r="12" fill="#2e3363" opacity="0.85"/></g>
  <g transform="translate(93.6 455.3) scale(1.5) translate(-93.6 -455.3)" opacity="0.95"><rect x="91.1" y="377.3" width="5" height="78" fill="#2e3363"/><circle cx="93.6" cy="375.3" r="6" fill="#fb923c" opacity="0.9"/><circle cx="93.6" cy="375.3" r="16" fill="#fb923c" opacity="0.12"/></g>
  <g transform="translate(85.9 774.5) scale(1.5) translate(-85.9 -774.5)" opacity="0.95"><rect x="49.9" y="756.5" width="72" height="18" rx="9" fill="#2e3363" opacity="0.9"/></g>
  <g transform="translate(445.4 186.1) scale(1.5) translate(-445.4 -186.1)" opacity="0.95"><rect x="429.4" y="166.1" width="32" height="20" rx="4" fill="#2e3363"/><circle cx="438.4" cy="160.1" r="10" fill="#2e3363" opacity="0.85"/><circle cx="453.4" cy="158.1" r="12" fill="#2e3363" opacity="0.85"/></g>
  <g transform="translate(433.2 457.7) scale(1.5) translate(-433.2 -457.7)" opacity="0.95"><rect x="430.7" y="379.7" width="5" height="78" fill="#2e3363"/><circle cx="433.2" cy="377.7" r="6" fill="#fb923c" opacity="0.9"/><circle cx="433.2" cy="377.7" r="16" fill="#fb923c" opacity="0.12"/></g>
  <g transform="translate(444.4 747.9) scale(1.5) translate(-444.4 -747.9)" opacity="0.95"><rect x="408.4" y="729.9" width="72" height="18" rx="9" fill="#2e3363" opacity="0.9"/></g>
</svg>
