<svg xmlns="http://www.w3.org/2000/svg" width="540" height="960" viewBox="0 0 540 960">
  <g transform="translate(100.5 207) scale(1.5) translate(-100.5 -207)" opacity="0.95"><ellipse cx="100.5" cy="207" rx="42.8" ry="12" fill="#2f2b27"/><rect x="70" y="198.8" width="14.8" height="12.6" transform="rotate(-37.1 70 198.8)" fill="#3a352f"/><rect x="85.5" y="200" width="17" height="16.9" transform="rotate(27.2 85.5 200)" fill="#2c2724"/><rect x="103.4" y="187.7" width="8.2" height="5.1" transform="rotate(-12.1 103.4 187.7)" fill="#3a352f"/><rect x="118.9" y="200.4" width="7.9" height="6.9" transform="rotate(32 118.9 200.4)" fill="#2c2724"/><rect x="120" y="182.8" width="10.8" height="10.1" transform="rotate(9.8 120 182.8)" fill="#2c2724"/><rect x="130.2" y="186.5" width="14.2" height="16.8" transform="rotate(-8.7 130.2 186.5)" fill="#3a352f"/></g>
  <g transform="translate(86.9 455.3) scale(1.5) translate(-86.9 -455.3)" opacity="0.95"><circle cx="86.9" cy="441.3" r="34.2" fill="#e0722c" opacity="0.28"/><circle cx="86.9" cy="441.3" r="21.3" fill="#fb923c" opacity="0.32"/><path d="M77 455.3 q-8 -13.2 0 -26.4 q8.5 13.2 0 26.4 z" fill="#fb923c" opacity="0.9"/><path d="M97.7 455.3 q-7.4 -14.4 0 -28.8 q8.8 14.4 0 28.8 z" fill="#e0531f" opacity="0.9"/><path d="M86.9 451.3 q-3 -11.3 0 -22.9 q3 13.8 0 27.2 z" fill="#ffe6a3" opacity="0.85"/></g>
  <g transform="translate(97.9 774.5) scale(1.5) translate(-97.9 -774.5)" opacity="0.95"><rect x="123.2" y="773.5" width="7.3" height="6.2" transform="rotate(24.7 123.2 773.5)" fill="#2c2724" opacity="0.9"/><rect x="104.7" y="765.2" width="8.4" height="7.9" transform="rotate(24.9 104.7 765.2)" fill="#2c2724" opacity="0.9"/><rect x="120.6" y="774.1" width="6.1" height="6.7" transform="rotate(54.6 120.6 774.1)" fill="#2c2724" opacity="0.9"/><rect x="76.3" y="765.8" width="10.8" height="4.8" transform="rotate(49.5 76.3 765.8)" fill="#2c2724" opacity="0.9"/><rect x="76.2" y="768.6" width="10.6" height="5.4" transform="rotate(20.8 76.2 768.6)" fill="#2c2724" opacity="0.9"/><rect x="117.8" y="766" width="5.9" height="5.2" transform="rotate(89.8 117.8 766)" fill="#2c2724" opacity="0.9"/><path d="M77.9 774.5 q10 -14 22 -6 q8 6 18 -4" stroke="#3a352f" stroke-width="2" fill="none" opacity="0.7"/></g>
  <g transform="translate(463 261.7) scale(1.5) translate(-463 -261.7)" opacity="0.95"><ellipse cx="463" cy="261.7" rx="35.9" ry="12" fill="#2f2b27"/><rect x="458.8" y="246.8" width="11.4" height="9.2" transform="rotate(-0.8 458.8 246.8)" fill="#3a352f"/><rect x="474.9" y="249.8" width="13.4" height="14.7" transform="rotate(-34 474.9 249.8)" fill="#3a352f"/><rect x="478.3" y="252.6" width="11.2" height="10.6" transform="rotate(-12.9 478.3 252.6)" fill="#3a352f"/><rect x="444.8" y="241.4" width="11.7" height="12.1" transform="rotate(-26.1 444.8 241.4)" fill="#3a352f"/><rect x="467.9" y="250.8" width="14.9" height="13" transform="rotate(15.2 467.9 250.8)" fill="#2c2724"/><rect x="481.7" y="245.5" width="14.9" height="17.7" transform="rotate(25.7 481.7 245.5)" fill="#2c2724"/></g>
  <g transform="translate(451.4 491.4) scale(1.5) translate(-451.4 -491.4)" opacity="0.95"><circle cx="451.4" cy="477.4" r="38" fill="#e0722c" opacity="0.28"/><circle cx="451.4" cy="477.4" r="17.6" fill="#fb923c" opacity="0.32"/><path d="M439.8 491.4 q-6.9 -15.6 0 -31.2 q7.4 15.6 0 31.2 z" fill="#fb923c" opacity="0.9"/><path d="M452.2 491.4 q-7.8 -21.6 0 -43.2 q9.2 21.6 0 43.2 z" fill="#e0531f" opacity="0.9"/><path d="M447.4 491.4 q-9 -17.3 0 -34.7 q8.1 17.4 0 34.7 z" fill="#e0531f" opacity="0.9"/><path d="M451.4 487.4 q-3 -14.5 0 -27.6 q3 14.2 0 21.9 z" fill="#ffe6a3" opacity="0.85"/></g>
  <g transform="translate(461.1 773.3) scale(1.5) translate(-461.1 -773.3)" opacity="0.95"><rect x="450.3" y="764.8" width="8.1" height="4.5" transform="rotate(60.6 450.3 764.8)" fill="#2c2724" opacity="0.9"/><rect x="489.5" y="770.6" width="8.1" height="7.5" transform="rotate(86.8 489.5 770.6)" fill="#2c2724" opacity="0.9"/><rect x="486.3" y="765.9" width="4.4" height="7.1" transform="rotate(86.6 486.3 765.9)" fill="#2c2724" opacity="0.9"/><rect x="457.6" y="771" width="9.7" height="5.2" transform="rotate(58.8 457.6 771)" fill="#2c2724" opacity="0.9"/><rect x="490" y="768.3" width="8.8" height="7.4" transform="rotate(64.8 490 768.3)" fill="#2c2724" opacity="0.9"/><rect x="469.7" y="773" width="10.3" height="4.6" transform="rotate(19.6 469.7 773)" fill="#2c2724" opacity="0.9"/><path d="M441.1 773.3 q10 -14 22 -6 q8 6 18 -4" stroke="#3a352f" stroke-width="2" fill="none" opacity="0.7"/></g>
</svg>
