<svg xmlns="http://www.w3.org/2000/svg" width="540" height="960" viewBox="0 0 540 960" preserveAspectRatio="none">
  <defs>
    <linearGradient id="sky" x1="0" y1="0" x2="0" y2="1">
      <stop offset="0" stop-color="#0b0a22"/>
      <stop offset="0.55" stop-color="#1e1b4b"/>
      <stop offset="1" stop-color="#4a3369"/>
    </linearGradient>
    <linearGradient id="horizon" x1="0" y1="0" x2="0" y2="1">
      <stop offset="0" stop-color="#fb923c" stop-opacity="0"/>
      <stop offset="1" stop-color="#fb923c" stop-opacity="0.2"/>
    </linearGradient>
  </defs>
  <rect width="540" height="960" fill="url(#sky)"/>
  <rect y="480" width="540" height="480" fill="url(#horizon)"/>
  <g fill="#f8fafc" opacity="0.4"><circle cx="414.3" cy="212.5" r="1.3"/><circle cx="324" cy="314.8" r="1.9"/><circle cx="396.8" cy="441.1" r="1.5"/><circle cx="526.7" cy="542.1" r="1.8"/><circle cx="448.6" cy="57.2" r="1"/><circle cx="41.7" cy="29.5" r="1.8"/><circle cx="453.5" cy="222.2" r="1.5"/><circle cx="256.4" cy="356.8" r="1.8"/><circle cx="503.5" cy="124.5" r="1.1"/><circle cx="291.8" cy="562.2" r="1.9"/><circle cx="467.5" cy="177.6" r="1.6"/><circle cx="170.8" cy="530.4" r="1.4"/><circle cx="433.2" cy="177.1" r="2"/><circle cx="25.4" cy="602.4" r="1.2"/></g><ellipse cx="270" cy="960" rx="486" ry="200" fill="#fb923c" opacity="0.18"/>
</svg>
