<svg xmlns="http://www.w3.org/2000/svg" width="540" height="960" viewBox="0 0 540 960" preserveAspectRatio="none">
  <defs>
    <linearGradient id="sky" x1="0" y1="0" x2="0" y2="1">
      <stop offset="0" stop-color="#3d9be2"/>
      <stop offset="0.55" stop-color="#7fc4ef"/>
      <stop offset="1" stop-color="#d2f0fb"/>
    </linearGradient>
    <linearGradient id="horizon" x1="0" y1="0" x2="0" y2="1">
      <stop offset="0" stop-color="#e8fbf0" stop-opacity="0"/>
      <stop offset="1" stop-color="#e8fbf0" stop-opacity="0.4"/>
    </linearGradient>
  </defs>
  <rect width="540" height="960" fill="url(#sky)"/>
  <rect y="480" width="540" height="480" fill="url(#horizon)"/>
  <circle cx="380" cy="130" r="66" fill="#ffedad" opacity="0.25"/><circle cx="380" cy="130" r="43.5" fill="#ffedad" opacity="0.4"/><circle cx="380" cy="130" r="30" fill="#fffbe6"/><g fill="#ffffff" opacity="0.7"><ellipse cx="392.9" cy="256.1" rx="77.9" ry="20"/><ellipse cx="357.8" cy="265.1" rx="42.8" ry="16"/><ellipse cx="424.1" cy="263.1" rx="46.7" ry="17"/></g><g fill="#ffffff" opacity="0.9"><ellipse cx="405.3" cy="489.2" rx="94.4" ry="19.1"/><ellipse cx="362.8" cy="497.8" rx="51.9" ry="15.3"/><ellipse cx="443.1" cy="495.9" rx="56.6" ry="16.2"/></g><g fill="#ffffff" opacity="0.6"><ellipse cx="411.1" cy="486.6" rx="104.8" ry="14.9"/><ellipse cx="363.9" cy="493.3" rx="57.6" ry="11.9"/><ellipse cx="453" cy="491.8" rx="62.9" ry="12.7"/></g><g fill="#ffffff" opacity="0.7"><ellipse cx="75.5" cy="104.5" rx="97" ry="22.4"/><ellipse cx="31.9" cy="114.6" rx="53.4" ry="17.9"/><ellipse cx="114.3" cy="112.3" rx="58.2" ry="19"/></g>
</svg>
