<svg xmlns="http://www.w3.org/2000/svg" width="540" height="960" viewBox="0 0 540 960">
  <g fill="#2f2b27"><rect x="-35.6" y="133.9" width="120" height="80"/><path d="M-9.6 133.9 a34 30 0 0 1 68 0 z"/></g><path d="M-5.6 125.9 l10 -14 l6 16 l8 -10" stroke="#0d0a09" stroke-width="2.5" fill="none" opacity="0.6"/><g opacity="0.5"><rect x="-19.6" y="163.9" width="10" height="24" fill="#0d0a09"/><rect x="58.4" y="163.9" width="10" height="24" fill="#0d0a09"/><rect x="18.4" y="143.9" width="12" height="10" fill="#fb923c"/></g>
  <polygon points="-19.8,516.8 -19.8,366.9 16.8,319.8 53.5,339.5 53.5,516.8" fill="#2f2b27"/><rect x="-9.8" y="367.8" width="10" height="12" fill="#0d0a09" opacity="0.5"/><rect x="26.9" y="367.8" width="10" height="12" fill="#0d0a09" opacity="0.5"/><rect x="-9.8" y="401.8" width="10" height="12" fill="#0d0a09" opacity="0.5"/><rect x="-9.8" y="435.8" width="10" height="12" fill="#0d0a09" opacity="0.5"/><rect x="26.9" y="435.8" width="10" height="12" fill="#0d0a09" opacity="0.5"/><rect x="-9.8" y="469.8" width="10" height="12" fill="#0d0a09" opacity="0.5"/><rect x="26.9" y="503.8" width="10" height="12" fill="#0d0a09" opacity="0.5"/><rect x="2.2" y="450.7" width="29.3" height="66.1" fill="#0d0a09" opacity="0.4"/>
  <ellipse cx="18.6" cy="741.3" rx="42.7" ry="12" fill="#2f2b27"/><rect x="12.7" y="727.4" width="11.3" height="10" transform="rotate(0.6 12.7 727.4)" fill="#3a352f"/><rect x="26.4" y="719.7" width="10.5" height="11.7" transform="rotate(-9.1 26.4 719.7)" fill="#3a352f"/><rect x="5.7" y="734.6" width="10.2" height="11.7" transform="rotate(5 5.7 734.6)" fill="#3a352f"/><rect x="47.2" y="722.3" width="14.8" height="9.4" transform="rotate(-21.6 47.2 722.3)" fill="#2c2724"/><rect x="-12.4" y="724" width="8.3" height="5.9" transform="rotate(21.7 -12.4 724)" fill="#2c2724"/>
  <g fill="#2f2b27"><rect x="460.2" y="120.2" width="120" height="80"/><path d="M486.2 120.2 a34 30 0 0 1 68 0 z"/></g><path d="M490.2 112.2 l10 -14 l6 16 l8 -10" stroke="#0d0a09" stroke-width="2.5" fill="none" opacity="0.6"/><g opacity="0.5"><rect x="476.2" y="150.2" width="10" height="24" fill="#0d0a09"/><rect x="554.2" y="150.2" width="10" height="24" fill="#0d0a09"/><rect x="514.2" y="130.2" width="12" height="10" fill="#fb923c"/></g>
  <polygon points="489.2,445.9 489.2,290.1 519.7,263.3 550.1,281.3 550.1,445.9" fill="#2f2b27"/><rect x="529.7" y="379.3" width="10" height="12" fill="#0d0a09" opacity="0.5"/><rect x="499.2" y="413.3" width="10" height="12" fill="#0d0a09" opacity="0.5"/><rect x="529.7" y="413.3" width="10" height="12" fill="#fb923c" opacity="0.7"/><rect x="499.2" y="447.3" width="10" height="12" fill="#0d0a09" opacity="0.5"/><rect x="507.5" y="384.8" width="24.4" height="61.1" fill="#0d0a09" opacity="0.4"/>
  <ellipse cx="518.9" cy="754.3" rx="48.8" ry="12" fill="#2f2b27"/><rect x="487.7" y="738.2" width="17.8" height="17.6" transform="rotate(-20.4 487.7 738.2)" fill="#3a352f"/><rect x="514.2" y="740.8" width="8.7" height="8.8" transform="rotate(-17.7 514.2 740.8)" fill="#3a352f"/><rect x="485.1" y="732.3" width="13.3" height="10.3" transform="rotate(16.8 485.1 732.3)" fill="#2c2724"/><rect x="515.6" y="735.1" width="9.2" height="6.6" transform="rotate(14.4 515.6 735.1)" fill="#3a352f"/><rect x="547.8" y="730.9" width="13.5" height="8.5" transform="rotate(16 547.8 730.9)" fill="#3a352f"/><rect x="513.9" y="731.4" width="14.2" height="10.7" transform="rotate(18.4 513.9 731.4)" fill="#3a352f"/>
</svg>
