<svg xmlns="http://www.w3.org/2000/svg" width="540" height="960" viewBox="0 0 540 960">
  <g fill="#8c9cc4"><rect x="-35.6" y="133.9" width="120" height="80"/><ellipse cx="24.4" cy="133.9" rx="34" ry="30"/><rect x="22.4" y="89.9" width="4" height="16"/></g><g fill="#fb923c" opacity="0.2"><rect x="-19.6" y="163.9" width="10" height="24"/><rect x="58.4" y="163.9" width="10" height="24"/></g>
  <rect x="-19.8" y="327.8" width="73.3" height="189" fill="#8c9cc4"/><g fill="#fb923c" opacity="0.22"><rect x="-9.8" y="341.8" width="10" height="12"/><rect x="-9.8" y="375.8" width="10" height="12"/><rect x="26.9" y="375.8" width="10" height="12"/><rect x="-9.8" y="409.8" width="10" height="12"/><rect x="-9.8" y="443.8" width="10" height="12"/><rect x="26.9" y="443.8" width="10" height="12"/><rect x="-9.8" y="477.8" width="10" height="12"/></g>
  <rect x="-10.6" y="542.1" width="71.9" height="199.2" fill="#8c9cc4"/><g fill="#fb923c" opacity="0.22"><rect x="-0.6" y="556.1" width="10" height="12"/><rect x="35.4" y="590.1" width="10" height="12"/><rect x="35.4" y="624.1" width="10" height="12"/><rect x="-0.6" y="658.1" width="10" height="12"/><rect x="-0.6" y="692.1" width="10" height="12"/><rect x="35.4" y="692.1" width="10" height="12"/></g>
  <g fill="#8c9cc4"><rect x="455.5" y="148.9" width="120" height="80"/><ellipse cx="515.5" cy="148.9" rx="34" ry="30"/><rect x="513.5" y="104.9" width="4" height="16"/></g><g fill="#fb923c" opacity="0.2"><rect x="471.5" y="178.9" width="10" height="24"/><rect x="549.5" y="178.9" width="10" height="24"/></g>
  <rect x="489.8" y="320.3" width="59.7" height="192.2" fill="#8c9cc4"/><g fill="#fb923c" opacity="0.22"><rect x="499.8" y="334.3" width="10" height="12"/><rect x="529.7" y="334.3" width="10" height="12"/><rect x="529.7" y="368.3" width="10" height="12"/><rect x="499.8" y="402.3" width="10" height="12"/><rect x="529.7" y="402.3" width="10" height="12"/><rect x="499.8" y="470.3" width="10" height="12"/></g>
  <rect x="497.1" y="536.2" width="57.6" height="173.3" fill="#8c9cc4"/><g fill="#fb923c" opacity="0.22"><rect x="507.1" y="550.2" width="10" height="12"/><rect x="535.9" y="550.2" width="10" height="12"/><rect x="507.1" y="618.2" width="10" height="12"/><rect x="535.9" y="686.2" width="10" height="12"/></g>
</svg>
