<svg xmlns="http://www.w3.org/2000/svg" width="540" height="960" viewBox="0 0 540 960">
  <!-- causeway slab: continuous full-height, uniform -> wraps seamlessly -->
  <rect x="50" y="0" width="440" height="960" fill="#4a443f"/>
  <rect x="50" y="0" width="6" height="960" fill="#3a352f"/>
  <rect x="484" y="0" width="6" height="960" fill="#3a352f"/>
  <!-- center road (the marching lane stays clear of props) -->
  <rect x="170" y="0" width="200" height="960" fill="#403a35"/>
  <rect x="170" y="0" width="6" height="960" fill="#2c2724"/>
  <rect x="364" y="0" width="6" height="960" fill="#2c2724"/>
  <g fill="#a89b8b" opacity="0.3">
    <rect x="266" y="40" width="8" height="31.4"/>
    <rect x="266" y="160" width="8" height="27.4"/>
    <rect x="266" y="280" width="8" height="31.2"/>
    <rect x="266" y="640" width="8" height="37.5"/>
    <rect x="266" y="760" width="8" height="30.1"/>
  </g>
  <rect x="50" y="160" width="120" height="2" fill="#2c2724" opacity="0.3"/><rect x="370" y="160" width="120" height="2" fill="#2c2724" opacity="0.3"/><rect x="50" y="320" width="120" height="2" fill="#2c2724" opacity="0.3"/><rect x="370" y="320" width="120" height="2" fill="#2c2724" opacity="0.3"/><rect x="50" y="480" width="120" height="2" fill="#2c2724" opacity="0.3"/><rect x="370" y="480" width="120" height="2" fill="#2c2724" opacity="0.3"/><rect x="50" y="640" width="120" height="2" fill="#2c2724" opacity="0.3"/><rect x="370" y="640" width="120" height="2" fill="#2c2724" opacity="0.3"/><rect x="50" y="800" width="120" height="2" fill="#2c2724" opacity="0.3"/><rect x="370" y="800" width="120" height="2" fill="#2c2724" opacity="0.3"/><rect x="182" y="452" width="14" height="56" fill="#a89b8b" opacity="0.22"/><rect x="228" y="452" width="14" height="56" fill="#a89b8b" opacity="0.22"/><rect x="251" y="452" width="14" height="56" fill="#a89b8b" opacity="0.22"/><rect x="297" y="452" width="14" height="56" fill="#a89b8b" opacity="0.22"/><rect x="320" y="452" width="14" height="56" fill="#a89b8b" opacity="0.22"/><ellipse cx="227.2" cy="524.1" rx="43.7" ry="13.9" fill="#0d0a09" opacity="0.3"/><ellipse cx="290.5" cy="155.8" rx="31.3" ry="11.9" fill="#0d0a09" opacity="0.2"/><ellipse cx="342" cy="137.8" rx="35" ry="13" fill="#0d0a09" opacity="0.2"/><ellipse cx="183.3" cy="588.1" rx="34.5" ry="19.2" fill="#0d0a09" opacity="0.3"/><ellipse cx="116.7" cy="536.8" rx="26.9" ry="15.9" fill="#0d0a09" opacity="0.2"/><ellipse cx="443.1" cy="887.8" rx="44" ry="16.4" fill="#0d0a09" opacity="0.2"/><g stroke="#0d0a09" stroke-width="2" fill="none" opacity="0.5"><path d="M238.1 312.1 L246.6 333.2 L243.2 368.1 L234.7 403.6 L227.9 438.6 L219.8 468.2"/><path d="M98 449.9 L103.5 470 L78.5 494.3 L75.3 522.3 L62.2 556.2 L37.5 592.9"/><path d="M232.1 542.1 L237.6 583.7 L218.9 621.9 L219.2 643.8 L203.9 663.1"/><path d="M66.3 686.6 L80.2 710.8 L105.7 735.1 L114.3 759 L102.8 795.3 L115.5 819.9"/><path d="M450.8 365.2 L438.6 394.4 L451.6 423.7 L447.8 444.9"/><path d="M269.5 220.1 L254.9 245.9 L257.6 275.5 L281.6 303.9"/><path d="M231.7 202 L254.4 238.6 L251.1 278.8 L270.1 315 L271.3 336.6 L278.5 379.7"/></g>
  <rect x="53.6" y="703.5" width="10.4" height="6.7" transform="rotate(72.5 53.6 703.5)" fill="#2c2724" opacity="0.8"/>
  <rect x="52.7" y="439" width="4.2" height="6.3" transform="rotate(25.6 52.7 439)" fill="#2c2724" opacity="0.8"/>
  <rect x="66.4" y="176.6" width="10.8" height="9.3" transform="rotate(6.1 66.4 176.6)" fill="#2c2724" opacity="0.8"/>
  <rect x="61.8" y="467.4" width="10.3" height="5.9" transform="rotate(17.2 61.8 467.4)" fill="#2c2724" opacity="0.8"/>
  <rect x="44" y="282.8" width="8.7" height="5.9" transform="rotate(73.4 44 282.8)" fill="#2c2724" opacity="0.8"/>
  <rect x="43.3" y="373.3" width="4.7" height="4.4" transform="rotate(48.7 43.3 373.3)" fill="#2c2724" opacity="0.8"/>
  <rect x="477.1" y="317.4" width="11.8" height="9.8" transform="rotate(11.9 477.1 317.4)" fill="#2c2724" opacity="0.8"/>
  <rect x="482.3" y="849.8" width="9.3" height="8.3" transform="rotate(52.5 482.3 849.8)" fill="#2c2724" opacity="0.8"/>
  <rect x="473.2" y="80.4" width="11.2" height="8.3" transform="rotate(89.6 473.2 80.4)" fill="#2c2724" opacity="0.8"/>
  <rect x="482.2" y="118.7" width="7.8" height="9.7" transform="rotate(8.1 482.2 118.7)" fill="#2c2724" opacity="0.8"/>
  <rect x="480" y="600.6" width="6.2" height="5.8" transform="rotate(56.3 480 600.6)" fill="#2c2724" opacity="0.8"/>
  <rect x="487" y="572.9" width="11.6" height="8.5" transform="rotate(64.4 487 572.9)" fill="#2c2724" opacity="0.8"/>
  <path d="M106.5 134.7 L106.5 39.8 l5.3 -10" stroke="#3a352f" stroke-width="4" fill="none"/><path d="M108.5 39.8 l30 6 l-8 6 l8 8 l-30 -2 z" fill="#e0531f" opacity="0.6"/>
  <circle cx="115.4" cy="275.1" r="42.3" fill="#e0722c" opacity="0.28"/><circle cx="115.4" cy="275.1" r="16" fill="#fb923c" opacity="0.32"/><path d="M120.2 289.1 q-9.7 -18.2 0 -36.4 q7.1 18.2 0 36.4 z" fill="#fb923c" opacity="0.9"/><path d="M120.8 289.1 q-8.5 -17.4 0 -34.8 q7.6 17.4 0 34.8 z" fill="#e0722c" opacity="0.9"/><path d="M115.4 285.1 q-3 -11.2 0 -22 q3 13.9 0 27.9 z" fill="#ffe6a3" opacity="0.85"/>
  <ellipse cx="101.4" cy="450.4" rx="48.1" ry="12" fill="#2f2b27"/><rect x="131.2" y="447.4" width="10.8" height="8.8" transform="rotate(18.8 131.2 447.4)" fill="#2c2724"/><rect x="121.9" y="445.2" width="9.1" height="7.6" transform="rotate(-21.1 121.9 445.2)" fill="#2c2724"/><rect x="68.6" y="432.5" width="7" height="6.9" transform="rotate(37 68.6 432.5)" fill="#3a352f"/><rect x="85.8" y="443.3" width="15" height="9.4" transform="rotate(-17.6 85.8 443.3)" fill="#3a352f"/><rect x="100" y="431.3" width="16.9" height="17.6" transform="rotate(31.3 100 431.3)" fill="#3a352f"/><rect x="98.1" y="424.9" width="14.5" height="10.4" transform="rotate(25.2 98.1 424.9)" fill="#2c2724"/>
  <circle cx="111.5" cy="610.9" r="20.9" fill="#0e0c0c" opacity="0.2"/><circle cx="128.6" cy="590.2" r="28.8" fill="#0e0c0c" opacity="0.2"/><circle cx="124.6" cy="553.5" r="32.7" fill="#0e0c0c" opacity="0.2"/>
  <path d="M102.6 809.7 L102.6 729.9 l3 -10" stroke="#3a352f" stroke-width="4" fill="none"/><path d="M104.6 729.9 l30 6 l-8 6 l8 8 l-30 -2 z" fill="#e0531f" opacity="0.6"/>
  <path d="M440.4 173.7 L440.4 84.5 l-4.5 -10" stroke="#3a352f" stroke-width="4" fill="none"/><path d="M442.4 84.5 l30 6 l-8 6 l8 8 l-30 -2 z" fill="#e0531f" opacity="0.6"/>
  <circle cx="418.4" cy="326.9" r="43.3" fill="#e0722c" opacity="0.28"/><circle cx="418.4" cy="326.9" r="23.7" fill="#fb923c" opacity="0.32"/><path d="M420.7 340.9 q-10 -17.4 0 -34.8 q9.2 17.4 0 34.8 z" fill="#fb923c" opacity="0.9"/><path d="M429.2 340.9 q-9.9 -23.3 0 -46.6 q7 23.3 0 46.6 z" fill="#e0722c" opacity="0.9"/><path d="M418.4 336.9 q-3 -10.8 0 -23.7 q3 12.6 0 21.3 z" fill="#ffe6a3" opacity="0.85"/>
  <ellipse cx="425.5" cy="509.5" rx="44" ry="12" fill="#2f2b27"/><rect x="401.2" y="490.2" width="8" height="9.5" transform="rotate(9.3 401.2 490.2)" fill="#3a352f"/><rect x="407.6" y="509.1" width="11.2" height="11.4" transform="rotate(-5.8 407.6 509.1)" fill="#3a352f"/><rect x="432.3" y="506.5" width="8.9" height="5.4" transform="rotate(25.3 432.3 506.5)" fill="#2c2724"/><rect x="445.7" y="492" width="7.5" height="7.6" transform="rotate(5.4 445.7 492)" fill="#2c2724"/><rect x="424.6" y="499.1" width="12.7" height="12.4" transform="rotate(0.6 424.6 499.1)" fill="#2c2724"/><rect x="420.8" y="507.6" width="13.3" height="13.2" transform="rotate(-32 420.8 507.6)" fill="#2c2724"/>
  <circle cx="435.5" cy="586.8" r="20.7" fill="#0e0c0c" opacity="0.2"/><circle cx="409.4" cy="563" r="31.3" fill="#0e0c0c" opacity="0.2"/><circle cx="429.6" cy="534.2" r="34.3" fill="#0e0c0c" opacity="0.2"/><circle cx="436.9" cy="499.6" r="45.5" fill="#0e0c0c" opacity="0.2"/>
  <path d="M431.4 827.3 L431.4 748.8 l3.1 -10" stroke="#3a352f" stroke-width="4" fill="none"/><path d="M433.4 748.8 l30 6 l-8 6 l8 8 l-30 -2 z" fill="#e0531f" opacity="0.6"/>
</svg>
