<svg xmlns="http://www.w3.org/2000/svg" width="540" height="960" viewBox="0 0 540 960">
  <!-- causeway slab: continuous full-height, uniform -> wraps seamlessly -->
  <rect x="50" y="0" width="440" height="960" fill="#141731"/>
  <rect x="50" y="0" width="6" height="960" fill="#2e3363"/>
  <rect x="484" y="0" width="6" height="960" fill="#2e3363"/>
  <!-- center road (the marching lane stays clear of props) -->
  <rect x="170" y="0" width="200" height="960" fill="#1b2140"/>
  <rect x="170" y="0" width="6" height="960" fill="#2d3160"/>
  <rect x="364" y="0" width="6" height="960" fill="#2d3160"/>
  <g fill="#a5b4fc" opacity="0.12">
    <rect x="266" y="40" width="8" height="40"/>
    <rect x="266" y="160" width="8" height="40"/>
    <rect x="266" y="280" width="8" height="40"/>
    <rect x="266" y="400" width="8" height="40"/>
    <rect x="266" y="520" width="8" height="40"/>
    <rect x="266" y="640" width="8" height="40"/>
    <rect x="266" y="760" width="8" height="40"/>
    <rect x="266" y="880" width="8" height="40"/>
  </g>
  <rect x="50" y="160" width="120" height="2" fill="#2d3160" opacity="0.3"/><rect x="370" y="160" width="120" height="2" fill="#2d3160" opacity="0.3"/><rect x="50" y="320" width="120" height="2" fill="#2d3160" opacity="0.3"/><rect x="370" y="320" width="120" height="2" fill="#2d3160" opacity="0.3"/><rect x="50" y="480" width="120" height="2" fill="#2d3160" opacity="0.3"/><rect x="370" y="480" width="120" height="2" fill="#2d3160" opacity="0.3"/><rect x="50" y="640" width="120" height="2" fill="#2d3160" opacity="0.3"/><rect x="370" y="640" width="120" height="2" fill="#2d3160" opacity="0.3"/><rect x="50" y="800" width="120" height="2" fill="#2d3160" opacity="0.3"/><rect x="370" y="800" width="120" height="2" fill="#2d3160" opacity="0.3"/><rect x="182" y="452" width="14" height="56" fill="#a5b4fc" opacity="0.15"/><rect x="205" y="452" width="14" height="56" fill="#a5b4fc" opacity="0.15"/><rect x="228" y="452" width="14" height="56" fill="#a5b4fc" opacity="0.15"/><rect x="251" y="452" width="14" height="56" fill="#a5b4fc" opacity="0.15"/><rect x="274" y="452" width="14" height="56" fill="#a5b4fc" opacity="0.15"/><rect x="297" y="452" width="14" height="56" fill="#a5b4fc" opacity="0.15"/><rect x="320" y="452" width="14" height="56" fill="#a5b4fc" opacity="0.15"/><rect x="343" y="452" width="14" height="56" fill="#a5b4fc" opacity="0.15"/>
  <rect x="106.9" y="56" width="4" height="110" fill="#2e3363"/><polygon points="110.9,56 142.9,64 110.9,72" fill="#38bdf8" opacity="0.8"/>
  <rect x="89.6" y="293.9" width="32" height="20" rx="4" fill="#2e3363"/><circle cx="98.6" cy="287.9" r="10" fill="#2e3363" opacity="0.85"/><circle cx="113.6" cy="285.9" r="12" fill="#2e3363" opacity="0.85"/>
  <rect x="101.3" y="422.6" width="5" height="78" fill="#2e3363"/><circle cx="103.8" cy="420.6" r="6" fill="#fb923c" opacity="0.9"/><circle cx="103.8" cy="420.6" r="16" fill="#fb923c" opacity="0.12"/>
  <rect x="104.7" y="606.7" width="32" height="20" rx="4" fill="#2e3363"/><circle cx="113.7" cy="600.7" r="10" fill="#2e3363" opacity="0.85"/><circle cx="128.7" cy="598.7" r="12" fill="#2e3363" opacity="0.85"/>
  <rect x="116.2" y="706.5" width="4" height="110" fill="#2e3363"/><polygon points="120.2,706.5 152.2,714.5 120.2,722.5" fill="#38bdf8" opacity="0.8"/>
  <rect x="437.8" y="35.1" width="4" height="110" fill="#2e3363"/><polygon points="441.8,35.1 473.8,43.1 441.8,51.1" fill="#38bdf8" opacity="0.8"/>
  <rect x="409.9" y="289" width="32" height="20" rx="4" fill="#2e3363"/><circle cx="418.9" cy="283" r="10" fill="#2e3363" opacity="0.85"/><circle cx="433.9" cy="281" r="12" fill="#2e3363" opacity="0.85"/>
  <rect x="435.5" y="389.1" width="5" height="78" fill="#2e3363"/><circle cx="438" cy="387.1" r="6" fill="#fb923c" opacity="0.9"/><circle cx="438" cy="387.1" r="16" fill="#fb923c" opacity="0.12"/>
  <rect x="415.2" y="617.8" width="32" height="20" rx="4" fill="#2e3363"/><circle cx="424.2" cy="611.8" r="10" fill="#2e3363" opacity="0.85"/><circle cx="439.2" cy="609.8" r="12" fill="#2e3363" opacity="0.85"/>
  <rect x="418.7" y="701.2" width="4" height="110" fill="#2e3363"/><polygon points="422.7,701.2 454.7,709.2 422.7,717.2" fill="#38bdf8" opacity="0.8"/>
</svg>
