<svg xmlns="http://www.w3.org/2000/svg" width="540" height="960" viewBox="0 0 540 960">
  <g transform="translate(89.5 275.7) scale(1.5) translate(-89.5 -275.7)" opacity="0.95"><rect x="86.5" y="221" width="6" height="54.7" fill="#1a1512"/><g stroke="#1a1512" stroke-width="3" fill="none" stroke-linecap="round"><path d="M89.5 229 l-16 -10 l-6 -14"/><path d="M89.5 239 l18 -8 l4 -16"/><path d="M89.5 221 l-8 -16"/></g><circle cx="83.5" cy="271.7" r="4" fill="#ff7a2e" opacity="0.4"/></g>
  <g transform="translate(104.5 501.2) scale(1.5) translate(-104.5 -501.2)" opacity="0.95"><circle cx="104.5" cy="487.2" r="43.2" fill="#e8451f" opacity="0.28"/><circle cx="104.5" cy="487.2" r="21" fill="#ff7a2e" opacity="0.32"/><path d="M103.5 501.2 q-8.9 -18.3 0 -36.7 q8.4 18.4 0 36.7 z" fill="#ff7a2e" opacity="0.9"/><path d="M104.2 501.2 q-7.8 -16.3 0 -32.6 q6.2 16.3 0 32.6 z" fill="#f2401c" opacity="0.9"/><path d="M114.4 501.2 q-6.1 -15 0 -30.1 q8.4 15.1 0 30.1 z" fill="#f2401c" opacity="0.9"/><path d="M104.5 497.2 q-3 -10.7 0 -21.7 q3 13.6 0 21.3 z" fill="#ffe6a3" opacity="0.85"/></g>
  <g transform="translate(102.1 772.4) scale(1.5) translate(-102.1 -772.4)" opacity="0.95"><g fill="#3a2723"><rect x="99.1" y="652.4" width="6" height="120"/><rect x="82.1" y="656.4" width="40" height="4"/></g><path d="M84.1 660.4 q-30 22 -46 20" stroke="#3a2723" stroke-width="2" fill="none" opacity="0.7"/></g>
  <g transform="translate(453.9 282.6) scale(1.5) translate(-453.9 -282.6)" opacity="0.95"><rect x="450.9" y="213.8" width="6" height="68.8" fill="#1a1512"/><g stroke="#1a1512" stroke-width="3" fill="none" stroke-linecap="round"><path d="M453.9 221.8 l-16 -10 l-6 -14"/><path d="M453.9 231.8 l18 -8 l4 -16"/><path d="M453.9 213.8 l-8 -16"/></g><circle cx="447.9" cy="278.6" r="4" fill="#ff7a2e" opacity="0.4"/></g>
  <g transform="translate(440.7 498.7) scale(1.5) translate(-440.7 -498.7)" opacity="0.95"><circle cx="440.7" cy="484.7" r="33.4" fill="#e8451f" opacity="0.28"/><circle cx="440.7" cy="484.7" r="20.9" fill="#ff7a2e" opacity="0.32"/><path d="M442.3 498.7 q-9.3 -23.1 0 -46.3 q6.3 23.2 0 46.3 z" fill="#ff7a2e" opacity="0.9"/><path d="M434.1 498.7 q-6.2 -16.4 0 -32.9 q9.8 16.5 0 32.9 z" fill="#e8451f" opacity="0.9"/><path d="M440.7 494.7 q-3 -12.7 0 -24.5 q3 10.1 0 26.9 z" fill="#ffe6a3" opacity="0.85"/></g>
  <g transform="translate(445.2 716.1) scale(1.5) translate(-445.2 -716.1)" opacity="0.95"><g fill="#3a2723"><rect x="442.2" y="596.1" width="6" height="120"/><rect x="425.2" y="600.1" width="40" height="4"/></g><path d="M427.2 604.1 q30 22 46 20" stroke="#3a2723" stroke-width="2" fill="none" opacity="0.7"/></g>
</svg>
