<svg xmlns="http://www.w3.org/2000/svg" width="540" height="960" viewBox="0 0 540 960">
  <g transform="translate(89.5 275.7) scale(1.5) translate(-89.5 -275.7)" opacity="0.95"><rect x="86.5" y="249.7" width="6" height="26" fill="#a5707f"/><circle cx="89.5" cy="236" r="19.6" fill="#a5707f" opacity="0.9"/></g>
  <g transform="translate(104.5 501.2) scale(1.5) translate(-104.5 -501.2)" opacity="0.95"><rect x="98.5" y="467.2" width="12" height="34" rx="5" fill="#e2e8f0" opacity="0.7"/><rect x="101.5" y="475.2" width="6" height="8" fill="#a5707f"/></g>
  <g transform="translate(102.4 772.4) scale(1.5) translate(-102.4 -772.4)" opacity="0.95"><g fill="#a5707f"><rect x="99.4" y="652.4" width="6" height="120"/><rect x="82.4" y="656.4" width="40" height="4"/></g><path d="M84.4 660.4 q-30 22 -46 20" stroke="#a5707f" stroke-width="2" fill="none" opacity="0.7"/></g>
  <g transform="translate(447.6 254.4) scale(1.5) translate(-447.6 -254.4)" opacity="0.95"><rect x="444.6" y="228.4" width="6" height="26" fill="#a5707f"/><circle cx="447.6" cy="210.6" r="25.4" fill="#a5707f" opacity="0.9"/></g>
  <g transform="translate(451.3 484.9) scale(1.5) translate(-451.3 -484.9)" opacity="0.95"><rect x="445.3" y="450.9" width="12" height="34" rx="5" fill="#e2e8f0" opacity="0.7"/><rect x="448.3" y="458.9" width="6" height="8" fill="#a5707f"/></g>
  <g transform="translate(447.5 714.8) scale(1.5) translate(-447.5 -714.8)" opacity="0.95"><g fill="#a5707f"><rect x="444.5" y="594.8" width="6" height="120"/><rect x="427.5" y="598.8" width="40" height="4"/></g><path d="M429.5 602.8 q30 22 46 20" stroke="#a5707f" stroke-width="2" fill="none" opacity="0.7"/></g>
</svg>
