<svg xmlns="http://www.w3.org/2000/svg" width="540" height="960" viewBox="0 0 540 960" preserveAspectRatio="none">
  <defs>
    <linearGradient id="sky" x1="0" y1="0" x2="0" y2="1">
      <stop offset="0" stop-color="#5fa9e4"/>
      <stop offset="0.55" stop-color="#a9d3ef"/>
      <stop offset="1" stop-color="#ffe3a3"/>
    </linearGradient>
    <linearGradient id="horizon" x1="0" y1="0" x2="0" y2="1">
      <stop offset="0" stop-color="#ffd166" stop-opacity="0"/>
      <stop offset="1" stop-color="#ffd166" stop-opacity="0.45"/>
    </linearGradient>
  </defs>
  <rect width="540" height="960" fill="url(#sky)"/>
  <rect y="480" width="540" height="480" fill="url(#horizon)"/>
  <circle cx="270" cy="680" r="114.4" fill="#ffd766" opacity="0.25"/><circle cx="270" cy="680" r="75.4" fill="#ffd766" opacity="0.4"/><circle cx="270" cy="680" r="52" fill="#fff1b8"/><g fill="#fff6e0" opacity="0.6"><ellipse cx="459.9" cy="241" rx="93.5" ry="16"/><ellipse cx="417.8" cy="248.2" rx="51.4" ry="12.8"/><ellipse cx="497.3" cy="246.6" rx="56.1" ry="13.6"/></g><g fill="#fff6e0" opacity="0.7"><ellipse cx="163" cy="150.7" rx="108.6" ry="16"/><ellipse cx="114.1" cy="157.9" rx="59.7" ry="12.8"/><ellipse cx="206.4" cy="156.3" rx="65.2" ry="13.6"/></g><g fill="#fff6e0" opacity="0.8"><ellipse cx="424.8" cy="171.6" rx="62.6" ry="16.2"/><ellipse cx="396.6" cy="178.9" rx="34.4" ry="13"/><ellipse cx="449.8" cy="177.3" rx="37.6" ry="13.8"/></g><g fill="#fff6e0" opacity="0.7"><ellipse cx="344.6" cy="400.1" rx="88.6" ry="14.9"/><ellipse cx="304.7" cy="406.8" rx="48.7" ry="11.9"/><ellipse cx="380" cy="405.3" rx="53.2" ry="12.7"/></g>
</svg>
