<svg xmlns="http://www.w3.org/2000/svg" width="540" height="960" viewBox="0 0 540 960" preserveAspectRatio="none">
  <defs>
    <linearGradient id="ground" x1="0" y1="0" x2="0" y2="1">
      <stop offset="0" stop-color="#241416"/>
      <stop offset="0.55" stop-color="#3a1c1a"/>
      <stop offset="1" stop-color="#552420"/>
    </linearGradient>
    <linearGradient id="glowL" x1="0" y1="0" x2="1" y2="0">
      <stop offset="0" stop-color="#e8451f" stop-opacity="0.42"/>
      <stop offset="1" stop-color="#e8451f" stop-opacity="0"/>
    </linearGradient>
    <linearGradient id="glowR" x1="1" y1="0" x2="0" y2="0">
      <stop offset="0" stop-color="#e8451f" stop-opacity="0.42"/>
      <stop offset="1" stop-color="#e8451f" stop-opacity="0"/>
    </linearGradient>
  </defs>
  <rect width="540" height="960" fill="url(#ground)"/>
  <rect x="0" y="0" width="226.8" height="960" fill="url(#glowL)"/><rect x="313.2" y="0" width="226.8" height="960" fill="url(#glowR)"/><circle cx="492.9" cy="277.6" r="5.2" fill="#ff7a2e" opacity="0.1"/><circle cx="36.6" cy="256.6" r="2.6" fill="#ff7a2e" opacity="0.2"/><circle cx="109.1" cy="163" r="6.2" fill="#ff7a2e" opacity="0.1"/><circle cx="68.4" cy="207.4" r="5" fill="#ff7a2e" opacity="0.1"/><circle cx="310.5" cy="537.8" r="2.4" fill="#ff7a2e" opacity="0.1"/><circle cx="150.5" cy="774.1" r="6.6" fill="#ff7a2e" opacity="0.2"/><circle cx="221.5" cy="497.1" r="2.3" fill="#ff7a2e" opacity="0.1"/><circle cx="193" cy="793.7" r="4.9" fill="#ff7a2e" opacity="0.1"/><circle cx="377.1" cy="733.6" r="2" fill="#ff7a2e" opacity="0.1"/><circle cx="141.8" cy="280.7" r="3.3" fill="#ff7a2e" opacity="0.1"/><circle cx="83.9" cy="825.6" r="5.6" fill="#ff7a2e" opacity="0.2"/><circle cx="483.1" cy="746.4" r="4.8" fill="#ff7a2e" opacity="0.1"/><circle cx="384.6" cy="62" r="6.8" fill="#ff7a2e" opacity="0.1"/><circle cx="11.4" cy="606" r="2.3" fill="#ff7a2e" opacity="0.1"/><circle cx="294.9" cy="594" r="5" fill="#ff7a2e" opacity="0.1"/><circle cx="30.8" cy="250.8" r="2.6" fill="#ff7a2e" opacity="0.1"/><ellipse cx="270" cy="219.4" rx="378" ry="63" fill="#241416" opacity="0.25"/><ellipse cx="270" cy="456.8" rx="378" ry="68.7" fill="#241416" opacity="0.25"/><ellipse cx="270" cy="689.1" rx="378" ry="46.8" fill="#241416" opacity="0.25"/>
</svg>
