<svg xmlns="http://www.w3.org/2000/svg" width="540" height="960" viewBox="0 0 540 960">
  <polygon points="-113.2,206 13.1,61.6 139.4,206" fill="#2f201d" opacity="0.8"/>
  <rect x="20.6" y="433.9" width="6" height="57.5" fill="#1a1512"/><g stroke="#1a1512" stroke-width="3" fill="none" stroke-linecap="round"><path d="M23.6 441.9 l-16 -10 l-6 -14"/><path d="M23.6 451.9 l18 -8 l4 -16"/><path d="M23.6 433.9 l-8 -16"/></g><circle cx="17.6" cy="487.4" r="4" fill="#ff7a2e" opacity="0.4"/>
  <circle cx="11.5" cy="671.1" r="16.2" fill="#0e0c0c" opacity="0.2"/><circle cx="13" cy="647.2" r="29.7" fill="#0e0c0c" opacity="0.2"/><circle cx="27.9" cy="620" r="32" fill="#0e0c0c" opacity="0.2"/>
  <polygon points="408.2,209.7 522.7,62.1 637.2,209.7" fill="#2f201d" opacity="0.8"/>
  <rect x="520.8" y="435.7" width="6" height="56.6" fill="#1a1512"/><g stroke="#1a1512" stroke-width="3" fill="none" stroke-linecap="round"><path d="M523.8 443.7 l-16 -10 l-6 -14"/><path d="M523.8 453.7 l18 -8 l4 -16"/><path d="M523.8 435.7 l-8 -16"/></g><circle cx="517.8" cy="488.3" r="4" fill="#ff7a2e" opacity="0.4"/>
  <circle cx="521.8" cy="702.4" r="22.2" fill="#0e0c0c" opacity="0.2"/><circle cx="513.8" cy="669.7" r="28.8" fill="#0e0c0c" opacity="0.2"/><circle cx="527.1" cy="639.6" r="33.4" fill="#0e0c0c" opacity="0.2"/><circle cx="529.2" cy="612.2" r="47.5" fill="#0e0c0c" opacity="0.2"/>
</svg>
