<svg xmlns="http://www.w3.org/2000/svg" width="540" height="960" viewBox="0 0 540 960">
  <!-- causeway slab: continuous full-height, uniform -> wraps seamlessly -->
  <rect x="50" y="0" width="440" height="960" fill="#221a22"/>
  <rect x="50" y="0" width="6" height="960" fill="#443040"/>
  <rect x="484" y="0" width="6" height="960" fill="#443040"/>
  <!-- center road (the marching lane stays clear of props) -->
  <rect x="170" y="0" width="200" height="960" fill="#2b2029"/>
  <rect x="170" y="0" width="6" height="960" fill="#4a3345"/>
  <rect x="364" y="0" width="6" height="960" fill="#4a3345"/>
  <g fill="#fcd34d" opacity="0.12">
    <rect x="266" y="40" width="8" height="40"/>
    <rect x="266" y="160" width="8" height="40"/>
    <rect x="266" y="280" width="8" height="40"/>
    <rect x="266" y="400" width="8" height="40"/>
    <rect x="266" y="520" width="8" height="40"/>
    <rect x="266" y="640" width="8" height="40"/>
    <rect x="266" y="760" width="8" height="40"/>
    <rect x="266" y="880" width="8" height="40"/>
  </g>
  <rect x="156" y="0" width="4" height="960" fill="#e2e8f0" opacity="0.2"/><rect x="380" y="0" width="4" height="960" fill="#e2e8f0" opacity="0.2"/><circle cx="471.4" cy="391" r="7.8" fill="#443040" opacity="0.8"/><circle cx="469.5" cy="873" r="4.8" fill="#443040" opacity="0.8"/><circle cx="452.6" cy="178.2" r="5.2" fill="#443040" opacity="0.8"/><circle cx="473.1" cy="376.2" r="8.5" fill="#443040" opacity="0.8"/><circle cx="474.6" cy="356.4" r="8.8" fill="#443040" opacity="0.8"/><circle cx="477.8" cy="254.6" r="4.6" fill="#443040" opacity="0.8"/><circle cx="62.6" cy="174.9" r="6.1" fill="#443040" opacity="0.8"/><circle cx="453.5" cy="276.1" r="5" fill="#443040" opacity="0.8"/><circle cx="475.7" cy="59.2" r="5.4" fill="#443040" opacity="0.8"/><circle cx="86.7" cy="858.1" r="7.7" fill="#443040" opacity="0.8"/><circle cx="91.5" cy="242.9" r="7.3" fill="#443040" opacity="0.8"/><circle cx="453.1" cy="759.2" r="5.2" fill="#443040" opacity="0.8"/><circle cx="55.1" cy="159.7" r="9" fill="#443040" opacity="0.8"/><circle cx="58.2" cy="845.6" r="8.4" fill="#443040" opacity="0.8"/>
  <g fill="#443040"><rect x="101.2" y="9.7" width="6" height="120"/><rect x="84.2" y="13.7" width="40" height="4"/></g><path d="M86.2 17.7 q-30 22 -46 20" stroke="#443040" stroke-width="2" fill="none" opacity="0.7"/>
  <rect x="107.8" y="280.2" width="12" height="34" rx="5" fill="#e2e8f0" opacity="0.7"/><rect x="110.8" y="288.2" width="6" height="8" fill="#443040"/>
  <rect x="110.3" y="463.1" width="6" height="26" fill="#443040"/><circle cx="113.3" cy="448.6" r="20.7" fill="#443040" opacity="0.9"/>
  <g fill="#443040"><rect x="106.4" y="533.2" width="6" height="120"/><rect x="89.4" y="537.2" width="40" height="4"/></g><path d="M91.4 541.2 q-30 22 -46 20" stroke="#443040" stroke-width="2" fill="none" opacity="0.7"/>
  <rect x="95.6" y="810.3" width="6" height="26" fill="#443040"/><circle cx="98.6" cy="792.9" r="24.9" fill="#443040" opacity="0.9"/>
  <g fill="#443040"><rect x="418" y="57.8" width="6" height="120"/><rect x="401" y="61.8" width="40" height="4"/></g><path d="M403 65.8 q30 22 46 20" stroke="#443040" stroke-width="2" fill="none" opacity="0.7"/>
  <rect x="429.2" y="303.5" width="12" height="34" rx="5" fill="#e2e8f0" opacity="0.7"/><rect x="432.2" y="311.5" width="6" height="8" fill="#443040"/>
  <rect x="435.4" y="462.5" width="6" height="26" fill="#443040"/><circle cx="438.4" cy="448.6" r="19.8" fill="#443040" opacity="0.9"/>
  <g fill="#443040"><rect x="422.6" y="538.4" width="6" height="120"/><rect x="405.6" y="542.4" width="40" height="4"/></g><path d="M407.6 546.4 q30 22 46 20" stroke="#443040" stroke-width="2" fill="none" opacity="0.7"/>
  <rect x="428.1" y="786.2" width="6" height="26" fill="#443040"/><circle cx="431.1" cy="772.7" r="19.3" fill="#443040" opacity="0.9"/>
</svg>
