<svg xmlns="http://www.w3.org/2000/svg" width="540" height="960" viewBox="0 0 540 960">
  <!-- causeway slab: continuous full-height, uniform -> wraps seamlessly -->
  <rect x="50" y="0" width="440" height="960" fill="#48332f"/>
  <rect x="50" y="0" width="6" height="960" fill="#3a2723"/>
  <rect x="484" y="0" width="6" height="960" fill="#3a2723"/>
  <!-- center road (the marching lane stays clear of props) -->
  <rect x="170" y="0" width="200" height="960" fill="#3f2b28"/>
  <rect x="170" y="0" width="6" height="960" fill="#2a1c1a"/>
  <rect x="364" y="0" width="6" height="960" fill="#2a1c1a"/>
  <g fill="#c88a5a" opacity="0.3">
    <rect x="266" y="40" width="8" height="34.2"/>
    <rect x="266" y="160" width="8" height="36"/>
    <rect x="266" y="280" width="8" height="33.4"/>
    <rect x="266" y="400" width="8" height="26.7"/>
    <rect x="266" y="520" width="8" height="26.6"/>
    <rect x="266" y="880" width="8" height="34.9"/>
  </g>
  <rect x="156" y="0" width="4" height="960" fill="#c88a5a" opacity="0.15"/><rect x="380" y="0" width="4" height="960" fill="#c88a5a" opacity="0.15"/><circle cx="89.9" cy="844.9" r="6.6" fill="#0d0a09" opacity="0.7"/><circle cx="92.7" cy="680.6" r="7" fill="#0d0a09" opacity="0.7"/><circle cx="58.9" cy="340.3" r="4.1" fill="#0d0a09" opacity="0.7"/><circle cx="70.5" cy="613.8" r="3.9" fill="#0d0a09" opacity="0.7"/><circle cx="61.7" cy="818.9" r="6.7" fill="#0d0a09" opacity="0.7"/><circle cx="65.3" cy="347.3" r="7.1" fill="#0d0a09" opacity="0.7"/><circle cx="476" cy="183.4" r="7.7" fill="#0d0a09" opacity="0.7"/><circle cx="80.6" cy="776.5" r="3.9" fill="#0d0a09" opacity="0.7"/><circle cx="455.9" cy="404.8" r="3.1" fill="#0d0a09" opacity="0.7"/><circle cx="93.8" cy="127.9" r="3.5" fill="#0d0a09" opacity="0.7"/><circle cx="480.8" cy="160.6" r="5.4" fill="#0d0a09" opacity="0.7"/><circle cx="472.2" cy="886" r="4.3" fill="#0d0a09" opacity="0.7"/><circle cx="471.5" cy="281.8" r="5.4" fill="#0d0a09" opacity="0.7"/><circle cx="81.7" cy="849.8" r="7.3" fill="#0d0a09" opacity="0.7"/><ellipse cx="328.5" cy="681.2" rx="34.8" ry="11.5" fill="#0d0a09" opacity="0.3"/><ellipse cx="414.8" cy="213.9" rx="28.3" ry="16.5" fill="#0d0a09" opacity="0.2"/><ellipse cx="72.6" cy="503.4" rx="21.6" ry="10.2" fill="#0d0a09" opacity="0.3"/><ellipse cx="244.7" cy="818.9" rx="40.5" ry="17.1" fill="#0d0a09" opacity="0.3"/><ellipse cx="429.4" cy="629.6" rx="35.4" ry="17.8" fill="#0d0a09" opacity="0.3"/><ellipse cx="358" cy="778.4" rx="32.6" ry="14.7" fill="#0d0a09" opacity="0.3"/><g stroke="#0d0a09" stroke-width="2" fill="none" opacity="0.5"><path d="M221.9 247 L235.2 290.1 L253.3 312 L259.5 333.2 L247.6 355.9 L256.5 390"/><path d="M217 96.4 L199.2 133.6 L194.2 166.3 L191.8 195.1 L192 226.4 L207.9 247.4"/><path d="M360.6 755.6 L379 790.8 L361.9 811.3 L378.8 847.7"/><path d="M132.4 363.3 L158.2 383.5 L165.2 403 L146.8 433.1"/><path d="M261.1 528.2 L282.9 571.3 L263.9 607.5 L253.5 641.3 L276.7 664.2 L280.1 684.9"/><path d="M389.7 804.9 L405.2 842.2 L424.5 871.3 L427.8 899.1 L436.5 923.1 L426.5 960.4"/><path d="M401.4 630.2 L408 651 L402.7 677.9 L407.5 718.4 L399.7 755.8"/></g>
  <rect x="55.2" y="105.1" width="8.8" height="5.4" transform="rotate(59.8 55.2 105.1)" fill="#2a1c1a" opacity="0.8"/>
  <rect x="41.8" y="637.8" width="8" height="6.3" transform="rotate(44.8 41.8 637.8)" fill="#2a1c1a" opacity="0.8"/>
  <rect x="40.1" y="69.6" width="7.5" height="9.8" transform="rotate(28.5 40.1 69.6)" fill="#2a1c1a" opacity="0.8"/>
  <rect x="65" y="855.9" width="7.1" height="6.8" transform="rotate(32 65 855.9)" fill="#2a1c1a" opacity="0.8"/>
  <rect x="39.6" y="147" width="6" height="6.4" transform="rotate(30.2 39.6 147)" fill="#2a1c1a" opacity="0.8"/>
  <rect x="66.7" y="231.2" width="7" height="4.5" transform="rotate(82.8 66.7 231.2)" fill="#2a1c1a" opacity="0.8"/>
  <rect x="485.8" y="854.9" width="11.7" height="9" transform="rotate(41.6 485.8 854.9)" fill="#2a1c1a" opacity="0.8"/>
  <rect x="485.7" y="566.2" width="8.3" height="5.9" transform="rotate(54 485.7 566.2)" fill="#2a1c1a" opacity="0.8"/>
  <rect x="499" y="816.8" width="7.8" height="7.2" transform="rotate(79.5 499 816.8)" fill="#2a1c1a" opacity="0.8"/>
  <rect x="473.9" y="842.3" width="10.7" height="4.7" transform="rotate(60.7 473.9 842.3)" fill="#2a1c1a" opacity="0.8"/>
  <rect x="495.2" y="470" width="10.1" height="7.2" transform="rotate(47.7 495.2 470)" fill="#2a1c1a" opacity="0.8"/>
  <rect x="493" y="815.7" width="5.4" height="7.5" transform="rotate(36.2 493 815.7)" fill="#2a1c1a" opacity="0.8"/>
  <g fill="#3a2723"><rect x="118.6" y="57.8" width="6" height="120"/><rect x="101.6" y="61.8" width="40" height="4"/></g><path d="M103.6 65.8 q-30 22 -46 20" stroke="#3a2723" stroke-width="2" fill="none" opacity="0.7"/>
  <ellipse cx="109.4" cy="344.7" rx="45.8" ry="14.9" fill="#0d0a09" opacity="0.55"/><ellipse cx="109.4" cy="344.7" rx="27.5" ry="8.9" fill="#e8451f" opacity="0.18"/><ellipse cx="109.4" cy="344.7" rx="45.8" ry="14.9" fill="none" stroke="#2a1c1a" stroke-width="3" opacity="0.6"/>
  <rect x="116.9" y="395" width="6" height="75.1" fill="#1a1512"/><g stroke="#1a1512" stroke-width="3" fill="none" stroke-linecap="round"><path d="M119.9 403 l-16 -10 l-6 -14"/><path d="M119.9 413 l18 -8 l4 -16"/><path d="M119.9 395 l-8 -16"/></g><circle cx="113.9" cy="466.1" r="4" fill="#ff7a2e" opacity="0.4"/>
  <circle cx="114.7" cy="646.4" r="42.9" fill="#e8451f" opacity="0.28"/><circle cx="114.7" cy="646.4" r="22.9" fill="#ff7a2e" opacity="0.32"/><path d="M109.7 660.4 q-6.1 -18.3 0 -36.6 q9.3 18.3 0 36.6 z" fill="#ff7a2e" opacity="0.9"/><path d="M106.5 660.4 q-7.6 -22.6 0 -45.2 q7.5 22.6 0 45.2 z" fill="#f2401c" opacity="0.9"/><path d="M104.1 660.4 q-7.6 -17.7 0 -35.4 q6.3 17.7 0 35.4 z" fill="#f2401c" opacity="0.9"/><path d="M114.7 656.4 q-3 -14.6 0 -26.6 q3 15.4 0 27.9 z" fill="#ffe6a3" opacity="0.85"/>
  <rect x="87.8" y="817.6" width="8.6" height="7.5" transform="rotate(53.3 87.8 817.6)" fill="#2a1c1a" opacity="0.9"/><rect x="92.3" y="822.6" width="5.6" height="4.7" transform="rotate(28.7 92.3 822.6)" fill="#2a1c1a" opacity="0.9"/><rect x="105" y="820.9" width="9.6" height="4.3" transform="rotate(82.5 105 820.9)" fill="#2a1c1a" opacity="0.9"/><rect x="86.5" y="821.9" width="10.2" height="6.4" transform="rotate(59.1 86.5 821.9)" fill="#2a1c1a" opacity="0.9"/><rect x="105.8" y="817.8" width="7.7" height="7.8" transform="rotate(47.7 105.8 817.8)" fill="#2a1c1a" opacity="0.9"/><rect x="107.8" y="826.8" width="5.8" height="6.8" transform="rotate(5.2 107.8 826.8)" fill="#2a1c1a" opacity="0.9"/><path d="M82.3 827.2 q10 -14 22 -6 q8 6 18 -4" stroke="#3a2723" stroke-width="2" fill="none" opacity="0.7"/>
  <g fill="#3a2723"><rect x="430.4" y="61.3" width="6" height="120"/><rect x="413.4" y="65.3" width="40" height="4"/></g><path d="M415.4 69.3 q30 22 46 20" stroke="#3a2723" stroke-width="2" fill="none" opacity="0.7"/>
  <ellipse cx="439.6" cy="293.3" rx="42.7" ry="16.2" fill="#0d0a09" opacity="0.55"/><ellipse cx="439.6" cy="293.3" rx="25.6" ry="9.7" fill="#e8451f" opacity="0.18"/><ellipse cx="439.6" cy="293.3" rx="42.7" ry="16.2" fill="none" stroke="#2a1c1a" stroke-width="3" opacity="0.6"/>
  <rect x="421.3" y="411.3" width="6" height="79.3" fill="#1a1512"/><g stroke="#1a1512" stroke-width="3" fill="none" stroke-linecap="round"><path d="M424.3 419.3 l-16 -10 l-6 -14"/><path d="M424.3 429.3 l18 -8 l4 -16"/><path d="M424.3 411.3 l-8 -16"/></g><circle cx="418.3" cy="486.6" r="4" fill="#ff7a2e" opacity="0.4"/>
  <circle cx="433.9" cy="649.7" r="38.1" fill="#e8451f" opacity="0.28"/><circle cx="433.9" cy="649.7" r="18.8" fill="#ff7a2e" opacity="0.32"/><path d="M422.1 663.7 q-9 -20.6 0 -41.3 q9.2 20.7 0 41.3 z" fill="#ff7a2e" opacity="0.9"/><path d="M429.3 663.7 q-9.8 -22.1 0 -44.2 q6.3 22.1 0 44.2 z" fill="#e8451f" opacity="0.9"/><path d="M424.7 663.7 q-9.3 -22.2 0 -44.5 q6.1 22.3 0 44.5 z" fill="#e8451f" opacity="0.9"/><path d="M433.9 659.7 q-3 -14.5 0 -27.6 q3 12.2 0 21.8 z" fill="#ffe6a3" opacity="0.85"/>
  <rect x="403" y="823.5" width="6.4" height="5.5" transform="rotate(0.3 403 823.5)" fill="#2a1c1a" opacity="0.9"/><rect x="457.6" y="818.4" width="7.2" height="7.6" transform="rotate(24.5 457.6 818.4)" fill="#2a1c1a" opacity="0.9"/><rect x="404.9" y="823.9" width="8.5" height="5.3" transform="rotate(31.7 404.9 823.9)" fill="#2a1c1a" opacity="0.9"/><rect x="453.5" y="818.9" width="10" height="7.9" transform="rotate(12.2 453.5 818.9)" fill="#2a1c1a" opacity="0.9"/><rect x="445.5" y="819.7" width="6.1" height="7.9" transform="rotate(45.2 445.5 819.7)" fill="#2a1c1a" opacity="0.9"/><rect x="414.7" y="814.6" width="9.8" height="7.5" transform="rotate(38.4 414.7 814.6)" fill="#2a1c1a" opacity="0.9"/><path d="M412.3 824.5 q10 -14 22 -6 q8 6 18 -4" stroke="#3a2723" stroke-width="2" fill="none" opacity="0.7"/>
</svg>
