<svg xmlns="http://www.w3.org/2000/svg" width="540" height="960" viewBox="0 0 540 960">
  <g transform="translate(83.9 299.5) scale(1.5) translate(-83.9 -299.5)" opacity="0.95"><path d="M83.9 299.5 q6 -36.2 2 -72.4" stroke="#443040" stroke-width="7" fill="none"/><g stroke="#443040" stroke-width="5" fill="none" stroke-linecap="round"><path d="M85.9 227.1 q-26 -6 -38 8"/><path d="M85.9 227.1 q26 -6 38 8"/><path d="M85.9 227.1 q-16 -16 -30 -12"/><path d="M85.9 227.1 q16 -16 30 -12"/></g></g>
  <g transform="translate(85 471.7) scale(1.5) translate(-85 -471.7)" opacity="0.95"><rect x="69" y="451.7" width="32" height="20" rx="4" fill="#443040"/><circle cx="78" cy="445.7" r="10" fill="#443040" opacity="0.85"/><circle cx="93" cy="443.7" r="12" fill="#443040" opacity="0.85"/></g>
  <g transform="translate(102.6 746.1) scale(1.5) translate(-102.6 -746.1)" opacity="0.95"><rect x="100.1" y="668.1" width="5" height="78" fill="#443040"/><circle cx="102.6" cy="666.1" r="6" fill="#fbbf24" opacity="0.9"/><circle cx="102.6" cy="666.1" r="16" fill="#fbbf24" opacity="0.12"/></g>
  <g transform="translate(433.2 261.1) scale(1.5) translate(-433.2 -261.1)" opacity="0.95"><path d="M433.2 261.1 q6 -49.3 2 -98.6" stroke="#443040" stroke-width="7" fill="none"/><g stroke="#443040" stroke-width="5" fill="none" stroke-linecap="round"><path d="M435.2 162.5 q-26 -6 -38 8"/><path d="M435.2 162.5 q26 -6 38 8"/><path d="M435.2 162.5 q-16 -16 -30 -12"/><path d="M435.2 162.5 q16 -16 30 -12"/></g></g>
  <g transform="translate(442.9 508.9) scale(1.5) translate(-442.9 -508.9)" opacity="0.95"><rect x="426.9" y="488.9" width="32" height="20" rx="4" fill="#443040"/><circle cx="435.9" cy="482.9" r="10" fill="#443040" opacity="0.85"/><circle cx="450.9" cy="480.9" r="12" fill="#443040" opacity="0.85"/></g>
  <g transform="translate(436.6 661.3) scale(1.5) translate(-436.6 -661.3)" opacity="0.95"><rect x="434.1" y="583.3" width="5" height="78" fill="#443040"/><circle cx="436.6" cy="581.3" r="6" fill="#fbbf24" opacity="0.9"/><circle cx="436.6" cy="581.3" r="16" fill="#fbbf24" opacity="0.12"/></g>
</svg>
