<svg xmlns="http://www.w3.org/2000/svg" width="540" height="960" viewBox="0 0 540 960">
  <g transform="translate(83.9 299.5) scale(1.5) translate(-83.9 -299.5)" opacity="0.95"><path d="M83.9 299.5 q8 -33 3 -66.1" stroke="#1a1512" stroke-width="7" fill="none"/><g stroke="#1a1512" stroke-width="4" fill="none" stroke-linecap="round" opacity="0.9"><path d="M86.9 233.4 q-22 4 -34 22"/><path d="M86.9 233.4 q24 6 34 24"/><path d="M86.9 233.4 q-14 -6 -26 2"/></g><circle cx="83.9" cy="295.5" r="4" fill="#ff7a2e" opacity="0.4"/></g>
  <g transform="translate(85 471.7) scale(1.5) translate(-85 -471.7)" opacity="0.95"><circle cx="85" cy="457.7" r="43.3" fill="#e8451f" opacity="0.28"/><circle cx="85" cy="457.7" r="21.4" fill="#ff7a2e" opacity="0.32"/><path d="M73.3 471.7 q-9.8 -13.4 0 -26.8 q7.4 13.4 0 26.8 z" fill="#ff7a2e" opacity="0.9"/><path d="M76.5 471.7 q-7.4 -15.1 0 -30.3 q6.6 15.2 0 30.3 z" fill="#e8451f" opacity="0.9"/><path d="M88.1 471.7 q-6.1 -14.1 0 -28.2 q9.2 14.1 0 28.2 z" fill="#e8451f" opacity="0.9"/><path d="M85 467.7 q-3 -15 0 -26.9 q3 14.6 0 24.3 z" fill="#ffe6a3" opacity="0.85"/></g>
  <g transform="translate(84.4 746.1) scale(1.5) translate(-84.4 -746.1)" opacity="0.95"><ellipse cx="84.4" cy="746.1" rx="44.5" ry="12" fill="#2f201d"/><rect x="89.2" y="743.1" width="8.7" height="6.1" transform="rotate(-7.6 89.2 743.1)" fill="#2a1c1a"/><rect x="95.1" y="732.7" width="14.3" height="15.1" transform="rotate(-21.5 95.1 732.7)" fill="#2a1c1a"/><rect x="57.8" y="723.6" width="13.8" height="8.4" transform="rotate(9.2 57.8 723.6)" fill="#2a1c1a"/><rect x="102.2" y="724.1" width="13.2" height="12.8" transform="rotate(-37.5 102.2 724.1)" fill="#3a2723"/><rect x="117.3" y="735.5" width="15.9" height="9.7" transform="rotate(-19.8 117.3 735.5)" fill="#2a1c1a"/><rect x="54" y="741.7" width="17.6" height="11.8" transform="rotate(-4.6 54 741.7)" fill="#2a1c1a"/><rect x="85.3" y="725.7" width="15.5" height="17.1" transform="rotate(12.3 85.3 725.7)" fill="#2a1c1a"/><rect x="117.4" y="741.8" width="15.7" height="10.5" transform="rotate(-28.2 117.4 741.8)" fill="#3a2723"/></g>
  <g transform="translate(440.5 202.4) scale(1.5) translate(-440.5 -202.4)" opacity="0.95"><path d="M440.5 202.4 q8 -38.4 3 -76.9" stroke="#1a1512" stroke-width="7" fill="none"/><g stroke="#1a1512" stroke-width="4" fill="none" stroke-linecap="round" opacity="0.9"><path d="M443.5 125.5 q-22 4 -34 22"/><path d="M443.5 125.5 q24 6 34 24"/><path d="M443.5 125.5 q-14 -6 -26 2"/></g><circle cx="440.5" cy="198.4" r="4" fill="#ff7a2e" opacity="0.4"/></g>
  <g transform="translate(443 429) scale(1.5) translate(-443 -429)" opacity="0.95"><circle cx="443" cy="415" r="39.9" fill="#e8451f" opacity="0.28"/><circle cx="443" cy="415" r="19.5" fill="#ff7a2e" opacity="0.32"/><path d="M452.6 429 q-8.8 -14.2 0 -28.4 q6.4 14.2 0 28.4 z" fill="#ff7a2e" opacity="0.9"/><path d="M448.1 429 q-9.6 -21.4 0 -42.8 q6.2 21.4 0 42.8 z" fill="#e8451f" opacity="0.9"/><path d="M443 425 q-3 -11.3 0 -27.3 q3 15.6 0 26.2 z" fill="#ffe6a3" opacity="0.85"/></g>
  <g transform="translate(455.9 735.8) scale(1.5) translate(-455.9 -735.8)" opacity="0.95"><ellipse cx="455.9" cy="735.8" rx="42" ry="12" fill="#2f201d"/><rect x="469.2" y="713.4" width="11.5" height="13.3" transform="rotate(0.7 469.2 713.4)" fill="#2a1c1a"/><rect x="428.7" y="718.1" width="10.3" height="7" transform="rotate(-9 428.7 718.1)" fill="#2a1c1a"/><rect x="437.5" y="715.6" width="8.1" height="8.1" transform="rotate(-34.5 437.5 715.6)" fill="#3a2723"/><rect x="478.4" y="718.8" width="7.4" height="6.7" transform="rotate(-5.3 478.4 718.8)" fill="#2a1c1a"/><rect x="472.4" y="717.9" width="6.7" height="6.4" transform="rotate(13.7 472.4 717.9)" fill="#3a2723"/><rect x="426.5" y="712.6" width="12.8" height="9" transform="rotate(36.8 426.5 712.6)" fill="#2a1c1a"/></g>
</svg>
