<svg xmlns="http://www.w3.org/2000/svg" width="540" height="960" viewBox="0 0 540 960" preserveAspectRatio="none">
  <defs>
    <linearGradient id="sky" x1="0" y1="0" x2="0" y2="1">
      <stop offset="0" stop-color="#5fa9e4"/>
      <stop offset="0.55" stop-color="#a9d3ef"/>
      <stop offset="1" stop-color="#ffe3a3"/>
    </linearGradient>
    <linearGradient id="horizon" x1="0" y1="0" x2="0" y2="1">
      <stop offset="0" stop-color="#ffd166" stop-opacity="0"/>
      <stop offset="1" stop-color="#ffd166" stop-opacity="0.45"/>
    </linearGradient>
  </defs>
  <rect width="540" height="960" fill="url(#sky)"/>
  <rect y="480" width="540" height="480" fill="url(#horizon)"/>
  <circle cx="270" cy="680" r="114.4" fill="#ffd766" opacity="0.25"/><circle cx="270" cy="680" r="75.4" fill="#ffd766" opacity="0.4"/><circle cx="270" cy="680" r="52" fill="#fff1b8"/><g fill="#fff6e0" opacity="0.6"><ellipse cx="353" cy="211.3" rx="98.9" ry="23.9"/><ellipse cx="308.5" cy="222.1" rx="54.4" ry="19.1"/><ellipse cx="392.6" cy="219.7" rx="59.3" ry="20.3"/></g><g fill="#fff6e0" opacity="0.7"><ellipse cx="366.2" cy="277.5" rx="64.7" ry="16.1"/><ellipse cx="337.1" cy="284.7" rx="35.6" ry="12.9"/><ellipse cx="392.1" cy="283.1" rx="38.8" ry="13.7"/></g><g fill="#fff6e0" opacity="0.9"><ellipse cx="80.4" cy="221.2" rx="79.5" ry="21.4"/><ellipse cx="44.6" cy="230.8" rx="43.7" ry="17.1"/><ellipse cx="112.2" cy="228.7" rx="47.7" ry="18.2"/></g><g fill="#fff6e0" opacity="0.8"><ellipse cx="437.3" cy="330.1" rx="103" ry="23.1"/><ellipse cx="391" cy="340.5" rx="56.7" ry="18.5"/><ellipse cx="478.5" cy="338.2" rx="61.8" ry="19.6"/></g>
</svg>
