<svg xmlns="http://www.w3.org/2000/svg" width="540" height="960" viewBox="0 0 540 960" preserveAspectRatio="none">
  <defs>
    <linearGradient id="ground" x1="0" y1="0" x2="0" y2="1">
      <stop offset="0" stop-color="#241416"/>
      <stop offset="0.55" stop-color="#3a1c1a"/>
      <stop offset="1" stop-color="#552420"/>
    </linearGradient>
    <linearGradient id="glowL" x1="0" y1="0" x2="1" y2="0">
      <stop offset="0" stop-color="#e8451f" stop-opacity="0.42"/>
      <stop offset="1" stop-color="#e8451f" stop-opacity="0"/>
    </linearGradient>
    <linearGradient id="glowR" x1="1" y1="0" x2="0" y2="0">
      <stop offset="0" stop-color="#e8451f" stop-opacity="0.42"/>
      <stop offset="1" stop-color="#e8451f" stop-opacity="0"/>
    </linearGradient>
  </defs>
  <rect width="540" height="960" fill="url(#ground)"/>
  <rect x="0" y="0" width="226.8" height="960" fill="url(#glowL)"/><rect x="313.2" y="0" width="226.8" height="960" fill="url(#glowR)"/><circle cx="367.4" cy="226.4" r="5.7" fill="#ff7a2e" opacity="0.2"/><circle cx="47.1" cy="680.7" r="3.8" fill="#ff7a2e" opacity="0.1"/><circle cx="112.2" cy="180.1" r="2.4" fill="#ff7a2e" opacity="0.1"/><circle cx="220.6" cy="714.8" r="6.4" fill="#ff7a2e" opacity="0.2"/><circle cx="242.6" cy="768.7" r="6.5" fill="#ff7a2e" opacity="0.1"/><circle cx="286.8" cy="603.5" r="2" fill="#ff7a2e" opacity="0.1"/><circle cx="102.1" cy="686.4" r="3.9" fill="#ff7a2e" opacity="0.1"/><circle cx="310.2" cy="371.9" r="3.2" fill="#ff7a2e" opacity="0.1"/><circle cx="249.5" cy="927.3" r="2" fill="#ff7a2e" opacity="0.2"/><circle cx="148.3" cy="899.4" r="5.1" fill="#ff7a2e" opacity="0.1"/><circle cx="482.1" cy="926.5" r="3.6" fill="#ff7a2e" opacity="0.1"/><circle cx="410.4" cy="514.4" r="3.8" fill="#ff7a2e" opacity="0.1"/><circle cx="242.4" cy="381.9" r="2.5" fill="#ff7a2e" opacity="0.1"/><circle cx="397.5" cy="527.3" r="3.9" fill="#ff7a2e" opacity="0.1"/><circle cx="92.9" cy="872.4" r="3.6" fill="#ff7a2e" opacity="0.1"/><circle cx="357.4" cy="936.7" r="5.2" fill="#ff7a2e" opacity="0.1"/><ellipse cx="270" cy="175.8" rx="378" ry="40.5" fill="#241416" opacity="0.25"/><ellipse cx="270" cy="463.2" rx="378" ry="61.9" fill="#241416" opacity="0.25"/><ellipse cx="270" cy="722.5" rx="378" ry="51.6" fill="#241416" opacity="0.25"/>
</svg>
