<svg xmlns="http://www.w3.org/2000/svg" width="540" height="960" viewBox="0 0 540 960">
  <g fill="#8f6274"><rect x="-35.4" y="197.5" width="120" height="80"/><ellipse cx="24.6" cy="197.5" rx="34" ry="30"/><rect x="22.6" y="153.5" width="4" height="16"/></g><g fill="#fbbf24" opacity="0.2"><rect x="-19.4" y="227.5" width="10" height="24"/><rect x="58.6" y="227.5" width="10" height="24"/></g>
  <path d="M11.6 462.7 q6 -47.8 2 -95.7" stroke="#a5707f" stroke-width="7" fill="none"/><g stroke="#a5707f" stroke-width="5" fill="none" stroke-linecap="round"><path d="M13.6 367 q-26 -6 -38 8"/><path d="M13.6 367 q26 -6 38 8"/><path d="M13.6 367 q-16 -16 -30 -12"/><path d="M13.6 367 q16 -16 30 -12"/></g>
  <rect x="-19" y="411.2" width="67.8" height="264.1" fill="#8f6274"/><g fill="#fbbf24" opacity="0.22"><rect x="24.9" y="425.2" width="10" height="12"/><rect x="-9" y="459.2" width="10" height="12"/><rect x="24.9" y="459.2" width="10" height="12"/><rect x="-9" y="493.2" width="10" height="12"/><rect x="24.9" y="527.2" width="10" height="12"/><rect x="24.9" y="561.2" width="10" height="12"/><rect x="24.9" y="595.2" width="10" height="12"/><rect x="-9" y="629.2" width="10" height="12"/></g>
  <g fill="#8f6274"><rect x="471.9" y="179.4" width="120" height="80"/><ellipse cx="531.9" cy="179.4" rx="34" ry="30"/><rect x="529.9" y="135.4" width="4" height="16"/></g><g fill="#fbbf24" opacity="0.2"><rect x="487.9" y="209.4" width="10" height="24"/><rect x="565.9" y="209.4" width="10" height="24"/></g>
  <path d="M520.4 479 q6 -42.7 2 -85.5" stroke="#a5707f" stroke-width="7" fill="none"/><g stroke="#a5707f" stroke-width="5" fill="none" stroke-linecap="round"><path d="M522.4 393.5 q-26 -6 -38 8"/><path d="M522.4 393.5 q26 -6 38 8"/><path d="M522.4 393.5 q-16 -16 -30 -12"/><path d="M522.4 393.5 q16 -16 30 -12"/></g>
  <rect x="479.3" y="442.5" width="78.4" height="245.7" fill="#8f6274"/><g fill="#fbbf24" opacity="0.22"><rect x="528.5" y="456.5" width="10" height="12"/><rect x="528.5" y="490.5" width="10" height="12"/><rect x="528.5" y="524.5" width="10" height="12"/><rect x="489.3" y="558.5" width="10" height="12"/><rect x="528.5" y="558.5" width="10" height="12"/><rect x="489.3" y="592.5" width="10" height="12"/><rect x="528.5" y="626.5" width="10" height="12"/><rect x="528.5" y="660.5" width="10" height="12"/></g>
</svg>
