<svg xmlns="http://www.w3.org/2000/svg" width="540" height="960" viewBox="0 0 540 960">
  <g fill="#2f201d"><rect x="-35.4" y="197.5" width="120" height="80"/><path d="M-9.4 197.5 a34 30 0 0 1 68 0 z"/></g><path d="M-5.4 189.5 l10 -14 l6 16 l8 -10" stroke="#0d0a09" stroke-width="2.5" fill="none" opacity="0.6"/><g opacity="0.5"><rect x="-19.4" y="227.5" width="10" height="24" fill="#0d0a09"/><rect x="58.6" y="227.5" width="10" height="24" fill="#0d0a09"/><rect x="18.6" y="207.5" width="12" height="10" fill="#ff7a2e"/></g>
  <rect x="8.6" y="387" width="6" height="75.7" fill="#1a1512"/><g stroke="#1a1512" stroke-width="3" fill="none" stroke-linecap="round"><path d="M11.6 395 l-16 -10 l-6 -14"/><path d="M11.6 405 l18 -8 l4 -16"/><path d="M11.6 387 l-8 -16"/></g><circle cx="5.6" cy="458.7" r="4" fill="#ff7a2e" opacity="0.4"/>
  <polygon points="-19,675.3 -19,415.3 14.9,403.2 48.8,433.8 48.8,675.3" fill="#2f201d"/><rect x="-9" y="451.2" width="10" height="12" fill="#0d0a09" opacity="0.5"/><rect x="24.9" y="451.2" width="10" height="12" fill="#0d0a09" opacity="0.5"/><rect x="-9" y="485.2" width="10" height="12" fill="#0d0a09" opacity="0.5"/><rect x="24.9" y="519.2" width="10" height="12" fill="#0d0a09" opacity="0.5"/><rect x="24.9" y="553.2" width="10" height="12" fill="#ff7a2e" opacity="0.7"/><rect x="24.9" y="587.2" width="10" height="12" fill="#0d0a09" opacity="0.5"/><rect x="-9" y="621.2" width="10" height="12" fill="#0d0a09" opacity="0.5"/><rect x="-9" y="655.2" width="10" height="12" fill="#0d0a09" opacity="0.5"/><rect x="24.9" y="655.2" width="10" height="12" fill="#0d0a09" opacity="0.5"/><rect x="1.3" y="582.9" width="27.1" height="92.4" fill="#0d0a09" opacity="0.4"/>
  <g fill="#2f201d"><rect x="463.3" y="128.2" width="120" height="80"/><path d="M489.3 128.2 a34 30 0 0 1 68 0 z"/></g><path d="M493.3 120.2 l10 -14 l6 16 l8 -10" stroke="#0d0a09" stroke-width="2.5" fill="none" opacity="0.6"/><g opacity="0.5"><rect x="479.3" y="158.2" width="10" height="24" fill="#0d0a09"/><rect x="557.3" y="158.2" width="10" height="24" fill="#0d0a09"/><rect x="517.3" y="138.2" width="12" height="10" fill="#ff7a2e"/></g>
  <rect x="515.5" y="448.9" width="6" height="76.4" fill="#1a1512"/><g stroke="#1a1512" stroke-width="3" fill="none" stroke-linecap="round"><path d="M518.5 456.9 l-16 -10 l-6 -14"/><path d="M518.5 466.9 l18 -8 l4 -16"/><path d="M518.5 448.9 l-8 -16"/></g><circle cx="512.5" cy="521.3" r="4" fill="#ff7a2e" opacity="0.4"/>
  <polygon points="495.7,706.6 495.7,477.2 528.4,451.9 561.1,488.6 561.1,706.6" fill="#2f201d"/><rect x="538.4" y="499.9" width="10" height="12" fill="#ff7a2e" opacity="0.7"/><rect x="505.7" y="533.9" width="10" height="12" fill="#0d0a09" opacity="0.5"/><rect x="538.4" y="533.9" width="10" height="12" fill="#0d0a09" opacity="0.5"/><rect x="505.7" y="567.9" width="10" height="12" fill="#ff7a2e" opacity="0.7"/><rect x="538.4" y="601.9" width="10" height="12" fill="#0d0a09" opacity="0.5"/><rect x="538.4" y="635.9" width="10" height="12" fill="#0d0a09" opacity="0.5"/><rect x="505.7" y="669.9" width="10" height="12" fill="#ff7a2e" opacity="0.7"/><rect x="538.4" y="669.9" width="10" height="12" fill="#0d0a09" opacity="0.5"/><rect x="538.4" y="703.9" width="10" height="12" fill="#0d0a09" opacity="0.5"/><rect x="515.3" y="620.3" width="26.2" height="86.3" fill="#0d0a09" opacity="0.4"/>
</svg>
