<svg xmlns="http://www.w3.org/2000/svg" width="540" height="960" viewBox="0 0 540 960">
  <!-- causeway slab: continuous full-height, uniform -> wraps seamlessly -->
  <rect x="50" y="0" width="440" height="960" fill="#221a22"/>
  <rect x="50" y="0" width="6" height="960" fill="#443040"/>
  <rect x="484" y="0" width="6" height="960" fill="#443040"/>
  <!-- center road (the marching lane stays clear of props) -->
  <rect x="170" y="0" width="200" height="960" fill="#2b2029"/>
  <rect x="170" y="0" width="6" height="960" fill="#4a3345"/>
  <rect x="364" y="0" width="6" height="960" fill="#4a3345"/>
  <g fill="#fcd34d" opacity="0.12">
    <rect x="266" y="40" width="8" height="40"/>
    <rect x="266" y="160" width="8" height="40"/>
    <rect x="266" y="280" width="8" height="40"/>
    <rect x="266" y="400" width="8" height="40"/>
    <rect x="266" y="520" width="8" height="40"/>
    <rect x="266" y="640" width="8" height="40"/>
    <rect x="266" y="760" width="8" height="40"/>
    <rect x="266" y="880" width="8" height="40"/>
  </g>
  <rect x="50" y="160" width="120" height="2" fill="#4a3345" opacity="0.3"/><rect x="370" y="160" width="120" height="2" fill="#4a3345" opacity="0.3"/><rect x="50" y="320" width="120" height="2" fill="#4a3345" opacity="0.3"/><rect x="370" y="320" width="120" height="2" fill="#4a3345" opacity="0.3"/><rect x="50" y="480" width="120" height="2" fill="#4a3345" opacity="0.3"/><rect x="370" y="480" width="120" height="2" fill="#4a3345" opacity="0.3"/><rect x="50" y="640" width="120" height="2" fill="#4a3345" opacity="0.3"/><rect x="370" y="640" width="120" height="2" fill="#4a3345" opacity="0.3"/><rect x="50" y="800" width="120" height="2" fill="#4a3345" opacity="0.3"/><rect x="370" y="800" width="120" height="2" fill="#4a3345" opacity="0.3"/><rect x="182" y="452" width="14" height="56" fill="#fcd34d" opacity="0.15"/><rect x="205" y="452" width="14" height="56" fill="#fcd34d" opacity="0.15"/><rect x="228" y="452" width="14" height="56" fill="#fcd34d" opacity="0.15"/><rect x="251" y="452" width="14" height="56" fill="#fcd34d" opacity="0.15"/><rect x="274" y="452" width="14" height="56" fill="#fcd34d" opacity="0.15"/><rect x="297" y="452" width="14" height="56" fill="#fcd34d" opacity="0.15"/><rect x="320" y="452" width="14" height="56" fill="#fcd34d" opacity="0.15"/><rect x="343" y="452" width="14" height="56" fill="#fcd34d" opacity="0.15"/>
  <path d="M100.7 147.6 q6 -35 2 -70" stroke="#443040" stroke-width="7" fill="none"/><g stroke="#443040" stroke-width="5" fill="none" stroke-linecap="round"><path d="M102.7 77.6 q-26 -6 -38 8"/><path d="M102.7 77.6 q26 -6 38 8"/><path d="M102.7 77.6 q-16 -16 -30 -12"/><path d="M102.7 77.6 q16 -16 30 -12"/></g>
  <rect x="77.8" y="294.2" width="72" height="18" rx="9" fill="#443040" opacity="0.9"/>
  <rect x="119" y="402.4" width="5" height="78" fill="#443040"/><circle cx="121.5" cy="400.4" r="6" fill="#fbbf24" opacity="0.9"/><circle cx="121.5" cy="400.4" r="16" fill="#fbbf24" opacity="0.12"/>
  <path d="M104.6 645 q6 -36 2 -72" stroke="#443040" stroke-width="7" fill="none"/><g stroke="#443040" stroke-width="5" fill="none" stroke-linecap="round"><path d="M106.6 573 q-26 -6 -38 8"/><path d="M106.6 573 q26 -6 38 8"/><path d="M106.6 573 q-16 -16 -30 -12"/><path d="M106.6 573 q16 -16 30 -12"/></g>
  <rect x="112.7" y="701.7" width="4" height="110" fill="#443040"/><polygon points="116.7,701.7 148.7,709.7 116.7,717.7" fill="#f97316" opacity="0.8"/>
  <path d="M421.8 147.3 q6 -35.4 2 -70.9" stroke="#443040" stroke-width="7" fill="none"/><g stroke="#443040" stroke-width="5" fill="none" stroke-linecap="round"><path d="M423.8 76.4 q-26 -6 -38 8"/><path d="M423.8 76.4 q26 -6 38 8"/><path d="M423.8 76.4 q-16 -16 -30 -12"/><path d="M423.8 76.4 q16 -16 30 -12"/></g>
  <rect x="403.3" y="287.5" width="72" height="18" rx="9" fill="#443040" opacity="0.9"/>
  <rect x="422.1" y="406.2" width="5" height="78" fill="#443040"/><circle cx="424.6" cy="404.2" r="6" fill="#fbbf24" opacity="0.9"/><circle cx="424.6" cy="404.2" r="16" fill="#fbbf24" opacity="0.12"/>
  <path d="M428.9 619.5 q6 -39.2 2 -78.4" stroke="#443040" stroke-width="7" fill="none"/><g stroke="#443040" stroke-width="5" fill="none" stroke-linecap="round"><path d="M430.9 541.1 q-26 -6 -38 8"/><path d="M430.9 541.1 q26 -6 38 8"/><path d="M430.9 541.1 q-16 -16 -30 -12"/><path d="M430.9 541.1 q16 -16 30 -12"/></g>
  <rect x="439.2" y="705.3" width="4" height="110" fill="#443040"/><polygon points="443.2,705.3 475.2,713.3 443.2,721.3" fill="#f97316" opacity="0.8"/>
</svg>
