<svg xmlns="http://www.w3.org/2000/svg" width="540" height="960" viewBox="0 0 540 960">
  <!-- causeway slab: continuous full-height, uniform -> wraps seamlessly -->
  <rect x="50" y="0" width="440" height="960" fill="#48332f"/>
  <rect x="50" y="0" width="6" height="960" fill="#3a2723"/>
  <rect x="484" y="0" width="6" height="960" fill="#3a2723"/>
  <!-- center road (the marching lane stays clear of props) -->
  <rect x="170" y="0" width="200" height="960" fill="#3f2b28"/>
  <rect x="170" y="0" width="6" height="960" fill="#2a1c1a"/>
  <rect x="364" y="0" width="6" height="960" fill="#2a1c1a"/>
  <g fill="#c88a5a" opacity="0.3">
    <rect x="266" y="40" width="8" height="31"/>
    <rect x="266" y="160" width="8" height="32.3"/>
    <rect x="266" y="280" width="8" height="25.8"/>
    <rect x="266" y="520" width="8" height="39.7"/>
    <rect x="266" y="880" width="8" height="30.7"/>
  </g>
  <rect x="50" y="160" width="120" height="2" fill="#2a1c1a" opacity="0.3"/><rect x="370" y="160" width="120" height="2" fill="#2a1c1a" opacity="0.3"/><rect x="50" y="320" width="120" height="2" fill="#2a1c1a" opacity="0.3"/><rect x="370" y="320" width="120" height="2" fill="#2a1c1a" opacity="0.3"/><rect x="50" y="480" width="120" height="2" fill="#2a1c1a" opacity="0.3"/><rect x="370" y="480" width="120" height="2" fill="#2a1c1a" opacity="0.3"/><rect x="50" y="640" width="120" height="2" fill="#2a1c1a" opacity="0.3"/><rect x="370" y="640" width="120" height="2" fill="#2a1c1a" opacity="0.3"/><rect x="50" y="800" width="120" height="2" fill="#2a1c1a" opacity="0.3"/><rect x="370" y="800" width="120" height="2" fill="#2a1c1a" opacity="0.3"/><rect x="182" y="452" width="14" height="56" fill="#c88a5a" opacity="0.22"/><rect x="228" y="452" width="14" height="56" fill="#c88a5a" opacity="0.22"/><rect x="251" y="452" width="14" height="56" fill="#c88a5a" opacity="0.22"/><rect x="297" y="452" width="14" height="56" fill="#c88a5a" opacity="0.22"/><rect x="320" y="452" width="14" height="56" fill="#c88a5a" opacity="0.22"/><ellipse cx="197.6" cy="539.5" rx="22.4" ry="17.5" fill="#0d0a09" opacity="0.2"/><ellipse cx="76.8" cy="806.3" rx="27.2" ry="15.4" fill="#0d0a09" opacity="0.2"/><ellipse cx="461.8" cy="138.9" rx="37.3" ry="20.9" fill="#0d0a09" opacity="0.2"/><ellipse cx="409.4" cy="115.3" rx="21.1" ry="14.6" fill="#0d0a09" opacity="0.2"/><ellipse cx="251.9" cy="576.6" rx="33.2" ry="12" fill="#0d0a09" opacity="0.3"/><ellipse cx="288.5" cy="229.9" rx="40.1" ry="16.3" fill="#0d0a09" opacity="0.2"/><g stroke="#0d0a09" stroke-width="2" fill="none" opacity="0.5"><path d="M397.6 719.9 L384.2 749.6 L390.3 782.1 L387.8 818.8 L408.8 851.3 L402 889.4"/><path d="M191.9 103.2 L198.5 129.7 L218.3 156.2 L224.7 179.5 L230.7 222.5 L229.3 255.6"/><path d="M176.6 811.7 L193.5 838.5 L191.1 866.6 L196.2 901.3 L215.8 934.9"/><path d="M109.6 521.2 L89.2 560.8 L92 586.7 L94.4 611.1 L97.3 647.1 L83 678.5"/><path d="M126.6 214 L126.6 243.3 L117.9 282 L113.7 323.5"/><path d="M348 100.3 L334.3 122.2 L351.7 161.8 L357.1 185"/><path d="M131 418.9 L116.3 451.6 L96.2 483.1 L103.3 523.2 L125.2 544.1"/></g>
  <rect x="42.4" y="850.8" width="6.6" height="8.4" transform="rotate(23.4 42.4 850.8)" fill="#2a1c1a" opacity="0.8"/>
  <rect x="41.8" y="224.7" width="11.6" height="5" transform="rotate(23.1 41.8 224.7)" fill="#2a1c1a" opacity="0.8"/>
  <rect x="69.3" y="288.2" width="7.8" height="4" transform="rotate(18.8 69.3 288.2)" fill="#2a1c1a" opacity="0.8"/>
  <rect x="54.1" y="76.6" width="8.9" height="8.4" transform="rotate(28.5 54.1 76.6)" fill="#2a1c1a" opacity="0.8"/>
  <rect x="58.8" y="119.4" width="9.2" height="6.3" transform="rotate(20.2 58.8 119.4)" fill="#2a1c1a" opacity="0.8"/>
  <rect x="49" y="734.9" width="7.1" height="7.8" transform="rotate(2.7 49 734.9)" fill="#2a1c1a" opacity="0.8"/>
  <rect x="492.7" y="593" width="10.7" height="6.8" transform="rotate(20 492.7 593)" fill="#2a1c1a" opacity="0.8"/>
  <rect x="485.9" y="835.7" width="11.3" height="6" transform="rotate(11.9 485.9 835.7)" fill="#2a1c1a" opacity="0.8"/>
  <rect x="484.1" y="841.3" width="9.7" height="7.2" transform="rotate(20.1 484.1 841.3)" fill="#2a1c1a" opacity="0.8"/>
  <rect x="494.1" y="375.8" width="4.5" height="5" transform="rotate(30.1 494.1 375.8)" fill="#2a1c1a" opacity="0.8"/>
  <rect x="501.9" y="523.2" width="10.5" height="4.8" transform="rotate(73.2 501.9 523.2)" fill="#2a1c1a" opacity="0.8"/>
  <rect x="489" y="554.2" width="4.3" height="7.6" transform="rotate(84.1 489 554.2)" fill="#2a1c1a" opacity="0.8"/>
  <path d="M110.3 129.3 q8 -32.1 3 -64.3" stroke="#1a1512" stroke-width="7" fill="none"/><g stroke="#1a1512" stroke-width="4" fill="none" stroke-linecap="round" opacity="0.9"><path d="M113.3 65 q-22 4 -34 22"/><path d="M113.3 65 q24 6 34 24"/><path d="M113.3 65 q-14 -6 -26 2"/></g><circle cx="110.3" cy="125.3" r="4" fill="#ff7a2e" opacity="0.4"/>
  <circle cx="107.9" cy="301.1" r="33.5" fill="#e8451f" opacity="0.28"/><circle cx="107.9" cy="301.1" r="21" fill="#ff7a2e" opacity="0.32"/><path d="M102.8 315.1 q-6.7 -19.1 0 -38.2 q7.8 19.1 0 38.2 z" fill="#ff7a2e" opacity="0.9"/><path d="M111.5 315.1 q-8.6 -13.6 0 -27.3 q8.8 13.7 0 27.3 z" fill="#e8451f" opacity="0.9"/><path d="M107.9 311.1 q-3 -15.6 0 -21.6 q3 14.4 0 25.1 z" fill="#ffe6a3" opacity="0.85"/>
  <ellipse cx="119.7" cy="468.3" rx="45" ry="12" fill="#2f201d"/><rect x="106.1" y="455" width="10.6" height="6.8" transform="rotate(-8.8 106.1 455)" fill="#3a2723"/><rect x="127.5" y="444.2" width="6.9" height="5.7" transform="rotate(37 127.5 444.2)" fill="#3a2723"/><rect x="145.3" y="459.3" width="7.5" height="8.3" transform="rotate(31.8 145.3 459.3)" fill="#2a1c1a"/><rect x="104.2" y="447.1" width="15.4" height="12" transform="rotate(-37.6 104.2 447.1)" fill="#3a2723"/><rect x="142.3" y="451.9" width="17.7" height="17.1" transform="rotate(21.1 142.3 451.9)" fill="#3a2723"/><rect x="88.2" y="457.8" width="7.1" height="5" transform="rotate(-18.5 88.2 457.8)" fill="#2a1c1a"/><rect x="94.3" y="460.7" width="10.6" height="9.7" transform="rotate(-15.1 94.3 460.7)" fill="#3a2723"/><rect x="100.1" y="461.9" width="14.6" height="13.8" transform="rotate(-31.1 100.1 461.9)" fill="#3a2723"/>
  <ellipse cx="108.7" cy="662.6" rx="33.6" ry="17.1" fill="#0d0a09" opacity="0.55"/><ellipse cx="108.7" cy="662.6" rx="20.2" ry="10.3" fill="#e8451f" opacity="0.18"/><ellipse cx="108.7" cy="662.6" rx="33.6" ry="17.1" fill="none" stroke="#2a1c1a" stroke-width="3" opacity="0.6"/>
  <path d="M106.4 809.8 L106.4 718.3 l1.4 -10" stroke="#3a2723" stroke-width="4" fill="none"/><path d="M108.4 718.3 l30 6 l-8 6 l8 8 l-30 -2 z" fill="#f2401c" opacity="0.6"/>
  <path d="M434.5 132.5 q8 -37.5 3 -75.1" stroke="#1a1512" stroke-width="7" fill="none"/><g stroke="#1a1512" stroke-width="4" fill="none" stroke-linecap="round" opacity="0.9"><path d="M437.5 57.4 q-22 4 -34 22"/><path d="M437.5 57.4 q24 6 34 24"/><path d="M437.5 57.4 q-14 -6 -26 2"/></g><circle cx="434.5" cy="128.5" r="4" fill="#ff7a2e" opacity="0.4"/>
  <circle cx="426.4" cy="305.7" r="41.4" fill="#e8451f" opacity="0.28"/><circle cx="426.4" cy="305.7" r="18.7" fill="#ff7a2e" opacity="0.32"/><path d="M426.6 319.7 q-7.2 -15.1 0 -30.2 q8.4 15.1 0 30.2 z" fill="#ff7a2e" opacity="0.9"/><path d="M415.6 319.7 q-8.2 -22.9 0 -45.8 q8.3 22.9 0 45.8 z" fill="#f2401c" opacity="0.9"/><path d="M426.4 315.7 q-3 -14.5 0 -24.6 q3 14.5 0 25.9 z" fill="#ffe6a3" opacity="0.85"/>
  <ellipse cx="440.1" cy="474.2" rx="34.6" ry="12" fill="#2f201d"/><rect x="419.4" y="459.9" width="9.2" height="7" transform="rotate(39 419.4 459.9)" fill="#3a2723"/><rect x="451.7" y="470.6" width="6.8" height="5.3" transform="rotate(-24.4 451.7 470.6)" fill="#3a2723"/><rect x="422.6" y="452.3" width="10.3" height="7.7" transform="rotate(7.7 422.6 452.3)" fill="#2a1c1a"/><rect x="406.6" y="449.4" width="11.6" height="13.8" transform="rotate(3.6 406.6 449.4)" fill="#2a1c1a"/><rect x="444.9" y="468" width="6.3" height="7.1" transform="rotate(-31.4 444.9 468)" fill="#2a1c1a"/>
  <ellipse cx="418.1" cy="671.6" rx="46.4" ry="13.6" fill="#0d0a09" opacity="0.55"/><ellipse cx="418.1" cy="671.6" rx="27.8" ry="8.2" fill="#e8451f" opacity="0.18"/><ellipse cx="418.1" cy="671.6" rx="46.4" ry="13.6" fill="none" stroke="#2a1c1a" stroke-width="3" opacity="0.6"/>
  <path d="M418.4 816.2 L418.4 722.7 l2.3 -10" stroke="#3a2723" stroke-width="4" fill="none"/><path d="M420.4 722.7 l30 6 l-8 6 l8 8 l-30 -2 z" fill="#f2401c" opacity="0.6"/>
</svg>
