<svg xmlns="http://www.w3.org/2000/svg" width="540" height="960" viewBox="0 0 540 960">
  <g transform="translate(91.2 282.1) scale(1.5) translate(-91.2 -282.1)" opacity="0.95"><g fill="#403c37"><rect x="65.2" y="264.1" width="52" height="7" rx="2"/><rect x="69.2" y="271.1" width="5" height="11"/><rect x="108.2" y="271.1" width="5" height="11"/></g></g>
  <g transform="translate(91.4 452.1) scale(1.5) translate(-91.4 -452.1)" opacity="0.95"><ellipse cx="91.4" cy="452.1" rx="48.9" ry="12" fill="#3a3733"/><rect x="111.3" y="437.3" width="16" height="13.3" transform="rotate(-26.8 111.3 437.3)" fill="#403c37"/><rect x="117.5" y="437.2" width="12.3" height="11.6" transform="rotate(-20.6 117.5 437.2)" fill="#37332f"/><rect x="102" y="438.9" width="8.3" height="7.2" transform="rotate(34.1 102 438.9)" fill="#403c37"/><rect x="77.5" y="431.1" width="16.6" height="15.2" transform="rotate(-33.2 77.5 431.1)" fill="#403c37"/><rect x="108.7" y="436.8" width="7.1" height="4.6" transform="rotate(30.4 108.7 436.8)" fill="#37332f"/><rect x="77.9" y="430.6" width="16.1" height="13.3" transform="rotate(12.9 77.9 430.6)" fill="#403c37"/></g>
  <g transform="translate(81.8 710.7) scale(1.5) translate(-81.8 -710.7)" opacity="0.95"><circle cx="81.8" cy="696.7" r="30.5" fill="#c9683a" opacity="0.28"/><circle cx="81.8" cy="696.7" r="23" fill="#e8823a" opacity="0.32"/><path d="M73.9 710.7 q-6.5 -17.1 0 -34.3 q6.8 17.2 0 34.3 z" fill="#e8823a" opacity="0.9"/><path d="M71.4 710.7 q-8.1 -19.2 0 -38.5 q8.7 19.3 0 38.5 z" fill="#d1502a" opacity="0.9"/><path d="M76.8 710.7 q-6.4 -22.5 0 -45 q7.9 22.5 0 45 z" fill="#c9683a" opacity="0.9"/><path d="M81.8 706.7 q-3 -10.2 0 -22.5 q3 12.5 0 27.2 z" fill="#ffe6a3" opacity="0.85"/></g>
  <g transform="translate(444.6 296.1) scale(1.5) translate(-444.6 -296.1)" opacity="0.95"><g fill="#403c37"><rect x="418.6" y="278.1" width="52" height="7" rx="2"/><rect x="422.6" y="285.1" width="5" height="11"/><rect x="461.6" y="285.1" width="5" height="11"/></g></g>
  <g transform="translate(453.7 532.9) scale(1.5) translate(-453.7 -532.9)" opacity="0.95"><ellipse cx="453.7" cy="532.9" rx="43.1" ry="12" fill="#3a3733"/><rect x="477.7" y="509.4" width="15.1" height="11.4" transform="rotate(10.8 477.7 509.4)" fill="#403c37"/><rect x="472" y="523.9" width="16.4" height="12.9" transform="rotate(38 472 523.9)" fill="#403c37"/><rect x="475.9" y="517.5" width="6.7" height="6.2" transform="rotate(28.6 475.9 517.5)" fill="#403c37"/><rect x="477.7" y="524.6" width="9.2" height="10.6" transform="rotate(-10.2 477.7 524.6)" fill="#37332f"/><rect x="474.9" y="532.8" width="10.9" height="12.2" transform="rotate(33.3 474.9 532.8)" fill="#37332f"/><rect x="442.1" y="518.5" width="10.2" height="6.4" transform="rotate(-14.2 442.1 518.5)" fill="#403c37"/></g>
  <g transform="translate(441.1 730.7) scale(1.5) translate(-441.1 -730.7)" opacity="0.95"><circle cx="441.1" cy="716.7" r="40" fill="#c9683a" opacity="0.28"/><circle cx="441.1" cy="716.7" r="20.6" fill="#e8823a" opacity="0.32"/><path d="M448.7 730.7 q-7.4 -22.8 0 -45.7 q9.2 22.9 0 45.7 z" fill="#e8823a" opacity="0.9"/><path d="M432.9 730.7 q-7.8 -15.3 0 -30.6 q8.4 15.3 0 30.6 z" fill="#d1502a" opacity="0.9"/><path d="M442.8 730.7 q-9.8 -22.6 0 -45.3 q8 22.7 0 45.3 z" fill="#c9683a" opacity="0.9"/><path d="M441.1 726.7 q-3 -10.6 0 -25.2 q3 15.3 0 22.1 z" fill="#ffe6a3" opacity="0.85"/></g>
</svg>
