<svg xmlns="http://www.w3.org/2000/svg" width="540" height="960" viewBox="0 0 540 960">
  <g transform="translate(91.2 282.1) scale(1.5) translate(-91.2 -282.1)" opacity="0.95"><g fill="#7d90ad"><rect x="65.2" y="264.1" width="52" height="7" rx="2"/><rect x="69.2" y="271.1" width="5" height="11"/><rect x="108.2" y="271.1" width="5" height="11"/></g></g>
  <g transform="translate(91.4 452.1) scale(1.5) translate(-91.4 -452.1)" opacity="0.95"><g><rect x="78.4" y="416.1" width="26" height="36" rx="3" fill="#7d90ad"/><rect x="76.4" y="424.1" width="30" height="4" fill="#6b7c92"/><rect x="76.4" y="438.1" width="30" height="4" fill="#6b7c92"/></g></g>
  <g transform="translate(105.8 710.7) scale(1.5) translate(-105.8 -710.7)" opacity="0.95"><rect x="89.8" y="690.7" width="32" height="20" rx="4" fill="#7d90ad"/><circle cx="98.8" cy="684.7" r="10" fill="#7d90ad" opacity="0.85"/><circle cx="113.8" cy="682.7" r="12" fill="#7d90ad" opacity="0.85"/></g>
  <g transform="translate(458.7 223.1) scale(1.5) translate(-458.7 -223.1)" opacity="0.95"><g fill="#7d90ad"><rect x="432.7" y="205.1" width="52" height="7" rx="2"/><rect x="436.7" y="212.1" width="5" height="11"/><rect x="475.7" y="212.1" width="5" height="11"/></g></g>
  <g transform="translate(444.4 515) scale(1.5) translate(-444.4 -515)" opacity="0.95"><g><rect x="431.4" y="479" width="26" height="36" rx="3" fill="#7d90ad"/><rect x="429.4" y="487" width="30" height="4" fill="#6b7c92"/><rect x="429.4" y="501" width="30" height="4" fill="#6b7c92"/></g></g>
  <g transform="translate(437.3 728.3) scale(1.5) translate(-437.3 -728.3)" opacity="0.95"><rect x="421.3" y="708.3" width="32" height="20" rx="4" fill="#7d90ad"/><circle cx="430.3" cy="702.3" r="10" fill="#7d90ad" opacity="0.85"/><circle cx="445.3" cy="700.3" r="12" fill="#7d90ad" opacity="0.85"/></g>
</svg>
