<svg xmlns="http://www.w3.org/2000/svg" width="540" height="960" viewBox="0 0 540 960" preserveAspectRatio="none">
  <defs>
    <linearGradient id="sky" x1="0" y1="0" x2="0" y2="1">
      <stop offset="0" stop-color="#4da5e8"/>
      <stop offset="0.55" stop-color="#86c5f0"/>
      <stop offset="1" stop-color="#d6edfb"/>
    </linearGradient>
    <linearGradient id="horizon" x1="0" y1="0" x2="0" y2="1">
      <stop offset="0" stop-color="#fff3c4" stop-opacity="0"/>
      <stop offset="1" stop-color="#fff3c4" stop-opacity="0.35"/>
    </linearGradient>
  </defs>
  <rect width="540" height="960" fill="url(#sky)"/>
  <rect y="480" width="540" height="480" fill="url(#horizon)"/>
  <circle cx="300" cy="150" r="74.8" fill="#ffe9a3" opacity="0.25"/><circle cx="300" cy="150" r="49.3" fill="#ffe9a3" opacity="0.4"/><circle cx="300" cy="150" r="34" fill="#fff7cd"/><g fill="#ffffff" opacity="0.6"><ellipse cx="304" cy="511.6" rx="82.8" ry="23.6"/><ellipse cx="266.7" cy="522.2" rx="45.5" ry="18.9"/><ellipse cx="337.1" cy="519.9" rx="49.7" ry="20.1"/></g><g fill="#ffffff" opacity="0.7"><ellipse cx="74.5" cy="589.4" rx="75" ry="14"/><ellipse cx="40.8" cy="595.7" rx="41.3" ry="11.2"/><ellipse cx="104.5" cy="594.3" rx="45" ry="11.9"/></g><g fill="#ffffff" opacity="0.9"><ellipse cx="109.4" cy="354.6" rx="107.5" ry="18.3"/><ellipse cx="61" cy="362.8" rx="59.1" ry="14.6"/><ellipse cx="152.4" cy="361" rx="64.5" ry="15.6"/></g><g fill="#ffffff" opacity="0.7"><ellipse cx="406.2" cy="527.2" rx="108.2" ry="22.1"/><ellipse cx="357.5" cy="537.1" rx="59.5" ry="17.7"/><ellipse cx="449.5" cy="534.9" rx="64.9" ry="18.8"/></g><g fill="#ffffff" opacity="0.8"><ellipse cx="213.9" cy="415.5" rx="82.2" ry="17.5"/><ellipse cx="176.9" cy="423.4" rx="45.2" ry="14"/><ellipse cx="246.8" cy="421.6" rx="49.3" ry="14.9"/></g>
</svg>
