<svg xmlns="http://www.w3.org/2000/svg" width="540" height="960" viewBox="0 0 540 960" preserveAspectRatio="none">
  <defs>
    <linearGradient id="ground" x1="0" y1="0" x2="0" y2="1">
      <stop offset="0" stop-color="#2b2a2e"/>
      <stop offset="0.55" stop-color="#3d3a3a"/>
      <stop offset="1" stop-color="#524a45"/>
    </linearGradient>
    <linearGradient id="glowL" x1="0" y1="0" x2="1" y2="0">
      <stop offset="0" stop-color="#c9683a" stop-opacity="0.22"/>
      <stop offset="1" stop-color="#c9683a" stop-opacity="0"/>
    </linearGradient>
    <linearGradient id="glowR" x1="1" y1="0" x2="0" y2="0">
      <stop offset="0" stop-color="#c9683a" stop-opacity="0.22"/>
      <stop offset="1" stop-color="#c9683a" stop-opacity="0"/>
    </linearGradient>
  </defs>
  <rect width="540" height="960" fill="url(#ground)"/>
  <rect x="0" y="0" width="226.8" height="960" fill="url(#glowL)"/><rect x="313.2" y="0" width="226.8" height="960" fill="url(#glowR)"/><circle cx="309.9" cy="744.2" r="4.3" fill="#e8823a" opacity="0.2"/><circle cx="59.8" cy="72.1" r="6.6" fill="#e8823a" opacity="0.1"/><circle cx="2.1" cy="464.9" r="2.8" fill="#e8823a" opacity="0.1"/><circle cx="472.6" cy="416.6" r="6.3" fill="#e8823a" opacity="0.1"/><circle cx="433.7" cy="851.4" r="6" fill="#e8823a" opacity="0.1"/><circle cx="204.1" cy="578.5" r="4.3" fill="#e8823a" opacity="0.1"/><circle cx="344.4" cy="748" r="4.2" fill="#e8823a" opacity="0.1"/><circle cx="411.8" cy="499.8" r="6.7" fill="#e8823a" opacity="0.1"/><ellipse cx="270" cy="160.5" rx="378" ry="69.5" fill="#2b2a2e" opacity="0.25"/><ellipse cx="270" cy="463.6" rx="378" ry="41.5" fill="#2b2a2e" opacity="0.25"/><ellipse cx="270" cy="664.5" rx="378" ry="67.2" fill="#2b2a2e" opacity="0.25"/>
</svg>
