<svg xmlns="http://www.w3.org/2000/svg" width="540" height="960" viewBox="0 0 540 960">
  <g fill="#403c37"><polygon points="-22.1,285.2 -22.1,227.8 10.7,241.8 33.8,221.8 57.8,247.8 57.8,285.2"/></g><polygon points="-18.1,247.8 17.9,225.8 17.9,279.2 -18.1,279.2" fill="#100c0a" opacity="0.45"/><rect x="11.9" y="249.8" width="14" height="18" fill="#e8823a" opacity="0.5"/><ellipse cx="-6.1" cy="285.2" rx="40.8" ry="12" fill="#3a3733"/><rect x="25.6" y="265.6" width="14.2" height="12" transform="rotate(19.2 25.6 265.6)" fill="#403c37"/><rect x="22" y="263.3" width="12.8" height="15.2" transform="rotate(-35.6 22 263.3)" fill="#403c37"/><rect x="5.8" y="278.8" width="14.9" height="11.3" transform="rotate(21.3 5.8 278.8)" fill="#37332f"/><rect x="5.8" y="279.1" width="12.6" height="12.3" transform="rotate(-15 5.8 279.1)" fill="#37332f"/><rect x="23.4" y="279.4" width="13.5" height="11.4" transform="rotate(15.3 23.4 279.4)" fill="#403c37"/><rect x="21" y="266.4" width="16.9" height="16.5" transform="rotate(-2.2 21 266.4)" fill="#403c37"/><rect x="-9.1" y="272.3" width="8.5" height="9.4" transform="rotate(-22.3 -9.1 272.3)" fill="#37332f"/>
  <ellipse cx="21.7" cy="461.2" rx="36.3" ry="12" fill="#3a3733"/><rect x="-5" y="453.3" width="9" height="6.6" transform="rotate(-7.7 -5 453.3)" fill="#403c37"/><rect x="45.5" y="457.9" width="12.5" height="8.5" transform="rotate(-21.1 45.5 457.9)" fill="#403c37"/><rect x="-1.5" y="451.1" width="8.7" height="7.2" transform="rotate(-33.6 -1.5 451.1)" fill="#403c37"/><rect x="43.2" y="461.2" width="15.1" height="11.4" transform="rotate(-24.3 43.2 461.2)" fill="#403c37"/><rect x="-1.1" y="443.7" width="15.2" height="10.3" transform="rotate(13.5 -1.1 443.7)" fill="#37332f"/><rect x="23.9" y="456.4" width="13" height="13.8" transform="rotate(2.9 23.9 456.4)" fill="#403c37"/><rect x="4.9" y="440.9" width="6.8" height="5.7" transform="rotate(-36.6 4.9 440.9)" fill="#37332f"/>
  <g fill="#403c37"><polygon points="-20.6,747.8 -20.6,699.1 18.5,713.1 39.9,693.1 65.8,719.1 65.8,747.8"/></g><polygon points="-16.6,719.1 22.6,697.1 22.6,741.8 -16.6,741.8" fill="#100c0a" opacity="0.45"/><rect x="16.6" y="721.1" width="14" height="18" fill="#e8823a" opacity="0.5"/><ellipse cx="-3.3" cy="747.8" rx="42.2" ry="12" fill="#3a3733"/><rect x="12.8" y="725.2" width="11.8" height="10.3" transform="rotate(38.7 12.8 725.2)" fill="#403c37"/><rect x="27.1" y="731.1" width="9.1" height="7.8" transform="rotate(-0.8 27.1 731.1)" fill="#403c37"/><rect x="-1.4" y="734.9" width="12.2" height="8.3" transform="rotate(21.1 -1.4 734.9)" fill="#37332f"/><rect x="28.9" y="722.4" width="15.9" height="15.8" transform="rotate(2.5 28.9 722.4)" fill="#37332f"/><rect x="-3.7" y="729" width="10.1" height="9.3" transform="rotate(-5.5 -3.7 729)" fill="#403c37"/><rect x="5.1" y="730.8" width="13.4" height="15.8" transform="rotate(37.4 5.1 730.8)" fill="#403c37"/><rect x="7.5" y="729.9" width="7.7" height="6.6" transform="rotate(21.7 7.5 729.9)" fill="#403c37"/>
  <g fill="#403c37"><polygon points="489.4,215.6 489.4,165.5 521.8,179.5 532.6,159.5 551.1,185.5 551.1,215.6"/></g><polygon points="493.4,185.5 520.3,163.5 520.3,209.6 493.4,209.6" fill="#100c0a" opacity="0.45"/><rect x="514.3" y="187.5" width="14" height="18" fill="#e8823a" opacity="0.5"/><ellipse cx="501.7" cy="215.6" rx="39.9" ry="12" fill="#3a3733"/><rect x="512.4" y="192.8" width="17.9" height="20.6" transform="rotate(36.9 512.4 192.8)" fill="#37332f"/><rect x="482.2" y="213.7" width="15.6" height="13.5" transform="rotate(-2.7 482.2 213.7)" fill="#37332f"/><rect x="514.1" y="202.8" width="8.2" height="8.8" transform="rotate(-19 514.1 202.8)" fill="#37332f"/><rect x="471.9" y="207.8" width="17.1" height="18" transform="rotate(16 471.9 207.8)" fill="#37332f"/><rect x="500.5" y="202.3" width="15.4" height="16.4" transform="rotate(-11.8 500.5 202.3)" fill="#403c37"/>
  <ellipse cx="519.9" cy="492.9" rx="42.4" ry="12" fill="#3a3733"/><rect x="501.4" y="475.4" width="17.8" height="14" transform="rotate(10.9 501.4 475.4)" fill="#37332f"/><rect x="544.5" y="489" width="15.3" height="17.5" transform="rotate(-26.7 544.5 489)" fill="#37332f"/><rect x="516.2" y="486.9" width="17.5" height="13.1" transform="rotate(33.1 516.2 486.9)" fill="#403c37"/><rect x="501.3" y="468.4" width="11.5" height="11.4" transform="rotate(-7.9 501.3 468.4)" fill="#403c37"/><rect x="502.6" y="485.7" width="10.8" height="9.3" transform="rotate(-12.4 502.6 485.7)" fill="#37332f"/>
  <g fill="#403c37"><polygon points="480.7,721.5 480.7,661.8 516.6,675.8 541,655.8 566.9,681.8 566.9,721.5"/></g><polygon points="484.7,681.8 523.8,659.8 523.8,715.5 484.7,715.5" fill="#100c0a" opacity="0.45"/><rect x="517.8" y="683.8" width="14" height="18" fill="#e8823a" opacity="0.5"/><ellipse cx="497.9" cy="721.5" rx="44.8" ry="12" fill="#3a3733"/><rect x="480.7" y="718.6" width="17.5" height="12.1" transform="rotate(5.8 480.7 718.6)" fill="#403c37"/><rect x="486.2" y="712.8" width="17.4" height="20.4" transform="rotate(-5.4 486.2 712.8)" fill="#403c37"/><rect x="472.2" y="697.5" width="7.6" height="8.1" transform="rotate(-7.6 472.2 697.5)" fill="#403c37"/><rect x="486.3" y="698.5" width="10.4" height="12.3" transform="rotate(12.6 486.3 698.5)" fill="#37332f"/><rect x="503.5" y="712.2" width="9" height="6.8" transform="rotate(-24.7 503.5 712.2)" fill="#37332f"/><rect x="493.9" y="705.5" width="8.4" height="7" transform="rotate(33.7 493.9 705.5)" fill="#403c37"/>
</svg>
