<svg xmlns="http://www.w3.org/2000/svg" width="540" height="960" viewBox="0 0 540 960">
  <!-- causeway slab: continuous full-height, uniform -> wraps seamlessly -->
  <rect x="50" y="0" width="440" height="960" fill="#aab6c6"/>
  <rect x="50" y="0" width="6" height="960" fill="#7d90ad"/>
  <rect x="484" y="0" width="6" height="960" fill="#7d90ad"/>
  <!-- center road (the marching lane stays clear of props) -->
  <rect x="170" y="0" width="200" height="960" fill="#98a6b8"/>
  <rect x="170" y="0" width="6" height="960" fill="#6b7c92"/>
  <rect x="364" y="0" width="6" height="960" fill="#6b7c92"/>
  <g fill="#f8fafc" opacity="0.5">
    <rect x="266" y="40" width="8" height="40"/>
    <rect x="266" y="160" width="8" height="40"/>
    <rect x="266" y="280" width="8" height="40"/>
    <rect x="266" y="400" width="8" height="40"/>
    <rect x="266" y="520" width="8" height="40"/>
    <rect x="266" y="640" width="8" height="40"/>
    <rect x="266" y="760" width="8" height="40"/>
    <rect x="266" y="880" width="8" height="40"/>
  </g>
  <g stroke="#38bdf8" stroke-width="3" fill="none" opacity="0.18"><rect x="58" y="300" width="104" height="360"/><circle cx="58" cy="480" r="56"/><line x1="58" y1="480" x2="162" y2="480"/></g>
  <rect x="97.7" y="84" width="6" height="96" fill="#7d90ad"/><rect x="104.7" y="84" width="26" height="20" rx="2" fill="#7d90ad"/><circle cx="118.7" cy="104" r="5" stroke="#ef4444" stroke-width="2.5" fill="none" opacity="0.9"/>
  <g fill="#7d90ad"><rect x="78" y="275.6" width="52" height="7" rx="2"/><rect x="82" y="282.6" width="5" height="11"/><rect x="121" y="282.6" width="5" height="11"/></g>
  <rect x="107.5" y="430.2" width="5" height="78" fill="#7d90ad"/><circle cx="110" cy="428.2" r="6" fill="#facc15" opacity="0.9"/><circle cx="110" cy="428.2" r="16" fill="#facc15" opacity="0.12"/>
  <g fill="#7d90ad"><rect x="88.1" y="641.1" width="52" height="7" rx="2"/><rect x="92.1" y="648.1" width="5" height="11"/><rect x="131.1" y="648.1" width="5" height="11"/></g>
  <rect x="103.7" y="725.1" width="6" height="96" fill="#7d90ad"/><rect x="110.7" y="725.1" width="26" height="20" rx="2" fill="#7d90ad"/><circle cx="124.7" cy="745.1" r="5" stroke="#ef4444" stroke-width="2.5" fill="none" opacity="0.9"/>
  <rect x="420.1" y="55.8" width="6" height="96" fill="#7d90ad"/><rect x="393.1" y="55.8" width="26" height="20" rx="2" fill="#7d90ad"/><circle cx="405.1" cy="75.8" r="5" stroke="#ef4444" stroke-width="2.5" fill="none" opacity="0.9"/>
  <g fill="#7d90ad"><rect x="397" y="287.9" width="52" height="7" rx="2"/><rect x="401" y="294.9" width="5" height="11"/><rect x="440" y="294.9" width="5" height="11"/></g>
  <rect x="431.4" y="425.7" width="5" height="78" fill="#7d90ad"/><circle cx="433.9" cy="423.7" r="6" fill="#facc15" opacity="0.9"/><circle cx="433.9" cy="423.7" r="16" fill="#facc15" opacity="0.12"/>
  <g fill="#7d90ad"><rect x="395.4" y="620.2" width="52" height="7" rx="2"/><rect x="399.4" y="627.2" width="5" height="11"/><rect x="438.4" y="627.2" width="5" height="11"/></g>
  <rect x="416" y="717.9" width="6" height="96" fill="#7d90ad"/><rect x="389" y="717.9" width="26" height="20" rx="2" fill="#7d90ad"/><circle cx="401" cy="737.9" r="5" stroke="#ef4444" stroke-width="2.5" fill="none" opacity="0.9"/>
</svg>
