<svg xmlns="http://www.w3.org/2000/svg" width="540" height="960" viewBox="0 0 540 960">
  <!-- causeway slab: continuous full-height, uniform -> wraps seamlessly -->
  <rect x="50" y="0" width="440" height="960" fill="#5c5852"/>
  <rect x="50" y="0" width="6" height="960" fill="#403c37"/>
  <rect x="484" y="0" width="6" height="960" fill="#403c37"/>
  <!-- center road (the marching lane stays clear of props) -->
  <rect x="170" y="0" width="200" height="960" fill="#4f4b46"/>
  <rect x="170" y="0" width="6" height="960" fill="#37332f"/>
  <rect x="364" y="0" width="6" height="960" fill="#37332f"/>
  <g fill="#b9b2a6" opacity="0.3">
    <rect x="266" y="40" width="8" height="26"/>
    <rect x="266" y="160" width="8" height="36"/>
    <rect x="266" y="280" width="8" height="25.8"/>
    <rect x="266" y="520" width="8" height="34.8"/>
    <rect x="266" y="640" width="8" height="31.9"/>
    <rect x="266" y="880" width="8" height="30.5"/>
  </g>
  <g stroke="#8a94a0" stroke-width="3" fill="none" opacity="0.1"><rect x="58" y="300" width="104" height="360"/><circle cx="58" cy="480" r="56"/><line x1="58" y1="480" x2="162" y2="480"/></g><ellipse cx="310.8" cy="238.7" rx="25.4" ry="18" fill="#0d0a09" opacity="0.2"/><ellipse cx="80.9" cy="358.5" rx="32.6" ry="12" fill="#0d0a09" opacity="0.2"/><ellipse cx="145.5" cy="750.5" rx="23" ry="20.1" fill="#0d0a09" opacity="0.2"/><ellipse cx="117.3" cy="634.4" rx="27.5" ry="18.7" fill="#0d0a09" opacity="0.2"/><ellipse cx="220.3" cy="778.1" rx="33.4" ry="20" fill="#0d0a09" opacity="0.2"/><ellipse cx="170.9" cy="833.8" rx="21.3" ry="10.3" fill="#0d0a09" opacity="0.2"/><g stroke="#0d0a09" stroke-width="2" fill="none" opacity="0.5"><path d="M59.5 544.9 L69.2 567.3 L82.1 588.1 L95 618.3 L113.5 655.6"/><path d="M151.3 199.5 L170.9 230.1 L184.2 264.4 L206.7 284.4 L201.9 312.9"/><path d="M345.4 210.9 L328.4 250.3 L347.8 282.5 L359.9 314.4 L371 341.1 L345.7 375"/><path d="M111 190.5 L86.1 228.5 L104.2 262.5 L107 298.2 L129 321.6"/><path d="M311.8 671.2 L288.3 697.1 L265 740.5 L241.4 780.8 L251.8 809.4"/><path d="M324.1 562.3 L319.2 593.2 L296.6 618.4 L282.8 654.7 L297.6 681.3"/><path d="M186.9 93.1 L162.8 124.7 L149 165.1 L165.8 192.7 L153.7 213.9 L137 243.9"/></g>
  <rect x="57.6" y="89.8" width="6.4" height="7.8" transform="rotate(67.3 57.6 89.8)" fill="#37332f" opacity="0.8"/>
  <rect x="42.5" y="671.7" width="10.3" height="5.8" transform="rotate(16.2 42.5 671.7)" fill="#37332f" opacity="0.8"/>
  <rect x="47.2" y="786.5" width="11.9" height="6" transform="rotate(29.6 47.2 786.5)" fill="#37332f" opacity="0.8"/>
  <rect x="50.3" y="287.6" width="10.3" height="6.9" transform="rotate(61.4 50.3 287.6)" fill="#37332f" opacity="0.8"/>
  <rect x="59.6" y="714.1" width="9" height="7.9" transform="rotate(17.4 59.6 714.1)" fill="#37332f" opacity="0.8"/>
  <rect x="58" y="566.4" width="7.1" height="5.5" transform="rotate(68.5 58 566.4)" fill="#37332f" opacity="0.8"/>
  <rect x="476.8" y="711.2" width="4.9" height="9.1" transform="rotate(57.2 476.8 711.2)" fill="#37332f" opacity="0.8"/>
  <rect x="473.4" y="792" width="11.1" height="4.1" transform="rotate(4.1 473.4 792)" fill="#37332f" opacity="0.8"/>
  <rect x="472.3" y="112" width="7.6" height="6.7" transform="rotate(19.5 472.3 112)" fill="#37332f" opacity="0.8"/>
  <rect x="475" y="167.8" width="11.9" height="5.7" transform="rotate(73.8 475 167.8)" fill="#37332f" opacity="0.8"/>
  <rect x="475" y="651.1" width="7.7" height="8" transform="rotate(61.2 475 651.1)" fill="#37332f" opacity="0.8"/>
  <rect x="492.1" y="552.2" width="10" height="9" transform="rotate(22.7 492.1 552.2)" fill="#37332f" opacity="0.8"/>
  <rect x="108" y="62.8" width="6" height="96" fill="#403c37"/><rect x="115" y="62.8" width="26" height="20" rx="2" fill="#403c37"/><circle cx="129" cy="82.8" r="5" stroke="#d1502a" stroke-width="2.5" fill="none" opacity="0.9"/>
  <ellipse cx="98.7" cy="304.5" rx="43.4" ry="14.7" fill="#0d0a09" opacity="0.55"/><ellipse cx="98.7" cy="304.5" rx="26" ry="8.8" fill="#c9683a" opacity="0.18"/><ellipse cx="98.7" cy="304.5" rx="43.4" ry="14.7" fill="none" stroke="#37332f" stroke-width="3" opacity="0.6"/>
  <circle cx="107.9" cy="482.1" r="41.8" fill="#c9683a" opacity="0.28"/><circle cx="107.9" cy="482.1" r="23.1" fill="#e8823a" opacity="0.32"/><path d="M117.1 496.1 q-9.9 -20.5 0 -41 q8.6 20.5 0 41 z" fill="#e8823a" opacity="0.9"/><path d="M105.6 496.1 q-6.3 -18.2 0 -36.4 q7.3 18.2 0 36.4 z" fill="#c9683a" opacity="0.9"/><path d="M107.9 492.1 q-3 -13 0 -24.7 q3 14.4 0 24 z" fill="#ffe6a3" opacity="0.85"/>
  <rect x="121.9" y="613" width="8" height="7.2" transform="rotate(3.2 121.9 613)" fill="#37332f" opacity="0.9"/><rect x="135.3" y="610.2" width="7.6" height="3.8" transform="rotate(69.1 135.3 610.2)" fill="#37332f" opacity="0.9"/><rect x="88.6" y="611.3" width="6.4" height="6.1" transform="rotate(51.2 88.6 611.3)" fill="#37332f" opacity="0.9"/><rect x="147" y="612.2" width="8.3" height="4.5" transform="rotate(35.1 147 612.2)" fill="#37332f" opacity="0.9"/><rect x="92.1" y="612.4" width="4.7" height="4.2" transform="rotate(32.2 92.1 612.4)" fill="#37332f" opacity="0.9"/><rect x="135.5" y="609.1" width="4" height="7.5" transform="rotate(64.6 135.5 609.1)" fill="#37332f" opacity="0.9"/><path d="M97.5 618.9 q10 -14 22 -6 q8 6 18 -4" stroke="#403c37" stroke-width="2" fill="none" opacity="0.7"/>
  <rect x="110.9" y="715.3" width="6" height="96" fill="#403c37"/><rect x="117.9" y="715.3" width="26" height="20" rx="2" fill="#403c37"/><circle cx="131.9" cy="735.3" r="5" stroke="#d1502a" stroke-width="2.5" fill="none" opacity="0.9"/>
  <rect x="429.2" y="72.5" width="6" height="96" fill="#403c37"/><rect x="402.2" y="72.5" width="26" height="20" rx="2" fill="#403c37"/><circle cx="414.2" cy="92.5" r="5" stroke="#d1502a" stroke-width="2.5" fill="none" opacity="0.9"/>
  <ellipse cx="423.6" cy="339.9" rx="46.2" ry="16.8" fill="#0d0a09" opacity="0.55"/><ellipse cx="423.6" cy="339.9" rx="27.7" ry="10.1" fill="#c9683a" opacity="0.18"/><ellipse cx="423.6" cy="339.9" rx="46.2" ry="16.8" fill="none" stroke="#37332f" stroke-width="3" opacity="0.6"/>
  <circle cx="432.7" cy="476" r="43.4" fill="#c9683a" opacity="0.28"/><circle cx="432.7" cy="476" r="23.4" fill="#e8823a" opacity="0.32"/><path d="M439.1 490 q-9.5 -21 0 -42.1 q7.3 21.1 0 42.1 z" fill="#e8823a" opacity="0.9"/><path d="M442.1 490 q-6.5 -19.7 0 -39.4 q8.1 19.7 0 39.4 z" fill="#d1502a" opacity="0.9"/><path d="M432.7 486 q-3 -10.6 0 -26 q3 13.8 0 26 z" fill="#ffe6a3" opacity="0.85"/>
  <rect x="425.9" y="629" width="9.4" height="5.2" transform="rotate(48.3 425.9 629)" fill="#37332f" opacity="0.9"/><rect x="419.1" y="632.9" width="4.9" height="4.1" transform="rotate(64.2 419.1 632.9)" fill="#37332f" opacity="0.9"/><rect x="460.3" y="633.2" width="6" height="5.4" transform="rotate(14.2 460.3 633.2)" fill="#37332f" opacity="0.9"/><rect x="413.1" y="638" width="8.1" height="4.7" transform="rotate(54.2 413.1 638)" fill="#37332f" opacity="0.9"/><rect x="466.8" y="633.4" width="7.4" height="3.3" transform="rotate(31.4 466.8 633.4)" fill="#37332f" opacity="0.9"/><rect x="426.4" y="632.1" width="5.2" height="6.9" transform="rotate(46.5 426.4 632.1)" fill="#37332f" opacity="0.9"/><path d="M421.7 638.8 q10 -14 22 -6 q8 6 18 -4" stroke="#403c37" stroke-width="2" fill="none" opacity="0.7"/>
  <rect x="431.8" y="735.6" width="6" height="96" fill="#403c37"/><rect x="404.8" y="735.6" width="26" height="20" rx="2" fill="#403c37"/><circle cx="416.8" cy="755.6" r="5" stroke="#d1502a" stroke-width="2.5" fill="none" opacity="0.9"/>
</svg>
