<svg xmlns="http://www.w3.org/2000/svg" width="540" height="960" viewBox="0 0 540 960">
  <g transform="translate(96.1 290.4) scale(1.5) translate(-96.1 -290.4)" opacity="0.95"><g fill="#2e3363"><rect x="82.1" y="266.4" width="28" height="24"/><rect x="88.1" y="246.4" width="24" height="20" opacity="0.9"/></g></g>
  <g transform="translate(98.7 483.5) scale(1.5) translate(-98.7 -483.5)" opacity="0.95"><g><rect x="85.7" y="447.5" width="26" height="36" rx="3" fill="#2e3363"/><rect x="83.7" y="455.5" width="30" height="4" fill="#2d3160"/><rect x="83.7" y="469.5" width="30" height="4" fill="#2d3160"/></g></g>
  <g transform="translate(99.3 768.5) scale(1.5) translate(-99.3 -768.5)" opacity="0.95"><rect x="66.3" y="728.5" width="66" height="40" fill="#2e3363"/><rect x="62.3" y="710.5" width="7.4" height="14" fill="#38bdf8" opacity="0.7"/><rect x="77.1" y="710.5" width="7.4" height="14" fill="#e2e8f0" opacity="0.7"/><rect x="91.9" y="710.5" width="7.4" height="14" fill="#38bdf8" opacity="0.7"/><rect x="106.7" y="710.5" width="7.4" height="14" fill="#e2e8f0" opacity="0.7"/><rect x="121.5" y="710.5" width="7.4" height="14" fill="#38bdf8" opacity="0.7"/><rect x="62.3" y="722.5" width="74" height="6" fill="#2e3363"/></g>
  <g transform="translate(440.5 245.3) scale(1.5) translate(-440.5 -245.3)" opacity="0.95"><g fill="#2e3363"><rect x="426.5" y="221.3" width="28" height="24"/><rect x="432.5" y="201.3" width="24" height="20" opacity="0.9"/></g></g>
  <g transform="translate(444.6 425.5) scale(1.5) translate(-444.6 -425.5)" opacity="0.95"><g><rect x="431.6" y="389.5" width="26" height="36" rx="3" fill="#2e3363"/><rect x="429.6" y="397.5" width="30" height="4" fill="#2d3160"/><rect x="429.6" y="411.5" width="30" height="4" fill="#2d3160"/></g></g>
  <g transform="translate(461.5 698.2) scale(1.5) translate(-461.5 -698.2)" opacity="0.95"><rect x="428.5" y="658.2" width="66" height="40" fill="#2e3363"/><rect x="424.5" y="640.2" width="7.4" height="14" fill="#38bdf8" opacity="0.7"/><rect x="439.3" y="640.2" width="7.4" height="14" fill="#e2e8f0" opacity="0.7"/><rect x="454.1" y="640.2" width="7.4" height="14" fill="#38bdf8" opacity="0.7"/><rect x="468.9" y="640.2" width="7.4" height="14" fill="#e2e8f0" opacity="0.7"/><rect x="483.7" y="640.2" width="7.4" height="14" fill="#38bdf8" opacity="0.7"/><rect x="424.5" y="652.2" width="74" height="6" fill="#2e3363"/></g>
</svg>
