<svg xmlns="http://www.w3.org/2000/svg" width="540" height="960" viewBox="0 0 540 960">
  <g transform="translate(96.1 290.4) scale(1.5) translate(-96.1 -290.4)" opacity="0.95"><g fill="#3a352f"><rect x="82.1" y="266.4" width="28" height="24"/><rect x="88.1" y="246.4" width="24" height="20" opacity="0.9"/></g></g>
  <g transform="translate(98.7 483.5) scale(1.5) translate(-98.7 -483.5)" opacity="0.95"><circle cx="98.7" cy="469.5" r="41.6" fill="#e0722c" opacity="0.28"/><circle cx="98.7" cy="469.5" r="20.4" fill="#fb923c" opacity="0.32"/><path d="M94.3 483.5 q-7.6 -15.9 0 -31.9 q9.7 16 0 31.9 z" fill="#fb923c" opacity="0.9"/><path d="M90.7 483.5 q-10 -21 0 -42 q7.4 21 0 42 z" fill="#e0722c" opacity="0.9"/><path d="M98.7 479.5 q-3 -12.7 0 -22.9 q3 14.8 0 20.6 z" fill="#ffe6a3" opacity="0.85"/></g>
  <g transform="translate(96.1 768.5) scale(1.5) translate(-96.1 -768.5)" opacity="0.95"><rect x="63.1" y="734.5" width="66" height="34" fill="#3a352f"/><rect x="59.1" y="714.5" width="7.4" height="12" fill="#e0531f" opacity="0.6"/><rect x="73.9" y="718.5" width="7.4" height="12" fill="#3a2f28" opacity="0.6"/><rect x="88.7" y="714.5" width="7.4" height="12" fill="#e0531f" opacity="0.6"/><rect x="103.5" y="718.5" width="7.4" height="12" fill="#3a2f28" opacity="0.6"/><rect x="118.3" y="714.5" width="7.4" height="12" fill="#e0531f" opacity="0.6"/><path d="M59.1 724.5 l33 6 l41 -8" stroke="#3a352f" stroke-width="5" fill="none"/><rect x="69.1" y="748.5" width="16" height="20" fill="#0d0a09" opacity="0.4"/></g>
  <g transform="translate(449.2 221.7) scale(1.5) translate(-449.2 -221.7)" opacity="0.95"><g fill="#3a352f"><rect x="435.2" y="197.7" width="28" height="24"/><rect x="441.2" y="177.7" width="24" height="20" opacity="0.9"/></g></g>
  <g transform="translate(437.1 456.9) scale(1.5) translate(-437.1 -456.9)" opacity="0.95"><circle cx="437.1" cy="442.9" r="41.8" fill="#e0722c" opacity="0.28"/><circle cx="437.1" cy="442.9" r="18.1" fill="#fb923c" opacity="0.32"/><path d="M431.9 456.9 q-9 -16.5 0 -33.1 q7.7 16.6 0 33.1 z" fill="#fb923c" opacity="0.9"/><path d="M439.1 456.9 q-8.2 -21 0 -42.1 q9.7 21.1 0 42.1 z" fill="#e0531f" opacity="0.9"/><path d="M437.1 452.9 q-3 -15.1 0 -21.1 q3 12.1 0 21.4 z" fill="#ffe6a3" opacity="0.85"/></g>
  <g transform="translate(460.1 729.7) scale(1.5) translate(-460.1 -729.7)" opacity="0.95"><rect x="427.1" y="695.7" width="66" height="34" fill="#3a352f"/><rect x="423.1" y="675.7" width="7.4" height="12" fill="#e0531f" opacity="0.6"/><rect x="437.9" y="679.7" width="7.4" height="12" fill="#3a2f28" opacity="0.6"/><rect x="452.7" y="675.7" width="7.4" height="12" fill="#e0531f" opacity="0.6"/><rect x="467.5" y="679.7" width="7.4" height="12" fill="#3a2f28" opacity="0.6"/><rect x="482.3" y="675.7" width="7.4" height="12" fill="#e0531f" opacity="0.6"/><path d="M423.1 685.7 l33 6 l41 -8" stroke="#3a352f" stroke-width="5" fill="none"/><rect x="433.1" y="709.7" width="16" height="20" fill="#0d0a09" opacity="0.4"/></g>
</svg>
