<svg xmlns="http://www.w3.org/2000/svg" width="540" height="960" viewBox="0 0 540 960" preserveAspectRatio="none">
  <defs>
    <linearGradient id="ground" x1="0" y1="0" x2="0" y2="1">
      <stop offset="0" stop-color="#232022"/>
      <stop offset="0.55" stop-color="#332c2b"/>
      <stop offset="1" stop-color="#48372f"/>
    </linearGradient>
    <linearGradient id="glowL" x1="0" y1="0" x2="1" y2="0">
      <stop offset="0" stop-color="#e0722c" stop-opacity="0.32"/>
      <stop offset="1" stop-color="#e0722c" stop-opacity="0"/>
    </linearGradient>
    <linearGradient id="glowR" x1="1" y1="0" x2="0" y2="0">
      <stop offset="0" stop-color="#e0722c" stop-opacity="0.32"/>
      <stop offset="1" stop-color="#e0722c" stop-opacity="0"/>
    </linearGradient>
  </defs>
  <rect width="540" height="960" fill="url(#ground)"/>
  <rect x="0" y="0" width="226.8" height="960" fill="url(#glowL)"/><rect x="313.2" y="0" width="226.8" height="960" fill="url(#glowR)"/><circle cx="144.6" cy="125.7" r="5.9" fill="#fb923c" opacity="0.1"/><circle cx="50.3" cy="362.6" r="4" fill="#fb923c" opacity="0.1"/><circle cx="424" cy="453.9" r="5.6" fill="#fb923c" opacity="0.1"/><circle cx="475.7" cy="884.9" r="3.9" fill="#fb923c" opacity="0.1"/><circle cx="455.1" cy="753.7" r="3.1" fill="#fb923c" opacity="0.1"/><circle cx="388.2" cy="232.3" r="5.5" fill="#fb923c" opacity="0.1"/><circle cx="144" cy="675.4" r="2.4" fill="#fb923c" opacity="0.1"/><circle cx="443.5" cy="505.4" r="4.3" fill="#fb923c" opacity="0.2"/><circle cx="342" cy="158.6" r="3.6" fill="#fb923c" opacity="0.1"/><circle cx="511.6" cy="862.3" r="4.8" fill="#fb923c" opacity="0.1"/><circle cx="292.8" cy="41.1" r="3.7" fill="#fb923c" opacity="0.1"/><circle cx="20.7" cy="119.7" r="5.7" fill="#fb923c" opacity="0.2"/><ellipse cx="270" cy="148.5" rx="378" ry="69" fill="#232022" opacity="0.25"/><ellipse cx="270" cy="467.5" rx="378" ry="50.8" fill="#232022" opacity="0.25"/><ellipse cx="270" cy="687.6" rx="378" ry="44.6" fill="#232022" opacity="0.25"/>
</svg>
