<svg xmlns="http://www.w3.org/2000/svg" width="540" height="960" viewBox="0 0 540 960" preserveAspectRatio="none">
  <defs>
    <linearGradient id="sky" x1="0" y1="0" x2="0" y2="1">
      <stop offset="0" stop-color="#0b0a22"/>
      <stop offset="0.55" stop-color="#1e1b4b"/>
      <stop offset="1" stop-color="#4a3369"/>
    </linearGradient>
    <linearGradient id="horizon" x1="0" y1="0" x2="0" y2="1">
      <stop offset="0" stop-color="#fb923c" stop-opacity="0"/>
      <stop offset="1" stop-color="#fb923c" stop-opacity="0.2"/>
    </linearGradient>
  </defs>
  <rect width="540" height="960" fill="url(#sky)"/>
  <rect y="480" width="540" height="480" fill="url(#horizon)"/>
  <g fill="#f8fafc" opacity="0.4"><circle cx="144.6" cy="88" r="1.9"/><circle cx="68.3" cy="62.6" r="1.3"/><circle cx="212.9" cy="278.1" r="1.9"/><circle cx="255.3" cy="488.1" r="0.9"/><circle cx="475.7" cy="619.4" r="1.3"/><circle cx="219.2" cy="566.4" r="1.9"/><circle cx="121.7" cy="424.9" r="1.8"/><circle cx="130.6" cy="471.2" r="0.9"/><circle cx="144" cy="472.8" r="0.9"/><circle cx="442.9" cy="551.9" r="1.5"/><circle cx="253.6" cy="616.9" r="1.7"/><circle cx="89.2" cy="218.9" r="1.9"/><circle cx="511.6" cy="603.6" r="1.6"/><circle cx="356.2" cy="364.4" r="0.9"/></g><ellipse cx="270" cy="960" rx="486" ry="200" fill="#fb923c" opacity="0.18"/>
</svg>
