<svg xmlns="http://www.w3.org/2000/svg" width="540" height="960" viewBox="0 0 540 960" preserveAspectRatio="none">
  <defs>
    <linearGradient id="sky" x1="0" y1="0" x2="0" y2="1">
      <stop offset="0" stop-color="#3d9be2"/>
      <stop offset="0.55" stop-color="#7fc4ef"/>
      <stop offset="1" stop-color="#d2f0fb"/>
    </linearGradient>
    <linearGradient id="horizon" x1="0" y1="0" x2="0" y2="1">
      <stop offset="0" stop-color="#e8fbf0" stop-opacity="0"/>
      <stop offset="1" stop-color="#e8fbf0" stop-opacity="0.4"/>
    </linearGradient>
  </defs>
  <rect width="540" height="960" fill="url(#sky)"/>
  <rect y="480" width="540" height="480" fill="url(#horizon)"/>
  <circle cx="380" cy="130" r="66" fill="#ffedad" opacity="0.25"/><circle cx="380" cy="130" r="43.5" fill="#ffedad" opacity="0.4"/><circle cx="380" cy="130" r="30" fill="#fffbe6"/><g fill="#ffffff" opacity="0.6"><ellipse cx="163.2" cy="152.9" rx="102.2" ry="15.3"/><ellipse cx="117.2" cy="159.8" rx="56.2" ry="12.2"/><ellipse cx="204.1" cy="158.3" rx="61.3" ry="13"/></g><g fill="#ffffff" opacity="0.7"><ellipse cx="213.7" cy="299.5" rx="79.8" ry="21.9"/><ellipse cx="177.8" cy="309.4" rx="43.9" ry="17.5"/><ellipse cx="245.6" cy="307.2" rx="47.9" ry="18.6"/></g><g fill="#ffffff" opacity="0.7"><ellipse cx="374.1" cy="121.4" rx="107.9" ry="23.2"/><ellipse cx="325.5" cy="131.8" rx="59.3" ry="18.6"/><ellipse cx="417.3" cy="129.5" rx="64.7" ry="19.7"/></g><g fill="#ffffff" opacity="0.8"><ellipse cx="226.8" cy="549.3" rx="102.1" ry="16.3"/><ellipse cx="180.9" cy="556.6" rx="56.2" ry="13"/><ellipse cx="267.6" cy="555" rx="61.3" ry="13.9"/></g>
</svg>
