<svg xmlns="http://www.w3.org/2000/svg" width="540" height="960" viewBox="0 0 540 960">
  <rect x="-25.6" y="-66.5" width="76.3" height="264.8" fill="#1e2148"/><g fill="#fb923c" opacity="0.22"><rect x="-15.6" y="-52.5" width="10" height="12"/><rect x="22.5" y="-18.5" width="10" height="12"/><rect x="22.5" y="15.5" width="10" height="12"/><rect x="-15.6" y="49.5" width="10" height="12"/><rect x="22.5" y="49.5" width="10" height="12"/><rect x="-15.6" y="83.5" width="10" height="12"/><rect x="22.5" y="83.5" width="10" height="12"/><rect x="22.5" y="151.5" width="10" height="12"/></g>
  <g fill="#2e3363"><rect x="-35.3" y="455.5" width="90.7" height="64.1"/><polygon points="-43.3,455.5 10.1,429.5 63.4,455.5"/></g><rect x="2" y="467.5" width="14" height="16" fill="#fb923c" opacity="0.25"/>
  <rect x="-3.7" y="521" width="56.7" height="207.7" fill="#1e2148"/><g fill="#fb923c" opacity="0.22"><rect x="34.7" y="535" width="10" height="12"/><rect x="34.7" y="603" width="10" height="12"/><rect x="6.3" y="637" width="10" height="12"/><rect x="34.7" y="637" width="10" height="12"/><rect x="34.7" y="671" width="10" height="12"/></g>
  <rect x="484.8" y="14.4" width="59.9" height="199" fill="#1e2148"/><g fill="#fb923c" opacity="0.22"><rect x="494.8" y="62.4" width="10" height="12"/><rect x="524.8" y="96.4" width="10" height="12"/><rect x="524.8" y="130.4" width="10" height="12"/></g>
  <g fill="#2e3363"><rect x="493.6" y="396" width="73.6" height="65.4"/><polygon points="485.6,396 530.4,370 575.2,396"/></g><rect x="522.4" y="408" width="14" height="16" fill="#fb923c" opacity="0.25"/>
  <rect x="489.8" y="513" width="53.8" height="223.1" fill="#1e2148"/><g fill="#fb923c" opacity="0.22"><rect x="499.8" y="527" width="10" height="12"/><rect x="526.7" y="527" width="10" height="12"/><rect x="499.8" y="561" width="10" height="12"/><rect x="526.7" y="561" width="10" height="12"/><rect x="499.8" y="629" width="10" height="12"/><rect x="526.7" y="697" width="10" height="12"/></g>
</svg>
