<svg xmlns="http://www.w3.org/2000/svg" width="540" height="960" viewBox="0 0 540 960">
  <polygon points="-25.6,198.3 -25.6,-42.6 12.5,-74.5 50.7,-51.3 50.7,198.3" fill="#2f2b27"/><rect x="22.5" y="-26.5" width="10" height="12" fill="#fb923c" opacity="0.7"/><rect x="22.5" y="7.5" width="10" height="12" fill="#0d0a09" opacity="0.5"/><rect x="-15.6" y="41.5" width="10" height="12" fill="#fb923c" opacity="0.7"/><rect x="22.5" y="41.5" width="10" height="12" fill="#0d0a09" opacity="0.5"/><rect x="-15.6" y="75.5" width="10" height="12" fill="#0d0a09" opacity="0.5"/><rect x="22.5" y="75.5" width="10" height="12" fill="#0d0a09" opacity="0.5"/><rect x="22.5" y="143.5" width="10" height="12" fill="#0d0a09" opacity="0.5"/><rect x="-15.6" y="177.5" width="10" height="12" fill="#fb923c" opacity="0.7"/><rect x="22.5" y="177.5" width="10" height="12" fill="#fb923c" opacity="0.7"/><rect x="-2.7" y="105.6" width="30.5" height="92.7" fill="#0d0a09" opacity="0.4"/>
  <ellipse cx="17.6" cy="519.6" rx="35.2" ry="12" fill="#2f2b27"/><rect x="16.3" y="511.4" width="12.5" height="9.7" transform="rotate(-22.7 16.3 511.4)" fill="#3a352f"/><rect x="16.6" y="502.9" width="16.8" height="14.1" transform="rotate(-1.8 16.6 502.9)" fill="#3a352f"/><rect x="5.5" y="514.1" width="9.6" height="9.6" transform="rotate(-36.9 5.5 514.1)" fill="#3a352f"/><rect x="11.4" y="510.4" width="9.4" height="10.3" transform="rotate(-32.4 11.4 510.4)" fill="#3a352f"/><rect x="24.1" y="512.5" width="15.6" height="11.7" transform="rotate(-33.2 24.1 512.5)" fill="#2c2724"/>
  <polygon points="-14.5,728.7 -14.5,562.9 19.2,552.5 52.9,584.9 52.9,728.7" fill="#2f2b27"/><rect x="-4.5" y="600.5" width="10" height="12" fill="#0d0a09" opacity="0.5"/><rect x="29.2" y="600.5" width="10" height="12" fill="#0d0a09" opacity="0.5"/><rect x="-4.5" y="634.5" width="10" height="12" fill="#0d0a09" opacity="0.5"/><rect x="29.2" y="634.5" width="10" height="12" fill="#fb923c" opacity="0.7"/><rect x="-4.5" y="702.5" width="10" height="12" fill="#0d0a09" opacity="0.5"/><rect x="5.7" y="669.8" width="27" height="58.9" fill="#0d0a09" opacity="0.4"/>
  <polygon points="498.8,228.6 498.8,-36.8 525.5,-46.4 552.2,-10.6 552.2,228.6" fill="#2f2b27"/><rect x="535.5" y="1.6" width="10" height="12" fill="#0d0a09" opacity="0.5"/><rect x="535.5" y="103.6" width="10" height="12" fill="#0d0a09" opacity="0.5"/><rect x="535.5" y="137.6" width="10" height="12" fill="#fb923c" opacity="0.7"/><rect x="508.8" y="171.6" width="10" height="12" fill="#0d0a09" opacity="0.5"/><rect x="514.8" y="135.2" width="21.4" height="93.4" fill="#0d0a09" opacity="0.4"/>
  <ellipse cx="514.3" cy="442.3" rx="47.1" ry="12" fill="#2f2b27"/><rect x="517.5" y="438.1" width="13.5" height="10" transform="rotate(-11.6 517.5 438.1)" fill="#3a352f"/><rect x="518.8" y="432" width="7.9" height="8.5" transform="rotate(-15.1 518.8 432)" fill="#3a352f"/><rect x="487.9" y="434.1" width="7.1" height="4.8" transform="rotate(36.7 487.9 434.1)" fill="#3a352f"/><rect x="485.1" y="423.8" width="13.6" height="14.2" transform="rotate(-39.7 485.1 423.8)" fill="#2c2724"/><rect x="502.5" y="429.9" width="12.3" height="11.8" transform="rotate(16.8 502.5 429.9)" fill="#2c2724"/><rect x="512.8" y="416.7" width="16.6" height="19.8" transform="rotate(-16 512.8 416.7)" fill="#3a352f"/>
  <polygon points="478,699.3 478,479.8 514,447 550,465.2 550,699.3" fill="#2f2b27"/><rect x="488" y="495" width="10" height="12" fill="#0d0a09" opacity="0.5"/><rect x="524" y="495" width="10" height="12" fill="#fb923c" opacity="0.7"/><rect x="488" y="529" width="10" height="12" fill="#0d0a09" opacity="0.5"/><rect x="488" y="597" width="10" height="12" fill="#0d0a09" opacity="0.5"/><rect x="524" y="597" width="10" height="12" fill="#0d0a09" opacity="0.5"/><rect x="488" y="631" width="10" height="12" fill="#0d0a09" opacity="0.5"/><rect x="488" y="665" width="10" height="12" fill="#fb923c" opacity="0.7"/><rect x="488" y="699" width="10" height="12" fill="#0d0a09" opacity="0.5"/><rect x="499.6" y="613.8" width="28.8" height="85.5" fill="#0d0a09" opacity="0.4"/>
</svg>
