<svg xmlns="http://www.w3.org/2000/svg" width="540" height="960" viewBox="0 0 540 960">
  <!-- causeway slab: continuous full-height, uniform -> wraps seamlessly -->
  <rect x="50" y="0" width="440" height="960" fill="#4a443f"/>
  <rect x="50" y="0" width="6" height="960" fill="#3a352f"/>
  <rect x="484" y="0" width="6" height="960" fill="#3a352f"/>
  <!-- center road (the marching lane stays clear of props) -->
  <rect x="170" y="0" width="200" height="960" fill="#403a35"/>
  <rect x="170" y="0" width="6" height="960" fill="#2c2724"/>
  <rect x="364" y="0" width="6" height="960" fill="#2c2724"/>
  <g fill="#a89b8b" opacity="0.3">
    <rect x="266" y="280" width="8" height="32.8"/>
    <rect x="266" y="640" width="8" height="27.4"/>
  </g>
  <rect x="50" y="90" width="120" height="1.5" fill="#2c2724" opacity="0.4"/><rect x="370" y="90" width="120" height="1.5" fill="#2c2724" opacity="0.4"/><rect x="50" y="168" width="120" height="1.5" fill="#2c2724" opacity="0.4"/><rect x="370" y="168" width="120" height="1.5" fill="#2c2724" opacity="0.4"/><rect x="50" y="246" width="120" height="1.5" fill="#2c2724" opacity="0.4"/><rect x="370" y="246" width="120" height="1.5" fill="#2c2724" opacity="0.4"/><rect x="50" y="324" width="120" height="1.5" fill="#2c2724" opacity="0.4"/><rect x="370" y="324" width="120" height="1.5" fill="#2c2724" opacity="0.4"/><rect x="50" y="402" width="120" height="1.5" fill="#2c2724" opacity="0.4"/><rect x="370" y="402" width="120" height="1.5" fill="#2c2724" opacity="0.4"/><rect x="50" y="480" width="120" height="1.5" fill="#2c2724" opacity="0.4"/><rect x="370" y="480" width="120" height="1.5" fill="#2c2724" opacity="0.4"/><rect x="50" y="558" width="120" height="1.5" fill="#2c2724" opacity="0.4"/><rect x="370" y="558" width="120" height="1.5" fill="#2c2724" opacity="0.4"/><rect x="50" y="636" width="120" height="1.5" fill="#2c2724" opacity="0.4"/><rect x="370" y="636" width="120" height="1.5" fill="#2c2724" opacity="0.4"/><rect x="50" y="714" width="120" height="1.5" fill="#2c2724" opacity="0.4"/><rect x="370" y="714" width="120" height="1.5" fill="#2c2724" opacity="0.4"/><rect x="50" y="792" width="120" height="1.5" fill="#2c2724" opacity="0.4"/><rect x="370" y="792" width="120" height="1.5" fill="#2c2724" opacity="0.4"/><rect x="50" y="870" width="120" height="1.5" fill="#2c2724" opacity="0.4"/><rect x="370" y="870" width="120" height="1.5" fill="#2c2724" opacity="0.4"/><rect x="50" y="0" width="4" height="960" fill="#2c2724" opacity="0.4"/><ellipse cx="122.9" cy="673.3" rx="32.8" ry="19.7" fill="#0d0a09" opacity="0.3"/><ellipse cx="382.3" cy="680.5" rx="42.3" ry="15.1" fill="#0d0a09" opacity="0.2"/><ellipse cx="186.1" cy="787.8" rx="36.3" ry="17.2" fill="#0d0a09" opacity="0.3"/><ellipse cx="125" cy="209.3" rx="35.3" ry="15.6" fill="#0d0a09" opacity="0.2"/><ellipse cx="107.7" cy="384.3" rx="44.7" ry="14.7" fill="#0d0a09" opacity="0.2"/><ellipse cx="206.3" cy="723.3" rx="24.5" ry="19.4" fill="#0d0a09" opacity="0.2"/><g stroke="#0d0a09" stroke-width="2" fill="none" opacity="0.5"><path d="M470.1 236.2 L464.4 274.1 L455.6 312.6 L456 355 L470.2 378.1 L477.7 415.1"/><path d="M234.4 454.7 L250.1 493.8 L265.4 537.1 L285.7 574.5 L304.8 596.9"/><path d="M157.5 646.6 L133.7 670.4 L123.6 704.3 L108.9 741"/><path d="M421 468.8 L419.6 490.2 L413.3 534 L430.1 574.1"/><path d="M326.5 622.3 L305.4 641.4 L322.4 664.3 L310.6 692.3"/><path d="M446.6 58.9 L468.6 92.3 L444.1 112.6 L443.6 150 L441.9 178.9 L417.8 202.8"/><path d="M388.1 459.8 L380.9 491.5 L403.7 513.6 L424.1 550.6 L444.6 572.5 L426.9 599.2"/></g>
  <rect x="45.3" y="426.8" width="10" height="8.4" transform="rotate(47.7 45.3 426.8)" fill="#2c2724" opacity="0.8"/>
  <rect x="55.7" y="155" width="5.1" height="8.9" transform="rotate(53.2 55.7 155)" fill="#2c2724" opacity="0.8"/>
  <rect x="42.3" y="257.3" width="4.5" height="9.1" transform="rotate(31 42.3 257.3)" fill="#2c2724" opacity="0.8"/>
  <rect x="60.3" y="853.6" width="11.7" height="4.9" transform="rotate(58.4 60.3 853.6)" fill="#2c2724" opacity="0.8"/>
  <rect x="56.6" y="848.8" width="8.7" height="8.5" transform="rotate(57.5 56.6 848.8)" fill="#2c2724" opacity="0.8"/>
  <rect x="68.3" y="445.6" width="5.5" height="7.6" transform="rotate(31 68.3 445.6)" fill="#2c2724" opacity="0.8"/>
  <rect x="496.5" y="106" width="9.2" height="8.3" transform="rotate(23.3 496.5 106)" fill="#2c2724" opacity="0.8"/>
  <rect x="483.5" y="395.2" width="6.3" height="8.3" transform="rotate(5.3 483.5 395.2)" fill="#2c2724" opacity="0.8"/>
  <rect x="481.3" y="457.8" width="9.4" height="8.3" transform="rotate(75.6 481.3 457.8)" fill="#2c2724" opacity="0.8"/>
  <rect x="485.4" y="634.6" width="7.8" height="7.4" transform="rotate(55.2 485.4 634.6)" fill="#2c2724" opacity="0.8"/>
  <rect x="477.9" y="831.4" width="5.6" height="9.5" transform="rotate(41.8 477.9 831.4)" fill="#2c2724" opacity="0.8"/>
  <rect x="488.9" y="357.7" width="6" height="7.6" transform="rotate(64.6 488.9 357.7)" fill="#2c2724" opacity="0.8"/>
  <rect x="67.2" y="123.3" width="66" height="34" fill="#3a352f"/><rect x="63.2" y="103.3" width="7.4" height="12" fill="#e0531f" opacity="0.6"/><rect x="78" y="107.3" width="7.4" height="12" fill="#3a2f28" opacity="0.6"/><rect x="92.8" y="103.3" width="7.4" height="12" fill="#e0531f" opacity="0.6"/><rect x="107.6" y="107.3" width="7.4" height="12" fill="#3a2f28" opacity="0.6"/><rect x="122.4" y="103.3" width="7.4" height="12" fill="#e0531f" opacity="0.6"/><path d="M63.2 113.3 l33 6 l41 -8" stroke="#3a352f" stroke-width="5" fill="none"/><rect x="73.2" y="137.3" width="16" height="20" fill="#0d0a09" opacity="0.4"/>
  <circle cx="104.3" cy="281.7" r="33.6" fill="#e0722c" opacity="0.28"/><circle cx="104.3" cy="281.7" r="21.4" fill="#fb923c" opacity="0.32"/><path d="M108.9 295.7 q-8.2 -21.1 0 -42.3 q9.8 21.2 0 42.3 z" fill="#fb923c" opacity="0.9"/><path d="M99.9 295.7 q-9.5 -14.2 0 -28.4 q6.2 14.2 0 28.4 z" fill="#e0531f" opacity="0.9"/><path d="M110.8 295.7 q-7 -13.9 0 -27.9 q6.1 14 0 27.9 z" fill="#e0531f" opacity="0.9"/><path d="M104.3 291.7 q-3 -13 0 -27.8 q3 11.1 0 23.3 z" fill="#ffe6a3" opacity="0.85"/>
  <g fill="#3a352f"><rect x="103.4" y="426" width="28" height="24"/><rect x="109.4" y="406" width="24" height="20" opacity="0.9"/></g>
  <circle cx="89.4" cy="631.8" r="16.1" fill="#0e0c0c" opacity="0.2"/><circle cx="104.9" cy="604.2" r="25.6" fill="#0e0c0c" opacity="0.2"/><circle cx="100.9" cy="569" r="35.1" fill="#0e0c0c" opacity="0.2"/><circle cx="119.1" cy="538.3" r="41.3" fill="#0e0c0c" opacity="0.2"/>
  <rect x="70.3" y="773.5" width="66" height="34" fill="#3a352f"/><rect x="66.3" y="753.5" width="7.4" height="12" fill="#e0531f" opacity="0.6"/><rect x="81.1" y="757.5" width="7.4" height="12" fill="#3a2f28" opacity="0.6"/><rect x="95.9" y="753.5" width="7.4" height="12" fill="#e0531f" opacity="0.6"/><rect x="110.7" y="757.5" width="7.4" height="12" fill="#3a2f28" opacity="0.6"/><rect x="125.5" y="753.5" width="7.4" height="12" fill="#e0531f" opacity="0.6"/><path d="M66.3 763.5 l33 6 l41 -8" stroke="#3a352f" stroke-width="5" fill="none"/><rect x="76.3" y="787.5" width="16" height="20" fill="#0d0a09" opacity="0.4"/>
  <rect x="406.2" y="102.5" width="66" height="34" fill="#3a352f"/><rect x="402.2" y="82.5" width="7.4" height="12" fill="#e0531f" opacity="0.6"/><rect x="417" y="86.5" width="7.4" height="12" fill="#3a2f28" opacity="0.6"/><rect x="431.8" y="82.5" width="7.4" height="12" fill="#e0531f" opacity="0.6"/><rect x="446.6" y="86.5" width="7.4" height="12" fill="#3a2f28" opacity="0.6"/><rect x="461.4" y="82.5" width="7.4" height="12" fill="#e0531f" opacity="0.6"/><path d="M402.2 92.5 l33 6 l41 -8" stroke="#3a352f" stroke-width="5" fill="none"/><rect x="412.2" y="116.5" width="16" height="20" fill="#0d0a09" opacity="0.4"/>
  <circle cx="427.6" cy="285.4" r="44.4" fill="#e0722c" opacity="0.28"/><circle cx="427.6" cy="285.4" r="20" fill="#fb923c" opacity="0.32"/><path d="M419.1 299.4 q-8.4 -13.2 0 -26.5 q8.7 13.3 0 26.5 z" fill="#fb923c" opacity="0.9"/><path d="M426.4 299.4 q-9.6 -13.4 0 -26.8 q9.8 13.4 0 26.8 z" fill="#e0531f" opacity="0.9"/><path d="M426.5 299.4 q-9.1 -21.6 0 -43.3 q7.9 21.7 0 43.3 z" fill="#e0531f" opacity="0.9"/><path d="M427.6 295.4 q-3 -14.5 0 -22.2 q3 11.7 0 23.1 z" fill="#ffe6a3" opacity="0.85"/>
  <g fill="#3a352f"><rect x="417.4" y="484.9" width="28" height="24"/><rect x="423.4" y="464.9" width="24" height="20" opacity="0.9"/></g>
  <circle cx="425.2" cy="627.5" r="22.1" fill="#0e0c0c" opacity="0.2"/><circle cx="414.8" cy="596.3" r="29.4" fill="#0e0c0c" opacity="0.2"/><circle cx="420.9" cy="567" r="37" fill="#0e0c0c" opacity="0.2"/><circle cx="428.7" cy="542.9" r="46.9" fill="#0e0c0c" opacity="0.2"/>
  <rect x="407.9" y="774.3" width="66" height="34" fill="#3a352f"/><rect x="403.9" y="754.3" width="7.4" height="12" fill="#e0531f" opacity="0.6"/><rect x="418.7" y="758.3" width="7.4" height="12" fill="#3a2f28" opacity="0.6"/><rect x="433.5" y="754.3" width="7.4" height="12" fill="#e0531f" opacity="0.6"/><rect x="448.3" y="758.3" width="7.4" height="12" fill="#3a2f28" opacity="0.6"/><rect x="463.1" y="754.3" width="7.4" height="12" fill="#e0531f" opacity="0.6"/><path d="M403.9 764.3 l33 6 l41 -8" stroke="#3a352f" stroke-width="5" fill="none"/><rect x="413.9" y="788.3" width="16" height="20" fill="#0d0a09" opacity="0.4"/>
</svg>
