<svg xmlns="http://www.w3.org/2000/svg" width="540" height="960" viewBox="0 0 540 960">
  <g transform="translate(90.6 261.8) scale(1.5) translate(-90.6 -261.8)" opacity="0.95"><g><rect x="77.6" y="225.8" width="26" height="36" rx="3" fill="#22304f"/><rect x="75.6" y="233.8" width="30" height="4" fill="#1e293b"/><rect x="75.6" y="247.8" width="30" height="4" fill="#1e293b"/></g></g>
  <g transform="translate(95.8 479.2) scale(1.5) translate(-95.8 -479.2)" opacity="0.95"><g transform="rotate(3.3 95.8 479.2)"><rect x="93.8" y="425.2" width="4" height="54" fill="#22304f"/><rect x="75.8" y="403.2" width="40" height="26" rx="3" fill="#e2e8f0" opacity="0.85"/><rect x="82.8" y="411.2" width="26" height="4" fill="#22304f"/><rect x="82.8" y="418.2" width="18" height="4" fill="#22304f"/></g></g>
  <g transform="translate(79 676) scale(1.5) translate(-79 -676)" opacity="0.95"><rect x="76.5" y="598" width="5" height="78" fill="#22304f"/><circle cx="79" cy="596" r="6" fill="#facc15" opacity="0.9"/><circle cx="79" cy="596" r="16" fill="#facc15" opacity="0.12"/></g>
  <g transform="translate(461 249.7) scale(1.5) translate(-461 -249.7)" opacity="0.95"><g><rect x="448" y="213.7" width="26" height="36" rx="3" fill="#22304f"/><rect x="446" y="221.7" width="30" height="4" fill="#1e293b"/><rect x="446" y="235.7" width="30" height="4" fill="#1e293b"/></g></g>
  <g transform="translate(449.1 436) scale(1.5) translate(-449.1 -436)" opacity="0.95"><g transform="rotate(2.5 449.1 436)"><rect x="447.1" y="382" width="4" height="54" fill="#22304f"/><rect x="429.1" y="360" width="40" height="26" rx="3" fill="#e2e8f0" opacity="0.85"/><rect x="436.1" y="368" width="26" height="4" fill="#22304f"/><rect x="436.1" y="375" width="18" height="4" fill="#22304f"/></g></g>
  <g transform="translate(452.8 701.1) scale(1.5) translate(-452.8 -701.1)" opacity="0.95"><rect x="450.3" y="623.1" width="5" height="78" fill="#22304f"/><circle cx="452.8" cy="621.1" r="6" fill="#facc15" opacity="0.9"/><circle cx="452.8" cy="621.1" r="16" fill="#facc15" opacity="0.12"/></g>
</svg>
