<svg xmlns="http://www.w3.org/2000/svg" width="540" height="960" viewBox="0 0 540 960">
  <g transform="translate(90.6 261.8) scale(1.5) translate(-90.6 -261.8)" opacity="0.95"><ellipse cx="90.6" cy="261.8" rx="43.9" ry="12" fill="#3a3733"/><rect x="62.9" y="246.7" width="7.6" height="6.1" transform="rotate(32.4 62.9 246.7)" fill="#37332f"/><rect x="101.4" y="244.9" width="7.5" height="5.7" transform="rotate(-29.9 101.4 244.9)" fill="#403c37"/><rect x="66.5" y="248" width="12.5" height="11.4" transform="rotate(-8.6 66.5 248)" fill="#37332f"/><rect x="72.7" y="252.6" width="11.3" height="13" transform="rotate(-6.2 72.7 252.6)" fill="#403c37"/><rect x="59.9" y="247.4" width="10.7" height="10.7" transform="rotate(-9 59.9 247.4)" fill="#403c37"/><rect x="98" y="248.8" width="8.3" height="7.5" transform="rotate(-35.1 98 248.8)" fill="#37332f"/><rect x="92.5" y="260.2" width="7.6" height="5" transform="rotate(-3.7 92.5 260.2)" fill="#37332f"/></g>
  <g transform="translate(84.8 479.2) scale(1.5) translate(-84.8 -479.2)" opacity="0.95"><circle cx="84.8" cy="465.2" r="43.7" fill="#c9683a" opacity="0.28"/><circle cx="84.8" cy="465.2" r="23.4" fill="#e8823a" opacity="0.32"/><path d="M91.7 479.2 q-9.1 -16.4 0 -32.9 q8.5 16.5 0 32.9 z" fill="#e8823a" opacity="0.9"/><path d="M78.9 479.2 q-7.9 -15.4 0 -30.8 q6.2 15.4 0 30.8 z" fill="#c9683a" opacity="0.9"/><path d="M75.3 479.2 q-8.6 -15 0 -30 q7.4 15 0 30 z" fill="#d1502a" opacity="0.9"/><path d="M84.8 475.2 q-3 -10.1 0 -21.5 q3 13.5 0 26.3 z" fill="#ffe6a3" opacity="0.85"/></g>
  <g transform="translate(100.2 676) scale(1.5) translate(-100.2 -676)" opacity="0.95"><path d="M100.2 676 L100.2 616 L94.1 600" stroke="#403c37" stroke-width="5" fill="none"/><circle cx="94.1" cy="600" r="5" fill="#e8823a" opacity="0.4"/></g>
  <g transform="translate(453.3 284.8) scale(1.5) translate(-453.3 -284.8)" opacity="0.95"><ellipse cx="453.3" cy="284.8" rx="40.4" ry="12" fill="#3a3733"/><rect x="426.6" y="275" width="7.7" height="6.1" transform="rotate(-2.2 426.6 275)" fill="#37332f"/><rect x="457" y="284.2" width="7.1" height="5.4" transform="rotate(12.6 457 284.2)" fill="#403c37"/><rect x="471.1" y="279.2" width="6.9" height="6.9" transform="rotate(-1.5 471.1 279.2)" fill="#37332f"/><rect x="473" y="269.9" width="8.1" height="5.6" transform="rotate(21 473 269.9)" fill="#37332f"/><rect x="476.6" y="277.7" width="8.6" height="8.1" transform="rotate(31.6 476.6 277.7)" fill="#37332f"/><rect x="438.5" y="277.2" width="16.1" height="15.1" transform="rotate(5.1 438.5 277.2)" fill="#403c37"/><rect x="419.4" y="260.7" width="8.4" height="8.9" transform="rotate(5.5 419.4 260.7)" fill="#37332f"/></g>
  <g transform="translate(440.9 474.7) scale(1.5) translate(-440.9 -474.7)" opacity="0.95"><circle cx="440.9" cy="460.7" r="37.7" fill="#c9683a" opacity="0.28"/><circle cx="440.9" cy="460.7" r="21.2" fill="#e8823a" opacity="0.32"/><path d="M448.5 474.7 q-7.9 -23.8 0 -47.7 q7.3 23.9 0 47.7 z" fill="#e8823a" opacity="0.9"/><path d="M451.2 474.7 q-6.9 -13.1 0 -26.2 q6.3 13.1 0 26.2 z" fill="#d1502a" opacity="0.9"/><path d="M450.3 474.7 q-9.4 -16.7 0 -33.4 q6.2 16.7 0 33.4 z" fill="#d1502a" opacity="0.9"/><path d="M440.9 470.7 q-3 -14.4 0 -20.4 q3 14.4 0 23.2 z" fill="#ffe6a3" opacity="0.85"/></g>
  <g transform="translate(439.8 719.8) scale(1.5) translate(-439.8 -719.8)" opacity="0.95"><path d="M439.8 719.8 L439.8 659.8 L445 643.8" stroke="#403c37" stroke-width="5" fill="none"/><circle cx="445" cy="643.8" r="5" fill="#e8823a" opacity="0.4"/></g>
</svg>
