<svg xmlns="http://www.w3.org/2000/svg" width="540" height="960" viewBox="0 0 540 960">
  <g fill="#22304f"><rect x="-33.8" y="181.9" width="88.2" height="75.4"/><polygon points="-41.8,181.9 10.3,155.9 62.4,181.9"/></g><rect x="2.3" y="193.9" width="14" height="16" fill="#facc15" opacity="0.25"/>
  <rect x="10.7" y="255.4" width="28" height="239.4" fill="#141e36"/><rect x="23.2" y="231.4" width="3" height="24" fill="#141e36"/><circle cx="24.7" cy="231.4" r="3" fill="#ef4444" opacity="0.8"/>
  <g fill="#22304f"><rect x="-26.4" y="682.9" width="86.9" height="75.2"/><polygon points="-34.4,682.9 17.1,656.9 68.5,682.9"/></g><rect x="9" y="694.9" width="14" height="16" fill="#facc15" opacity="0.25"/>
  <g fill="#22304f"><rect x="484.7" y="229.1" width="76.8" height="51.2"/><polygon points="476.7,229.1 523.1,203.1 569.5,229.1"/></g><rect x="515.1" y="241.1" width="14" height="16" fill="#facc15" opacity="0.25"/>
  <rect x="505.6" y="235.8" width="28" height="287.7" fill="#141e36"/><rect x="518.1" y="211.8" width="3" height="24" fill="#141e36"/><circle cx="519.6" cy="211.8" r="3" fill="#ef4444" opacity="0.8"/>
  <g fill="#22304f"><rect x="475.9" y="689.1" width="90.5" height="62.8"/><polygon points="467.9,689.1 521.2,663.1 574.4,689.1"/></g><rect x="513.1" y="701.1" width="14" height="16" fill="#facc15" opacity="0.25"/>
</svg>
