<svg xmlns="http://www.w3.org/2000/svg" width="540" height="960" viewBox="0 0 540 960" preserveAspectRatio="none">
  <defs>
    <linearGradient id="sky" x1="0" y1="0" x2="0" y2="1">
      <stop offset="0" stop-color="#0a0f1e"/>
      <stop offset="0.55" stop-color="#0f172a"/>
      <stop offset="1" stop-color="#16233d"/>
    </linearGradient>
    <linearGradient id="horizon" x1="0" y1="0" x2="0" y2="1">
      <stop offset="0" stop-color="#facc15" stop-opacity="0"/>
      <stop offset="1" stop-color="#facc15" stop-opacity="0.1"/>
    </linearGradient>
  </defs>
  <rect width="540" height="960" fill="url(#sky)"/>
  <rect y="480" width="540" height="480" fill="url(#horizon)"/>
  <g fill="#f8fafc" opacity="0.4"><circle cx="491.5" cy="126.2" r="1.3"/><circle cx="15.7" cy="117.7" r="0.9"/><circle cx="333.4" cy="599.1" r="2.2"/><circle cx="157.2" cy="196.4" r="1"/><circle cx="112.8" cy="230.1" r="1.5"/><circle cx="195.2" cy="229.8" r="1.2"/><circle cx="249.4" cy="666.3" r="1.3"/><circle cx="414.7" cy="306.7" r="1.1"/><circle cx="377.4" cy="636.4" r="0.8"/><circle cx="104" cy="390.3" r="1.7"/><circle cx="153.3" cy="508.2" r="1.6"/><circle cx="449.1" cy="126.7" r="1.2"/><circle cx="498.6" cy="356.3" r="1.4"/><circle cx="389.6" cy="414.2" r="1.1"/><circle cx="75.4" cy="309.6" r="1.5"/><circle cx="291.7" cy="609.3" r="0.9"/><circle cx="25.8" cy="253.2" r="1.8"/><circle cx="89.6" cy="570.8" r="1.1"/><circle cx="496.6" cy="650.7" r="0.8"/><circle cx="236.5" cy="151.8" r="0.9"/><circle cx="455" cy="578.7" r="2.1"/><circle cx="74.4" cy="580.7" r="1.2"/><circle cx="288.7" cy="65.8" r="1.5"/><circle cx="89.4" cy="664.3" r="1.6"/><circle cx="516.1" cy="464.8" r="0.9"/><circle cx="315.8" cy="272.1" r="1.2"/></g><circle cx="306.4" cy="123.2" r="34" fill="#e2e8f0" opacity="0.85"/><circle cx="294.4" cy="117.2" r="30" fill="#0a0f1e" opacity="0.9"/><circle cx="306.4" cy="123.2" r="52" fill="#e2e8f0" opacity="0.06"/>
</svg>
