<svg xmlns="http://www.w3.org/2000/svg" width="540" height="960" viewBox="0 0 540 960" preserveAspectRatio="none">
  <defs>
    <linearGradient id="ground" x1="0" y1="0" x2="0" y2="1">
      <stop offset="0" stop-color="#2b2a2e"/>
      <stop offset="0.55" stop-color="#3d3a3a"/>
      <stop offset="1" stop-color="#524a45"/>
    </linearGradient>
    <linearGradient id="glowL" x1="0" y1="0" x2="1" y2="0">
      <stop offset="0" stop-color="#c9683a" stop-opacity="0.22"/>
      <stop offset="1" stop-color="#c9683a" stop-opacity="0"/>
    </linearGradient>
    <linearGradient id="glowR" x1="1" y1="0" x2="0" y2="0">
      <stop offset="0" stop-color="#c9683a" stop-opacity="0.22"/>
      <stop offset="1" stop-color="#c9683a" stop-opacity="0"/>
    </linearGradient>
  </defs>
  <rect width="540" height="960" fill="url(#ground)"/>
  <rect x="0" y="0" width="226.8" height="960" fill="url(#glowL)"/><rect x="313.2" y="0" width="226.8" height="960" fill="url(#glowR)"/><circle cx="491.5" cy="180.3" r="3.7" fill="#e8823a" opacity="0.1"/><circle cx="94.6" cy="75.4" r="5.1" fill="#e8823a" opacity="0.2"/><circle cx="524.3" cy="279.4" r="3.5" fill="#e8823a" opacity="0.1"/><circle cx="112.8" cy="328.7" r="4.4" fill="#e8823a" opacity="0.1"/><circle cx="184.7" cy="281.6" r="4.3" fill="#e8823a" opacity="0.2"/><circle cx="200.7" cy="737.2" r="4.3" fill="#e8823a" opacity="0.1"/><circle cx="377.4" cy="909.1" r="2" fill="#e8823a" opacity="0.1"/><circle cx="313.6" cy="631.2" r="3.4" fill="#e8823a" opacity="0.1"/><ellipse cx="270" cy="188.1" rx="378" ry="64.9" fill="#2b2a2e" opacity="0.25"/><ellipse cx="270" cy="415.1" rx="378" ry="48.6" fill="#2b2a2e" opacity="0.25"/><ellipse cx="270" cy="733.9" rx="378" ry="55.9" fill="#2b2a2e" opacity="0.25"/>
</svg>
