<svg xmlns="http://www.w3.org/2000/svg" width="540" height="960" viewBox="0 0 540 960">
  <!-- causeway slab: continuous full-height, uniform -> wraps seamlessly -->
  <rect x="50" y="0" width="440" height="960" fill="#0c1526"/>
  <rect x="50" y="0" width="6" height="960" fill="#22304f"/>
  <rect x="484" y="0" width="6" height="960" fill="#22304f"/>
  <!-- center road (the marching lane stays clear of props) -->
  <rect x="170" y="0" width="200" height="960" fill="#131c31"/>
  <rect x="170" y="0" width="6" height="960" fill="#1e293b"/>
  <rect x="364" y="0" width="6" height="960" fill="#1e293b"/>
  <g fill="#94a3b8" opacity="0.12">
    <rect x="266" y="40" width="8" height="40"/>
    <rect x="266" y="160" width="8" height="40"/>
    <rect x="266" y="280" width="8" height="40"/>
    <rect x="266" y="400" width="8" height="40"/>
    <rect x="266" y="520" width="8" height="40"/>
    <rect x="266" y="640" width="8" height="40"/>
    <rect x="266" y="760" width="8" height="40"/>
    <rect x="266" y="880" width="8" height="40"/>
  </g>
  <ellipse cx="433.7" cy="814.7" rx="24" ry="6.6" fill="#38bdf8" opacity="0.05"/><ellipse cx="180.3" cy="570.1" rx="26" ry="5.8" fill="#38bdf8" opacity="0.05"/><ellipse cx="329.6" cy="549.3" rx="26.2" ry="7.5" fill="#38bdf8" opacity="0.05"/><ellipse cx="251.7" cy="344.1" rx="17.2" ry="4.4" fill="#38bdf8" opacity="0.05"/><ellipse cx="362.7" cy="290.6" rx="16.7" ry="7.3" fill="#38bdf8" opacity="0.05"/>
  <rect x="116.3" y="48.6" width="5" height="78" fill="#22304f"/><circle cx="118.8" cy="46.6" r="6" fill="#facc15" opacity="0.9"/><circle cx="118.8" cy="46.6" r="16" fill="#facc15" opacity="0.12"/>
  <g transform="rotate(-0.7 113.6 295.1)"><rect x="111.6" y="241.1" width="4" height="54" fill="#22304f"/><rect x="93.6" y="219.1" width="40" height="26" rx="3" fill="#e2e8f0" opacity="0.85"/><rect x="100.6" y="227.1" width="26" height="4" fill="#22304f"/><rect x="100.6" y="234.1" width="18" height="4" fill="#22304f"/></g>
  <rect x="104.4" y="376.9" width="4" height="110" fill="#22304f"/><polygon points="108.4,376.9 140.4,384.9 108.4,392.9" fill="#ef4444" opacity="0.8"/>
  <g transform="rotate(5.7 100.3 664.7)"><rect x="98.3" y="610.7" width="4" height="54" fill="#22304f"/><rect x="80.3" y="588.7" width="40" height="26" rx="3" fill="#e2e8f0" opacity="0.85"/><rect x="87.3" y="596.7" width="26" height="4" fill="#22304f"/><rect x="87.3" y="603.7" width="18" height="4" fill="#22304f"/></g>
  <g><rect x="98.2" y="764.7" width="26" height="36" rx="3" fill="#22304f"/><rect x="96.2" y="772.7" width="30" height="4" fill="#1e293b"/><rect x="96.2" y="786.7" width="30" height="4" fill="#1e293b"/></g>
  <rect x="417.5" y="48.2" width="5" height="78" fill="#22304f"/><circle cx="420" cy="46.2" r="6" fill="#facc15" opacity="0.9"/><circle cx="420" cy="46.2" r="16" fill="#facc15" opacity="0.12"/>
  <g transform="rotate(7.2 425.4 332.5)"><rect x="423.4" y="278.5" width="4" height="54" fill="#22304f"/><rect x="405.4" y="256.5" width="40" height="26" rx="3" fill="#e2e8f0" opacity="0.85"/><rect x="412.4" y="264.5" width="26" height="4" fill="#22304f"/><rect x="412.4" y="271.5" width="18" height="4" fill="#22304f"/></g>
  <rect x="435.9" y="371" width="4" height="110" fill="#22304f"/><polygon points="439.9,371 471.9,379 439.9,387" fill="#ef4444" opacity="0.8"/>
  <g transform="rotate(-7.2 423.7 627.6)"><rect x="421.7" y="573.6" width="4" height="54" fill="#22304f"/><rect x="403.7" y="551.6" width="40" height="26" rx="3" fill="#e2e8f0" opacity="0.85"/><rect x="410.7" y="559.6" width="26" height="4" fill="#22304f"/><rect x="410.7" y="566.6" width="18" height="4" fill="#22304f"/></g>
  <g><rect x="423.3" y="766.2" width="26" height="36" rx="3" fill="#22304f"/><rect x="421.3" y="774.2" width="30" height="4" fill="#1e293b"/><rect x="421.3" y="788.2" width="30" height="4" fill="#1e293b"/></g>
</svg>
