<svg xmlns="http://www.w3.org/2000/svg" width="540" height="960" viewBox="0 0 540 960">
  <g fill="#403c37"><polygon points="-33.8,257.3 -33.8,189.3 2.8,203.3 27.9,183.3 54.4,209.3 54.4,257.3"/></g><polygon points="-29.8,209.3 10.3,187.3 10.3,251.3 -29.8,251.3" fill="#100c0a" opacity="0.45"/><rect x="4.3" y="211.3" width="14" height="18" fill="#e8823a" opacity="0.5"/><ellipse cx="-16.2" cy="257.3" rx="37.4" ry="12" fill="#3a3733"/><rect x="0.6" y="235.5" width="17.3" height="20.5" transform="rotate(27.8 0.6 235.5)" fill="#37332f"/><rect x="-18.5" y="256.2" width="9.7" height="10.2" transform="rotate(-8.3 -18.5 256.2)" fill="#37332f"/><rect x="-21.2" y="253.3" width="17.1" height="15.4" transform="rotate(-22.6 -21.2 253.3)" fill="#403c37"/><rect x="-23.2" y="243.8" width="13.8" height="11.7" transform="rotate(-24.2 -23.2 243.8)" fill="#403c37"/><rect x="-11.2" y="246.7" width="6.4" height="5.8" transform="rotate(5.8 -11.2 246.7)" fill="#37332f"/><rect x="0.4" y="246.8" width="9.6" height="8.7" transform="rotate(32.3 0.4 246.8)" fill="#37332f"/><rect x="12" y="237.5" width="14.2" height="11.5" transform="rotate(-10.8 12 237.5)" fill="#37332f"/>
  <ellipse cx="24.3" cy="494.8" rx="42.7" ry="12" fill="#3a3733"/><rect x="39.2" y="489.5" width="9.3" height="9.4" transform="rotate(-18.6 39.2 489.5)" fill="#403c37"/><rect x="16" y="492.3" width="16" height="12.4" transform="rotate(17 16 492.3)" fill="#37332f"/><rect x="2.2" y="486.2" width="18" height="12.3" transform="rotate(-16 2.2 486.2)" fill="#37332f"/><rect x="13.2" y="477.7" width="6.1" height="4.6" transform="rotate(1.5 13.2 477.7)" fill="#37332f"/><rect x="33.5" y="488.6" width="14.3" height="8.8" transform="rotate(-29.6 33.5 488.6)" fill="#37332f"/><rect x="44.6" y="470.1" width="15.8" height="12.6" transform="rotate(3.3 44.6 470.1)" fill="#403c37"/>
  <g fill="#403c37"><polygon points="-27.3,758.1 -27.3,706.6 21.3,720.6 38.4,700.6 66.6,726.6 66.6,758.1"/></g><polygon points="-23.3,726.6 19.7,704.6 19.7,752.1 -23.3,752.1" fill="#100c0a" opacity="0.45"/><rect x="13.6" y="728.6" width="14" height="18" fill="#e8823a" opacity="0.5"/><ellipse cx="-8.5" cy="758.1" rx="37.6" ry="12" fill="#3a3733"/><rect x="17.4" y="743.4" width="10.8" height="10.4" transform="rotate(-26.3 17.4 743.4)" fill="#403c37"/><rect x="-29.5" y="746.2" width="12.8" height="8.2" transform="rotate(-27.6 -29.5 746.2)" fill="#403c37"/><rect x="-42.4" y="749" width="8.1" height="4.9" transform="rotate(-25.7 -42.4 749)" fill="#403c37"/><rect x="9.5" y="736.9" width="15.8" height="17.5" transform="rotate(6.3 9.5 736.9)" fill="#37332f"/><rect x="6.5" y="738.5" width="9.7" height="8.3" transform="rotate(32.2 6.5 738.5)" fill="#403c37"/>
  <g fill="#403c37"><polygon points="480.5,194.7 480.5,123 520.3,137 539.5,117 564.8,143 564.8,194.7"/></g><polygon points="484.5,143 522.7,121 522.7,188.7 484.5,188.7" fill="#100c0a" opacity="0.45"/><rect x="516.6" y="145" width="14" height="18" fill="#e8823a" opacity="0.5"/><ellipse cx="497.4" cy="194.7" rx="43.8" ry="12" fill="#3a3733"/><rect x="479.7" y="182.8" width="12.5" height="14.3" transform="rotate(-5.8 479.7 182.8)" fill="#403c37"/><rect x="526.9" y="175.2" width="11.7" height="8.6" transform="rotate(-4.1 526.9 175.2)" fill="#403c37"/><rect x="485.9" y="173.2" width="12.7" height="13.5" transform="rotate(-28.8 485.9 173.2)" fill="#37332f"/><rect x="503.8" y="190.5" width="16.7" height="17.8" transform="rotate(-24.8 503.8 190.5)" fill="#37332f"/><rect x="518.8" y="180.8" width="8.5" height="6.5" transform="rotate(-11.4 518.8 180.8)" fill="#403c37"/>
  <ellipse cx="517.6" cy="523.9" rx="42.6" ry="12" fill="#3a3733"/><rect x="542.4" y="514.4" width="15.6" height="13.2" transform="rotate(-32.9 542.4 514.4)" fill="#403c37"/><rect x="502.8" y="498.8" width="16.7" height="16.6" transform="rotate(1.5 502.8 498.8)" fill="#403c37"/><rect x="535.8" y="517" width="8.3" height="9.7" transform="rotate(36.3 535.8 517)" fill="#37332f"/><rect x="489.6" y="502.8" width="10" height="9.2" transform="rotate(39.3 489.6 502.8)" fill="#37332f"/><rect x="484.4" y="506.1" width="8.4" height="9.1" transform="rotate(-1.8 484.4 506.1)" fill="#37332f"/><rect x="532.4" y="512.6" width="16.6" height="10" transform="rotate(4.6 532.4 512.6)" fill="#37332f"/>
  <g fill="#403c37"><polygon points="489.4,693 489.4,625.4 527.1,639.4 539.6,619.4 561.1,645.4 561.1,693"/></g><polygon points="493.4,645.4 525.3,623.4 525.3,687 493.4,687" fill="#100c0a" opacity="0.45"/><rect x="519.3" y="647.4" width="14" height="18" fill="#e8823a" opacity="0.5"/><ellipse cx="503.7" cy="693" rx="35.2" ry="12" fill="#3a3733"/><rect x="511.4" y="678.7" width="12.8" height="12.4" transform="rotate(2.5 511.4 678.7)" fill="#403c37"/><rect x="499.3" y="668.5" width="16.4" height="16.4" transform="rotate(39.3 499.3 668.5)" fill="#37332f"/><rect x="521.6" y="678.6" width="14.9" height="12.6" transform="rotate(35.9 521.6 678.6)" fill="#403c37"/><rect x="536" y="684.2" width="8.3" height="7.3" transform="rotate(-3.4 536 684.2)" fill="#37332f"/><rect x="518.8" y="687.3" width="10.4" height="10.5" transform="rotate(3.4 518.8 687.3)" fill="#403c37"/><rect x="492.9" y="668.7" width="9" height="8.5" transform="rotate(-19.6 492.9 668.7)" fill="#403c37"/><rect x="518" y="689.5" width="15.3" height="9.3" transform="rotate(24.8 518 689.5)" fill="#403c37"/><rect x="507.7" y="673.1" width="12.4" height="9.5" transform="rotate(39.5 507.7 673.1)" fill="#403c37"/>
</svg>
