<svg xmlns="http://www.w3.org/2000/svg" width="540" height="960" viewBox="0 0 540 960">
  <g transform="translate(81.2 285.8) scale(1.5) translate(-81.2 -285.8)" opacity="0.95"><rect x="65.2" y="265.8" width="32" height="20" rx="4" fill="#22304f"/><circle cx="74.2" cy="259.8" r="10" fill="#22304f" opacity="0.85"/><circle cx="89.2" cy="257.8" r="12" fill="#22304f" opacity="0.85"/></g>
  <g transform="translate(87 523.2) scale(1.5) translate(-87 -523.2)" opacity="0.95"><rect x="84.5" y="445.2" width="5" height="78" fill="#22304f"/><circle cx="87" cy="443.2" r="6" fill="#facc15" opacity="0.9"/><circle cx="87" cy="443.2" r="16" fill="#facc15" opacity="0.12"/></g>
  <g transform="translate(93.8 664.6) scale(1.5) translate(-93.8 -664.6)" opacity="0.95"><g fill="#22304f"><rect x="67.8" y="646.6" width="52" height="7" rx="2"/><rect x="71.8" y="653.6" width="5" height="11"/><rect x="110.8" y="653.6" width="5" height="11"/></g></g>
  <g transform="translate(463.3 271.3) scale(1.5) translate(-463.3 -271.3)" opacity="0.95"><rect x="447.3" y="251.3" width="32" height="20" rx="4" fill="#22304f"/><circle cx="456.3" cy="245.3" r="10" fill="#22304f" opacity="0.85"/><circle cx="471.3" cy="243.3" r="12" fill="#22304f" opacity="0.85"/></g>
  <g transform="translate(460.2 534.9) scale(1.5) translate(-460.2 -534.9)" opacity="0.95"><rect x="457.7" y="456.9" width="5" height="78" fill="#22304f"/><circle cx="460.2" cy="454.9" r="6" fill="#facc15" opacity="0.9"/><circle cx="460.2" cy="454.9" r="16" fill="#facc15" opacity="0.12"/></g>
  <g transform="translate(435.9 766.7) scale(1.5) translate(-435.9 -766.7)" opacity="0.95"><g fill="#22304f"><rect x="409.9" y="748.7" width="52" height="7" rx="2"/><rect x="413.9" y="755.7" width="5" height="11"/><rect x="452.9" y="755.7" width="5" height="11"/></g></g>
</svg>
