<svg xmlns="http://www.w3.org/2000/svg" width="540" height="960" viewBox="0 0 540 960">
  <g transform="translate(81.2 285.8) scale(1.5) translate(-81.2 -285.8)" opacity="0.95"><ellipse cx="81.2" cy="285.8" rx="39.5" ry="12" fill="#3a3733"/><rect x="98.9" y="260.9" width="16.7" height="19.8" transform="rotate(30.6 98.9 260.9)" fill="#403c37"/><rect x="63" y="280.4" width="15.4" height="18.2" transform="rotate(-6.6 63 280.4)" fill="#37332f"/><rect x="70.7" y="285.5" width="9.7" height="10.9" transform="rotate(22.6 70.7 285.5)" fill="#37332f"/><rect x="79.4" y="278.9" width="15" height="17.1" transform="rotate(-11.6 79.4 278.9)" fill="#37332f"/><rect x="52.6" y="283.2" width="17.4" height="12" transform="rotate(-33 52.6 283.2)" fill="#37332f"/><rect x="114.1" y="273.4" width="17.6" height="18.6" transform="rotate(-32.7 114.1 273.4)" fill="#37332f"/><rect x="89.5" y="263.5" width="13.6" height="12.8" transform="rotate(9.2 89.5 263.5)" fill="#37332f"/></g>
  <g transform="translate(102 523.2) scale(1.5) translate(-102 -523.2)" opacity="0.95"><circle cx="102" cy="509.2" r="41.9" fill="#c9683a" opacity="0.28"/><circle cx="102" cy="509.2" r="16.7" fill="#e8823a" opacity="0.32"/><path d="M100.1 523.2 q-7.1 -19 0 -38.1 q9.1 19.1 0 38.1 z" fill="#e8823a" opacity="0.9"/><path d="M96.2 523.2 q-9.7 -18.5 0 -37.1 q6.8 18.6 0 37.1 z" fill="#d1502a" opacity="0.9"/><path d="M94.1 523.2 q-8.2 -18.1 0 -36.2 q7.1 18.1 0 36.2 z" fill="#d1502a" opacity="0.9"/><path d="M102 519.2 q-3 -13.5 0 -24.1 q3 15 0 26.4 z" fill="#ffe6a3" opacity="0.85"/></g>
  <g transform="translate(104.5 664.6) scale(1.5) translate(-104.5 -664.6)" opacity="0.95"><rect x="101.5" y="590" width="6" height="74.6" fill="#1a1512"/><g stroke="#1a1512" stroke-width="3" fill="none" stroke-linecap="round"><path d="M104.5 598 l-16 -10 l-6 -14"/><path d="M104.5 608 l18 -8 l4 -16"/><path d="M104.5 590 l-8 -16"/></g><circle cx="98.5" cy="660.6" r="4" fill="#e8823a" opacity="0.4"/></g>
  <g transform="translate(460.6 258.4) scale(1.5) translate(-460.6 -258.4)" opacity="0.95"><ellipse cx="460.6" cy="258.4" rx="40.1" ry="12" fill="#3a3733"/><rect x="490" y="254" width="13.3" height="14.6" transform="rotate(-9.1 490 254)" fill="#403c37"/><rect x="474.6" y="258.4" width="8.5" height="9.6" transform="rotate(5.8 474.6 258.4)" fill="#403c37"/><rect x="468.7" y="236.2" width="10.5" height="12.3" transform="rotate(-3.5 468.7 236.2)" fill="#403c37"/><rect x="452.1" y="234.3" width="17.1" height="14.8" transform="rotate(-16.4 452.1 234.3)" fill="#403c37"/><rect x="440.1" y="257.1" width="10.9" height="8.3" transform="rotate(11 440.1 257.1)" fill="#403c37"/><rect x="427.9" y="254.3" width="11.9" height="9.9" transform="rotate(1 427.9 254.3)" fill="#37332f"/></g>
  <g transform="translate(460.4 489.8) scale(1.5) translate(-460.4 -489.8)" opacity="0.95"><circle cx="460.4" cy="475.8" r="39.3" fill="#c9683a" opacity="0.28"/><circle cx="460.4" cy="475.8" r="19.9" fill="#e8823a" opacity="0.32"/><path d="M451.8 489.8 q-8.7 -13.1 0 -26.2 q9 13.1 0 26.2 z" fill="#e8823a" opacity="0.9"/><path d="M470.7 489.8 q-8.3 -16 0 -32.1 q7.4 16.1 0 32.1 z" fill="#d1502a" opacity="0.9"/><path d="M452.5 489.8 q-8.2 -23.5 0 -47 q9.8 23.5 0 47 z" fill="#c9683a" opacity="0.9"/><path d="M460.4 485.8 q-3 -13.5 0 -26.7 q3 14.8 0 26.7 z" fill="#ffe6a3" opacity="0.85"/></g>
  <g transform="translate(438.5 678.8) scale(1.5) translate(-438.5 -678.8)" opacity="0.95"><rect x="435.5" y="621.2" width="6" height="57.6" fill="#1a1512"/><g stroke="#1a1512" stroke-width="3" fill="none" stroke-linecap="round"><path d="M438.5 629.2 l-16 -10 l-6 -14"/><path d="M438.5 639.2 l18 -8 l4 -16"/><path d="M438.5 621.2 l-8 -16"/></g><circle cx="432.5" cy="674.8" r="4" fill="#e8823a" opacity="0.4"/></g>
</svg>
