<svg xmlns="http://www.w3.org/2000/svg" width="540" height="960" viewBox="0 0 540 960" preserveAspectRatio="none">
  <defs>
    <linearGradient id="sky" x1="0" y1="0" x2="0" y2="1">
      <stop offset="0" stop-color="#4da5e8"/>
      <stop offset="0.55" stop-color="#86c5f0"/>
      <stop offset="1" stop-color="#d6edfb"/>
    </linearGradient>
    <linearGradient id="horizon" x1="0" y1="0" x2="0" y2="1">
      <stop offset="0" stop-color="#fff3c4" stop-opacity="0"/>
      <stop offset="1" stop-color="#fff3c4" stop-opacity="0.35"/>
    </linearGradient>
  </defs>
  <rect width="540" height="960" fill="url(#sky)"/>
  <rect y="480" width="540" height="480" fill="url(#horizon)"/>
  <circle cx="300" cy="150" r="74.8" fill="#ffe9a3" opacity="0.25"/><circle cx="300" cy="150" r="49.3" fill="#ffe9a3" opacity="0.4"/><circle cx="300" cy="150" r="34" fill="#fff7cd"/><g fill="#ffffff" opacity="0.8"><ellipse cx="357.3" cy="402.7" rx="89.5" ry="21.8"/><ellipse cx="317" cy="412.5" rx="49.2" ry="17.4"/><ellipse cx="393.1" cy="410.3" rx="53.7" ry="18.5"/></g><g fill="#ffffff" opacity="0.8"><ellipse cx="203.4" cy="118.9" rx="97.4" ry="16.5"/><ellipse cx="159.6" cy="126.3" rx="53.6" ry="13.2"/><ellipse cx="242.4" cy="124.7" rx="58.4" ry="14"/></g><g fill="#ffffff" opacity="0.7"><ellipse cx="76.8" cy="607.1" rx="79.2" ry="16.5"/><ellipse cx="41.2" cy="614.5" rx="43.6" ry="13.2"/><ellipse cx="108.5" cy="612.9" rx="47.5" ry="14"/></g><g fill="#ffffff" opacity="0.6"><ellipse cx="179.9" cy="316.5" rx="56.1" ry="17.2"/><ellipse cx="154.7" cy="324.2" rx="30.9" ry="13.8"/><ellipse cx="202.3" cy="322.5" rx="33.7" ry="14.6"/></g><g fill="#ffffff" opacity="0.8"><ellipse cx="315.7" cy="214.8" rx="63.9" ry="15"/><ellipse cx="286.9" cy="221.6" rx="35.1" ry="12"/><ellipse cx="341.3" cy="220.1" rx="38.3" ry="12.8"/></g>
</svg>
