<svg xmlns="http://www.w3.org/2000/svg" width="540" height="960" viewBox="0 0 540 960" preserveAspectRatio="none">
  <defs>
    <linearGradient id="ground" x1="0" y1="0" x2="0" y2="1">
      <stop offset="0" stop-color="#2b2a2e"/>
      <stop offset="0.55" stop-color="#3d3a3a"/>
      <stop offset="1" stop-color="#524a45"/>
    </linearGradient>
    <linearGradient id="glowL" x1="0" y1="0" x2="1" y2="0">
      <stop offset="0" stop-color="#c9683a" stop-opacity="0.22"/>
      <stop offset="1" stop-color="#c9683a" stop-opacity="0"/>
    </linearGradient>
    <linearGradient id="glowR" x1="1" y1="0" x2="0" y2="0">
      <stop offset="0" stop-color="#c9683a" stop-opacity="0.22"/>
      <stop offset="1" stop-color="#c9683a" stop-opacity="0"/>
    </linearGradient>
  </defs>
  <rect width="540" height="960" fill="url(#ground)"/>
  <rect x="0" y="0" width="226.8" height="960" fill="url(#glowL)"/><rect x="313.2" y="0" width="226.8" height="960" fill="url(#glowR)"/><circle cx="372.4" cy="556.3" r="4.9" fill="#e8823a" opacity="0.1"/><circle cx="406.3" cy="340.9" r="2.3" fill="#e8823a" opacity="0.1"/><circle cx="137.4" cy="730.1" r="2.4" fill="#e8823a" opacity="0.2"/><circle cx="218.2" cy="241.1" r="3" fill="#e8823a" opacity="0.1"/><circle cx="229.3" cy="17.5" r="3.6" fill="#e8823a" opacity="0.1"/><circle cx="323.6" cy="232.4" r="2.7" fill="#e8823a" opacity="0.1"/><circle cx="281.4" cy="947.2" r="4.7" fill="#e8823a" opacity="0.1"/><circle cx="113.2" cy="469.6" r="5" fill="#e8823a" opacity="0.1"/><ellipse cx="270" cy="212.8" rx="378" ry="50.1" fill="#2b2a2e" opacity="0.25"/><ellipse cx="270" cy="434.6" rx="378" ry="58.8" fill="#2b2a2e" opacity="0.25"/><ellipse cx="270" cy="704.7" rx="378" ry="47.1" fill="#2b2a2e" opacity="0.25"/>
</svg>
