<svg xmlns="http://www.w3.org/2000/svg" width="540" height="960" viewBox="0 0 540 960" preserveAspectRatio="none">
  <defs>
    <linearGradient id="sky" x1="0" y1="0" x2="0" y2="1">
      <stop offset="0" stop-color="#0a0f1e"/>
      <stop offset="0.55" stop-color="#0f172a"/>
      <stop offset="1" stop-color="#16233d"/>
    </linearGradient>
    <linearGradient id="horizon" x1="0" y1="0" x2="0" y2="1">
      <stop offset="0" stop-color="#facc15" stop-opacity="0"/>
      <stop offset="1" stop-color="#facc15" stop-opacity="0.1"/>
    </linearGradient>
  </defs>
  <rect width="540" height="960" fill="url(#sky)"/>
  <rect y="480" width="540" height="480" fill="url(#horizon)"/>
  <g fill="#f8fafc" opacity="0.4"><circle cx="372.4" cy="389.4" r="1.6"/><circle cx="421.7" cy="505.7" r="1.3"/><circle cx="37.7" cy="474.5" r="1.2"/><circle cx="410.7" cy="53.7" r="2.1"/><circle cx="218.2" cy="168.8" r="1.1"/><circle cx="164.2" cy="285.4" r="0.8"/><circle cx="171.7" cy="91.5" r="1.6"/><circle cx="130.7" cy="99.5" r="0.9"/><circle cx="281.4" cy="663" r="1.6"/><circle cx="411.2" cy="140.8" r="1.5"/><circle cx="328.7" cy="135.1" r="2.1"/><circle cx="181.9" cy="290.5" r="1.7"/><circle cx="301.7" cy="158.4" r="1"/><circle cx="367.3" cy="430.8" r="1.3"/><circle cx="431.3" cy="100.7" r="2"/><circle cx="200.3" cy="28.1" r="2.2"/><circle cx="389.4" cy="158.9" r="0.9"/><circle cx="308.6" cy="562.1" r="1.4"/><circle cx="233.4" cy="140.5" r="1.2"/><circle cx="199.6" cy="294.6" r="1.4"/><circle cx="138.6" cy="560.1" r="2.1"/><circle cx="83.7" cy="406.4" r="0.9"/><circle cx="537.9" cy="281.2" r="1.8"/><circle cx="32" cy="238.3" r="1.6"/><circle cx="487.1" cy="229.2" r="1.3"/><circle cx="419.1" cy="597.1" r="1.5"/></g><circle cx="142.4" cy="116.5" r="34" fill="#e2e8f0" opacity="0.85"/><circle cx="130.4" cy="110.5" r="30" fill="#0a0f1e" opacity="0.9"/><circle cx="142.4" cy="116.5" r="52" fill="#e2e8f0" opacity="0.06"/>
</svg>
