<svg xmlns="http://www.w3.org/2000/svg" width="540" height="960" viewBox="0 0 540 960">
  <g fill="#3a3733"><polygon points="9.1,249.9 9.1,137.4 21.1,149.4 33.1,131.4 41.1,145.4 41.1,249.9"/></g><rect x="19.1" y="161.4" width="12" height="16" rx="6" fill="#0d0a09" opacity="0.5"/><rect x="19.1" y="161.4" width="12" height="6" fill="#e8823a" opacity="0.4"/>
  <ellipse cx="17" cy="474.6" rx="43.6" ry="12" fill="#3a3733"/><rect x="38.1" y="454.7" width="7.1" height="5.3" transform="rotate(10.8 38.1 454.7)" fill="#37332f"/><rect x="29" y="471.3" width="12.7" height="9.3" transform="rotate(7.6 29 471.3)" fill="#37332f"/><rect x="-13.5" y="471.9" width="7.7" height="6.4" transform="rotate(6.9 -13.5 471.9)" fill="#403c37"/><rect x="13.8" y="469.6" width="14.3" height="10.9" transform="rotate(22.1 13.8 469.6)" fill="#403c37"/><rect x="10.1" y="472.6" width="16.2" height="17.4" transform="rotate(18.9 10.1 472.6)" fill="#403c37"/>
  <g fill="#403c37"><polygon points="-28.2,703.9 -28.2,632.5 18.1,646.5 34.5,626.5 61.4,652.5 61.4,703.9"/></g><polygon points="-24.2,652.5 16.6,630.5 16.6,697.9 -24.2,697.9" fill="#100c0a" opacity="0.45"/><rect x="10.6" y="654.5" width="14" height="18" fill="#e8823a" opacity="0.5"/><ellipse cx="-10.3" cy="703.9" rx="47.7" ry="12" fill="#3a3733"/><rect x="0.9" y="700" width="14.3" height="10.6" transform="rotate(31.8 0.9 700)" fill="#403c37"/><rect x="-27.7" y="700.8" width="7.3" height="4.4" transform="rotate(-28.2 -27.7 700.8)" fill="#403c37"/><rect x="-19.1" y="697.6" width="6.5" height="6.3" transform="rotate(38.6 -19.1 697.6)" fill="#37332f"/><rect x="-15" y="689.1" width="16.7" height="11.3" transform="rotate(14.6 -15 689.1)" fill="#403c37"/><rect x="20.8" y="687.4" width="14.7" height="15.3" transform="rotate(-21.2 20.8 687.4)" fill="#403c37"/>
  <g fill="#3a3733"><polygon points="499.4,265 499.4,119.3 511.4,131.3 523.4,113.3 531.4,127.3 531.4,265"/></g><rect x="509.4" y="143.3" width="12" height="16" rx="6" fill="#0d0a09" opacity="0.5"/><rect x="509.4" y="143.3" width="12" height="6" fill="#e8823a" opacity="0.4"/>
  <ellipse cx="524.5" cy="492.3" rx="45.2" ry="12" fill="#3a3733"/><rect x="541.8" y="481.3" width="7.1" height="7.1" transform="rotate(-1.9 541.8 481.3)" fill="#37332f"/><rect x="493.9" y="490.3" width="7.5" height="7.3" transform="rotate(-12.2 493.9 490.3)" fill="#403c37"/><rect x="553.8" y="486.2" width="16" height="15.8" transform="rotate(31.3 553.8 486.2)" fill="#403c37"/><rect x="549.1" y="488.8" width="8.4" height="9.4" transform="rotate(-9.3 549.1 488.8)" fill="#403c37"/><rect x="557.4" y="474.9" width="14.1" height="16.8" transform="rotate(16.7 557.4 474.9)" fill="#403c37"/><rect x="551.1" y="487.3" width="6.5" height="5.9" transform="rotate(-30.3 551.1 487.3)" fill="#37332f"/>
  <g fill="#403c37"><polygon points="472.5,732.4 472.5,678 512.4,692 539.6,672 568.3,698 568.3,732.4"/></g><polygon points="476.5,698 520.4,676 520.4,726.4 476.5,726.4" fill="#100c0a" opacity="0.45"/><rect x="514.4" y="700" width="14" height="18" fill="#e8823a" opacity="0.5"/><ellipse cx="491.7" cy="732.4" rx="36.7" ry="12" fill="#3a3733"/><rect x="480.4" y="726.9" width="14.4" height="9.2" transform="rotate(-31 480.4 726.9)" fill="#37332f"/><rect x="496.4" y="724.5" width="16.6" height="11.7" transform="rotate(24.4 496.4 724.5)" fill="#37332f"/><rect x="499.2" y="721.2" width="6.7" height="5.4" transform="rotate(7.7 499.2 721.2)" fill="#403c37"/><rect x="459.3" y="709.9" width="11.1" height="8.1" transform="rotate(-9.4 459.3 709.9)" fill="#37332f"/><rect x="469.1" y="731.3" width="9.6" height="8.3" transform="rotate(32.9 469.1 731.3)" fill="#403c37"/><rect x="476" y="723.4" width="16.2" height="10.2" transform="rotate(-36.6 476 723.4)" fill="#37332f"/><rect x="523.4" y="720.4" width="15.9" height="14.9" transform="rotate(35.3 523.4 720.4)" fill="#403c37"/><rect x="508.5" y="727.7" width="7.4" height="6.3" transform="rotate(12.3 508.5 727.7)" fill="#37332f"/>
</svg>
