<svg xmlns="http://www.w3.org/2000/svg" width="540" height="960" viewBox="0 0 540 960">
  <!-- causeway slab: continuous full-height, uniform -> wraps seamlessly -->
  <rect x="50" y="0" width="440" height="960" fill="#5c5852"/>
  <rect x="50" y="0" width="6" height="960" fill="#403c37"/>
  <rect x="484" y="0" width="6" height="960" fill="#403c37"/>
  <!-- center road (the marching lane stays clear of props) -->
  <rect x="170" y="0" width="200" height="960" fill="#4f4b46"/>
  <rect x="170" y="0" width="6" height="960" fill="#37332f"/>
  <rect x="364" y="0" width="6" height="960" fill="#37332f"/>
  <g fill="#b9b2a6" opacity="0.3">
    <rect x="266" y="40" width="8" height="32.2"/>
    <rect x="266" y="160" width="8" height="26.5"/>
    <rect x="266" y="280" width="8" height="24"/>
    <rect x="266" y="640" width="8" height="30.7"/>
  </g>
  <rect x="50" y="120" width="120" height="2" fill="#37332f" opacity="0.35"/><rect x="370" y="120" width="120" height="2" fill="#37332f" opacity="0.35"/><rect x="50" y="240" width="120" height="2" fill="#37332f" opacity="0.35"/><rect x="370" y="240" width="120" height="2" fill="#37332f" opacity="0.35"/><rect x="50" y="360" width="120" height="2" fill="#37332f" opacity="0.35"/><rect x="370" y="360" width="120" height="2" fill="#37332f" opacity="0.35"/><rect x="50" y="480" width="120" height="2" fill="#37332f" opacity="0.35"/><rect x="370" y="480" width="120" height="2" fill="#37332f" opacity="0.35"/><rect x="50" y="600" width="120" height="2" fill="#37332f" opacity="0.35"/><rect x="370" y="600" width="120" height="2" fill="#37332f" opacity="0.35"/><rect x="50" y="720" width="120" height="2" fill="#37332f" opacity="0.35"/><rect x="370" y="720" width="120" height="2" fill="#37332f" opacity="0.35"/><rect x="50" y="840" width="120" height="2" fill="#37332f" opacity="0.35"/><rect x="370" y="840" width="120" height="2" fill="#37332f" opacity="0.35"/><ellipse cx="167.5" cy="778.6" rx="26.9" ry="10.9" fill="#0d0a09" opacity="0.3"/><ellipse cx="446.8" cy="633.8" rx="40.5" ry="19.6" fill="#0d0a09" opacity="0.2"/><ellipse cx="413.6" cy="298.4" rx="45.6" ry="16.7" fill="#0d0a09" opacity="0.2"/><ellipse cx="207.8" cy="593" rx="29.4" ry="17.1" fill="#0d0a09" opacity="0.2"/><ellipse cx="356.9" cy="711.1" rx="34.7" ry="10.2" fill="#0d0a09" opacity="0.2"/><ellipse cx="98.2" cy="452.9" rx="45.5" ry="21.9" fill="#0d0a09" opacity="0.3"/><g stroke="#0d0a09" stroke-width="2" fill="none" opacity="0.5"><path d="M230.2 199.8 L247.3 227.9 L268.8 256.4 L275.2 289.2 L260.9 313.6"/><path d="M124.1 769.3 L106.9 790.4 L129 834.3 L154 871.8 L138 913.1 L161.2 931.3"/><path d="M252.3 237.6 L246.7 268.3 L231.4 288.7 L236.3 326.2"/><path d="M420.2 761.5 L425 801.4 L432.1 824.6 L407 859.6"/><path d="M168.3 145.2 L176.7 172.9 L183.6 205.5 L162.4 234.6 L174.5 277.6 L181.7 318.3"/><path d="M257.1 793.9 L279.5 818.2 L258.3 854.4 L256.9 881.9"/><path d="M415.3 125.4 L398.5 163.2 L387.7 200.3 L396.8 244 L373.6 281.7 L361.1 305.4"/></g>
  <rect x="69.5" y="762.1" width="8" height="4.7" transform="rotate(78.8 69.5 762.1)" fill="#37332f" opacity="0.8"/>
  <rect x="56" y="274.4" width="4.1" height="6.9" transform="rotate(7 56 274.4)" fill="#37332f" opacity="0.8"/>
  <rect x="68.8" y="399.8" width="9.3" height="8.3" transform="rotate(85.2 68.8 399.8)" fill="#37332f" opacity="0.8"/>
  <rect x="62.5" y="476.9" width="5.4" height="8.5" transform="rotate(81.3 62.5 476.9)" fill="#37332f" opacity="0.8"/>
  <rect x="49" y="650.6" width="8" height="9.9" transform="rotate(4.8 49 650.6)" fill="#37332f" opacity="0.8"/>
  <rect x="52.5" y="694.6" width="11.1" height="7.2" transform="rotate(89.2 52.5 694.6)" fill="#37332f" opacity="0.8"/>
  <rect x="488.8" y="115.5" width="4.2" height="6.3" transform="rotate(15.4 488.8 115.5)" fill="#37332f" opacity="0.8"/>
  <rect x="475.3" y="98.2" width="10.9" height="9.7" transform="rotate(37.6 475.3 98.2)" fill="#37332f" opacity="0.8"/>
  <rect x="491.6" y="218.6" width="11.2" height="8.3" transform="rotate(81.4 491.6 218.6)" fill="#37332f" opacity="0.8"/>
  <rect x="495.9" y="824.3" width="10.1" height="7.8" transform="rotate(53.1 495.9 824.3)" fill="#37332f" opacity="0.8"/>
  <rect x="483.7" y="346.9" width="6.3" height="7.6" transform="rotate(38.3 483.7 346.9)" fill="#37332f" opacity="0.8"/>
  <rect x="501" y="359.5" width="8.9" height="5.8" transform="rotate(24 501 359.5)" fill="#37332f" opacity="0.8"/>
  <g fill="#403c37"><rect x="75.7" y="166.5" width="68" height="8"/><rect x="81.7" y="128.5" width="6" height="38"/><path d="M131.7 166.5 l4 -30 l-8 -8" stroke="#403c37" stroke-width="6" fill="none"/><polygon points="69.7,128.5 103.7,110.5 127.7,134.5"/></g><ellipse cx="125.7" cy="174.5" rx="48.4" ry="12" fill="#3a3733"/><rect x="137" y="163.2" width="17.2" height="19.3" transform="rotate(-0.7 137 163.2)" fill="#403c37"/><rect x="155.4" y="159" width="15.2" height="14.9" transform="rotate(7.6 155.4 159)" fill="#37332f"/><rect x="134.7" y="171.1" width="13.1" height="11.7" transform="rotate(8 134.7 171.1)" fill="#37332f"/><rect x="128.2" y="161.2" width="11.9" height="10.8" transform="rotate(-23.2 128.2 161.2)" fill="#403c37"/><rect x="99.5" y="163.6" width="7.3" height="7.2" transform="rotate(-24.4 99.5 163.6)" fill="#403c37"/><rect x="158" y="156.1" width="9.7" height="10.1" transform="rotate(-35.7 158 156.1)" fill="#403c37"/><rect x="126.9" y="155.1" width="11.4" height="12.4" transform="rotate(37.4 126.9 155.1)" fill="#403c37"/>
  <circle cx="107" cy="280.1" r="45.9" fill="#c9683a" opacity="0.28"/><circle cx="107" cy="280.1" r="21.6" fill="#e8823a" opacity="0.32"/><path d="M111.4 294.1 q-9 -23.5 0 -47 q10 23.5 0 47 z" fill="#e8823a" opacity="0.9"/><path d="M101.7 294.1 q-7.7 -21.6 0 -43.3 q9 21.7 0 43.3 z" fill="#d1502a" opacity="0.9"/><path d="M114.3 294.1 q-6.3 -18.5 0 -37 q9.2 18.5 0 37 z" fill="#d1502a" opacity="0.9"/><path d="M107 290.1 q-3 -10.6 0 -24.2 q3 16 0 24.6 z" fill="#ffe6a3" opacity="0.85"/>
  <path d="M119.5 428.9 Q 74.5 472.9 29.5 464.9" stroke="#37332f" stroke-width="1.5" fill="none" opacity="0.5"/><polygon points="89.5,445.7 96.5,445.7 92.5,454.7" fill="#37332f" opacity="0.7"/><polygon points="74.5,452.9 81.5,452.9 77.5,461.9" fill="#d1502a" opacity="0.7"/><polygon points="44.5,464.2 51.5,464.2 47.5,473.2" fill="#37332f" opacity="0.7"/>
  <ellipse cx="108.3" cy="628.8" rx="39.1" ry="15.7" fill="#0d0a09" opacity="0.55"/><ellipse cx="108.3" cy="628.8" rx="23.5" ry="9.4" fill="#c9683a" opacity="0.18"/><ellipse cx="108.3" cy="628.8" rx="39.1" ry="15.7" fill="none" stroke="#37332f" stroke-width="3" opacity="0.6"/>
  <circle cx="92.7" cy="799.8" r="21" fill="#0e0c0c" opacity="0.2"/><circle cx="111.8" cy="771.8" r="30.6" fill="#0e0c0c" opacity="0.2"/><circle cx="106.5" cy="739.1" r="37.1" fill="#0e0c0c" opacity="0.2"/><circle cx="131.3" cy="704.5" r="46.3" fill="#0e0c0c" opacity="0.2"/>
  <g fill="#403c37"><rect x="386.3" y="166.5" width="68" height="8"/><rect x="392.3" y="128.5" width="6" height="38"/><path d="M442.3 166.5 l4 -30 l-8 -8" stroke="#403c37" stroke-width="6" fill="none"/><polygon points="380.3,128.5 414.3,110.5 438.3,134.5"/></g><ellipse cx="436.3" cy="174.5" rx="47.7" ry="12" fill="#3a3733"/><rect x="405" y="172.5" width="7.4" height="5.4" transform="rotate(-31.1 405 172.5)" fill="#403c37"/><rect x="414.3" y="166.3" width="10.9" height="8.4" transform="rotate(27.2 414.3 166.3)" fill="#37332f"/><rect x="446.3" y="160.9" width="12.4" height="12.1" transform="rotate(-33.4 446.3 160.9)" fill="#403c37"/><rect x="449.7" y="167.4" width="16.2" height="12.6" transform="rotate(-11.2 449.7 167.4)" fill="#37332f"/><rect x="462.7" y="166.8" width="16.7" height="19.6" transform="rotate(-37.3 462.7 166.8)" fill="#403c37"/><rect x="413.9" y="156.6" width="12.6" height="13.6" transform="rotate(1.1 413.9 156.6)" fill="#37332f"/>
  <circle cx="428" cy="297.4" r="43" fill="#c9683a" opacity="0.28"/><circle cx="428" cy="297.4" r="20.9" fill="#e8823a" opacity="0.32"/><path d="M430.3 311.4 q-6.2 -18.1 0 -36.3 q7.4 18.2 0 36.3 z" fill="#e8823a" opacity="0.9"/><path d="M428.2 311.4 q-8.4 -19.2 0 -38.5 q8 19.3 0 38.5 z" fill="#d1502a" opacity="0.9"/><path d="M438.1 311.4 q-6.1 -23.1 0 -46.3 q9.4 23.2 0 46.3 z" fill="#c9683a" opacity="0.9"/><path d="M428 307.4 q-3 -10.7 0 -21.4 q3 13.7 0 21.3 z" fill="#ffe6a3" opacity="0.85"/>
  <path d="M425.5 414.7 Q 470.5 458.7 515.5 450.7" stroke="#37332f" stroke-width="1.5" fill="none" opacity="0.5"/><polygon points="440.5,423.4 447.5,423.4 443.5,432.4" fill="#3a2f28" opacity="0.7"/><polygon points="470.5,438.7 477.5,438.7 473.5,447.7" fill="#d1502a" opacity="0.7"/><polygon points="500.5,450 507.5,450 503.5,459" fill="#37332f" opacity="0.7"/>
  <ellipse cx="439.1" cy="619.3" rx="35.3" ry="14.5" fill="#0d0a09" opacity="0.55"/><ellipse cx="439.1" cy="619.3" rx="21.2" ry="8.7" fill="#c9683a" opacity="0.18"/><ellipse cx="439.1" cy="619.3" rx="35.3" ry="14.5" fill="none" stroke="#37332f" stroke-width="3" opacity="0.6"/>
  <circle cx="409.2" cy="762.9" r="23.6" fill="#0e0c0c" opacity="0.2"/><circle cx="424.4" cy="736.4" r="30.5" fill="#0e0c0c" opacity="0.2"/><circle cx="436.2" cy="704" r="35" fill="#0e0c0c" opacity="0.2"/>
</svg>
