<svg xmlns="http://www.w3.org/2000/svg" width="540" height="960" viewBox="0 0 540 960">
  <g transform="translate(103.9 187.9) scale(1.5) translate(-103.9 -187.9)" opacity="0.95"><g><rect x="71.9" y="163.9" width="64" height="24" rx="3" fill="#8ba0bf"/><polygon points="77.9,163.9 91.9,163.9 81.9,187.9 67.9,187.9" fill="#7cc8ea" opacity="0.45"/><polygon points="107.9,163.9 121.9,163.9 111.9,187.9 97.9,187.9" fill="#7cc8ea" opacity="0.45"/></g></g>
  <g transform="translate(86.5 519.3) scale(1.5) translate(-86.5 -519.3)" opacity="0.95"><rect x="81.5" y="497.3" width="10" height="22" rx="4" fill="#8ba0bf"/><rect x="81.5" y="501.3" width="10" height="3" fill="#7cc8ea" opacity="0.5"/></g>
  <g transform="translate(97.3 708.4) scale(1.5) translate(-97.3 -708.4)" opacity="0.95"><rect x="94.8" y="630.4" width="5" height="78" fill="#8ba0bf"/><circle cx="97.3" cy="628.4" r="6" fill="#7cc8ea" opacity="0.9"/><circle cx="97.3" cy="628.4" r="16" fill="#7cc8ea" opacity="0.12"/></g>
  <g transform="translate(437.5 239.8) scale(1.5) translate(-437.5 -239.8)" opacity="0.95"><g><rect x="405.5" y="215.8" width="64" height="24" rx="3" fill="#8ba0bf"/><polygon points="411.5,215.8 425.5,215.8 415.5,239.8 401.5,239.8" fill="#7cc8ea" opacity="0.45"/><polygon points="441.5,215.8 455.5,215.8 445.5,239.8 431.5,239.8" fill="#7cc8ea" opacity="0.45"/></g></g>
  <g transform="translate(433.1 485.8) scale(1.5) translate(-433.1 -485.8)" opacity="0.95"><rect x="428.1" y="463.8" width="10" height="22" rx="4" fill="#8ba0bf"/><rect x="428.1" y="467.8" width="10" height="3" fill="#7cc8ea" opacity="0.5"/></g>
  <g transform="translate(463.2 766.1) scale(1.5) translate(-463.2 -766.1)" opacity="0.95"><rect x="460.7" y="688.1" width="5" height="78" fill="#8ba0bf"/><circle cx="463.2" cy="686.1" r="6" fill="#7cc8ea" opacity="0.9"/><circle cx="463.2" cy="686.1" r="16" fill="#7cc8ea" opacity="0.12"/></g>
</svg>
