<svg xmlns="http://www.w3.org/2000/svg" width="540" height="960" viewBox="0 0 540 960">
  <g transform="translate(103.9 187.9) scale(1.5) translate(-103.9 -187.9)" opacity="0.95"><g><rect x="71.9" y="163.9" width="64" height="24" rx="3" fill="#2a2320"/><polygon points="77.9,163.9 91.9,163.9 81.9,187.9 67.9,187.9" fill="#ff8a3a" opacity="0.45"/><polygon points="107.9,163.9 121.9,163.9 111.9,187.9 97.9,187.9" fill="#ff8a3a" opacity="0.45"/></g></g>
  <g transform="translate(86.5 519.3) scale(1.5) translate(-86.5 -519.3)" opacity="0.95"><circle cx="86.5" cy="505.3" r="40.7" fill="#ff5a1e" opacity="0.28"/><circle cx="86.5" cy="505.3" r="20" fill="#ff8a3a" opacity="0.32"/><path d="M95.7 519.3 q-6.1 -14.9 0 -29.8 q9.9 14.9 0 29.8 z" fill="#ff8a3a" opacity="0.9"/><path d="M86.9 519.3 q-7.3 -13.5 0 -27.1 q7.9 13.6 0 27.1 z" fill="#ff5a1e" opacity="0.9"/><path d="M95.7 519.3 q-6.5 -18.4 0 -36.9 q7.8 18.5 0 36.9 z" fill="#ff5a1e" opacity="0.9"/><path d="M86.5 515.3 q-3 -12.9 0 -26.1 q3 15.4 0 22.3 z" fill="#ffe6a3" opacity="0.85"/></g>
  <g transform="translate(80.4 708.4) scale(1.5) translate(-80.4 -708.4)" opacity="0.95"><ellipse cx="80.4" cy="708.4" rx="49.9" ry="12" fill="#211b19"/><rect x="77.1" y="701.9" width="10.6" height="8.1" transform="rotate(39.7 77.1 701.9)" fill="#2a2320"/><rect x="93.1" y="689.5" width="15.7" height="12.5" transform="rotate(17.8 93.1 689.5)" fill="#191614"/><rect x="66.4" y="688.3" width="6.8" height="4.6" transform="rotate(4.3 66.4 688.3)" fill="#2a2320"/><rect x="57.6" y="689.1" width="15.7" height="16.6" transform="rotate(-25.1 57.6 689.1)" fill="#191614"/><rect x="113.6" y="683" width="8.7" height="9.1" transform="rotate(-35.4 113.6 683)" fill="#191614"/></g>
  <g transform="translate(460.7 282) scale(1.5) translate(-460.7 -282)" opacity="0.95"><g><rect x="428.7" y="258" width="64" height="24" rx="3" fill="#2a2320"/><polygon points="434.7,258 448.7,258 438.7,282 424.7,282" fill="#ff8a3a" opacity="0.45"/><polygon points="464.7,258 478.7,258 468.7,282 454.7,282" fill="#ff8a3a" opacity="0.45"/></g></g>
  <g transform="translate(433.1 468.1) scale(1.5) translate(-433.1 -468.1)" opacity="0.95"><circle cx="433.1" cy="454.1" r="40.6" fill="#ff5a1e" opacity="0.28"/><circle cx="433.1" cy="454.1" r="17.7" fill="#ff8a3a" opacity="0.32"/><path d="M443 468.1 q-8.3 -23.6 0 -47.3 q9.9 23.7 0 47.3 z" fill="#ff8a3a" opacity="0.9"/><path d="M443.8 468.1 q-8.6 -14.6 0 -29.3 q7.1 14.7 0 29.3 z" fill="#ff3a12" opacity="0.9"/><path d="M440.9 468.1 q-8.9 -22 0 -44.1 q6.8 22.1 0 44.1 z" fill="#ff5a1e" opacity="0.9"/><path d="M433.1 464.1 q-3 -14.4 0 -27.5 q3 12 0 22.7 z" fill="#ffe6a3" opacity="0.85"/></g>
  <g transform="translate(459.1 673.9) scale(1.5) translate(-459.1 -673.9)" opacity="0.95"><ellipse cx="459.1" cy="673.9" rx="44.7" ry="12" fill="#211b19"/><rect x="438.2" y="651.3" width="13.3" height="11.2" transform="rotate(-30.3 438.2 651.3)" fill="#191614"/><rect x="453.4" y="670.8" width="16.9" height="18.9" transform="rotate(-30.6 453.4 670.8)" fill="#191614"/><rect x="473.1" y="649.9" width="6.3" height="4.3" transform="rotate(-12.4 473.1 649.9)" fill="#191614"/><rect x="449.2" y="657.4" width="16.5" height="18.8" transform="rotate(9.3 449.2 657.4)" fill="#2a2320"/><rect x="489" y="662.1" width="14.7" height="13.3" transform="rotate(-3.1 489 662.1)" fill="#2a2320"/><rect x="466.3" y="652.3" width="10.4" height="11.7" transform="rotate(-31.2 466.3 652.3)" fill="#2a2320"/></g>
</svg>
