<svg xmlns="http://www.w3.org/2000/svg" width="540" height="960" viewBox="0 0 540 960" preserveAspectRatio="none">
  <defs>
    <linearGradient id="sky" x1="0" y1="0" x2="0" y2="1">
      <stop offset="0" stop-color="#2f8ad8"/>
      <stop offset="0.55" stop-color="#6ebcee"/>
      <stop offset="1" stop-color="#c6e7fa"/>
    </linearGradient>
    <linearGradient id="horizon" x1="0" y1="0" x2="0" y2="1">
      <stop offset="0" stop-color="#eaf7ff" stop-opacity="0"/>
      <stop offset="1" stop-color="#eaf7ff" stop-opacity="0.4"/>
    </linearGradient>
  </defs>
  <rect width="540" height="960" fill="url(#sky)"/>
  <rect y="480" width="540" height="480" fill="url(#horizon)"/>
  <circle cx="160" cy="110" r="57.2" fill="#fff3b8" opacity="0.25"/><circle cx="160" cy="110" r="37.7" fill="#fff3b8" opacity="0.4"/><circle cx="160" cy="110" r="26" fill="#ffffff"/><g fill="#ffffff" opacity="0.7"><ellipse cx="474" cy="253" rx="99.9" ry="18.4"/><ellipse cx="429" cy="261.3" rx="54.9" ry="14.7"/><ellipse cx="514" cy="259.4" rx="59.9" ry="15.6"/></g><g fill="#ffffff" opacity="0.7"><ellipse cx="458.4" cy="223.3" rx="64.4" ry="15"/><ellipse cx="429.4" cy="230.1" rx="35.4" ry="12"/><ellipse cx="484.2" cy="228.6" rx="38.6" ry="12.8"/></g><g fill="#ffffff" opacity="0.8"><ellipse cx="216.1" cy="627.3" rx="85.6" ry="19.1"/><ellipse cx="177.6" cy="635.9" rx="47.1" ry="15.3"/><ellipse cx="250.3" cy="634" rx="51.4" ry="16.2"/></g>
</svg>
