<svg xmlns="http://www.w3.org/2000/svg" width="540" height="960" viewBox="0 0 540 960">
  <rect x="-15.3" y="24.3" width="60.8" height="173.5" fill="#9db0c4"/><g fill="#7cc8ea" opacity="0.22"><rect x="25.1" y="38.3" width="10" height="12"/><rect x="-5.3" y="72.3" width="10" height="12"/><rect x="25.1" y="106.3" width="10" height="12"/><rect x="-5.3" y="140.3" width="10" height="12"/><rect x="25.1" y="140.3" width="10" height="12"/><rect x="-5.3" y="174.3" width="10" height="12"/><rect x="25.1" y="174.3" width="10" height="12"/></g>
  <g fill="#9db0c4"><rect x="-46.4" y="389.6" width="120" height="80"/><ellipse cx="13.6" cy="389.6" rx="34" ry="30"/><rect x="11.6" y="345.6" width="4" height="16"/></g><g fill="#7cc8ea" opacity="0.2"><rect x="-30.4" y="419.6" width="10" height="24"/><rect x="47.6" y="419.6" width="10" height="24"/></g>
  <rect x="-21.3" y="554.5" width="81.9" height="171.3" fill="#9db0c4"/><g fill="#7cc8ea" opacity="0.22"><rect x="29.7" y="636.5" width="10" height="12"/><rect x="-11.3" y="670.5" width="10" height="12"/><rect x="29.7" y="670.5" width="10" height="12"/></g>
  <rect x="497.1" y="-15.2" width="68.7" height="230.6" fill="#9db0c4"/><g fill="#7cc8ea" opacity="0.22"><rect x="507.1" y="-1.2" width="10" height="12"/><rect x="507.1" y="32.8" width="10" height="12"/><rect x="541.5" y="66.8" width="10" height="12"/><rect x="507.1" y="100.8" width="10" height="12"/><rect x="541.5" y="100.8" width="10" height="12"/><rect x="507.1" y="134.8" width="10" height="12"/></g>
  <g fill="#9db0c4"><rect x="470.1" y="392.7" width="120" height="80"/><ellipse cx="530.1" cy="392.7" rx="34" ry="30"/><rect x="528.1" y="348.7" width="4" height="16"/></g><g fill="#7cc8ea" opacity="0.2"><rect x="486.1" y="422.7" width="10" height="24"/><rect x="564.1" y="422.7" width="10" height="24"/></g>
  <rect x="483.9" y="425.6" width="64.2" height="254.5" fill="#9db0c4"/><g fill="#7cc8ea" opacity="0.22"><rect x="493.9" y="473.6" width="10" height="12"/><rect x="526" y="473.6" width="10" height="12"/><rect x="493.9" y="541.6" width="10" height="12"/><rect x="526" y="541.6" width="10" height="12"/><rect x="493.9" y="575.6" width="10" height="12"/><rect x="526" y="575.6" width="10" height="12"/><rect x="493.9" y="643.6" width="10" height="12"/><rect x="526" y="643.6" width="10" height="12"/></g>
</svg>
