<svg xmlns="http://www.w3.org/2000/svg" width="540" height="960" viewBox="0 0 540 960">
  <polygon points="-15.3,197.8 -15.3,26.8 15.1,16.3 45.5,56.5 45.5,197.8" fill="#211b19"/><rect x="-5.3" y="64.3" width="10" height="12" fill="#0d0a09" opacity="0.5"/><rect x="25.1" y="98.3" width="10" height="12" fill="#ff8a3a" opacity="0.7"/><rect x="-5.3" y="132.3" width="10" height="12" fill="#0d0a09" opacity="0.5"/><rect x="25.1" y="132.3" width="10" height="12" fill="#0d0a09" opacity="0.5"/><rect x="-5.3" y="166.3" width="10" height="12" fill="#0d0a09" opacity="0.5"/><rect x="25.1" y="166.3" width="10" height="12" fill="#0d0a09" opacity="0.5"/><rect x="-5.3" y="200.3" width="10" height="12" fill="#0d0a09" opacity="0.5"/><rect x="2.9" y="137.1" width="24.3" height="60.7" fill="#0d0a09" opacity="0.4"/>
  <g fill="#211b19"><rect x="-51.9" y="389.6" width="120" height="80"/><path d="M-25.9 389.6 a34 30 0 0 1 68 0 z"/></g><path d="M-21.9 381.6 l10 -14 l6 16 l8 -10" stroke="#0d0a09" stroke-width="2.5" fill="none" opacity="0.6"/><g opacity="0.5"><rect x="-35.9" y="419.6" width="10" height="24" fill="#0d0a09"/><rect x="42.1" y="419.6" width="10" height="24" fill="#0d0a09"/><rect x="2.1" y="399.6" width="12" height="10" fill="#ff8a3a"/></g>
  <ellipse cx="22.8" cy="725.8" rx="40.3" ry="12" fill="#211b19"/><rect x="6.3" y="722.8" width="6" height="6.7" transform="rotate(8.7 6.3 722.8)" fill="#191614"/><rect x="1.9" y="715.3" width="8.8" height="7.5" transform="rotate(-34.7 1.9 715.3)" fill="#191614"/><rect x="26.6" y="708.3" width="16.3" height="13.2" transform="rotate(10.9 26.6 708.3)" fill="#2a2320"/><rect x="2.5" y="706.1" width="14.7" height="14" transform="rotate(32.3 2.5 706.1)" fill="#2a2320"/><rect x="-5.5" y="721" width="16.8" height="11.2" transform="rotate(-7.4 -5.5 721)" fill="#191614"/><rect x="-3.5" y="723.6" width="11.9" height="14" transform="rotate(-36.6 -3.5 723.6)" fill="#2a2320"/>
  <polygon points="502.5,283.1 502.5,151.1 531.1,111.4 559.7,153.4 559.7,283.1" fill="#211b19"/><rect x="512.5" y="159.4" width="10" height="12" fill="#0d0a09" opacity="0.5"/><rect x="512.5" y="193.4" width="10" height="12" fill="#0d0a09" opacity="0.5"/><rect x="519.7" y="225.8" width="22.9" height="57.3" fill="#0d0a09" opacity="0.4"/>
  <g fill="#211b19"><rect x="468.3" y="436.7" width="120" height="80"/><path d="M494.3 436.7 a34 30 0 0 1 68 0 z"/></g><path d="M498.3 428.7 l10 -14 l6 16 l8 -10" stroke="#0d0a09" stroke-width="2.5" fill="none" opacity="0.6"/><g opacity="0.5"><rect x="484.3" y="466.7" width="10" height="24" fill="#0d0a09"/><rect x="562.3" y="466.7" width="10" height="24" fill="#0d0a09"/><rect x="522.3" y="446.7" width="12" height="10" fill="#ff8a3a"/></g>
  <ellipse cx="525.5" cy="721.7" rx="35.5" ry="12" fill="#211b19"/><rect x="550.4" y="701.5" width="16.4" height="11.5" transform="rotate(-17 550.4 701.5)" fill="#2a2320"/><rect x="533.5" y="698.8" width="14.4" height="16" transform="rotate(28.3 533.5 698.8)" fill="#191614"/><rect x="546.6" y="703.2" width="14.7" height="17.4" transform="rotate(-37.9 546.6 703.2)" fill="#191614"/><rect x="496.9" y="715.1" width="8.6" height="6.7" transform="rotate(12.3 496.9 715.1)" fill="#2a2320"/><rect x="493.1" y="706.8" width="13.6" height="8.8" transform="rotate(-39.6 493.1 706.8)" fill="#2a2320"/><rect x="549.5" y="716.6" width="17.4" height="16.7" transform="rotate(-18.2 549.5 716.6)" fill="#2a2320"/><rect x="524.9" y="712.1" width="11.8" height="8.2" transform="rotate(-20.7 524.9 712.1)" fill="#191614"/><rect x="551.3" y="718.7" width="15.4" height="18" transform="rotate(-35 551.3 718.7)" fill="#191614"/>
</svg>
