<svg xmlns="http://www.w3.org/2000/svg" width="540" height="960" viewBox="0 0 540 960">
  <!-- causeway slab: continuous full-height, uniform -> wraps seamlessly -->
  <rect x="50" y="0" width="440" height="960" fill="#332e2b"/>
  <rect x="50" y="0" width="6" height="960" fill="#2a2320"/>
  <rect x="484" y="0" width="6" height="960" fill="#2a2320"/>
  <!-- center road (the marching lane stays clear of props) -->
  <rect x="170" y="0" width="200" height="960" fill="#2a2522"/>
  <rect x="170" y="0" width="6" height="960" fill="#191614"/>
  <rect x="364" y="0" width="6" height="960" fill="#191614"/>
  <g fill="#b47a4a" opacity="0.3">
    <rect x="266" y="40" width="8" height="30.4"/>
    <rect x="266" y="160" width="8" height="39.2"/>
    <rect x="266" y="520" width="8" height="35.6"/>
    <rect x="266" y="640" width="8" height="30.2"/>
    <rect x="266" y="760" width="8" height="24"/>
    <rect x="266" y="880" width="8" height="26.8"/>
  </g>
  <rect x="50" y="160" width="120" height="2" fill="#191614" opacity="0.3"/><rect x="370" y="160" width="120" height="2" fill="#191614" opacity="0.3"/><rect x="50" y="320" width="120" height="2" fill="#191614" opacity="0.3"/><rect x="370" y="320" width="120" height="2" fill="#191614" opacity="0.3"/><rect x="50" y="480" width="120" height="2" fill="#191614" opacity="0.3"/><rect x="370" y="480" width="120" height="2" fill="#191614" opacity="0.3"/><rect x="50" y="640" width="120" height="2" fill="#191614" opacity="0.3"/><rect x="370" y="640" width="120" height="2" fill="#191614" opacity="0.3"/><rect x="50" y="800" width="120" height="2" fill="#191614" opacity="0.3"/><rect x="370" y="800" width="120" height="2" fill="#191614" opacity="0.3"/><rect x="182" y="452" width="14" height="56" fill="#b47a4a" opacity="0.22"/><rect x="228" y="452" width="14" height="56" fill="#b47a4a" opacity="0.22"/><rect x="251" y="452" width="14" height="56" fill="#b47a4a" opacity="0.22"/><rect x="297" y="452" width="14" height="56" fill="#b47a4a" opacity="0.22"/><rect x="320" y="452" width="14" height="56" fill="#b47a4a" opacity="0.22"/><ellipse cx="71.1" cy="480" rx="39.5" ry="11.2" fill="#0d0a09" opacity="0.3"/><ellipse cx="170.1" cy="763.1" rx="38.5" ry="10" fill="#0d0a09" opacity="0.3"/><ellipse cx="124.3" cy="588.6" rx="41.5" ry="10.7" fill="#0d0a09" opacity="0.2"/><ellipse cx="305.6" cy="278.4" rx="25.3" ry="13.4" fill="#0d0a09" opacity="0.2"/><ellipse cx="79.7" cy="522.7" rx="37.9" ry="15.7" fill="#0d0a09" opacity="0.2"/><ellipse cx="440.4" cy="625.9" rx="27.3" ry="20.9" fill="#0d0a09" opacity="0.2"/><g stroke="#0d0a09" stroke-width="2" fill="none" opacity="0.5"><path d="M179.7 674.5 L185.8 700.8 L209.6 736.5 L200.3 772.3 L214.1 813.5 L215.9 847.5"/><path d="M410.7 795.3 L419.5 828.1 L443 871.7 L435.4 897.4 L423.2 922"/><path d="M305.2 488.4 L296.1 508.3 L275.8 538.1 L295.6 568.3"/><path d="M367.6 785.5 L355.6 829.1 L370.8 848.2 L350.6 876.6 L351.4 909.2"/><path d="M228.9 530 L236.2 570.2 L258.9 600.2 L263.8 631 L267.4 664.5"/><path d="M472.3 153.1 L492.7 191.2 L500.7 213 L493.9 253.9"/><path d="M232.5 557.5 L224 580.1 L249 598.4 L252.8 630.3"/></g>
  <rect x="48.7" y="884.6" width="6" height="7.4" transform="rotate(87 48.7 884.6)" fill="#191614" opacity="0.8"/>
  <rect x="41.8" y="531.2" width="9.7" height="5.4" transform="rotate(69.9 41.8 531.2)" fill="#191614" opacity="0.8"/>
  <rect x="39" y="806.4" width="6.4" height="9.7" transform="rotate(62.1 39 806.4)" fill="#191614" opacity="0.8"/>
  <rect x="49.3" y="460" width="5.4" height="7" transform="rotate(45.5 49.3 460)" fill="#191614" opacity="0.8"/>
  <rect x="67.3" y="531.1" width="9.5" height="6.7" transform="rotate(0 67.3 531.1)" fill="#191614" opacity="0.8"/>
  <rect x="45.6" y="113.6" width="8.2" height="6.3" transform="rotate(56.4 45.6 113.6)" fill="#191614" opacity="0.8"/>
  <rect x="497.3" y="628.1" width="8.7" height="7.7" transform="rotate(61.3 497.3 628.1)" fill="#191614" opacity="0.8"/>
  <rect x="476.2" y="373.9" width="9.2" height="9.2" transform="rotate(48.6 476.2 373.9)" fill="#191614" opacity="0.8"/>
  <rect x="498.9" y="60.2" width="11.4" height="8.3" transform="rotate(31.5 498.9 60.2)" fill="#191614" opacity="0.8"/>
  <rect x="496.7" y="84.1" width="10.3" height="7.1" transform="rotate(38.8 496.7 84.1)" fill="#191614" opacity="0.8"/>
  <rect x="501.3" y="829.1" width="9.8" height="5.8" transform="rotate(58 501.3 829.1)" fill="#191614" opacity="0.8"/>
  <rect x="485" y="366.2" width="7" height="8.7" transform="rotate(88.2 485 366.2)" fill="#191614" opacity="0.8"/>
  <g><rect x="68.9" y="102.4" width="64" height="24" rx="3" fill="#2a2320"/><polygon points="74.9,102.4 88.9,102.4 78.9,126.4 64.9,126.4" fill="#ff8a3a" opacity="0.45"/><polygon points="104.9,102.4 118.9,102.4 108.9,126.4 94.9,126.4" fill="#ff8a3a" opacity="0.45"/></g>
  <circle cx="117.2" cy="289.1" r="43.8" fill="#ff5a1e" opacity="0.28"/><circle cx="117.2" cy="289.1" r="24" fill="#ff8a3a" opacity="0.32"/><path d="M121.6 303.1 q-9.7 -23.9 0 -47.8 q6.6 23.9 0 47.8 z" fill="#ff8a3a" opacity="0.9"/><path d="M129.2 303.1 q-9.7 -23.9 0 -47.9 q6.2 24 0 47.9 z" fill="#ff3a12" opacity="0.9"/><path d="M119.1 303.1 q-7.8 -20.3 0 -40.7 q6.5 20.4 0 40.7 z" fill="#ff3a12" opacity="0.9"/><path d="M117.2 299.1 q-3 -15.3 0 -27.8 q3 10.7 0 24.8 z" fill="#ffe6a3" opacity="0.85"/>
  <polygon points="65.2,495.7 65.2,449.7 93.2,449.7 101.2,475.7 115.2,471.7 125.2,449.7 153.2,449.7 153.2,495.7" fill="#2a2320"/><rect x="65.2" y="443.7" width="28" height="8" fill="#191614"/><rect x="125.2" y="443.7" width="28" height="8" fill="#191614"/><ellipse cx="109.2" cy="495.7" rx="45.9" ry="12" fill="#211b19"/><rect x="98" y="477.2" width="12.2" height="14.5" transform="rotate(30.2 98 477.2)" fill="#191614"/><rect x="133.1" y="488.6" width="8.5" height="6.3" transform="rotate(-10.9 133.1 488.6)" fill="#191614"/><rect x="86.7" y="472.3" width="13.1" height="10.2" transform="rotate(-19.6 86.7 472.3)" fill="#191614"/><rect x="91.5" y="491.4" width="7.8" height="9.2" transform="rotate(20.6 91.5 491.4)" fill="#2a2320"/><rect x="116.1" y="491.2" width="7.3" height="4.5" transform="rotate(22.1 116.1 491.2)" fill="#2a2320"/><rect x="92" y="472.7" width="16.7" height="16.6" transform="rotate(-13 92 472.7)" fill="#191614"/><rect x="85.3" y="480.5" width="14.5" height="16.6" transform="rotate(39.5 85.3 480.5)" fill="#191614"/>
  <circle cx="108.8" cy="621.2" r="53.9" fill="#ff5a1e" opacity="0.3"/><ellipse cx="108.8" cy="641.2" rx="35.2" ry="10" fill="#191614"/><ellipse cx="108.8" cy="639.2" rx="24.5" ry="7" fill="#ff8a3a" opacity="0.4"/><g stroke="#2a2320" stroke-width="4" stroke-linecap="round"><line x1="90.8" y1="643.2" x2="122.8" y2="631.2"/><line x1="126.8" y1="643.2" x2="94.8" y2="631.2"/></g><circle cx="108.8" cy="621.2" r="35.8" fill="#ff5a1e" opacity="0.28"/><circle cx="108.8" cy="621.2" r="20.3" fill="#ff8a3a" opacity="0.32"/><path d="M108.6 635.2 q-6.2 -20.4 0 -40.8 q9.6 20.4 0 40.8 z" fill="#ff8a3a" opacity="0.9"/><path d="M107.4 635.2 q-7 -17 0 -34.1 q9.8 17.1 0 34.1 z" fill="#ff3a12" opacity="0.9"/><path d="M114.3 635.2 q-6.1 -14.3 0 -28.7 q6.3 14.4 0 28.7 z" fill="#ff5a1e" opacity="0.9"/><path d="M108.8 631.2 q-3 -14.9 0 -27.2 q3 10.8 0 27.5 z" fill="#ffe6a3" opacity="0.85"/>
  <path d="M108.1 804.4 L108.1 714.5 l-0.4 -10" stroke="#2a2320" stroke-width="4" fill="none"/><path d="M110.1 714.5 l30 6 l-8 6 l8 8 l-30 -2 z" fill="#ff3a12" opacity="0.6"/>
  <g><rect x="404" y="130.1" width="64" height="24" rx="3" fill="#2a2320"/><polygon points="410,130.1 424,130.1 414,154.1 400,154.1" fill="#ff8a3a" opacity="0.45"/><polygon points="440,130.1 454,130.1 444,154.1 430,154.1" fill="#ff8a3a" opacity="0.45"/></g>
  <circle cx="423.4" cy="278.5" r="42.9" fill="#ff5a1e" opacity="0.28"/><circle cx="423.4" cy="278.5" r="21.2" fill="#ff8a3a" opacity="0.32"/><path d="M425.2 292.5 q-6.3 -16 0 -32.1 q8.1 16.1 0 32.1 z" fill="#ff8a3a" opacity="0.9"/><path d="M425.7 292.5 q-7.5 -13 0 -26.1 q7.3 13.1 0 26.1 z" fill="#ff5a1e" opacity="0.9"/><path d="M423.4 288.5 q-3 -13.4 0 -25.9 q3 13 0 21.7 z" fill="#ffe6a3" opacity="0.85"/>
  <polygon points="384.8,504.5 384.8,458.5 412.8,458.5 420.8,484.5 434.8,480.5 444.8,458.5 472.8,458.5 472.8,504.5" fill="#2a2320"/><rect x="384.8" y="452.5" width="28" height="8" fill="#191614"/><rect x="444.8" y="452.5" width="28" height="8" fill="#191614"/><ellipse cx="428.8" cy="504.5" rx="47.5" ry="12" fill="#211b19"/><rect x="461.9" y="493.9" width="13.7" height="11.9" transform="rotate(-27.9 461.9 493.9)" fill="#2a2320"/><rect x="421.6" y="485.5" width="6.4" height="7" transform="rotate(-27.8 421.6 485.5)" fill="#191614"/><rect x="400.3" y="481.2" width="15.3" height="16" transform="rotate(14.2 400.3 481.2)" fill="#191614"/><rect x="438.7" y="487.8" width="17.2" height="20.6" transform="rotate(-7.3 438.7 487.8)" fill="#191614"/><rect x="430.1" y="488.9" width="6.7" height="8" transform="rotate(12.7 430.1 488.9)" fill="#191614"/><rect x="438.9" y="498.5" width="6.9" height="5.5" transform="rotate(22.8 438.9 498.5)" fill="#191614"/><rect x="452.3" y="494.2" width="8.1" height="5.7" transform="rotate(33 452.3 494.2)" fill="#2a2320"/><rect x="408.2" y="491" width="6" height="4" transform="rotate(3.2 408.2 491)" fill="#2a2320"/>
  <circle cx="419.5" cy="635.9" r="52.6" fill="#ff5a1e" opacity="0.3"/><ellipse cx="419.5" cy="655.9" rx="36.6" ry="10" fill="#191614"/><ellipse cx="419.5" cy="653.9" rx="20.6" ry="7" fill="#ff8a3a" opacity="0.4"/><g stroke="#2a2320" stroke-width="4" stroke-linecap="round"><line x1="401.5" y1="657.9" x2="433.5" y2="645.9"/><line x1="437.5" y1="657.9" x2="405.5" y2="645.9"/></g><circle cx="419.5" cy="635.9" r="39.7" fill="#ff5a1e" opacity="0.28"/><circle cx="419.5" cy="635.9" r="23.8" fill="#ff8a3a" opacity="0.32"/><path d="M407.6 649.9 q-6.8 -16.1 0 -32.2 q10 16.1 0 32.2 z" fill="#ff8a3a" opacity="0.9"/><path d="M420.9 649.9 q-8.8 -16 0 -32.1 q8 16.1 0 32.1 z" fill="#ff5a1e" opacity="0.9"/><path d="M423.3 649.9 q-6.2 -14.9 0 -29.8 q7.2 14.9 0 29.8 z" fill="#ff3a12" opacity="0.9"/><path d="M419.5 645.9 q-3 -12.7 0 -23.3 q3 10.5 0 23.6 z" fill="#ffe6a3" opacity="0.85"/>
  <path d="M428.3 812.8 L428.3 721 l6 -10" stroke="#2a2320" stroke-width="4" fill="none"/><path d="M430.3 721 l30 6 l-8 6 l8 8 l-30 -2 z" fill="#ff3a12" opacity="0.6"/>
</svg>
