<svg xmlns="http://www.w3.org/2000/svg" width="540" height="960" viewBox="0 0 540 960">
  <!-- causeway slab: continuous full-height, uniform -> wraps seamlessly -->
  <rect x="50" y="0" width="440" height="960" fill="#090d1a"/>
  <rect x="50" y="0" width="6" height="960" fill="#202c46"/>
  <rect x="484" y="0" width="6" height="960" fill="#202c46"/>
  <!-- center road (the marching lane stays clear of props) -->
  <rect x="170" y="0" width="200" height="960" fill="#0e1424"/>
  <rect x="170" y="0" width="6" height="960" fill="#1c2740"/>
  <rect x="364" y="0" width="6" height="960" fill="#1c2740"/>
  <g fill="#64748b" opacity="0.12">
    <rect x="266" y="40" width="8" height="40"/>
    <rect x="266" y="160" width="8" height="40"/>
    <rect x="266" y="280" width="8" height="40"/>
    <rect x="266" y="400" width="8" height="40"/>
    <rect x="266" y="520" width="8" height="40"/>
    <rect x="266" y="640" width="8" height="40"/>
    <rect x="266" y="760" width="8" height="40"/>
    <rect x="266" y="880" width="8" height="40"/>
  </g>
  <rect x="50" y="160" width="120" height="2" fill="#1c2740" opacity="0.3"/><rect x="370" y="160" width="120" height="2" fill="#1c2740" opacity="0.3"/><rect x="50" y="320" width="120" height="2" fill="#1c2740" opacity="0.3"/><rect x="370" y="320" width="120" height="2" fill="#1c2740" opacity="0.3"/><rect x="50" y="480" width="120" height="2" fill="#1c2740" opacity="0.3"/><rect x="370" y="480" width="120" height="2" fill="#1c2740" opacity="0.3"/><rect x="50" y="640" width="120" height="2" fill="#1c2740" opacity="0.3"/><rect x="370" y="640" width="120" height="2" fill="#1c2740" opacity="0.3"/><rect x="50" y="800" width="120" height="2" fill="#1c2740" opacity="0.3"/><rect x="370" y="800" width="120" height="2" fill="#1c2740" opacity="0.3"/><rect x="182" y="452" width="14" height="56" fill="#64748b" opacity="0.15"/><rect x="205" y="452" width="14" height="56" fill="#64748b" opacity="0.15"/><rect x="228" y="452" width="14" height="56" fill="#64748b" opacity="0.15"/><rect x="251" y="452" width="14" height="56" fill="#64748b" opacity="0.15"/><rect x="274" y="452" width="14" height="56" fill="#64748b" opacity="0.15"/><rect x="297" y="452" width="14" height="56" fill="#64748b" opacity="0.15"/><rect x="320" y="452" width="14" height="56" fill="#64748b" opacity="0.15"/><rect x="343" y="452" width="14" height="56" fill="#64748b" opacity="0.15"/>
  <g><rect x="69.5" y="146.7" width="64" height="24" rx="3" fill="#202c46"/><polygon points="75.5,146.7 89.5,146.7 79.5,170.7 65.5,170.7" fill="#22d3ee" opacity="0.45"/><polygon points="105.5,146.7 119.5,146.7 109.5,170.7 95.5,170.7" fill="#22d3ee" opacity="0.45"/></g>
  <rect x="117.1" y="232" width="5" height="78" fill="#202c46"/><circle cx="119.6" cy="230" r="6" fill="#22d3ee" opacity="0.9"/><circle cx="119.6" cy="230" r="16" fill="#22d3ee" opacity="0.12"/>
  <rect x="71.3" y="451.6" width="88" height="46" fill="#202c46"/><rect x="71.3" y="445.6" width="88" height="8" fill="#1c2740"/>
  <g><rect x="86.8" y="647.1" width="64" height="24" rx="3" fill="#202c46"/><polygon points="92.8,647.1 106.8,647.1 96.8,671.1 82.8,671.1" fill="#22d3ee" opacity="0.45"/><polygon points="122.8,647.1 136.8,647.1 126.8,671.1 112.8,671.1" fill="#22d3ee" opacity="0.45"/></g>
  <rect x="105.3" y="686.6" width="4" height="110" fill="#202c46"/><polygon points="109.3,686.6 141.3,694.6 109.3,702.6" fill="#f43f5e" opacity="0.8"/>
  <g><rect x="398" y="119.8" width="64" height="24" rx="3" fill="#202c46"/><polygon points="404,119.8 418,119.8 408,143.8 394,143.8" fill="#22d3ee" opacity="0.45"/><polygon points="434,119.8 448,119.8 438,143.8 424,143.8" fill="#22d3ee" opacity="0.45"/></g>
  <rect x="433.5" y="208.2" width="5" height="78" fill="#202c46"/><circle cx="436" cy="206.2" r="6" fill="#22d3ee" opacity="0.9"/><circle cx="436" cy="206.2" r="16" fill="#22d3ee" opacity="0.12"/>
  <rect x="376.4" y="442.2" width="88" height="46" fill="#202c46"/><rect x="376.4" y="436.2" width="88" height="8" fill="#1c2740"/>
  <g><rect x="407.9" y="600.4" width="64" height="24" rx="3" fill="#202c46"/><polygon points="413.9,600.4 427.9,600.4 417.9,624.4 403.9,624.4" fill="#22d3ee" opacity="0.45"/><polygon points="443.9,600.4 457.9,600.4 447.9,624.4 433.9,624.4" fill="#22d3ee" opacity="0.45"/></g>
  <rect x="422.2" y="669" width="4" height="110" fill="#202c46"/><polygon points="426.2,669 458.2,677 426.2,685" fill="#f43f5e" opacity="0.8"/>
</svg>
