<svg xmlns="http://www.w3.org/2000/svg" width="540" height="960" viewBox="0 0 540 960">
  <g transform="translate(88.4 295.6) scale(1.5) translate(-88.4 -295.6)" opacity="0.95"><rect x="58.4" y="269.6" width="60" height="26" fill="#3a2723"/><rect x="58.4" y="269.6" width="60" height="5" fill="#c25a3a" opacity="0.5"/><rect x="66.4" y="247.6" width="44" height="22" fill="#3a2723" opacity="0.9"/></g>
  <g transform="translate(101.5 430.9) scale(1.5) translate(-101.5 -430.9)" opacity="0.95"><circle cx="101.5" cy="416.9" r="42.5" fill="#e8451f" opacity="0.28"/><circle cx="101.5" cy="416.9" r="21.8" fill="#ff7a2e" opacity="0.32"/><path d="M104.3 430.9 q-6.3 -22.3 0 -44.7 q7.1 22.4 0 44.7 z" fill="#ff7a2e" opacity="0.9"/><path d="M94.3 430.9 q-9.6 -18.3 0 -36.6 q7.5 18.3 0 36.6 z" fill="#f2401c" opacity="0.9"/><path d="M101.5 426.9 q-3 -11.3 0 -24.2 q3 11.7 0 22.6 z" fill="#ffe6a3" opacity="0.85"/></g>
  <g transform="translate(76.5 690.3) scale(1.5) translate(-76.5 -690.3)" opacity="0.95"><g fill="#3a2723"><rect x="62.5" y="666.3" width="28" height="24"/><rect x="68.5" y="646.3" width="24" height="20" opacity="0.9"/></g></g>
  <g transform="translate(448.8 205.2) scale(1.5) translate(-448.8 -205.2)" opacity="0.95"><rect x="418.8" y="179.2" width="60" height="26" fill="#3a2723"/><rect x="418.8" y="179.2" width="60" height="5" fill="#c25a3a" opacity="0.5"/><rect x="426.8" y="157.2" width="44" height="22" fill="#3a2723" opacity="0.9"/></g>
  <g transform="translate(434.6 432.4) scale(1.5) translate(-434.6 -432.4)" opacity="0.95"><circle cx="434.6" cy="418.4" r="31.4" fill="#e8451f" opacity="0.28"/><circle cx="434.6" cy="418.4" r="20.6" fill="#ff7a2e" opacity="0.32"/><path d="M438.4 432.4 q-6 -21.8 0 -43.6 q8.4 21.8 0 43.6 z" fill="#ff7a2e" opacity="0.9"/><path d="M426.5 432.4 q-6.5 -23.6 0 -47.2 q7.1 23.6 0 47.2 z" fill="#f2401c" opacity="0.9"/><path d="M437.2 432.4 q-8.8 -19 0 -38 q9.7 19 0 38 z" fill="#e8451f" opacity="0.9"/><path d="M434.6 428.4 q-3 -10.7 0 -20.7 q3 15.8 0 24.7 z" fill="#ffe6a3" opacity="0.85"/></g>
  <g transform="translate(438 751.3) scale(1.5) translate(-438 -751.3)" opacity="0.95"><g fill="#3a2723"><rect x="424" y="727.3" width="28" height="24"/><rect x="430" y="707.3" width="24" height="20" opacity="0.9"/></g></g>
</svg>
