<svg xmlns="http://www.w3.org/2000/svg" width="540" height="960" viewBox="0 0 540 960">
  <g transform="translate(88.4 295.6) scale(1.5) translate(-88.4 -295.6)" opacity="0.95"><rect x="58.4" y="269.6" width="60" height="26" fill="#a5707f"/><rect x="58.4" y="269.6" width="60" height="5" fill="#fb7185" opacity="0.5"/><rect x="66.4" y="247.6" width="44" height="22" fill="#a5707f" opacity="0.9"/></g>
  <g transform="translate(101.5 430.9) scale(1.5) translate(-101.5 -430.9)" opacity="0.95"><rect x="96.5" y="408.9" width="10" height="22" rx="4" fill="#a5707f"/><rect x="96.5" y="412.9" width="10" height="3" fill="#fbbf24" opacity="0.5"/></g>
  <g transform="translate(101 690.3) scale(1.5) translate(-101 -690.3)" opacity="0.95"><g fill="#a5707f"><rect x="87" y="666.3" width="28" height="24"/><rect x="93" y="646.3" width="24" height="20" opacity="0.9"/></g></g>
  <g transform="translate(459.2 267.7) scale(1.5) translate(-459.2 -267.7)" opacity="0.95"><rect x="429.2" y="241.7" width="60" height="26" fill="#a5707f"/><rect x="429.2" y="241.7" width="60" height="5" fill="#f97316" opacity="0.5"/><rect x="437.2" y="219.7" width="44" height="22" fill="#a5707f" opacity="0.9"/></g>
  <g transform="translate(440.4 428.5) scale(1.5) translate(-440.4 -428.5)" opacity="0.95"><rect x="435.4" y="406.5" width="10" height="22" rx="4" fill="#a5707f"/><rect x="435.4" y="410.5" width="10" height="3" fill="#fbbf24" opacity="0.5"/></g>
  <g transform="translate(438.4 733.9) scale(1.5) translate(-438.4 -733.9)" opacity="0.95"><g fill="#a5707f"><rect x="424.4" y="709.9" width="28" height="24"/><rect x="430.4" y="689.9" width="24" height="20" opacity="0.9"/></g></g>
</svg>
