<svg xmlns="http://www.w3.org/2000/svg" width="540" height="960" viewBox="0 0 540 960" preserveAspectRatio="none">
  <defs>
    <linearGradient id="ground" x1="0" y1="0" x2="0" y2="1">
      <stop offset="0" stop-color="#241416"/>
      <stop offset="0.55" stop-color="#3a1c1a"/>
      <stop offset="1" stop-color="#552420"/>
    </linearGradient>
    <linearGradient id="glowL" x1="0" y1="0" x2="1" y2="0">
      <stop offset="0" stop-color="#e8451f" stop-opacity="0.42"/>
      <stop offset="1" stop-color="#e8451f" stop-opacity="0"/>
    </linearGradient>
    <linearGradient id="glowR" x1="1" y1="0" x2="0" y2="0">
      <stop offset="0" stop-color="#e8451f" stop-opacity="0.42"/>
      <stop offset="1" stop-color="#e8451f" stop-opacity="0"/>
    </linearGradient>
  </defs>
  <rect width="540" height="960" fill="url(#ground)"/>
  <rect x="0" y="0" width="226.8" height="960" fill="url(#glowL)"/><rect x="313.2" y="0" width="226.8" height="960" fill="url(#glowR)"/><circle cx="230.1" cy="327.5" r="5.4" fill="#ff7a2e" opacity="0.1"/><circle cx="430.3" cy="821.2" r="2.1" fill="#ff7a2e" opacity="0.1"/><circle cx="379.5" cy="675.7" r="4.2" fill="#ff7a2e" opacity="0.1"/><circle cx="24.2" cy="523.2" r="4.1" fill="#ff7a2e" opacity="0.2"/><circle cx="434" cy="184.8" r="4.6" fill="#ff7a2e" opacity="0.2"/><circle cx="151.9" cy="904.4" r="3.1" fill="#ff7a2e" opacity="0.2"/><circle cx="533.2" cy="237.8" r="5.4" fill="#ff7a2e" opacity="0.2"/><circle cx="427.2" cy="408.5" r="2" fill="#ff7a2e" opacity="0.1"/><circle cx="316.8" cy="575.2" r="3.4" fill="#ff7a2e" opacity="0.1"/><circle cx="348.8" cy="183.4" r="4.4" fill="#ff7a2e" opacity="0.1"/><circle cx="341.9" cy="428.3" r="6.4" fill="#ff7a2e" opacity="0.1"/><circle cx="501.2" cy="46.9" r="2.3" fill="#ff7a2e" opacity="0.1"/><circle cx="322.1" cy="32" r="4.9" fill="#ff7a2e" opacity="0.2"/><circle cx="375.4" cy="701.3" r="4.6" fill="#ff7a2e" opacity="0.1"/><circle cx="34.8" cy="476.5" r="4.3" fill="#ff7a2e" opacity="0.1"/><circle cx="264.4" cy="938.4" r="4.3" fill="#ff7a2e" opacity="0.1"/><ellipse cx="270" cy="187.7" rx="378" ry="46.1" fill="#241416" opacity="0.25"/><ellipse cx="270" cy="438.3" rx="378" ry="58.8" fill="#241416" opacity="0.25"/><ellipse cx="270" cy="716.2" rx="378" ry="62.2" fill="#241416" opacity="0.25"/>
</svg>
