<svg xmlns="http://www.w3.org/2000/svg" width="540" height="960" viewBox="0 0 540 960">
  <g fill="#2f201d"><polygon points="16.5,236.2 26.5,236.2 11.2,98.1 1.2,98.1"/><rect x="6.2" y="98.1" width="90" height="8" transform="rotate(-14 6.2 98.1)"/></g><circle cx="6.2" cy="98.1" r="4" fill="#ff7a2e" opacity="0.4"/>
  <g fill="#2f201d"><path d="M-14.4 460.1 h80 l-12 14 h-56 z" transform="rotate(6 25.6 474.1)"/><rect x="23.6" y="430.1" width="4" height="30" transform="rotate(12 25.6 460.1)"/></g><circle cx="19.6" cy="466.1" r="4" fill="#ff7a2e" opacity="0.5"/><circle cx="34.3" cy="436.8" r="23.1" fill="#0e0c0c" opacity="0.2"/><circle cx="36.5" cy="400.7" r="30.6" fill="#0e0c0c" opacity="0.2"/><circle cx="37.8" cy="372.9" r="33.6" fill="#0e0c0c" opacity="0.2"/><circle cx="24" cy="343.2" r="45.5" fill="#0e0c0c" opacity="0.2"/>
  <rect x="-20.4" y="727.3" width="60" height="26" fill="#3a2723"/><rect x="-20.4" y="727.3" width="60" height="5" fill="#c25a3a" opacity="0.5"/><rect x="-12.4" y="705.3" width="44" height="22" fill="#3a2723" opacity="0.9"/>
  <g fill="#2f201d"><polygon points="519.4,257.3 529.4,257.3 542.5,101.7 532.5,101.7"/><rect x="447.5" y="101.7" width="90" height="8" transform="rotate(14 537.5 101.7)"/></g><circle cx="537.5" cy="101.7" r="4" fill="#ff7a2e" opacity="0.4"/>
  <g fill="#2f201d"><path d="M480 453.4 h80 l-12 14 h-56 z" transform="rotate(6 520 467.4)"/><rect x="518" y="423.4" width="4" height="30" transform="rotate(12 520 453.4)"/></g><circle cx="514" cy="459.4" r="4" fill="#ff7a2e" opacity="0.5"/><circle cx="517" cy="424.1" r="19.8" fill="#0e0c0c" opacity="0.2"/><circle cx="518.4" cy="402.2" r="28.3" fill="#0e0c0c" opacity="0.2"/><circle cx="522.2" cy="365.7" r="35.2" fill="#0e0c0c" opacity="0.2"/>
  <rect x="501.3" y="664.5" width="60" height="26" fill="#3a2723"/><rect x="501.3" y="664.5" width="60" height="5" fill="#c25a3a" opacity="0.5"/><rect x="509.3" y="642.5" width="44" height="22" fill="#3a2723" opacity="0.9"/>
</svg>
