<svg xmlns="http://www.w3.org/2000/svg" width="540" height="960" viewBox="0 0 540 960">
  <g transform="translate(76.8 208.2) scale(1.5) translate(-76.8 -208.2)" opacity="0.95"><g fill="#202c46"><rect x="60.8" y="116.2" width="32" height="92"/><rect x="56.8" y="108.2" width="40" height="10"/></g><circle cx="76.8" cy="102.2" r="6" fill="#22d3ee" opacity="0.8"/></g>
  <g transform="translate(76.8 443) scale(1.5) translate(-76.8 -443)" opacity="0.95"><rect x="60.8" y="423" width="32" height="20" rx="4" fill="#202c46"/><circle cx="69.8" cy="417" r="10" fill="#202c46" opacity="0.85"/><circle cx="84.8" cy="415" r="12" fill="#202c46" opacity="0.85"/></g>
  <g transform="translate(89.7 751.5) scale(1.5) translate(-89.7 -751.5)" opacity="0.95"><rect x="87.2" y="673.5" width="5" height="78" fill="#202c46"/><circle cx="89.7" cy="671.5" r="6" fill="#22d3ee" opacity="0.9"/><circle cx="89.7" cy="671.5" r="16" fill="#22d3ee" opacity="0.12"/></g>
  <g transform="translate(441.6 227.1) scale(1.5) translate(-441.6 -227.1)" opacity="0.95"><g fill="#202c46"><rect x="425.6" y="135.1" width="32" height="92"/><rect x="421.6" y="127.1" width="40" height="10"/></g><circle cx="441.6" cy="121.1" r="6" fill="#22d3ee" opacity="0.8"/></g>
  <g transform="translate(434.4 446) scale(1.5) translate(-434.4 -446)" opacity="0.95"><rect x="418.4" y="426" width="32" height="20" rx="4" fill="#202c46"/><circle cx="427.4" cy="420" r="10" fill="#202c46" opacity="0.85"/><circle cx="442.4" cy="418" r="12" fill="#202c46" opacity="0.85"/></g>
  <g transform="translate(463.9 699.1) scale(1.5) translate(-463.9 -699.1)" opacity="0.95"><rect x="461.4" y="621.1" width="5" height="78" fill="#202c46"/><circle cx="463.9" cy="619.1" r="6" fill="#22d3ee" opacity="0.9"/><circle cx="463.9" cy="619.1" r="16" fill="#22d3ee" opacity="0.12"/></g>
</svg>
