<svg xmlns="http://www.w3.org/2000/svg" width="540" height="960" viewBox="0 0 540 960">
  <g transform="translate(76.8 208.2) scale(1.5) translate(-76.8 -208.2)" opacity="0.95"><g fill="#2a2320"><polygon points="60.8,208.2 60.8,135.8 74.8,129.8 92.8,143.8 92.8,208.2"/></g><path d="M66.8 172 l8 10 l-4 12" stroke="#0d0a09" stroke-width="2" fill="none" opacity="0.5"/><circle cx="76.8" cy="125.8" r="36.8" fill="#ff5a1e" opacity="0.28"/><circle cx="76.8" cy="125.8" r="19.1" fill="#ff8a3a" opacity="0.32"/><path d="M72.6 139.8 q-6.3 -16.3 0 -32.6 q10 16.3 0 32.6 z" fill="#ff8a3a" opacity="0.9"/><path d="M85.6 139.8 q-9.7 -21.4 0 -42.8 q6.5 21.4 0 42.8 z" fill="#ff5a1e" opacity="0.9"/><path d="M76.8 135.8 q-3 -12.1 0 -20.4 q3 11.3 0 20.5 z" fill="#ffe6a3" opacity="0.85"/></g>
  <g transform="translate(81.6 443) scale(1.5) translate(-81.6 -443)" opacity="0.95"><circle cx="81.6" cy="429" r="38.3" fill="#ff5a1e" opacity="0.28"/><circle cx="81.6" cy="429" r="16.9" fill="#ff8a3a" opacity="0.32"/><path d="M89.7 443 q-6 -14.8 0 -29.6 q8.7 14.8 0 29.6 z" fill="#ff8a3a" opacity="0.9"/><path d="M92.9 443 q-9.1 -14.7 0 -29.4 q9.4 14.7 0 29.4 z" fill="#ff3a12" opacity="0.9"/><path d="M81.6 439 q-3 -11.1 0 -21.8 q3 12 0 25.5 z" fill="#ffe6a3" opacity="0.85"/></g>
  <g transform="translate(89.5 751.5) scale(1.5) translate(-89.5 -751.5)" opacity="0.95"><ellipse cx="89.5" cy="751.5" rx="40.7" ry="12" fill="#211b19"/><rect x="116.1" y="727.2" width="7.5" height="7.8" transform="rotate(-4.4 116.1 727.2)" fill="#191614"/><rect x="69.5" y="743.2" width="17" height="13.5" transform="rotate(39.1 69.5 743.2)" fill="#2a2320"/><rect x="75.4" y="744.3" width="9" height="9.3" transform="rotate(-24.5 75.4 744.3)" fill="#191614"/><rect x="121.4" y="748.1" width="9.9" height="9.1" transform="rotate(-22.8 121.4 748.1)" fill="#191614"/><rect x="100.7" y="748.6" width="8.9" height="9" transform="rotate(-25.1 100.7 748.6)" fill="#2a2320"/></g>
  <g transform="translate(440.3 205.2) scale(1.5) translate(-440.3 -205.2)" opacity="0.95"><g fill="#2a2320"><polygon points="424.3,205.2 424.3,127.6 438.3,121.6 456.3,135.6 456.3,205.2"/></g><path d="M430.3 166.4 l8 10 l-4 12" stroke="#0d0a09" stroke-width="2" fill="none" opacity="0.5"/><circle cx="440.3" cy="117.6" r="42" fill="#ff5a1e" opacity="0.28"/><circle cx="440.3" cy="117.6" r="18.3" fill="#ff8a3a" opacity="0.32"/><path d="M435 131.6 q-8.2 -15.9 0 -31.9 q6 16 0 31.9 z" fill="#ff8a3a" opacity="0.9"/><path d="M433.7 131.6 q-9.8 -19.3 0 -38.6 q9.3 19.3 0 38.6 z" fill="#ff5a1e" opacity="0.9"/><path d="M433.8 131.6 q-9.6 -13.8 0 -27.7 q6.5 13.9 0 27.7 z" fill="#ff5a1e" opacity="0.9"/><path d="M440.3 127.6 q-3 -15 0 -25.9 q3 14.8 0 22.7 z" fill="#ffe6a3" opacity="0.85"/></g>
  <g transform="translate(446.1 478.1) scale(1.5) translate(-446.1 -478.1)" opacity="0.95"><circle cx="446.1" cy="464.1" r="35.7" fill="#ff5a1e" opacity="0.28"/><circle cx="446.1" cy="464.1" r="20.7" fill="#ff8a3a" opacity="0.32"/><path d="M456.1 478.1 q-6.7 -23.3 0 -46.6 q6.9 23.3 0 46.6 z" fill="#ff8a3a" opacity="0.9"/><path d="M447.2 478.1 q-9.3 -15.1 0 -30.3 q7.5 15.2 0 30.3 z" fill="#ff3a12" opacity="0.9"/><path d="M446.1 474.1 q-3 -16 0 -26.5 q3 14.9 0 27 z" fill="#ffe6a3" opacity="0.85"/></g>
  <g transform="translate(435.4 668) scale(1.5) translate(-435.4 -668)" opacity="0.95"><ellipse cx="435.4" cy="668" rx="34.1" ry="12" fill="#211b19"/><rect x="448.6" y="664.1" width="15.5" height="12.9" transform="rotate(12.9 448.6 664.1)" fill="#191614"/><rect x="443.7" y="658.5" width="11.3" height="10.5" transform="rotate(8.4 443.7 658.5)" fill="#191614"/><rect x="456.2" y="663.2" width="11" height="9.9" transform="rotate(-21.7 456.2 663.2)" fill="#2a2320"/><rect x="440.3" y="661.5" width="12.2" height="12.9" transform="rotate(-33.9 440.3 661.5)" fill="#2a2320"/><rect x="402.6" y="644.5" width="13.4" height="15.7" transform="rotate(-19.4 402.6 644.5)" fill="#2a2320"/><rect x="444.5" y="664.5" width="6.8" height="7.6" transform="rotate(-21.1 444.5 664.5)" fill="#191614"/></g>
</svg>
