<svg xmlns="http://www.w3.org/2000/svg" width="540" height="960" viewBox="0 0 540 960" preserveAspectRatio="none">
  <defs>
    <linearGradient id="sky" x1="0" y1="0" x2="0" y2="1">
      <stop offset="0" stop-color="#2f8ad8"/>
      <stop offset="0.55" stop-color="#6ebcee"/>
      <stop offset="1" stop-color="#c6e7fa"/>
    </linearGradient>
    <linearGradient id="horizon" x1="0" y1="0" x2="0" y2="1">
      <stop offset="0" stop-color="#eaf7ff" stop-opacity="0"/>
      <stop offset="1" stop-color="#eaf7ff" stop-opacity="0.4"/>
    </linearGradient>
  </defs>
  <rect width="540" height="960" fill="url(#sky)"/>
  <rect y="480" width="540" height="480" fill="url(#horizon)"/>
  <circle cx="160" cy="110" r="57.2" fill="#fff3b8" opacity="0.25"/><circle cx="160" cy="110" r="37.7" fill="#fff3b8" opacity="0.4"/><circle cx="160" cy="110" r="26" fill="#ffffff"/><g fill="#ffffff" opacity="0.9"><ellipse cx="386.3" cy="572.8" rx="87.9" ry="21.2"/><ellipse cx="346.7" cy="582.3" rx="48.3" ry="17"/><ellipse cx="421.5" cy="580.2" rx="52.7" ry="18"/></g><g fill="#ffffff" opacity="0.7"><ellipse cx="305.6" cy="348" rx="86.1" ry="16.8"/><ellipse cx="266.9" cy="355.6" rx="47.4" ry="13.4"/><ellipse cx="340" cy="353.9" rx="51.7" ry="14.3"/></g><g fill="#ffffff" opacity="0.8"><ellipse cx="437.1" cy="171.1" rx="76.5" ry="17.4"/><ellipse cx="402.7" cy="178.9" rx="42.1" ry="13.9"/><ellipse cx="467.7" cy="177.2" rx="45.9" ry="14.8"/></g>
</svg>
