<svg xmlns="http://www.w3.org/2000/svg" width="540" height="960" viewBox="0 0 540 960" preserveAspectRatio="none">
  <defs>
    <linearGradient id="sky" x1="0" y1="0" x2="0" y2="1">
      <stop offset="0" stop-color="#010409"/>
      <stop offset="0.55" stop-color="#020617"/>
      <stop offset="1" stop-color="#101736"/>
    </linearGradient>
    <linearGradient id="horizon" x1="0" y1="0" x2="0" y2="1">
      <stop offset="0" stop-color="#22d3ee" stop-opacity="0"/>
      <stop offset="1" stop-color="#22d3ee" stop-opacity="0.14"/>
    </linearGradient>
  </defs>
  <rect width="540" height="960" fill="url(#sky)"/>
  <rect y="480" width="540" height="480" fill="url(#horizon)"/>
  <g fill="#f8fafc" opacity="0.25"><circle cx="406.5" cy="594.8" r="1.6"/><circle cx="390.6" cy="569.9" r="1.6"/><circle cx="259.9" cy="348.7" r="1.2"/><circle cx="140.9" cy="580.1" r="1"/><circle cx="193.1" cy="231.7" r="1.8"/><circle cx="434.6" cy="155" r="2"/><circle cx="129.7" cy="575.8" r="0.8"/><circle cx="343.6" cy="26.8" r="0.9"/><circle cx="306" cy="585" r="2.1"/><circle cx="62.1" cy="217.9" r="1.7"/><circle cx="129.1" cy="425.9" r="1"/><circle cx="463.7" cy="237.5" r="1"/><circle cx="14.1" cy="311" r="2"/><circle cx="87.3" cy="532.1" r="2.1"/><circle cx="371.3" cy="660.6" r="1.2"/><circle cx="443.6" cy="140.6" r="1.4"/><circle cx="197.8" cy="321.3" r="2.1"/><circle cx="52" cy="586.6" r="1.2"/></g><ellipse cx="270" cy="960" rx="540" ry="160" fill="#22d3ee" opacity="0.10"/><ellipse cx="108" cy="883.2" rx="140" ry="60" fill="#a78bfa" opacity="0.06"/><ellipse cx="432" cy="902.4" rx="140" ry="60" fill="#f43f5e" opacity="0.05"/>
</svg>
