<svg xmlns="http://www.w3.org/2000/svg" width="540" height="960" viewBox="0 0 540 960" preserveAspectRatio="none">
  <defs>
    <linearGradient id="ground" x1="0" y1="0" x2="0" y2="1">
      <stop offset="0" stop-color="#171214"/>
      <stop offset="0.55" stop-color="#2a1614"/>
      <stop offset="1" stop-color="#431a12"/>
    </linearGradient>
    <linearGradient id="glowL" x1="0" y1="0" x2="1" y2="0">
      <stop offset="0" stop-color="#ff5a1e" stop-opacity="0.5"/>
      <stop offset="1" stop-color="#ff5a1e" stop-opacity="0"/>
    </linearGradient>
    <linearGradient id="glowR" x1="1" y1="0" x2="0" y2="0">
      <stop offset="0" stop-color="#ff5a1e" stop-opacity="0.5"/>
      <stop offset="1" stop-color="#ff5a1e" stop-opacity="0"/>
    </linearGradient>
  </defs>
  <rect width="540" height="960" fill="url(#ground)"/>
  <rect x="0" y="0" width="226.8" height="960" fill="url(#glowL)"/><rect x="313.2" y="0" width="226.8" height="960" fill="url(#glowR)"/><circle cx="406.5" cy="849.7" r="4.7" fill="#ff8a3a" opacity="0.1"/><circle cx="457.9" cy="554.2" r="4.4" fill="#ff8a3a" opacity="0.1"/><circle cx="153.6" cy="250.5" r="6.3" fill="#ff8a3a" opacity="0.1"/><circle cx="193.1" cy="331" r="5.7" fill="#ff8a3a" opacity="0.1"/><circle cx="124.6" cy="815.1" r="3.2" fill="#ff8a3a" opacity="0.2"/><circle cx="7.9" cy="610.8" r="2.2" fill="#ff8a3a" opacity="0.1"/><circle cx="306" cy="835.7" r="6.7" fill="#ff8a3a" opacity="0.1"/><circle cx="175.1" cy="588.8" r="3.2" fill="#ff8a3a" opacity="0.1"/><circle cx="95.3" cy="824.3" r="3.8" fill="#ff8a3a" opacity="0.1"/><circle cx="14.1" cy="444.3" r="6.2" fill="#ff8a3a" opacity="0.1"/><circle cx="427.6" cy="892.9" r="5.4" fill="#ff8a3a" opacity="0.2"/><circle cx="142.6" cy="788.6" r="3" fill="#ff8a3a" opacity="0.1"/><circle cx="197.8" cy="459" r="6.8" fill="#ff8a3a" opacity="0.1"/><circle cx="471.4" cy="293.5" r="4.2" fill="#ff8a3a" opacity="0.1"/><circle cx="313.3" cy="61.5" r="3.6" fill="#ff8a3a" opacity="0.1"/><circle cx="20.8" cy="301.5" r="2" fill="#ff8a3a" opacity="0.1"/><circle cx="105.5" cy="8.1" r="5.4" fill="#ff8a3a" opacity="0.1"/><circle cx="397.3" cy="541.7" r="4.2" fill="#ff8a3a" opacity="0.1"/><circle cx="371.3" cy="216.1" r="6.1" fill="#ff8a3a" opacity="0.1"/><circle cx="290.6" cy="365.9" r="3.4" fill="#ff8a3a" opacity="0.1"/><circle cx="494.7" cy="86.9" r="3" fill="#ff8a3a" opacity="0.1"/><circle cx="376.3" cy="634" r="5.5" fill="#ff8a3a" opacity="0.1"/><ellipse cx="270" cy="186.8" rx="378" ry="60.3" fill="#171214" opacity="0.25"/><ellipse cx="270" cy="426.4" rx="378" ry="59.1" fill="#171214" opacity="0.25"/><ellipse cx="270" cy="668.7" rx="378" ry="62.6" fill="#171214" opacity="0.25"/>
</svg>
