<svg xmlns="http://www.w3.org/2000/svg" width="540" height="960" viewBox="0 0 540 960">
  <g fill="#211b19"><rect x="-35.5" y="177.6" width="120" height="80"/><path d="M-9.5 177.6 a34 30 0 0 1 68 0 z"/></g><path d="M-5.5 169.6 l10 -14 l6 16 l8 -10" stroke="#0d0a09" stroke-width="2.5" fill="none" opacity="0.6"/><g opacity="0.5"><rect x="-19.5" y="207.6" width="10" height="24" fill="#0d0a09"/><rect x="58.5" y="207.6" width="10" height="24" fill="#0d0a09"/><rect x="18.5" y="187.6" width="12" height="10" fill="#ff8a3a"/></g>
  <polygon points="3.5,480.4 3.5,278.6 -0.5,268.6 17.5,284.6 31.5,480.4" fill="#211b19"/><rect x="7.5" y="379.5" width="8" height="14" fill="#0d0a09" opacity="0.45"/><circle cx="7.5" cy="278.6" r="4" fill="#ff8a3a" opacity="0.5"/>
  <rect x="18.1" y="635.5" width="6" height="61.6" fill="#1a1512"/><g stroke="#1a1512" stroke-width="3" fill="none" stroke-linecap="round"><path d="M21.1 643.5 l-16 -10 l-6 -14"/><path d="M21.1 653.5 l18 -8 l4 -16"/><path d="M21.1 635.5 l-8 -16"/></g><circle cx="15.1" cy="693.1" r="4" fill="#ff8a3a" opacity="0.4"/>
  <g fill="#211b19"><rect x="465.9" y="123.2" width="120" height="80"/><path d="M491.9 123.2 a34 30 0 0 1 68 0 z"/></g><path d="M495.9 115.2 l10 -14 l6 16 l8 -10" stroke="#0d0a09" stroke-width="2.5" fill="none" opacity="0.6"/><g opacity="0.5"><rect x="481.9" y="153.2" width="10" height="24" fill="#0d0a09"/><rect x="559.9" y="153.2" width="10" height="24" fill="#0d0a09"/><rect x="519.9" y="133.2" width="12" height="10" fill="#ff8a3a"/></g>
  <polygon points="501.5,507 501.5,332.5 509.1,322.5 527.1,338.5 529.5,507" fill="#211b19"/><rect x="505.5" y="419.8" width="8" height="14" fill="#0d0a09" opacity="0.45"/><circle cx="517.1" cy="332.5" r="4" fill="#ff8a3a" opacity="0.5"/>
  <rect x="522.4" y="641.7" width="6" height="55.9" fill="#1a1512"/><g stroke="#1a1512" stroke-width="3" fill="none" stroke-linecap="round"><path d="M525.4 649.7 l-16 -10 l-6 -14"/><path d="M525.4 659.7 l18 -8 l4 -16"/><path d="M525.4 641.7 l-8 -16"/></g><circle cx="519.4" cy="693.6" r="4" fill="#ff8a3a" opacity="0.4"/>
</svg>
