<svg xmlns="http://www.w3.org/2000/svg" width="540" height="960" viewBox="0 0 540 960">
  <!-- causeway slab: continuous full-height, uniform -> wraps seamlessly -->
  <rect x="50" y="0" width="440" height="960" fill="#090d1a"/>
  <rect x="50" y="0" width="6" height="960" fill="#202c46"/>
  <rect x="484" y="0" width="6" height="960" fill="#202c46"/>
  <!-- center road (the marching lane stays clear of props) -->
  <rect x="170" y="0" width="200" height="960" fill="#0e1424"/>
  <rect x="170" y="0" width="6" height="960" fill="#1c2740"/>
  <rect x="364" y="0" width="6" height="960" fill="#1c2740"/>
  <g fill="#64748b" opacity="0.12">
    <rect x="266" y="40" width="8" height="40"/>
    <rect x="266" y="160" width="8" height="40"/>
    <rect x="266" y="280" width="8" height="40"/>
    <rect x="266" y="400" width="8" height="40"/>
    <rect x="266" y="520" width="8" height="40"/>
    <rect x="266" y="640" width="8" height="40"/>
    <rect x="266" y="760" width="8" height="40"/>
    <rect x="266" y="880" width="8" height="40"/>
  </g>
  <rect x="50" y="200" width="120" height="2" fill="#1c2740" opacity="0.3"/><rect x="370" y="200" width="120" height="2" fill="#1c2740" opacity="0.3"/><rect x="50" y="480" width="120" height="2" fill="#1c2740" opacity="0.3"/><rect x="370" y="480" width="120" height="2" fill="#1c2740" opacity="0.3"/><rect x="50" y="760" width="120" height="2" fill="#1c2740" opacity="0.3"/><rect x="370" y="760" width="120" height="2" fill="#1c2740" opacity="0.3"/><rect x="182" y="452" width="14" height="56" fill="#64748b" opacity="0.15"/><rect x="205" y="452" width="14" height="56" fill="#64748b" opacity="0.15"/><rect x="228" y="452" width="14" height="56" fill="#64748b" opacity="0.15"/><rect x="251" y="452" width="14" height="56" fill="#64748b" opacity="0.15"/><rect x="274" y="452" width="14" height="56" fill="#64748b" opacity="0.15"/><rect x="297" y="452" width="14" height="56" fill="#64748b" opacity="0.15"/><rect x="320" y="452" width="14" height="56" fill="#64748b" opacity="0.15"/><rect x="343" y="452" width="14" height="56" fill="#64748b" opacity="0.15"/>
  <g fill="#202c46"><rect x="103" y="61.4" width="32" height="92"/><rect x="99" y="53.4" width="40" height="10"/></g><circle cx="119" cy="47.4" r="6" fill="#22d3ee" opacity="0.8"/>
  <rect x="69.1" y="288.2" width="88" height="46" fill="#202c46"/><rect x="69.1" y="282.2" width="88" height="8" fill="#1c2740"/>
  <rect x="102.4" y="414.9" width="5" height="78" fill="#202c46"/><circle cx="104.9" cy="412.9" r="6" fill="#22d3ee" opacity="0.9"/><circle cx="104.9" cy="412.9" r="16" fill="#22d3ee" opacity="0.12"/>
  <g fill="#202c46"><rect x="96.7" y="554.7" width="32" height="92"/><rect x="92.7" y="546.7" width="40" height="10"/></g><circle cx="112.7" cy="540.7" r="6" fill="#22d3ee" opacity="0.8"/>
  <rect x="65.8" y="802.7" width="72" height="18" rx="9" fill="#202c46" opacity="0.9"/>
  <g fill="#202c46"><rect x="423.5" y="32.6" width="32" height="92"/><rect x="419.5" y="24.6" width="40" height="10"/></g><circle cx="439.5" cy="18.6" r="6" fill="#22d3ee" opacity="0.8"/>
  <rect x="389.3" y="242.2" width="88" height="46" fill="#202c46"/><rect x="389.3" y="236.2" width="88" height="8" fill="#1c2740"/>
  <rect x="434.9" y="423.2" width="5" height="78" fill="#202c46"/><circle cx="437.4" cy="421.2" r="6" fill="#22d3ee" opacity="0.9"/><circle cx="437.4" cy="421.2" r="16" fill="#22d3ee" opacity="0.12"/>
  <g fill="#202c46"><rect x="416" y="566" width="32" height="92"/><rect x="412" y="558" width="40" height="10"/></g><circle cx="432" cy="552" r="6" fill="#22d3ee" opacity="0.8"/>
  <rect x="397.8" y="769.4" width="72" height="18" rx="9" fill="#202c46" opacity="0.9"/>
</svg>
