<svg xmlns="http://www.w3.org/2000/svg" width="540" height="960" viewBox="0 0 540 960">
  <!-- causeway slab: continuous full-height, uniform -> wraps seamlessly -->
  <rect x="50" y="0" width="440" height="960" fill="#332e2b"/>
  <rect x="50" y="0" width="6" height="960" fill="#2a2320"/>
  <rect x="484" y="0" width="6" height="960" fill="#2a2320"/>
  <!-- center road (the marching lane stays clear of props) -->
  <rect x="170" y="0" width="200" height="960" fill="#2a2522"/>
  <rect x="170" y="0" width="6" height="960" fill="#191614"/>
  <rect x="364" y="0" width="6" height="960" fill="#191614"/>
  <g fill="#b47a4a" opacity="0.3">
    <rect x="266" y="40" width="8" height="36.8"/>
    <rect x="266" y="160" width="8" height="32.7"/>
    <rect x="266" y="280" width="8" height="38"/>
    <rect x="266" y="400" width="8" height="28.6"/>
    <rect x="266" y="520" width="8" height="26.5"/>
    <rect x="266" y="880" width="8" height="35.7"/>
  </g>
  <rect x="50" y="200" width="120" height="2" fill="#191614" opacity="0.3"/><rect x="370" y="200" width="120" height="2" fill="#191614" opacity="0.3"/><rect x="50" y="480" width="120" height="2" fill="#191614" opacity="0.3"/><rect x="370" y="480" width="120" height="2" fill="#191614" opacity="0.3"/><rect x="50" y="760" width="120" height="2" fill="#191614" opacity="0.3"/><rect x="370" y="760" width="120" height="2" fill="#191614" opacity="0.3"/><rect x="182" y="452" width="14" height="56" fill="#b47a4a" opacity="0.22"/><rect x="228" y="452" width="14" height="56" fill="#b47a4a" opacity="0.22"/><rect x="251" y="452" width="14" height="56" fill="#b47a4a" opacity="0.22"/><rect x="297" y="452" width="14" height="56" fill="#b47a4a" opacity="0.22"/><rect x="320" y="452" width="14" height="56" fill="#b47a4a" opacity="0.22"/><ellipse cx="128.2" cy="811.4" rx="36.5" ry="19.7" fill="#0d0a09" opacity="0.2"/><ellipse cx="335.6" cy="352.6" rx="27.7" ry="21.3" fill="#0d0a09" opacity="0.3"/><ellipse cx="462" cy="630.5" rx="21.5" ry="12.1" fill="#0d0a09" opacity="0.2"/><ellipse cx="474.4" cy="499.8" rx="42.9" ry="13.3" fill="#0d0a09" opacity="0.2"/><ellipse cx="83.3" cy="795.6" rx="26.6" ry="21.3" fill="#0d0a09" opacity="0.2"/><ellipse cx="264.3" cy="698.3" rx="40.5" ry="19.1" fill="#0d0a09" opacity="0.2"/><g stroke="#0d0a09" stroke-width="2" fill="none" opacity="0.5"><path d="M457.4 171.8 L475.3 208.9 L459.1 235.6 L466.6 278.3 L475.7 320.8 L496.1 347.3"/><path d="M184.8 235.5 L182 279.1 L187.6 301.6 L212.9 327 L186.9 346"/><path d="M296.6 577.5 L306.6 603.2 L308.4 640.5 L315 674.9"/><path d="M70.5 337.1 L61 357 L55.1 381 L34.2 422.8"/><path d="M404.7 435 L413.7 471.3 L431.1 497.5 L448.3 525.1"/><path d="M163.5 805.3 L184.2 833.5 L181.8 859.4 L192.4 879.1 L181.3 905.8"/><path d="M373 617.1 L387.6 639.7 L389.9 666.1 L406.6 698.1 L419.3 735.3"/></g>
  <rect x="50" y="762.8" width="11.2" height="7.8" transform="rotate(37.6 50 762.8)" fill="#191614" opacity="0.8"/>
  <rect x="58.4" y="191.4" width="6.4" height="9.4" transform="rotate(29.6 58.4 191.4)" fill="#191614" opacity="0.8"/>
  <rect x="44.5" y="110" width="8.1" height="7.5" transform="rotate(88.3 44.5 110)" fill="#191614" opacity="0.8"/>
  <rect x="65.8" y="687.8" width="7.4" height="6.4" transform="rotate(70 65.8 687.8)" fill="#191614" opacity="0.8"/>
  <rect x="61.4" y="594.7" width="5.2" height="6.6" transform="rotate(73.1 61.4 594.7)" fill="#191614" opacity="0.8"/>
  <rect x="60" y="540.9" width="4.1" height="5.3" transform="rotate(32.2 60 540.9)" fill="#191614" opacity="0.8"/>
  <rect x="490.6" y="386" width="5.6" height="6.4" transform="rotate(48.8 490.6 386)" fill="#191614" opacity="0.8"/>
  <rect x="470.9" y="267.5" width="11.4" height="6.4" transform="rotate(6.9 470.9 267.5)" fill="#191614" opacity="0.8"/>
  <rect x="495.8" y="354.2" width="11.4" height="8.2" transform="rotate(6.7 495.8 354.2)" fill="#191614" opacity="0.8"/>
  <rect x="470.5" y="715.5" width="7.6" height="9.9" transform="rotate(50.6 470.5 715.5)" fill="#191614" opacity="0.8"/>
  <rect x="485.4" y="92.3" width="11.1" height="9.3" transform="rotate(51.1 485.4 92.3)" fill="#191614" opacity="0.8"/>
  <rect x="499.4" y="110.3" width="10.9" height="9.8" transform="rotate(68.2 499.4 110.3)" fill="#191614" opacity="0.8"/>
  <g fill="#2a2320"><polygon points="98.9,130.9 98.9,52.7 112.9,46.7 130.9,60.7 130.9,130.9"/></g><path d="M104.9 91.8 l8 10 l-4 12" stroke="#0d0a09" stroke-width="2" fill="none" opacity="0.5"/><circle cx="114.9" cy="42.7" r="38.3" fill="#ff5a1e" opacity="0.28"/><circle cx="114.9" cy="42.7" r="21.3" fill="#ff8a3a" opacity="0.32"/><path d="M116.5 56.7 q-8.3 -20.9 0 -41.9 q7.5 21 0 41.9 z" fill="#ff8a3a" opacity="0.9"/><path d="M105 56.7 q-8.3 -16.9 0 -33.8 q8.4 16.9 0 33.8 z" fill="#ff3a12" opacity="0.9"/><path d="M116.5 56.7 q-7.9 -18.1 0 -36.3 q8.9 18.2 0 36.3 z" fill="#ff5a1e" opacity="0.9"/><path d="M114.9 52.7 q-3 -11.7 0 -26.4 q3 10.7 0 23.2 z" fill="#ffe6a3" opacity="0.85"/>
  <polygon points="75.1,345.6 75.1,299.6 103.1,299.6 111.1,325.6 125.1,321.6 135.1,299.6 163.1,299.6 163.1,345.6" fill="#2a2320"/><rect x="75.1" y="293.6" width="28" height="8" fill="#191614"/><rect x="135.1" y="293.6" width="28" height="8" fill="#191614"/><ellipse cx="119.1" cy="345.6" rx="39.8" ry="12" fill="#211b19"/><rect x="113" y="344.6" width="10.9" height="12.3" transform="rotate(-19.1 113 344.6)" fill="#191614"/><rect x="127" y="322.4" width="8" height="8.9" transform="rotate(-0.9 127 322.4)" fill="#191614"/><rect x="142.6" y="325.9" width="10.1" height="10.8" transform="rotate(17.3 142.6 325.9)" fill="#191614"/><rect x="138.2" y="326.2" width="8.8" height="10.3" transform="rotate(1.9 138.2 326.2)" fill="#191614"/><rect x="132.3" y="331.7" width="16.1" height="13.9" transform="rotate(-2.7 132.3 331.7)" fill="#2a2320"/><rect x="151.9" y="320" width="11.1" height="7.1" transform="rotate(-24 151.9 320)" fill="#2a2320"/><rect x="107.5" y="328.8" width="15.1" height="15.4" transform="rotate(-33.4 107.5 328.8)" fill="#2a2320"/><rect x="106.4" y="340.9" width="8" height="5.9" transform="rotate(30 106.4 340.9)" fill="#2a2320"/>
  <circle cx="108.9" cy="448.8" r="47.3" fill="#ff5a1e" opacity="0.3"/><ellipse cx="108.9" cy="468.8" rx="33.7" ry="10" fill="#191614"/><ellipse cx="108.9" cy="466.8" rx="22.5" ry="7" fill="#ff8a3a" opacity="0.4"/><g stroke="#2a2320" stroke-width="4" stroke-linecap="round"><line x1="90.9" y1="470.8" x2="122.9" y2="458.8"/><line x1="126.9" y1="470.8" x2="94.9" y2="458.8"/></g><circle cx="108.9" cy="448.8" r="30.1" fill="#ff5a1e" opacity="0.28"/><circle cx="108.9" cy="448.8" r="17.7" fill="#ff8a3a" opacity="0.32"/><path d="M118.4 462.8 q-7.3 -16 0 -32 q7.8 16 0 32 z" fill="#ff8a3a" opacity="0.9"/><path d="M101.9 462.8 q-7.1 -20.8 0 -41.7 q8.3 20.9 0 41.7 z" fill="#ff5a1e" opacity="0.9"/><path d="M108.9 458.8 q-3 -13 0 -26.6 q3 15.9 0 25 z" fill="#ffe6a3" opacity="0.85"/>
  <g fill="#2a2320"><polygon points="91,641.3 91,566.4 105,560.4 123,574.4 123,641.3"/></g><path d="M97 603.8 l8 10 l-4 12" stroke="#0d0a09" stroke-width="2" fill="none" opacity="0.5"/><circle cx="107" cy="556.4" r="32.1" fill="#ff5a1e" opacity="0.28"/><circle cx="107" cy="556.4" r="23.2" fill="#ff8a3a" opacity="0.32"/><path d="M99.3 570.4 q-6.8 -14.4 0 -28.9 q6.7 14.5 0 28.9 z" fill="#ff8a3a" opacity="0.9"/><path d="M112.1 570.4 q-8.6 -18 0 -36.1 q9.2 18.1 0 36.1 z" fill="#ff5a1e" opacity="0.9"/><path d="M107 566.4 q-3 -10.9 0 -23.5 q3 15.1 0 26.5 z" fill="#ffe6a3" opacity="0.85"/>
  <circle cx="100.9" cy="812.2" r="41.3" fill="#ff5a1e" opacity="0.28"/><circle cx="100.9" cy="812.2" r="23.9" fill="#ff8a3a" opacity="0.32"/><path d="M103.6 826.2 q-6.2 -21.6 0 -43.3 q7.1 21.7 0 43.3 z" fill="#ff8a3a" opacity="0.9"/><path d="M108.3 826.2 q-7.4 -20.4 0 -40.9 q6.9 20.5 0 40.9 z" fill="#ff5a1e" opacity="0.9"/><path d="M100.9 822.2 q-3 -11.7 0 -22.1 q3 11.2 0 26 z" fill="#ffe6a3" opacity="0.85"/>
  <g fill="#2a2320"><polygon points="405.1,164.3 405.1,84.2 419.1,78.2 437.1,92.2 437.1,164.3"/></g><path d="M411.1 124.3 l8 10 l-4 12" stroke="#0d0a09" stroke-width="2" fill="none" opacity="0.5"/><circle cx="421.1" cy="74.2" r="44.2" fill="#ff5a1e" opacity="0.28"/><circle cx="421.1" cy="74.2" r="23.8" fill="#ff8a3a" opacity="0.32"/><path d="M417.7 88.2 q-7.1 -18.5 0 -37 q9.7 18.5 0 37 z" fill="#ff8a3a" opacity="0.9"/><path d="M424.2 88.2 q-7.3 -16.9 0 -33.8 q9.6 16.9 0 33.8 z" fill="#ff5a1e" opacity="0.9"/><path d="M414.6 88.2 q-6.8 -20.1 0 -40.2 q7.4 20.1 0 40.2 z" fill="#ff3a12" opacity="0.9"/><path d="M421.1 84.2 q-3 -14.1 0 -21.3 q3 15.7 0 22.5 z" fill="#ffe6a3" opacity="0.85"/>
  <polygon points="389.8,308 389.8,262 417.8,262 425.8,288 439.8,284 449.8,262 477.8,262 477.8,308" fill="#2a2320"/><rect x="389.8" y="256" width="28" height="8" fill="#191614"/><rect x="449.8" y="256" width="28" height="8" fill="#191614"/><ellipse cx="433.8" cy="308" rx="38.4" ry="12" fill="#211b19"/><rect x="413.4" y="293.8" width="11.3" height="9.6" transform="rotate(-19.4 413.4 293.8)" fill="#191614"/><rect x="408.1" y="305.9" width="9.4" height="8.6" transform="rotate(-24 408.1 305.9)" fill="#191614"/><rect x="447.3" y="297.5" width="6.9" height="6.5" transform="rotate(-21.1 447.3 297.5)" fill="#191614"/><rect x="420.5" y="283.1" width="8.3" height="5.7" transform="rotate(2.4 420.5 283.1)" fill="#191614"/><rect x="442.2" y="298.4" width="15.8" height="17.4" transform="rotate(14.3 442.2 298.4)" fill="#191614"/>
  <circle cx="431.6" cy="485.1" r="56.8" fill="#ff5a1e" opacity="0.3"/><ellipse cx="431.6" cy="505.1" rx="34.4" ry="10" fill="#191614"/><ellipse cx="431.6" cy="503.1" rx="24.1" ry="7" fill="#ff8a3a" opacity="0.4"/><g stroke="#2a2320" stroke-width="4" stroke-linecap="round"><line x1="413.6" y1="507.1" x2="445.6" y2="495.1"/><line x1="449.6" y1="507.1" x2="417.6" y2="495.1"/></g><circle cx="431.6" cy="485.1" r="40.3" fill="#ff5a1e" opacity="0.28"/><circle cx="431.6" cy="485.1" r="20" fill="#ff8a3a" opacity="0.32"/><path d="M424.4 499.1 q-6.5 -13.8 0 -27.6 q6.7 13.8 0 27.6 z" fill="#ff8a3a" opacity="0.9"/><path d="M428.7 499.1 q-8.9 -15 0 -30 q7 15 0 30 z" fill="#ff3a12" opacity="0.9"/><path d="M431.6 495.1 q-3 -15.8 0 -25.2 q3 12.4 0 26.5 z" fill="#ffe6a3" opacity="0.85"/>
  <g fill="#2a2320"><polygon points="405.9,628.1 405.9,541.4 419.9,535.4 437.9,549.4 437.9,628.1"/></g><path d="M411.9 584.8 l8 10 l-4 12" stroke="#0d0a09" stroke-width="2" fill="none" opacity="0.5"/><circle cx="421.9" cy="531.4" r="38.6" fill="#ff5a1e" opacity="0.28"/><circle cx="421.9" cy="531.4" r="19.9" fill="#ff8a3a" opacity="0.32"/><path d="M430.9 545.4 q-7.1 -15.2 0 -30.5 q8.7 15.3 0 30.5 z" fill="#ff8a3a" opacity="0.9"/><path d="M430.8 545.4 q-7.6 -20.3 0 -40.6 q8.6 20.3 0 40.6 z" fill="#ff5a1e" opacity="0.9"/><path d="M421.9 541.4 q-3 -11.9 0 -26.6 q3 11.4 0 27.8 z" fill="#ffe6a3" opacity="0.85"/>
  <circle cx="427.4" cy="796.6" r="34.9" fill="#ff5a1e" opacity="0.28"/><circle cx="427.4" cy="796.6" r="18.6" fill="#ff8a3a" opacity="0.32"/><path d="M425.9 810.6 q-6.1 -16.1 0 -32.3 q6.3 16.2 0 32.3 z" fill="#ff8a3a" opacity="0.9"/><path d="M423.7 810.6 q-8.2 -17.3 0 -34.6 q9.2 17.3 0 34.6 z" fill="#ff5a1e" opacity="0.9"/><path d="M429.6 810.6 q-9.4 -15.7 0 -31.5 q6.2 15.8 0 31.5 z" fill="#ff5a1e" opacity="0.9"/><path d="M427.4 806.6 q-3 -12.9 0 -21.5 q3 15.5 0 25.6 z" fill="#ffe6a3" opacity="0.85"/>
</svg>
