<svg xmlns="http://www.w3.org/2000/svg" width="540" height="960" viewBox="0 0 540 960">
  <g transform="translate(89.8 288) scale(1.5) translate(-89.8 -288)" opacity="0.95"><g><rect x="76.8" y="252" width="26" height="36" rx="3" fill="#22304f"/><rect x="74.8" y="260" width="30" height="4" fill="#1e293b"/><rect x="74.8" y="274" width="30" height="4" fill="#1e293b"/></g></g>
  <g transform="translate(95.1 443.2) scale(1.5) translate(-95.1 -443.2)" opacity="0.95"><rect x="79.1" y="423.2" width="32" height="20" rx="4" fill="#22304f"/><circle cx="88.1" cy="417.2" r="10" fill="#22304f" opacity="0.85"/><circle cx="103.1" cy="415.2" r="12" fill="#22304f" opacity="0.85"/></g>
  <g transform="translate(94.9 760.1) scale(1.5) translate(-94.9 -760.1)" opacity="0.95"><g fill="#22304f"><rect x="70.9" y="726.1" width="48" height="26" rx="6"/><rect x="64.9" y="716.1" width="30" height="14" rx="4"/><circle cx="80.9" cy="754.1" r="7"/><circle cx="108.9" cy="754.1" r="7"/></g></g>
  <g transform="translate(447.4 209.5) scale(1.5) translate(-447.4 -209.5)" opacity="0.95"><g><rect x="434.4" y="173.5" width="26" height="36" rx="3" fill="#22304f"/><rect x="432.4" y="181.5" width="30" height="4" fill="#1e293b"/><rect x="432.4" y="195.5" width="30" height="4" fill="#1e293b"/></g></g>
  <g transform="translate(444 464.2) scale(1.5) translate(-444 -464.2)" opacity="0.95"><rect x="428" y="444.2" width="32" height="20" rx="4" fill="#22304f"/><circle cx="437" cy="438.2" r="10" fill="#22304f" opacity="0.85"/><circle cx="452" cy="436.2" r="12" fill="#22304f" opacity="0.85"/></g>
  <g transform="translate(436.9 753) scale(1.5) translate(-436.9 -753)" opacity="0.95"><g fill="#22304f"><rect x="412.9" y="719" width="48" height="26" rx="6"/><rect x="406.9" y="709" width="30" height="14" rx="4"/><circle cx="422.9" cy="747" r="7"/><circle cx="450.9" cy="747" r="7"/></g></g>
</svg>
