<svg xmlns="http://www.w3.org/2000/svg" width="540" height="960" viewBox="0 0 540 960">
  <g transform="translate(89.8 288) scale(1.5) translate(-89.8 -288)" opacity="0.95"><ellipse cx="89.8" cy="288" rx="43.6" ry="12" fill="#3a3733"/><rect x="72.5" y="278.4" width="15.3" height="13.6" transform="rotate(-10 72.5 278.4)" fill="#403c37"/><rect x="70.1" y="286.2" width="7.2" height="5.2" transform="rotate(-20.4 70.1 286.2)" fill="#403c37"/><rect x="69.3" y="278.2" width="13.3" height="9.4" transform="rotate(-3.2 69.3 278.2)" fill="#37332f"/><rect x="78.4" y="267.2" width="7.8" height="8.4" transform="rotate(31.7 78.4 267.2)" fill="#37332f"/><rect x="60.4" y="278.1" width="7.9" height="7.7" transform="rotate(34.8 60.4 278.1)" fill="#37332f"/><rect x="59.7" y="264.4" width="10.8" height="11.9" transform="rotate(20 59.7 264.4)" fill="#403c37"/><rect x="94.9" y="268.5" width="17.2" height="19.3" transform="rotate(5.7 94.9 268.5)" fill="#37332f"/></g>
  <g transform="translate(89.7 443.2) scale(1.5) translate(-89.7 -443.2)" opacity="0.95"><circle cx="89.7" cy="429.2" r="31.8" fill="#c9683a" opacity="0.28"/><circle cx="89.7" cy="429.2" r="23.2" fill="#e8823a" opacity="0.32"/><path d="M93.5 443.2 q-8.7 -21 0 -42 q9.1 21 0 42 z" fill="#e8823a" opacity="0.9"/><path d="M85 443.2 q-9.3 -14.3 0 -28.6 q6.9 14.3 0 28.6 z" fill="#c9683a" opacity="0.9"/><path d="M89.7 439.2 q-3 -15.7 0 -25.3 q3 10.5 0 22.9 z" fill="#ffe6a3" opacity="0.85"/></g>
  <g transform="translate(93.7 760.1) scale(1.5) translate(-93.7 -760.1)" opacity="0.95"><g fill="#403c37"><rect x="69.7" y="726.1" width="48" height="26" rx="6"/><rect x="63.7" y="716.1" width="30" height="14" rx="4"/><circle cx="79.7" cy="754.1" r="7"/><circle cx="107.7" cy="754.1" r="7"/></g></g>
  <g transform="translate(452.6 267.1) scale(1.5) translate(-452.6 -267.1)" opacity="0.95"><ellipse cx="452.6" cy="267.1" rx="38.7" ry="12" fill="#3a3733"/><rect x="469" y="261.5" width="6.7" height="5.7" transform="rotate(19.2 469 261.5)" fill="#403c37"/><rect x="457" y="251" width="6" height="4.1" transform="rotate(18.6 457 251)" fill="#403c37"/><rect x="475.2" y="257.9" width="17.7" height="15" transform="rotate(5.6 475.2 257.9)" fill="#403c37"/><rect x="428.6" y="253.7" width="17.9" height="17.5" transform="rotate(-14.7 428.6 253.7)" fill="#403c37"/><rect x="451.8" y="252.7" width="13.1" height="11.8" transform="rotate(-21 451.8 252.7)" fill="#37332f"/></g>
  <g transform="translate(445.2 522.9) scale(1.5) translate(-445.2 -522.9)" opacity="0.95"><circle cx="445.2" cy="508.9" r="36" fill="#c9683a" opacity="0.28"/><circle cx="445.2" cy="508.9" r="17" fill="#e8823a" opacity="0.32"/><path d="M456.2 522.9 q-7.9 -13.1 0 -26.3 q8.6 13.2 0 26.3 z" fill="#e8823a" opacity="0.9"/><path d="M444.4 522.9 q-7.9 -13.2 0 -26.4 q7.6 13.2 0 26.4 z" fill="#d1502a" opacity="0.9"/><path d="M441.3 522.9 q-6.8 -14.2 0 -28.5 q8.8 14.3 0 28.5 z" fill="#d1502a" opacity="0.9"/><path d="M445.2 518.9 q-3 -10.3 0 -21.2 q3 10.4 0 25.1 z" fill="#ffe6a3" opacity="0.85"/></g>
  <g transform="translate(435.6 743.6) scale(1.5) translate(-435.6 -743.6)" opacity="0.95"><g fill="#403c37"><rect x="411.6" y="709.6" width="48" height="26" rx="6"/><rect x="405.6" y="699.6" width="30" height="14" rx="4"/><circle cx="421.6" cy="737.6" r="7"/><circle cx="449.6" cy="737.6" r="7"/></g></g>
</svg>
