<svg xmlns="http://www.w3.org/2000/svg" width="540" height="960" viewBox="0 0 540 960" preserveAspectRatio="none">
  <defs>
    <linearGradient id="sky" x1="0" y1="0" x2="0" y2="1">
      <stop offset="0" stop-color="#0a0f1e"/>
      <stop offset="0.55" stop-color="#0f172a"/>
      <stop offset="1" stop-color="#16233d"/>
    </linearGradient>
    <linearGradient id="horizon" x1="0" y1="0" x2="0" y2="1">
      <stop offset="0" stop-color="#facc15" stop-opacity="0"/>
      <stop offset="1" stop-color="#facc15" stop-opacity="0.1"/>
    </linearGradient>
  </defs>
  <rect width="540" height="960" fill="url(#sky)"/>
  <rect y="480" width="540" height="480" fill="url(#horizon)"/>
  <g fill="#f8fafc" opacity="0.4"><circle cx="491.8" cy="496.4" r="2"/><circle cx="219.4" cy="154.4" r="1"/><circle cx="191.6" cy="63.9" r="0.9"/><circle cx="88.5" cy="355.3" r="1.8"/><circle cx="280.6" cy="491" r="2"/><circle cx="432.1" cy="659" r="1.9"/><circle cx="2.5" cy="589" r="1.7"/><circle cx="276.9" cy="16.8" r="1"/><circle cx="281.6" cy="580.5" r="0.8"/><circle cx="229.8" cy="484.1" r="1.9"/><circle cx="244.2" cy="108.6" r="1.9"/><circle cx="409" cy="628.9" r="1.5"/><circle cx="12.8" cy="172.5" r="2.1"/><circle cx="42.5" cy="267.7" r="1.5"/><circle cx="113" cy="542.3" r="1.2"/><circle cx="502.8" cy="253.2" r="1.4"/><circle cx="51.1" cy="362.2" r="0.9"/><circle cx="202.2" cy="658.7" r="2.2"/><circle cx="233.5" cy="418.5" r="2"/><circle cx="283.4" cy="302.3" r="1.8"/><circle cx="408" cy="151" r="2.1"/><circle cx="98.3" cy="503.1" r="1.3"/><circle cx="446.9" cy="554.9" r="1.4"/><circle cx="539.4" cy="632.8" r="0.8"/><circle cx="469.7" cy="39.4" r="1.2"/><circle cx="336.6" cy="630.6" r="2"/></g><circle cx="298.7" cy="186" r="34" fill="#e2e8f0" opacity="0.85"/><circle cx="286.7" cy="180" r="30" fill="#0a0f1e" opacity="0.9"/><circle cx="298.7" cy="186" r="52" fill="#e2e8f0" opacity="0.06"/>
</svg>
