<svg xmlns="http://www.w3.org/2000/svg" width="540" height="960" viewBox="0 0 540 960" preserveAspectRatio="none">
  <defs>
    <linearGradient id="ground" x1="0" y1="0" x2="0" y2="1">
      <stop offset="0" stop-color="#2b2a2e"/>
      <stop offset="0.55" stop-color="#3d3a3a"/>
      <stop offset="1" stop-color="#524a45"/>
    </linearGradient>
    <linearGradient id="glowL" x1="0" y1="0" x2="1" y2="0">
      <stop offset="0" stop-color="#c9683a" stop-opacity="0.22"/>
      <stop offset="1" stop-color="#c9683a" stop-opacity="0"/>
    </linearGradient>
    <linearGradient id="glowR" x1="1" y1="0" x2="0" y2="0">
      <stop offset="0" stop-color="#c9683a" stop-opacity="0.22"/>
      <stop offset="1" stop-color="#c9683a" stop-opacity="0"/>
    </linearGradient>
  </defs>
  <rect width="540" height="960" fill="url(#ground)"/>
  <rect x="0" y="0" width="226.8" height="960" fill="url(#glowL)"/><rect x="313.2" y="0" width="226.8" height="960" fill="url(#glowR)"/><circle cx="491.8" cy="709.2" r="6.2" fill="#e8823a" opacity="0.1"/><circle cx="124.1" cy="164.9" r="3.8" fill="#e8823a" opacity="0.1"/><circle cx="55.1" cy="157.3" r="4.6" fill="#e8823a" opacity="0.1"/><circle cx="280.6" cy="701.4" r="6.4" fill="#e8823a" opacity="0.1"/><circle cx="529.5" cy="759.7" r="2" fill="#e8823a" opacity="0.2"/><circle cx="348.1" cy="492.3" r="2.1" fill="#e8823a" opacity="0.1"/><circle cx="281.6" cy="829.3" r="2.1" fill="#e8823a" opacity="0.1"/><circle cx="389" cy="729.6" r="4.3" fill="#e8823a" opacity="0.1"/><ellipse cx="270" cy="200.1" rx="378" ry="62.7" fill="#2b2a2e" opacity="0.25"/><ellipse cx="270" cy="474.9" rx="378" ry="55.4" fill="#2b2a2e" opacity="0.25"/><ellipse cx="270" cy="661.9" rx="378" ry="47.7" fill="#2b2a2e" opacity="0.25"/>
</svg>
