<svg xmlns="http://www.w3.org/2000/svg" width="540" height="960" viewBox="0 0 540 960">
  <g fill="#403c37"><polygon points="-18.1,246 -18.1,189.4 23.3,203.4 39.7,183.4 64.5,209.4 64.5,246"/></g><polygon points="-14.1,209.4 23.2,187.4 23.2,240 -14.1,240" fill="#100c0a" opacity="0.45"/><rect x="17.2" y="211.4" width="14" height="18" fill="#e8823a" opacity="0.5"/><ellipse cx="-1.6" cy="246" rx="41.1" ry="12" fill="#3a3733"/><rect x="8.4" y="227.1" width="12.1" height="7.8" transform="rotate(-6.5 8.4 227.1)" fill="#37332f"/><rect x="1.2" y="228.9" width="9.5" height="11.1" transform="rotate(-27.6 1.2 228.9)" fill="#403c37"/><rect x="-32.7" y="243.8" width="15.3" height="9.4" transform="rotate(-35.2 -32.7 243.8)" fill="#403c37"/><rect x="-24.9" y="231.8" width="10.6" height="12.1" transform="rotate(-0.8 -24.9 231.8)" fill="#37332f"/><rect x="-32.1" y="233.3" width="10.3" height="7.6" transform="rotate(23.3 -32.1 233.3)" fill="#37332f"/><rect x="30.3" y="232.4" width="9.7" height="7.1" transform="rotate(4.8 30.3 232.4)" fill="#37332f"/>
  <ellipse cx="10.2" cy="478.3" rx="46.7" ry="12" fill="#3a3733"/><rect x="11" y="467.8" width="16.3" height="11.9" transform="rotate(13.8 11 467.8)" fill="#403c37"/><rect x="-7" y="459.6" width="14.7" height="11.1" transform="rotate(-15 -7 459.6)" fill="#37332f"/><rect x="-5.6" y="464.2" width="11.5" height="10.3" transform="rotate(36.3 -5.6 464.2)" fill="#403c37"/><rect x="3.9" y="455.5" width="8" height="9.1" transform="rotate(2.9 3.9 455.5)" fill="#403c37"/><rect x="14.1" y="462.5" width="7.3" height="8.7" transform="rotate(39.7 14.1 462.5)" fill="#37332f"/>
  <g fill="#3a3733"><polygon points="-6.5,742.2 -6.5,601.4 5.5,613.4 17.5,595.4 25.5,609.4 25.5,742.2"/></g><rect x="3.5" y="625.4" width="12" height="16" rx="6" fill="#0d0a09" opacity="0.5"/><rect x="3.5" y="625.4" width="12" height="6" fill="#e8823a" opacity="0.4"/>
  <g fill="#403c37"><polygon points="479.7,250 479.7,197.1 527.5,211.1 543.3,191.1 570.5,217.1 570.5,250"/></g><polygon points="483.7,217.1 525.1,195.1 525.1,244 483.7,244" fill="#100c0a" opacity="0.45"/><rect x="519.1" y="219.1" width="14" height="18" fill="#e8823a" opacity="0.5"/><ellipse cx="497.9" cy="250" rx="37.5" ry="12" fill="#3a3733"/><rect x="481" y="227.5" width="6.1" height="7" transform="rotate(-9.1 481 227.5)" fill="#37332f"/><rect x="502.8" y="230.5" width="7.5" height="6.5" transform="rotate(11.7 502.8 230.5)" fill="#37332f"/><rect x="506.3" y="248.3" width="12.9" height="9.1" transform="rotate(39.3 506.3 248.3)" fill="#37332f"/><rect x="525.7" y="230.1" width="6.8" height="6.2" transform="rotate(-30.2 525.7 230.1)" fill="#403c37"/><rect x="475.5" y="246.8" width="8" height="5.6" transform="rotate(-19.9 475.5 246.8)" fill="#403c37"/><rect x="501.7" y="228" width="15.1" height="14.2" transform="rotate(-3.2 501.7 228)" fill="#403c37"/><rect x="502.1" y="245.3" width="14.9" height="17.7" transform="rotate(27.3 502.1 245.3)" fill="#403c37"/>
  <ellipse cx="526.1" cy="506.9" rx="37" ry="12" fill="#3a3733"/><rect x="549.4" y="502.5" width="9.5" height="6.9" transform="rotate(-40 549.4 502.5)" fill="#403c37"/><rect x="547.7" y="483.8" width="15.8" height="14.5" transform="rotate(-30.6 547.7 483.8)" fill="#37332f"/><rect x="532.7" y="496.8" width="6.7" height="5.3" transform="rotate(-34 532.7 496.8)" fill="#37332f"/><rect x="501.6" y="485.1" width="7.7" height="5.3" transform="rotate(34 501.6 485.1)" fill="#403c37"/><rect x="527.8" y="483.8" width="15.5" height="11.6" transform="rotate(14.3 527.8 483.8)" fill="#403c37"/>
  <g fill="#3a3733"><polygon points="506.5,680.2 506.5,565.9 518.5,577.9 530.5,559.9 538.5,573.9 538.5,680.2"/></g><rect x="516.5" y="589.9" width="12" height="16" rx="6" fill="#0d0a09" opacity="0.5"/><rect x="516.5" y="589.9" width="12" height="6" fill="#e8823a" opacity="0.4"/>
</svg>
