<svg xmlns="http://www.w3.org/2000/svg" width="540" height="960" viewBox="0 0 540 960">
  <!-- causeway slab: continuous full-height, uniform -> wraps seamlessly -->
  <rect x="50" y="0" width="440" height="960" fill="#aab6c6"/>
  <rect x="50" y="0" width="6" height="960" fill="#7d90ad"/>
  <rect x="484" y="0" width="6" height="960" fill="#7d90ad"/>
  <!-- center road (the marching lane stays clear of props) -->
  <rect x="170" y="0" width="200" height="960" fill="#98a6b8"/>
  <rect x="170" y="0" width="6" height="960" fill="#6b7c92"/>
  <rect x="364" y="0" width="6" height="960" fill="#6b7c92"/>
  <g fill="#f8fafc" opacity="0.5">
    <rect x="266" y="40" width="8" height="40"/>
    <rect x="266" y="160" width="8" height="40"/>
    <rect x="266" y="280" width="8" height="40"/>
    <rect x="266" y="400" width="8" height="40"/>
    <rect x="266" y="520" width="8" height="40"/>
    <rect x="266" y="640" width="8" height="40"/>
    <rect x="266" y="760" width="8" height="40"/>
    <rect x="266" y="880" width="8" height="40"/>
  </g>
  <ellipse cx="144.5" cy="873" rx="22.9" ry="7.6" fill="#38bdf8" opacity="0.05"/><ellipse cx="97.7" cy="97.4" rx="23.4" ry="5" fill="#38bdf8" opacity="0.05"/><ellipse cx="105.1" cy="106.6" rx="25.8" ry="4.1" fill="#38bdf8" opacity="0.05"/><ellipse cx="447" cy="298.9" rx="18.1" ry="5.8" fill="#38bdf8" opacity="0.05"/><ellipse cx="349.7" cy="325.8" rx="17.6" ry="6.4" fill="#38bdf8" opacity="0.05"/>
  <g fill="#7d90ad"><rect x="87.2" y="101.6" width="48" height="26" rx="6"/><rect x="81.2" y="91.6" width="30" height="14" rx="4"/><circle cx="97.2" cy="129.6" r="7"/><circle cx="125.2" cy="129.6" r="7"/></g>
  <rect x="87.9" y="267.8" width="66" height="40" fill="#7d90ad"/><rect x="83.9" y="249.8" width="7.4" height="14" fill="#ef4444" opacity="0.7"/><rect x="98.7" y="249.8" width="7.4" height="14" fill="#e2e8f0" opacity="0.7"/><rect x="113.5" y="249.8" width="7.4" height="14" fill="#ef4444" opacity="0.7"/><rect x="128.3" y="249.8" width="7.4" height="14" fill="#e2e8f0" opacity="0.7"/><rect x="143.1" y="249.8" width="7.4" height="14" fill="#ef4444" opacity="0.7"/><rect x="83.9" y="261.8" width="74" height="6" fill="#7d90ad"/>
  <rect x="94.8" y="485.8" width="32" height="20" rx="4" fill="#7d90ad"/><circle cx="103.8" cy="479.8" r="10" fill="#7d90ad" opacity="0.85"/><circle cx="118.8" cy="477.8" r="12" fill="#7d90ad" opacity="0.85"/>
  <g><rect x="88.2" y="588.5" width="26" height="36" rx="3" fill="#7d90ad"/><rect x="86.2" y="596.5" width="30" height="4" fill="#6b7c92"/><rect x="86.2" y="610.5" width="30" height="4" fill="#6b7c92"/></g>
  <rect x="104.4" y="704.5" width="5" height="78" fill="#7d90ad"/><circle cx="106.9" cy="702.5" r="6" fill="#facc15" opacity="0.9"/><circle cx="106.9" cy="702.5" r="16" fill="#facc15" opacity="0.12"/>
  <g fill="#7d90ad"><rect x="399.4" y="140" width="48" height="26" rx="6"/><rect x="393.4" y="130" width="30" height="14" rx="4"/><circle cx="409.4" cy="168" r="7"/><circle cx="437.4" cy="168" r="7"/></g>
  <rect x="391.5" y="261.5" width="66" height="40" fill="#7d90ad"/><rect x="387.5" y="243.5" width="7.4" height="14" fill="#ef4444" opacity="0.7"/><rect x="402.3" y="243.5" width="7.4" height="14" fill="#e2e8f0" opacity="0.7"/><rect x="417.1" y="243.5" width="7.4" height="14" fill="#ef4444" opacity="0.7"/><rect x="431.9" y="243.5" width="7.4" height="14" fill="#e2e8f0" opacity="0.7"/><rect x="446.7" y="243.5" width="7.4" height="14" fill="#ef4444" opacity="0.7"/><rect x="387.5" y="255.5" width="74" height="6" fill="#7d90ad"/>
  <rect x="406" y="446.3" width="32" height="20" rx="4" fill="#7d90ad"/><circle cx="415" cy="440.3" r="10" fill="#7d90ad" opacity="0.85"/><circle cx="430" cy="438.3" r="12" fill="#7d90ad" opacity="0.85"/>
  <g><rect x="409.8" y="620.4" width="26" height="36" rx="3" fill="#7d90ad"/><rect x="407.8" y="628.4" width="30" height="4" fill="#6b7c92"/><rect x="407.8" y="642.4" width="30" height="4" fill="#6b7c92"/></g>
  <rect x="435.5" y="714.8" width="5" height="78" fill="#7d90ad"/><circle cx="438" cy="712.8" r="6" fill="#facc15" opacity="0.9"/><circle cx="438" cy="712.8" r="16" fill="#facc15" opacity="0.12"/>
</svg>
