<svg xmlns="http://www.w3.org/2000/svg" width="512" height="540" viewBox="0 0 512 540">
  
    <rect x="0" y="430" width="512" height="110" fill="#0e1930"/>
    <rect x="0" y="430" width="512" height="6" fill="#1e293b"/>
    <!-- Center Road/Pathway (x=170 to 342) -->
    <rect x="170" y="200" width="172" height="760" fill="#131c31"/>
    <rect x="170" y="200" width="6" height="760" fill="#1e293b"/>
    <rect x="336" y="200" width="6" height="760" fill="#1e293b"/>
  
      <!-- Left side structures -->
      <g fill="#0b1322">
        <rect x="0" y="360" width="120" height="80"/>
        <rect x="20" y="320" width="80" height="40"/>
        <polygon points="10,320 60,280 110,320"/>
      </g>
      <!-- Right side structures -->
      <g fill="#0b1322">
        <rect x="380" y="350" width="132" height="90"/>
        <rect x="400" y="310" width="90" height="40"/>
        <polygon points="390,310 445,270 500,310"/>
      </g>
      <!-- Sari-sari store awning / props -->
      <rect x="90" y="380" width="30" height="10" fill="#ef4444" opacity="0.6"/>
      <rect x="380" y="390" width="15" height="25" fill="#facc15" opacity="0.4"/>
      <!-- Tricycle shape (left) -->
      <g fill="#0b1322">
        <rect x="110" y="400" width="40" height="25" rx="5"/>
        <circle cx="120" cy="425" r="8"/>
        <circle cx="140" cy="425" r="8"/>
      </g>
      <!-- Street markings -->
      <g fill="#94a3b8" opacity="0.10">
        <rect x="254" y="200" width="4" height="20"/>
        <rect x="254" y="260" width="4" height="20"/>
        <rect x="254" y="320" width="4" height="20"/>
        <rect x="254" y="380" width="4" height="20"/>
        <rect x="254" y="440" width="4" height="20"/>
        <rect x="254" y="500" width="4" height="20"/>
      </g>
    
</svg>