<svg xmlns="http://www.w3.org/2000/svg" width="540" height="960" viewBox="0 0 540 960">
  <!-- causeway slab: continuous full-height, uniform -> wraps seamlessly -->
  <rect x="50" y="0" width="440" height="960" fill="#5c5852"/>
  <rect x="50" y="0" width="6" height="960" fill="#403c37"/>
  <rect x="484" y="0" width="6" height="960" fill="#403c37"/>
  <!-- center road (the marching lane stays clear of props) -->
  <rect x="170" y="0" width="200" height="960" fill="#4f4b46"/>
  <rect x="170" y="0" width="6" height="960" fill="#37332f"/>
  <rect x="364" y="0" width="6" height="960" fill="#37332f"/>
  <g fill="#b9b2a6" opacity="0.3">
    <rect x="266" y="160" width="8" height="32.9"/>
    <rect x="266" y="280" width="8" height="25.1"/>
    <rect x="266" y="520" width="8" height="28.1"/>
    <rect x="266" y="880" width="8" height="24.4"/>
  </g>
  <ellipse cx="447" cy="298.9" rx="18.1" ry="5.8" fill="#8a94a0" opacity="0.05"/><ellipse cx="349.7" cy="325.8" rx="17.6" ry="6.4" fill="#8a94a0" opacity="0.05"/><ellipse cx="160.8" cy="367.4" rx="28.9" ry="4.7" fill="#8a94a0" opacity="0.05"/><ellipse cx="100.2" cy="521.1" rx="29.3" ry="6.1" fill="#8a94a0" opacity="0.05"/><ellipse cx="123.3" cy="373.4" rx="27.9" ry="5" fill="#8a94a0" opacity="0.05"/><ellipse cx="175.6" cy="654.2" rx="26.4" ry="12.7" fill="#0d0a09" opacity="0.2"/><ellipse cx="132.6" cy="229.5" rx="41.7" ry="20" fill="#0d0a09" opacity="0.2"/><ellipse cx="300.2" cy="101.8" rx="45.8" ry="10.7" fill="#0d0a09" opacity="0.2"/><ellipse cx="270.6" cy="507.5" rx="36.9" ry="18.4" fill="#0d0a09" opacity="0.2"/><ellipse cx="463.1" cy="310.1" rx="44" ry="17.4" fill="#0d0a09" opacity="0.2"/><ellipse cx="434.6" cy="128.3" rx="38.8" ry="15.5" fill="#0d0a09" opacity="0.2"/><g stroke="#0d0a09" stroke-width="2" fill="none" opacity="0.5"><path d="M76.4 478.6 L50.8 504.7 L36.2 530.1 L53.6 568.1 L68.9 589.5 L93.2 616"/><path d="M204.7 277.1 L185.4 301.9 L207 333.9 L215.1 377.1 L236.5 407.4 L235.8 435.4"/><path d="M173 280.2 L166 309.9 L149.3 337.9 L131.6 373.6"/><path d="M143.1 694.4 L139.8 718.4 L135.7 740.1 L141.8 782.3"/><path d="M307.4 473.5 L295.5 513.2 L307.6 536.5 L332.7 576.9 L311.9 601.5 L295.5 627.8"/><path d="M426.1 534.2 L402.1 558 L397.2 582.5 L380.3 608.7 L394.2 629.3"/><path d="M347.7 465.9 L343.1 501.8 L360.7 523.3 L342.7 546.3 L325.1 583.4"/></g>
  <rect x="51.8" y="230.2" width="11.6" height="5.8" transform="rotate(70.2 51.8 230.2)" fill="#37332f" opacity="0.8"/>
  <rect x="53.3" y="883.5" width="6.9" height="4.7" transform="rotate(17.3 53.3 883.5)" fill="#37332f" opacity="0.8"/>
  <rect x="56.1" y="161.4" width="6.8" height="8.3" transform="rotate(57.9 56.1 161.4)" fill="#37332f" opacity="0.8"/>
  <rect x="53.6" y="816.5" width="5.4" height="6.9" transform="rotate(56.1 53.6 816.5)" fill="#37332f" opacity="0.8"/>
  <rect x="68.6" y="342.3" width="6.8" height="7.8" transform="rotate(16.3 68.6 342.3)" fill="#37332f" opacity="0.8"/>
  <rect x="67.6" y="337" width="7.6" height="8.5" transform="rotate(64.3 67.6 337)" fill="#37332f" opacity="0.8"/>
  <rect x="484.8" y="728.4" width="7.2" height="5.8" transform="rotate(81.1 484.8 728.4)" fill="#37332f" opacity="0.8"/>
  <rect x="498.4" y="171.9" width="11.2" height="4.9" transform="rotate(7.4 498.4 171.9)" fill="#37332f" opacity="0.8"/>
  <rect x="493.5" y="566" width="6.6" height="9.4" transform="rotate(51.3 493.5 566)" fill="#37332f" opacity="0.8"/>
  <rect x="484.2" y="661.8" width="4.5" height="9.6" transform="rotate(49 484.2 661.8)" fill="#37332f" opacity="0.8"/>
  <rect x="484.3" y="423.1" width="8.1" height="7.6" transform="rotate(67.7 484.3 423.1)" fill="#37332f" opacity="0.8"/>
  <rect x="490.3" y="562" width="10.6" height="5.9" transform="rotate(22.7 490.3 562)" fill="#37332f" opacity="0.8"/>
  <g fill="#403c37"><rect x="82.6" y="106.4" width="48" height="26" rx="6"/><rect x="76.6" y="96.4" width="30" height="14" rx="4"/><circle cx="92.6" cy="134.4" r="7"/><circle cx="120.6" cy="134.4" r="7"/></g>
  <rect x="67.9" y="293.1" width="66" height="34" fill="#403c37"/><rect x="63.9" y="273.1" width="7.4" height="12" fill="#d1502a" opacity="0.6"/><rect x="78.7" y="277.1" width="7.4" height="12" fill="#3a2f28" opacity="0.6"/><rect x="93.5" y="273.1" width="7.4" height="12" fill="#d1502a" opacity="0.6"/><rect x="108.3" y="277.1" width="7.4" height="12" fill="#3a2f28" opacity="0.6"/><rect x="123.1" y="273.1" width="7.4" height="12" fill="#d1502a" opacity="0.6"/><path d="M63.9 283.1 l33 6 l41 -8" stroke="#403c37" stroke-width="5" fill="none"/><rect x="73.9" y="307.1" width="16" height="20" fill="#0d0a09" opacity="0.4"/>
  <circle cx="101.1" cy="450.1" r="37.8" fill="#c9683a" opacity="0.28"/><circle cx="101.1" cy="450.1" r="20.3" fill="#e8823a" opacity="0.32"/><path d="M94.8 464.1 q-8.8 -19.3 0 -38.7 q6.8 19.4 0 38.7 z" fill="#e8823a" opacity="0.9"/><path d="M104.6 464.1 q-9.6 -16.1 0 -32.3 q6.3 16.2 0 32.3 z" fill="#d1502a" opacity="0.9"/><path d="M104.7 464.1 q-6.3 -23.6 0 -47.2 q8.5 23.6 0 47.2 z" fill="#d1502a" opacity="0.9"/><path d="M101.1 460.1 q-3 -12 0 -25.8 q3 13.5 0 21.8 z" fill="#ffe6a3" opacity="0.85"/>
  <rect x="142.2" y="634.9" width="5" height="7.3" transform="rotate(3.9 142.2 634.9)" fill="#37332f" opacity="0.9"/><rect x="98" y="636.8" width="5.2" height="7.9" transform="rotate(78.9 98 636.8)" fill="#37332f" opacity="0.9"/><rect x="140.1" y="638.1" width="7.4" height="7.5" transform="rotate(45.9 140.1 638.1)" fill="#37332f" opacity="0.9"/><rect x="89.5" y="641.8" width="6.6" height="6.6" transform="rotate(61.2 89.5 641.8)" fill="#37332f" opacity="0.9"/><rect x="114.2" y="634.8" width="7.9" height="3.4" transform="rotate(32.4 114.2 634.8)" fill="#37332f" opacity="0.9"/><rect x="101.4" y="637.6" width="6.3" height="7.7" transform="rotate(15.6 101.4 637.6)" fill="#37332f" opacity="0.9"/><path d="M96.3 644.3 q10 -14 22 -6 q8 6 18 -4" stroke="#403c37" stroke-width="2" fill="none" opacity="0.7"/>
  <circle cx="115.1" cy="802.9" r="21.2" fill="#0e0c0c" opacity="0.2"/><circle cx="94.5" cy="773.7" r="25.7" fill="#0e0c0c" opacity="0.2"/><circle cx="98.7" cy="735.5" r="32.9" fill="#0e0c0c" opacity="0.2"/><circle cx="130.5" cy="713" r="42.5" fill="#0e0c0c" opacity="0.2"/>
  <g fill="#403c37"><rect x="404.6" y="97.6" width="48" height="26" rx="6"/><rect x="398.6" y="87.6" width="30" height="14" rx="4"/><circle cx="414.6" cy="125.6" r="7"/><circle cx="442.6" cy="125.6" r="7"/></g>
  <rect x="406.3" y="285.9" width="66" height="34" fill="#403c37"/><rect x="402.3" y="265.9" width="7.4" height="12" fill="#d1502a" opacity="0.6"/><rect x="417.1" y="269.9" width="7.4" height="12" fill="#3a2f28" opacity="0.6"/><rect x="431.9" y="265.9" width="7.4" height="12" fill="#d1502a" opacity="0.6"/><rect x="446.7" y="269.9" width="7.4" height="12" fill="#3a2f28" opacity="0.6"/><rect x="461.5" y="265.9" width="7.4" height="12" fill="#d1502a" opacity="0.6"/><path d="M402.3 275.9 l33 6 l41 -8" stroke="#403c37" stroke-width="5" fill="none"/><rect x="412.3" y="299.9" width="16" height="20" fill="#0d0a09" opacity="0.4"/>
  <circle cx="429.5" cy="446.4" r="34.1" fill="#c9683a" opacity="0.28"/><circle cx="429.5" cy="446.4" r="17.5" fill="#e8823a" opacity="0.32"/><path d="M421.5 460.4 q-8.5 -16.8 0 -33.7 q9.6 16.9 0 33.7 z" fill="#e8823a" opacity="0.9"/><path d="M429.9 460.4 q-9.8 -23.3 0 -46.7 q8 23.4 0 46.7 z" fill="#d1502a" opacity="0.9"/><path d="M429.5 456.4 q-3 -14.8 0 -22.7 q3 10.6 0 22.4 z" fill="#ffe6a3" opacity="0.85"/>
  <rect x="413.3" y="661.5" width="8" height="5.2" transform="rotate(60.4 413.3 661.5)" fill="#37332f" opacity="0.9"/><rect x="403.3" y="659.6" width="4.5" height="4.6" transform="rotate(47.1 403.3 659.6)" fill="#37332f" opacity="0.9"/><rect x="452" y="654.7" width="6.3" height="4.4" transform="rotate(87.8 452 654.7)" fill="#37332f" opacity="0.9"/><rect x="439.9" y="660.5" width="6.5" height="6.3" transform="rotate(47.9 439.9 660.5)" fill="#37332f" opacity="0.9"/><rect x="413.4" y="653" width="7.8" height="4.9" transform="rotate(78.3 413.4 653)" fill="#37332f" opacity="0.9"/><rect x="438.9" y="660.2" width="5.5" height="4.8" transform="rotate(8.1 438.9 660.2)" fill="#37332f" opacity="0.9"/><path d="M413 662.7 q10 -14 22 -6 q8 6 18 -4" stroke="#403c37" stroke-width="2" fill="none" opacity="0.7"/>
  <circle cx="423" cy="775.8" r="23.9" fill="#0e0c0c" opacity="0.2"/><circle cx="423.3" cy="750.3" r="30.8" fill="#0e0c0c" opacity="0.2"/><circle cx="428.4" cy="719.5" r="32" fill="#0e0c0c" opacity="0.2"/>
</svg>
