<svg xmlns="http://www.w3.org/2000/svg" width="540" height="960" viewBox="0 0 540 960">
  <g transform="translate(79.3 262.6) scale(1.5) translate(-79.3 -262.6)" opacity="0.95"><rect x="76.8" y="184.6" width="5" height="78" fill="#8ba0bf"/><circle cx="79.3" cy="182.6" r="6" fill="#7cc8ea" opacity="0.9"/><circle cx="79.3" cy="182.6" r="16" fill="#7cc8ea" opacity="0.12"/></g>
  <g transform="translate(76.1 452.2) scale(1.5) translate(-76.1 -452.2)" opacity="0.95"><g><rect x="44.1" y="428.2" width="64" height="24" rx="3" fill="#8ba0bf"/><polygon points="50.1,428.2 64.1,428.2 54.1,452.2 40.1,452.2" fill="#7cc8ea" opacity="0.45"/><polygon points="80.1,428.2 94.1,428.2 84.1,452.2 70.1,452.2" fill="#7cc8ea" opacity="0.45"/></g></g>
  <g transform="translate(91.2 703.1) scale(1.5) translate(-91.2 -703.1)" opacity="0.95"><rect x="86.2" y="681.1" width="10" height="22" rx="4" fill="#8ba0bf"/><rect x="86.2" y="685.1" width="10" height="3" fill="#7cc8ea" opacity="0.5"/></g>
  <g transform="translate(460.2 261.8) scale(1.5) translate(-460.2 -261.8)" opacity="0.95"><rect x="457.7" y="183.8" width="5" height="78" fill="#8ba0bf"/><circle cx="460.2" cy="181.8" r="6" fill="#7cc8ea" opacity="0.9"/><circle cx="460.2" cy="181.8" r="16" fill="#7cc8ea" opacity="0.12"/></g>
  <g transform="translate(456.4 451) scale(1.5) translate(-456.4 -451)" opacity="0.95"><g><rect x="424.4" y="427" width="64" height="24" rx="3" fill="#8ba0bf"/><polygon points="430.4,427 444.4,427 434.4,451 420.4,451" fill="#7cc8ea" opacity="0.45"/><polygon points="460.4,427 474.4,427 464.4,451 450.4,451" fill="#7cc8ea" opacity="0.45"/></g></g>
  <g transform="translate(448.2 750.2) scale(1.5) translate(-448.2 -750.2)" opacity="0.95"><rect x="443.2" y="728.2" width="10" height="22" rx="4" fill="#8ba0bf"/><rect x="443.2" y="732.2" width="10" height="3" fill="#7cc8ea" opacity="0.5"/></g>
</svg>
