<svg xmlns="http://www.w3.org/2000/svg" width="540" height="960" viewBox="0 0 540 960">
  <g transform="translate(79.3 262.6) scale(1.5) translate(-79.3 -262.6)" opacity="0.95"><circle cx="79.3" cy="248.6" r="30.1" fill="#ff5a1e" opacity="0.28"/><circle cx="79.3" cy="248.6" r="19.8" fill="#ff8a3a" opacity="0.32"/><path d="M73.5 262.6 q-9.5 -21.2 0 -42.5 q9.1 21.3 0 42.5 z" fill="#ff8a3a" opacity="0.9"/><path d="M79.5 262.6 q-8 -18.7 0 -37.4 q9.1 18.7 0 37.4 z" fill="#ff5a1e" opacity="0.9"/><path d="M83.5 262.6 q-7.3 -17.3 0 -34.6 q9.1 17.3 0 34.6 z" fill="#ff5a1e" opacity="0.9"/><path d="M79.3 258.6 q-3 -14.8 0 -24.2 q3 12.2 0 27.3 z" fill="#ffe6a3" opacity="0.85"/></g>
  <g transform="translate(78.9 452.2) scale(1.5) translate(-78.9 -452.2)" opacity="0.95"><g><rect x="46.9" y="428.2" width="64" height="24" rx="3" fill="#2a2320"/><polygon points="52.9,428.2 66.9,428.2 56.9,452.2 42.9,452.2" fill="#ff8a3a" opacity="0.45"/><polygon points="82.9,428.2 96.9,428.2 86.9,452.2 72.9,452.2" fill="#ff8a3a" opacity="0.45"/></g></g>
  <g transform="translate(76.4 703.1) scale(1.5) translate(-76.4 -703.1)" opacity="0.95"><ellipse cx="76.4" cy="703.1" rx="41.4" ry="12" fill="#211b19"/><rect x="54.5" y="685.6" width="15.3" height="12.5" transform="rotate(37.2 54.5 685.6)" fill="#191614"/><rect x="47.2" y="683.7" width="16.1" height="11.5" transform="rotate(35.4 47.2 683.7)" fill="#2a2320"/><rect x="49.3" y="701.1" width="12.8" height="8.2" transform="rotate(-0.8 49.3 701.1)" fill="#191614"/><rect x="44.9" y="693.1" width="9.6" height="7.4" transform="rotate(-14.5 44.9 693.1)" fill="#2a2320"/><rect x="62.7" y="680.7" width="15.9" height="15.4" transform="rotate(-23.7 62.7 680.7)" fill="#191614"/><rect x="107.8" y="681.9" width="11.8" height="10.4" transform="rotate(-34.9 107.8 681.9)" fill="#2a2320"/><rect x="85.8" y="686" width="6.4" height="7.5" transform="rotate(22.2 85.8 686)" fill="#2a2320"/><rect x="76.3" y="702.8" width="17.9" height="13.9" transform="rotate(39 76.3 702.8)" fill="#2a2320"/></g>
  <g transform="translate(459 291) scale(1.5) translate(-459 -291)" opacity="0.95"><circle cx="459" cy="277" r="30.7" fill="#ff5a1e" opacity="0.28"/><circle cx="459" cy="277" r="21.4" fill="#ff8a3a" opacity="0.32"/><path d="M466.1 291 q-7.1 -20.2 0 -40.4 q7.8 20.2 0 40.4 z" fill="#ff8a3a" opacity="0.9"/><path d="M462.2 291 q-9.6 -24 0 -48 q9.4 24 0 48 z" fill="#ff3a12" opacity="0.9"/><path d="M451.4 291 q-7.9 -23.1 0 -46.3 q8.9 23.2 0 46.3 z" fill="#ff5a1e" opacity="0.9"/><path d="M459 287 q-3 -11 0 -27.7 q3 15.4 0 22 z" fill="#ffe6a3" opacity="0.85"/></g>
  <g transform="translate(444 530.7) scale(1.5) translate(-444 -530.7)" opacity="0.95"><g><rect x="412" y="506.7" width="64" height="24" rx="3" fill="#2a2320"/><polygon points="418,506.7 432,506.7 422,530.7 408,530.7" fill="#ff8a3a" opacity="0.45"/><polygon points="448,506.7 462,506.7 452,530.7 438,530.7" fill="#ff8a3a" opacity="0.45"/></g></g>
  <g transform="translate(433.8 696.4) scale(1.5) translate(-433.8 -696.4)" opacity="0.95"><ellipse cx="433.8" cy="696.4" rx="43" ry="12" fill="#211b19"/><rect x="436.5" y="690" width="9.4" height="8.7" transform="rotate(-6.5 436.5 690)" fill="#191614"/><rect x="432" y="679.8" width="9" height="9.5" transform="rotate(-31.8 432 679.8)" fill="#2a2320"/><rect x="411.5" y="673.3" width="12.6" height="10.9" transform="rotate(23.2 411.5 673.3)" fill="#191614"/><rect x="458" y="687.8" width="8.9" height="7.3" transform="rotate(4 458 687.8)" fill="#2a2320"/><rect x="465.2" y="680.7" width="15.4" height="10.8" transform="rotate(-19.4 465.2 680.7)" fill="#2a2320"/><rect x="455.2" y="686.1" width="13.6" height="15.1" transform="rotate(18.7 455.2 686.1)" fill="#2a2320"/><rect x="401.7" y="672.1" width="16.2" height="19.1" transform="rotate(16.4 401.7 672.1)" fill="#191614"/><rect x="406.1" y="688.9" width="15.9" height="13.7" transform="rotate(-17.5 406.1 688.9)" fill="#191614"/></g>
</svg>
