<svg xmlns="http://www.w3.org/2000/svg" width="540" height="960" viewBox="0 0 540 960" preserveAspectRatio="none">
  <defs>
    <linearGradient id="ground" x1="0" y1="0" x2="0" y2="1">
      <stop offset="0" stop-color="#171214"/>
      <stop offset="0.55" stop-color="#2a1614"/>
      <stop offset="1" stop-color="#431a12"/>
    </linearGradient>
    <linearGradient id="glowL" x1="0" y1="0" x2="1" y2="0">
      <stop offset="0" stop-color="#ff5a1e" stop-opacity="0.5"/>
      <stop offset="1" stop-color="#ff5a1e" stop-opacity="0"/>
    </linearGradient>
    <linearGradient id="glowR" x1="1" y1="0" x2="0" y2="0">
      <stop offset="0" stop-color="#ff5a1e" stop-opacity="0.5"/>
      <stop offset="1" stop-color="#ff5a1e" stop-opacity="0"/>
    </linearGradient>
  </defs>
  <rect width="540" height="960" fill="url(#ground)"/>
  <rect x="0" y="0" width="226.8" height="960" fill="url(#glowL)"/><rect x="313.2" y="0" width="226.8" height="960" fill="url(#glowR)"/><circle cx="229.4" cy="461.6" r="4.9" fill="#ff8a3a" opacity="0.1"/><circle cx="199.6" cy="322.6" r="5.6" fill="#ff8a3a" opacity="0.1"/><circle cx="72.9" cy="428.4" r="4.6" fill="#ff8a3a" opacity="0.1"/><circle cx="22.5" cy="726.2" r="4.2" fill="#ff8a3a" opacity="0.2"/><circle cx="202" cy="913.2" r="2.4" fill="#ff8a3a" opacity="0.2"/><circle cx="37.7" cy="297.7" r="2.9" fill="#ff8a3a" opacity="0.1"/><circle cx="434.8" cy="633.8" r="6.6" fill="#ff8a3a" opacity="0.1"/><circle cx="440.7" cy="257.7" r="6.1" fill="#ff8a3a" opacity="0.1"/><circle cx="325.7" cy="804.5" r="5.7" fill="#ff8a3a" opacity="0.2"/><circle cx="25.7" cy="76.9" r="3.6" fill="#ff8a3a" opacity="0.1"/><circle cx="95.6" cy="582.3" r="6.3" fill="#ff8a3a" opacity="0.2"/><circle cx="258.6" cy="711.2" r="3.5" fill="#ff8a3a" opacity="0.1"/><circle cx="55.1" cy="912" r="5.5" fill="#ff8a3a" opacity="0.1"/><circle cx="411.6" cy="48.2" r="3.2" fill="#ff8a3a" opacity="0.1"/><circle cx="465" cy="26.8" r="3.1" fill="#ff8a3a" opacity="0.1"/><circle cx="245.3" cy="25.8" r="2.8" fill="#ff8a3a" opacity="0.1"/><circle cx="25.5" cy="842.1" r="6.7" fill="#ff8a3a" opacity="0.1"/><circle cx="192.1" cy="515.7" r="3.6" fill="#ff8a3a" opacity="0.1"/><circle cx="61.4" cy="903.4" r="6.9" fill="#ff8a3a" opacity="0.2"/><circle cx="370.2" cy="534.6" r="4.6" fill="#ff8a3a" opacity="0.1"/><circle cx="399.5" cy="900.6" r="6.4" fill="#ff8a3a" opacity="0.1"/><circle cx="160" cy="679.7" r="3.4" fill="#ff8a3a" opacity="0.1"/><ellipse cx="270" cy="205.3" rx="378" ry="55.3" fill="#171214" opacity="0.25"/><ellipse cx="270" cy="470.4" rx="378" ry="46.9" fill="#171214" opacity="0.25"/><ellipse cx="270" cy="737.3" rx="378" ry="43.5" fill="#171214" opacity="0.25"/>
</svg>
