<svg xmlns="http://www.w3.org/2000/svg" width="540" height="960" viewBox="0 0 540 960" preserveAspectRatio="none">
  <defs>
    <linearGradient id="sky" x1="0" y1="0" x2="0" y2="1">
      <stop offset="0" stop-color="#2f8ad8"/>
      <stop offset="0.55" stop-color="#6ebcee"/>
      <stop offset="1" stop-color="#c6e7fa"/>
    </linearGradient>
    <linearGradient id="horizon" x1="0" y1="0" x2="0" y2="1">
      <stop offset="0" stop-color="#eaf7ff" stop-opacity="0"/>
      <stop offset="1" stop-color="#eaf7ff" stop-opacity="0.4"/>
    </linearGradient>
  </defs>
  <rect width="540" height="960" fill="url(#sky)"/>
  <rect y="480" width="540" height="480" fill="url(#horizon)"/>
  <circle cx="160" cy="110" r="57.2" fill="#fff3b8" opacity="0.25"/><circle cx="160" cy="110" r="37.7" fill="#fff3b8" opacity="0.4"/><circle cx="160" cy="110" r="26" fill="#ffffff"/><g fill="#ffffff" opacity="0.7"><ellipse cx="235.4" cy="347.7" rx="90.4" ry="19.7"/><ellipse cx="194.7" cy="356.6" rx="49.7" ry="15.8"/><ellipse cx="271.6" cy="354.6" rx="54.2" ry="16.7"/></g><g fill="#ffffff" opacity="0.7"><ellipse cx="194.6" cy="479.2" rx="100.3" ry="15.3"/><ellipse cx="149.5" cy="486.1" rx="55.2" ry="12.2"/><ellipse cx="234.7" cy="484.6" rx="60.2" ry="13"/></g><g fill="#ffffff" opacity="0.7"><ellipse cx="278.9" cy="440.7" rx="57.5" ry="21.6"/><ellipse cx="253" cy="450.4" rx="31.6" ry="17.3"/><ellipse cx="301.9" cy="448.3" rx="34.5" ry="18.4"/></g>
</svg>
