<svg xmlns="http://www.w3.org/2000/svg" width="540" height="960" viewBox="0 0 540 960" preserveAspectRatio="none">
  <defs>
    <linearGradient id="sky" x1="0" y1="0" x2="0" y2="1">
      <stop offset="0" stop-color="#010409"/>
      <stop offset="0.55" stop-color="#020617"/>
      <stop offset="1" stop-color="#101736"/>
    </linearGradient>
    <linearGradient id="horizon" x1="0" y1="0" x2="0" y2="1">
      <stop offset="0" stop-color="#22d3ee" stop-opacity="0"/>
      <stop offset="1" stop-color="#22d3ee" stop-opacity="0.14"/>
    </linearGradient>
  </defs>
  <rect width="540" height="960" fill="url(#sky)"/>
  <rect y="480" width="540" height="480" fill="url(#horizon)"/>
  <g fill="#f8fafc" opacity="0.25"><circle cx="229.4" cy="323.1" r="1.6"/><circle cx="309.1" cy="248.4" r="1.3"/><circle cx="387.1" cy="507.1" r="1"/><circle cx="241" cy="348.9" r="1.7"/><circle cx="22.5" cy="508.3" r="1.4"/><circle cx="458.5" cy="251.3" r="2.1"/><circle cx="38.7" cy="646" r="0.9"/><circle cx="167.5" cy="119.7" r="1.4"/><circle cx="434.8" cy="443.7" r="2.1"/><circle cx="266.4" cy="548.5" r="1.2"/><circle cx="445.3" cy="23.8" r="1.6"/><circle cx="452.5" cy="502.3" r="2.1"/><circle cx="25.7" cy="53.8" r="1.2"/><circle cx="319" cy="119" r="1.6"/><circle cx="460.3" cy="629.9" r="1.5"/><circle cx="400.1" cy="201.2" r="0.9"/><circle cx="55.1" cy="638.4" r="1.8"/><circle cx="26.5" cy="512.2" r="0.9"/></g><ellipse cx="270" cy="960" rx="540" ry="160" fill="#22d3ee" opacity="0.10"/><ellipse cx="108" cy="883.2" rx="140" ry="60" fill="#a78bfa" opacity="0.06"/><ellipse cx="432" cy="902.4" rx="140" ry="60" fill="#f43f5e" opacity="0.05"/>
</svg>
