<svg xmlns="http://www.w3.org/2000/svg" width="540" height="960" viewBox="0 0 540 960">
  <polygon points="-12.5,245.7 -12.5,115 20.9,72.3 54.2,119.5 54.2,245.7" fill="#211b19"/><rect x="-2.5" y="222.3" width="10" height="12" fill="#0d0a09" opacity="0.5"/><rect x="7.5" y="187.8" width="26.7" height="57.9" fill="#0d0a09" opacity="0.4"/>
  <path d="M9.8 452.7 L9.8 360.7 l7.2 -6" stroke="#2a2320" stroke-width="7" fill="none"/><polygon points="-24.2,314.7 43.8,320.7 39.8,356.7 13.8,348.7 -0.2,360.7 -24.2,352.7" fill="#211b19"/><rect x="-16.2" y="324.7" width="40" height="10" fill="#d64a2a" opacity="0.4"/>
  <ellipse cx="24.4" cy="742.9" rx="50" ry="12" fill="#211b19"/><rect x="-6.2" y="739.7" width="17.5" height="13.9" transform="rotate(14.2 -6.2 739.7)" fill="#2a2320"/><rect x="18.4" y="722.1" width="10.2" height="12.1" transform="rotate(26.9 18.4 722.1)" fill="#191614"/><rect x="23.1" y="725.5" width="13.8" height="12.2" transform="rotate(3.5 23.1 725.5)" fill="#191614"/><rect x="45.1" y="738.3" width="15.3" height="11.7" transform="rotate(-6.4 45.1 738.3)" fill="#191614"/><rect x="56.2" y="725.8" width="6" height="4.1" transform="rotate(14.4 56.2 725.8)" fill="#2a2320"/>
  <polygon points="478.8,254.6 478.8,40.6 514.3,-6 549.8,6.9 549.8,254.6" fill="#211b19"/><rect x="524.3" y="42" width="10" height="12" fill="#ff8a3a" opacity="0.7"/><rect x="488.8" y="76" width="10" height="12" fill="#0d0a09" opacity="0.5"/><rect x="488.8" y="110" width="10" height="12" fill="#ff8a3a" opacity="0.7"/><rect x="524.3" y="144" width="10" height="12" fill="#0d0a09" opacity="0.5"/><rect x="488.8" y="178" width="10" height="12" fill="#0d0a09" opacity="0.5"/><rect x="488.8" y="212" width="10" height="12" fill="#0d0a09" opacity="0.5"/><rect x="524.3" y="212" width="10" height="12" fill="#ff8a3a" opacity="0.7"/><rect x="500.1" y="166.2" width="28.4" height="88.4" fill="#0d0a09" opacity="0.4"/>
  <path d="M523.6 505.5 L523.6 413.5 l7.7 -6" stroke="#2a2320" stroke-width="7" fill="none"/><polygon points="489.6,367.5 557.6,373.5 553.6,409.5 527.6,401.5 513.6,413.5 489.6,405.5" fill="#211b19"/><rect x="497.6" y="377.5" width="40" height="10" fill="#d64a2a" opacity="0.4"/>
  <ellipse cx="526.9" cy="765.1" rx="47.1" ry="12" fill="#211b19"/><rect x="526.8" y="752.3" width="12.4" height="14.4" transform="rotate(11.7 526.8 752.3)" fill="#2a2320"/><rect x="543.1" y="745.3" width="12.3" height="9.4" transform="rotate(-36 543.1 745.3)" fill="#191614"/><rect x="529.4" y="745.1" width="13.1" height="8.8" transform="rotate(36.6 529.4 745.1)" fill="#2a2320"/><rect x="552.5" y="756.5" width="11.7" height="10.5" transform="rotate(-13.8 552.5 756.5)" fill="#191614"/><rect x="539" y="742.8" width="8.5" height="7.4" transform="rotate(16.6 539 742.8)" fill="#2a2320"/><rect x="554.9" y="749.3" width="14.1" height="14.7" transform="rotate(-15.2 554.9 749.3)" fill="#2a2320"/><rect x="526.9" y="753.6" width="6.3" height="4.4" transform="rotate(21.7 526.9 753.6)" fill="#191614"/>
</svg>
