<svg xmlns="http://www.w3.org/2000/svg" width="540" height="960" viewBox="0 0 540 960">
  <rect x="-12.5" y="80.3" width="66.7" height="165.4" fill="#111a2e"/><g fill="#22d3ee" opacity="0.22"><rect x="-2.5" y="94.3" width="10" height="12"/><rect x="30.9" y="94.3" width="10" height="12"/></g>
  <rect x="9.7" y="356.7" width="8" height="96" fill="#202c46"/><rect x="-20.3" y="312.7" width="68" height="44" rx="3" fill="#111a2e"/><rect x="-12.3" y="322.7" width="52" height="10" fill="#a78bfa" opacity="0.5"/><rect x="-12.3" y="338.7" width="34" height="6" fill="#e2e8f0" opacity="0.4"/>
  <rect x="9.3" y="441.9" width="28" height="301" fill="#111a2e"/><rect x="21.8" y="417.9" width="3" height="24" fill="#111a2e"/><circle cx="23.3" cy="417.9" r="3" fill="#f43f5e" opacity="0.8"/>
  <rect x="491" y="116.6" width="53.5" height="164.6" fill="#111a2e"/><g fill="#22d3ee" opacity="0.22"><rect x="501" y="130.6" width="10" height="12"/><rect x="501" y="164.6" width="10" height="12"/><rect x="527.8" y="198.6" width="10" height="12"/><rect x="527.8" y="232.6" width="10" height="12"/></g>
  <rect x="525.1" y="346.4" width="8" height="96" fill="#202c46"/><rect x="495.1" y="302.4" width="68" height="44" rx="3" fill="#111a2e"/><rect x="503.1" y="312.4" width="52" height="10" fill="#a78bfa" opacity="0.5"/><rect x="503.1" y="328.4" width="34" height="6" fill="#e2e8f0" opacity="0.4"/>
  <rect x="513.1" y="502.5" width="28" height="263.2" fill="#111a2e"/><rect x="525.6" y="478.5" width="3" height="24" fill="#111a2e"/><circle cx="527.1" cy="478.5" r="3" fill="#f43f5e" opacity="0.8"/>
</svg>
