<svg xmlns="http://www.w3.org/2000/svg" width="540" height="960" viewBox="0 0 540 960">
  <!-- causeway slab: continuous full-height, uniform -> wraps seamlessly -->
  <rect x="50" y="0" width="440" height="960" fill="#93a2b6"/>
  <rect x="50" y="0" width="6" height="960" fill="#8ba0bf"/>
  <rect x="484" y="0" width="6" height="960" fill="#8ba0bf"/>
  <!-- center road (the marching lane stays clear of props) -->
  <rect x="170" y="0" width="200" height="960" fill="#9cabbf"/>
  <rect x="170" y="0" width="6" height="960" fill="#7f93b0"/>
  <rect x="364" y="0" width="6" height="960" fill="#7f93b0"/>
  <g fill="#475569" opacity="0.5">
    <rect x="266" y="40" width="8" height="40"/>
    <rect x="266" y="160" width="8" height="40"/>
    <rect x="266" y="280" width="8" height="40"/>
    <rect x="266" y="400" width="8" height="40"/>
    <rect x="266" y="520" width="8" height="40"/>
    <rect x="266" y="640" width="8" height="40"/>
    <rect x="266" y="760" width="8" height="40"/>
    <rect x="266" y="880" width="8" height="40"/>
  </g>
  <rect x="107" y="46" width="6" height="34" fill="#475569" opacity="0.35"/><rect x="107" y="166" width="6" height="34" fill="#475569" opacity="0.35"/><rect x="107" y="286" width="6" height="34" fill="#475569" opacity="0.35"/><rect x="107" y="406" width="6" height="34" fill="#475569" opacity="0.35"/><rect x="107" y="526" width="6" height="34" fill="#475569" opacity="0.35"/><rect x="107" y="646" width="6" height="34" fill="#475569" opacity="0.35"/><rect x="107" y="766" width="6" height="34" fill="#475569" opacity="0.35"/><rect x="107" y="886" width="6" height="34" fill="#475569" opacity="0.35"/><rect x="427" y="46" width="6" height="34" fill="#475569" opacity="0.35"/><rect x="427" y="166" width="6" height="34" fill="#475569" opacity="0.35"/><rect x="427" y="286" width="6" height="34" fill="#475569" opacity="0.35"/><rect x="427" y="406" width="6" height="34" fill="#475569" opacity="0.35"/><rect x="427" y="526" width="6" height="34" fill="#475569" opacity="0.35"/><rect x="427" y="646" width="6" height="34" fill="#475569" opacity="0.35"/><rect x="427" y="766" width="6" height="34" fill="#475569" opacity="0.35"/><rect x="427" y="886" width="6" height="34" fill="#475569" opacity="0.35"/><rect x="182" y="452" width="14" height="56" fill="#475569" opacity="0.4"/><rect x="205" y="452" width="14" height="56" fill="#475569" opacity="0.4"/><rect x="228" y="452" width="14" height="56" fill="#475569" opacity="0.4"/><rect x="251" y="452" width="14" height="56" fill="#475569" opacity="0.4"/><rect x="274" y="452" width="14" height="56" fill="#475569" opacity="0.4"/><rect x="297" y="452" width="14" height="56" fill="#475569" opacity="0.4"/><rect x="320" y="452" width="14" height="56" fill="#475569" opacity="0.4"/><rect x="343" y="452" width="14" height="56" fill="#475569" opacity="0.4"/>
  <rect x="96" y="93.7" width="5" height="78" fill="#8ba0bf"/><circle cx="98.5" cy="91.7" r="6" fill="#7cc8ea" opacity="0.9"/><circle cx="98.5" cy="91.7" r="16" fill="#7cc8ea" opacity="0.12"/>
  <rect x="104.7" y="218.8" width="8" height="96" fill="#8ba0bf"/><rect x="74.7" y="174.8" width="68" height="44" rx="3" fill="#9db0c4"/><rect x="82.7" y="184.8" width="52" height="10" fill="#a78bfa" opacity="0.5"/><rect x="82.7" y="200.8" width="34" height="6" fill="#e2e8f0" opacity="0.4"/>
  <rect x="105.4" y="396.8" width="5" height="78" fill="#8ba0bf"/><circle cx="107.9" cy="394.8" r="6" fill="#7cc8ea" opacity="0.9"/><circle cx="107.9" cy="394.8" r="16" fill="#7cc8ea" opacity="0.12"/>
  <rect x="114.3" y="592.2" width="10" height="22" rx="4" fill="#8ba0bf"/><rect x="114.3" y="596.2" width="10" height="3" fill="#7cc8ea" opacity="0.5"/>
  <rect x="118.9" y="727.1" width="5" height="78" fill="#8ba0bf"/><circle cx="121.4" cy="725.1" r="6" fill="#7cc8ea" opacity="0.9"/><circle cx="121.4" cy="725.1" r="16" fill="#7cc8ea" opacity="0.12"/>
  <rect x="420.4" y="102.8" width="5" height="78" fill="#8ba0bf"/><circle cx="422.9" cy="100.8" r="6" fill="#7cc8ea" opacity="0.9"/><circle cx="422.9" cy="100.8" r="16" fill="#7cc8ea" opacity="0.12"/>
  <rect x="421.3" y="248" width="8" height="96" fill="#8ba0bf"/><rect x="391.3" y="204" width="68" height="44" rx="3" fill="#9db0c4"/><rect x="399.3" y="214" width="52" height="10" fill="#a78bfa" opacity="0.5"/><rect x="399.3" y="230" width="34" height="6" fill="#e2e8f0" opacity="0.4"/>
  <rect x="429.4" y="392.8" width="5" height="78" fill="#8ba0bf"/><circle cx="431.9" cy="390.8" r="6" fill="#7cc8ea" opacity="0.9"/><circle cx="431.9" cy="390.8" r="16" fill="#7cc8ea" opacity="0.12"/>
  <rect x="416.6" y="625.8" width="10" height="22" rx="4" fill="#8ba0bf"/><rect x="416.6" y="629.8" width="10" height="3" fill="#7cc8ea" opacity="0.5"/>
  <rect x="426.8" y="708.3" width="5" height="78" fill="#8ba0bf"/><circle cx="429.3" cy="706.3" r="6" fill="#7cc8ea" opacity="0.9"/><circle cx="429.3" cy="706.3" r="16" fill="#7cc8ea" opacity="0.12"/>
</svg>
