<svg xmlns="http://www.w3.org/2000/svg" width="540" height="960" viewBox="0 0 540 960">
  <!-- causeway slab: continuous full-height, uniform -> wraps seamlessly -->
  <rect x="50" y="0" width="440" height="960" fill="#332e2b"/>
  <rect x="50" y="0" width="6" height="960" fill="#2a2320"/>
  <rect x="484" y="0" width="6" height="960" fill="#2a2320"/>
  <!-- center road (the marching lane stays clear of props) -->
  <rect x="170" y="0" width="200" height="960" fill="#2a2522"/>
  <rect x="170" y="0" width="6" height="960" fill="#191614"/>
  <rect x="364" y="0" width="6" height="960" fill="#191614"/>
  <g fill="#b47a4a" opacity="0.3">
    <rect x="266" y="40" width="8" height="31.7"/>
    <rect x="266" y="160" width="8" height="24.1"/>
    <rect x="266" y="280" width="8" height="24.3"/>
    <rect x="266" y="400" width="8" height="30.6"/>
    <rect x="266" y="520" width="8" height="39.6"/>
    <rect x="266" y="640" width="8" height="39.5"/>
    <rect x="266" y="880" width="8" height="26.2"/>
  </g>
  <rect x="107" y="46" width="6" height="34" fill="#b47a4a" opacity="0.35"/><rect x="107" y="166" width="6" height="34" fill="#b47a4a" opacity="0.35"/><rect x="107" y="286" width="6" height="34" fill="#b47a4a" opacity="0.35"/><rect x="107" y="406" width="6" height="34" fill="#b47a4a" opacity="0.35"/><rect x="107" y="526" width="6" height="34" fill="#b47a4a" opacity="0.35"/><rect x="107" y="646" width="6" height="34" fill="#b47a4a" opacity="0.35"/><rect x="107" y="766" width="6" height="34" fill="#b47a4a" opacity="0.35"/><rect x="107" y="886" width="6" height="34" fill="#b47a4a" opacity="0.35"/><rect x="427" y="46" width="6" height="34" fill="#b47a4a" opacity="0.35"/><rect x="427" y="166" width="6" height="34" fill="#b47a4a" opacity="0.35"/><rect x="427" y="286" width="6" height="34" fill="#b47a4a" opacity="0.35"/><rect x="427" y="406" width="6" height="34" fill="#b47a4a" opacity="0.35"/><rect x="427" y="526" width="6" height="34" fill="#b47a4a" opacity="0.35"/><rect x="427" y="646" width="6" height="34" fill="#b47a4a" opacity="0.35"/><rect x="427" y="766" width="6" height="34" fill="#b47a4a" opacity="0.35"/><rect x="427" y="886" width="6" height="34" fill="#b47a4a" opacity="0.35"/><rect x="182" y="452" width="14" height="56" fill="#b47a4a" opacity="0.22"/><rect x="228" y="452" width="14" height="56" fill="#b47a4a" opacity="0.22"/><rect x="251" y="452" width="14" height="56" fill="#b47a4a" opacity="0.22"/><rect x="297" y="452" width="14" height="56" fill="#b47a4a" opacity="0.22"/><rect x="320" y="452" width="14" height="56" fill="#b47a4a" opacity="0.22"/><ellipse cx="148.6" cy="315" rx="35" ry="11.8" fill="#0d0a09" opacity="0.2"/><ellipse cx="360" cy="687.4" rx="39.6" ry="11.1" fill="#0d0a09" opacity="0.2"/><ellipse cx="181.1" cy="706.1" rx="40.1" ry="10.8" fill="#0d0a09" opacity="0.2"/><ellipse cx="250.3" cy="666.1" rx="36.7" ry="14" fill="#0d0a09" opacity="0.2"/><ellipse cx="184.7" cy="262.1" rx="24.5" ry="20.7" fill="#0d0a09" opacity="0.2"/><ellipse cx="444.3" cy="337.8" rx="25.4" ry="18.1" fill="#0d0a09" opacity="0.2"/><g stroke="#0d0a09" stroke-width="2" fill="none" opacity="0.5"><path d="M234.4 365.8 L216.5 385.6 L197.5 405 L208.9 429.1 L184.7 457.3 L165.5 500.4"/><path d="M216.6 674.7 L203.7 708.8 L222.3 728.8 L206.8 762.8 L231.7 803.3"/><path d="M286 706.2 L275.6 741.5 L296.1 783.4 L300.7 807.1 L287.4 844.7 L312 867.7"/><path d="M117.9 714.9 L143 745.3 L145 781.6 L131.3 824.6 L145.3 868.5"/><path d="M366.3 624.9 L358.6 668 L382.2 701.8 L366.1 728.1"/><path d="M459.2 610.2 L475.3 629.6 L489.4 664.6 L466.7 687.3 L471 728.5"/><path d="M129.4 543.5 L147.7 572.7 L158.4 602.2 L143.2 620.5 L154.5 649.6"/></g>
  <rect x="46.7" y="775.9" width="7" height="7.4" transform="rotate(52.5 46.7 775.9)" fill="#191614" opacity="0.8"/>
  <rect x="61.7" y="202" width="10.1" height="7.1" transform="rotate(30.2 61.7 202)" fill="#191614" opacity="0.8"/>
  <rect x="42.2" y="193.2" width="11" height="5.6" transform="rotate(43.8 42.2 193.2)" fill="#191614" opacity="0.8"/>
  <rect x="64.2" y="766.3" width="7.5" height="4.3" transform="rotate(28.3 64.2 766.3)" fill="#191614" opacity="0.8"/>
  <rect x="39.7" y="802.5" width="6.7" height="8.4" transform="rotate(78.5 39.7 802.5)" fill="#191614" opacity="0.8"/>
  <rect x="69" y="306.6" width="4.6" height="6.3" transform="rotate(51.2 69 306.6)" fill="#191614" opacity="0.8"/>
  <rect x="479.4" y="738.7" width="8.7" height="4.5" transform="rotate(80.9 479.4 738.7)" fill="#191614" opacity="0.8"/>
  <rect x="478.6" y="823.7" width="9.8" height="9.8" transform="rotate(5.6 478.6 823.7)" fill="#191614" opacity="0.8"/>
  <rect x="480.1" y="419.5" width="7.9" height="4.7" transform="rotate(72.6 480.1 419.5)" fill="#191614" opacity="0.8"/>
  <rect x="497.1" y="734.2" width="10.2" height="8" transform="rotate(75.9 497.1 734.2)" fill="#191614" opacity="0.8"/>
  <rect x="483.5" y="219.3" width="7.1" height="7.2" transform="rotate(34.8 483.5 219.3)" fill="#191614" opacity="0.8"/>
  <rect x="500.6" y="201.3" width="10.1" height="9.5" transform="rotate(28.9 500.6 201.3)" fill="#191614" opacity="0.8"/>
  <circle cx="102.3" cy="114.1" r="35.3" fill="#ff5a1e" opacity="0.28"/><circle cx="102.3" cy="114.1" r="21.9" fill="#ff8a3a" opacity="0.32"/><path d="M112.4 128.1 q-6.1 -20 0 -40 q6.1 20 0 40 z" fill="#ff8a3a" opacity="0.9"/><path d="M100.9 128.1 q-9.5 -13.4 0 -26.8 q7.2 13.4 0 26.8 z" fill="#ff3a12" opacity="0.9"/><path d="M114.2 128.1 q-9.1 -14 0 -28 q7 14 0 28 z" fill="#ff5a1e" opacity="0.9"/><path d="M102.3 124.1 q-3 -14 0 -24.8 q3 10.7 0 23.3 z" fill="#ffe6a3" opacity="0.85"/>
  <path d="M113.2 310.1 L113.2 218.1 l-3.8 -6" stroke="#2a2320" stroke-width="7" fill="none"/><polygon points="79.2,172.1 147.2,178.1 143.2,214.1 117.2,206.1 103.2,218.1 79.2,210.1" fill="#211b19"/><rect x="87.2" y="182.1" width="40" height="10" fill="#d64a2a" opacity="0.4"/>
  <circle cx="111.4" cy="489.8" r="51.9" fill="#ff5a1e" opacity="0.3"/><ellipse cx="111.4" cy="509.8" rx="34.5" ry="10" fill="#191614"/><ellipse cx="111.4" cy="507.8" rx="25.6" ry="7" fill="#ff8a3a" opacity="0.4"/><g stroke="#2a2320" stroke-width="4" stroke-linecap="round"><line x1="93.4" y1="511.8" x2="125.4" y2="499.8"/><line x1="129.4" y1="511.8" x2="97.4" y2="499.8"/></g><circle cx="111.4" cy="489.8" r="39.1" fill="#ff5a1e" opacity="0.28"/><circle cx="111.4" cy="489.8" r="19.4" fill="#ff8a3a" opacity="0.32"/><path d="M119 503.8 q-6.6 -20.3 0 -40.6 q9.2 20.3 0 40.6 z" fill="#ff8a3a" opacity="0.9"/><path d="M118.4 503.8 q-6.5 -14.5 0 -29 q8 14.5 0 29 z" fill="#ff5a1e" opacity="0.9"/><path d="M111.4 499.8 q-3 -10.7 0 -26.4 q3 14.5 0 26 z" fill="#ffe6a3" opacity="0.85"/>
  <ellipse cx="110" cy="641.2" rx="36.9" ry="16.5" fill="#0d0a09" opacity="0.55"/><ellipse cx="110" cy="641.2" rx="22.1" ry="9.9" fill="#ff5a1e" opacity="0.18"/><ellipse cx="110" cy="641.2" rx="36.9" ry="16.5" fill="none" stroke="#191614" stroke-width="3" opacity="0.6"/>
  <circle cx="102.5" cy="796" r="44.2" fill="#ff5a1e" opacity="0.28"/><circle cx="102.5" cy="796" r="23.4" fill="#ff8a3a" opacity="0.32"/><path d="M102.3 810 q-6.2 -22.8 0 -45.7 q7.8 22.9 0 45.7 z" fill="#ff8a3a" opacity="0.9"/><path d="M90.8 810 q-8.6 -23.1 0 -46.3 q7 23.2 0 46.3 z" fill="#ff5a1e" opacity="0.9"/><path d="M102.5 806 q-3 -11.2 0 -22.5 q3 15.1 0 25.7 z" fill="#ffe6a3" opacity="0.85"/>
  <circle cx="428.1" cy="133.2" r="37.3" fill="#ff5a1e" opacity="0.28"/><circle cx="428.1" cy="133.2" r="18.8" fill="#ff8a3a" opacity="0.32"/><path d="M425.8 147.2 q-8.6 -18.1 0 -36.2 q7.4 18.1 0 36.2 z" fill="#ff8a3a" opacity="0.9"/><path d="M430.9 147.2 q-8.9 -23.7 0 -47.5 q9.2 23.8 0 47.5 z" fill="#ff5a1e" opacity="0.9"/><path d="M417.2 147.2 q-9.1 -13.3 0 -26.6 q7.3 13.3 0 26.6 z" fill="#ff3a12" opacity="0.9"/><path d="M428.1 143.2 q-3 -15.1 0 -20.6 q3 15 0 23.8 z" fill="#ffe6a3" opacity="0.85"/>
  <path d="M428.6 301.7 L428.6 209.7 l2.7 -6" stroke="#2a2320" stroke-width="7" fill="none"/><polygon points="394.6,163.7 462.6,169.7 458.6,205.7 432.6,197.7 418.6,209.7 394.6,201.7" fill="#211b19"/><rect x="402.6" y="173.7" width="40" height="10" fill="#d64a2a" opacity="0.4"/>
  <circle cx="438.9" cy="482.1" r="48.1" fill="#ff5a1e" opacity="0.3"/><ellipse cx="438.9" cy="502.1" rx="34.9" ry="10" fill="#191614"/><ellipse cx="438.9" cy="500.1" rx="21.6" ry="7" fill="#ff8a3a" opacity="0.4"/><g stroke="#2a2320" stroke-width="4" stroke-linecap="round"><line x1="420.9" y1="504.1" x2="452.9" y2="492.1"/><line x1="456.9" y1="504.1" x2="424.9" y2="492.1"/></g><circle cx="438.9" cy="482.1" r="44.7" fill="#ff5a1e" opacity="0.28"/><circle cx="438.9" cy="482.1" r="20.5" fill="#ff8a3a" opacity="0.32"/><path d="M433.5 496.1 q-9.8 -17 0 -34 q6.2 17 0 34 z" fill="#ff8a3a" opacity="0.9"/><path d="M450.5 496.1 q-6.7 -13.2 0 -26.4 q9.5 13.2 0 26.4 z" fill="#ff5a1e" opacity="0.9"/><path d="M437.3 496.1 q-7.2 -16.5 0 -33 q7.7 16.5 0 33 z" fill="#ff3a12" opacity="0.9"/><path d="M438.9 492.1 q-3 -13.8 0 -23.2 q3 10.8 0 24.9 z" fill="#ffe6a3" opacity="0.85"/>
  <ellipse cx="428.3" cy="661.6" rx="32.2" ry="16" fill="#0d0a09" opacity="0.55"/><ellipse cx="428.3" cy="661.6" rx="19.3" ry="9.6" fill="#ff5a1e" opacity="0.18"/><ellipse cx="428.3" cy="661.6" rx="32.2" ry="16" fill="none" stroke="#191614" stroke-width="3" opacity="0.6"/>
  <circle cx="429.1" cy="792.1" r="31.1" fill="#ff5a1e" opacity="0.28"/><circle cx="429.1" cy="792.1" r="17" fill="#ff8a3a" opacity="0.32"/><path d="M433.9 806.1 q-6.2 -14.5 0 -29 q8.6 14.5 0 29 z" fill="#ff8a3a" opacity="0.9"/><path d="M435.6 806.1 q-8.7 -19.7 0 -39.5 q6.9 19.8 0 39.5 z" fill="#ff3a12" opacity="0.9"/><path d="M429.1 802.1 q-3 -12.4 0 -26.8 q3 11.9 0 22.3 z" fill="#ffe6a3" opacity="0.85"/>
</svg>
