<svg xmlns="http://www.w3.org/2000/svg" width="540" height="960" viewBox="0 0 540 960">
  <g transform="translate(103.1 193.4) scale(1.5) translate(-103.1 -193.4)" opacity="0.95"><g><rect x="75.1" y="105.4" width="56" height="88" rx="12" fill="#1c1815"/><rect x="83.1" y="119.4" width="40" height="54" rx="8" fill="#0d0a09"/><rect x="85.1" y="125.4" width="36" height="10" fill="#fb923c" opacity="0.45"/><circle cx="89.1" cy="145.4" r="5" fill="#e0722c" opacity="0.5"/></g><circle cx="102.1" cy="87.3" r="19.5" fill="#0e0c0c" opacity="0.2"/><circle cx="121.2" cy="61.7" r="31" fill="#0e0c0c" opacity="0.2"/><circle cx="102.3" cy="32.2" r="37.8" fill="#0e0c0c" opacity="0.2"/></g>
  <g transform="translate(85.3 508) scale(1.5) translate(-85.3 -508)" opacity="0.95"><circle cx="85.3" cy="494" r="44.7" fill="#e0722c" opacity="0.28"/><circle cx="85.3" cy="494" r="23.7" fill="#fb923c" opacity="0.32"/><path d="M88.5 508 q-6.7 -21.6 0 -43.3 q6.7 21.7 0 43.3 z" fill="#fb923c" opacity="0.9"/><path d="M95.7 508 q-7.1 -15.1 0 -30.2 q8.5 15.1 0 30.2 z" fill="#e0722c" opacity="0.9"/><path d="M85.3 504 q-3 -13 0 -25.4 q3 13.2 0 24 z" fill="#ffe6a3" opacity="0.85"/></g>
  <g transform="translate(106.4 697.3) scale(1.5) translate(-106.4 -697.3)" opacity="0.95"><rect x="90" y="695.2" width="7.8" height="5.8" transform="rotate(9.6 90 695.2)" fill="#2c2724" opacity="0.9"/><rect x="125.4" y="695.4" width="9.6" height="5.4" transform="rotate(49.4 125.4 695.4)" fill="#2c2724" opacity="0.9"/><rect x="129.4" y="693.6" width="4.9" height="5.8" transform="rotate(70.2 129.4 693.6)" fill="#2c2724" opacity="0.9"/><rect x="121.5" y="693.5" width="5.3" height="7.8" transform="rotate(69.2 121.5 693.5)" fill="#2c2724" opacity="0.9"/><rect x="134.8" y="689.3" width="9.3" height="7.5" transform="rotate(81.1 134.8 689.3)" fill="#2c2724" opacity="0.9"/><rect x="86.1" y="695.1" width="4.4" height="7" transform="rotate(28.1 86.1 695.1)" fill="#2c2724" opacity="0.9"/><path d="M86.4 697.3 q10 -14 22 -6 q8 6 18 -4" stroke="#3a352f" stroke-width="2" fill="none" opacity="0.7"/></g>
  <g transform="translate(450.1 293.1) scale(1.5) translate(-450.1 -293.1)" opacity="0.95"><g><rect x="422.1" y="205.1" width="56" height="88" rx="12" fill="#1c1815"/><rect x="430.1" y="219.1" width="40" height="54" rx="8" fill="#0d0a09"/><rect x="432.1" y="225.1" width="36" height="10" fill="#fb923c" opacity="0.45"/><circle cx="436.1" cy="245.1" r="5" fill="#e0722c" opacity="0.5"/></g><circle cx="443.7" cy="188.9" r="18" fill="#0e0c0c" opacity="0.2"/><circle cx="462.1" cy="162.5" r="30.3" fill="#0e0c0c" opacity="0.2"/><circle cx="474.1" cy="124.2" r="37.5" fill="#0e0c0c" opacity="0.2"/></g>
  <g transform="translate(442.1 504.2) scale(1.5) translate(-442.1 -504.2)" opacity="0.95"><circle cx="442.1" cy="490.2" r="39.3" fill="#e0722c" opacity="0.28"/><circle cx="442.1" cy="490.2" r="16.3" fill="#fb923c" opacity="0.32"/><path d="M436.4 504.2 q-7.9 -19.3 0 -38.7 q7.4 19.4 0 38.7 z" fill="#fb923c" opacity="0.9"/><path d="M443.1 504.2 q-7.4 -16.5 0 -33.1 q9.5 16.6 0 33.1 z" fill="#e0722c" opacity="0.9"/><path d="M444.8 504.2 q-8.7 -23.6 0 -47.3 q8.3 23.7 0 47.3 z" fill="#e0722c" opacity="0.9"/><path d="M442.1 500.2 q-3 -12.9 0 -21.3 q3 12.3 0 26.4 z" fill="#ffe6a3" opacity="0.85"/></g>
  <g transform="translate(459.2 697.1) scale(1.5) translate(-459.2 -697.1)" opacity="0.95"><rect x="487.3" y="695.2" width="6" height="5.1" transform="rotate(46.4 487.3 695.2)" fill="#2c2724" opacity="0.9"/><rect x="483" y="695.8" width="6.7" height="8" transform="rotate(27.3 483 695.8)" fill="#2c2724" opacity="0.9"/><rect x="446.1" y="689.1" width="6.8" height="5.3" transform="rotate(77.2 446.1 689.1)" fill="#2c2724" opacity="0.9"/><rect x="471.1" y="694.5" width="5.2" height="5.2" transform="rotate(56.1 471.1 694.5)" fill="#2c2724" opacity="0.9"/><rect x="471.6" y="694.5" width="8.5" height="4.6" transform="rotate(77.9 471.6 694.5)" fill="#2c2724" opacity="0.9"/><rect x="459.4" y="692.9" width="9.9" height="5.1" transform="rotate(64.3 459.4 692.9)" fill="#2c2724" opacity="0.9"/><path d="M439.2 697.1 q10 -14 22 -6 q8 6 18 -4" stroke="#3a352f" stroke-width="2" fill="none" opacity="0.7"/></g>
</svg>
