<svg xmlns="http://www.w3.org/2000/svg" width="540" height="960" viewBox="0 0 540 960">
  <g transform="translate(103.1 193.4) scale(1.5) translate(-103.1 -193.4)" opacity="0.95"><g><rect x="90.1" y="157.4" width="26" height="36" rx="3" fill="#2e3363"/><rect x="88.1" y="165.4" width="30" height="4" fill="#2d3160"/><rect x="88.1" y="179.4" width="30" height="4" fill="#2d3160"/></g></g>
  <g transform="translate(77.3 508) scale(1.5) translate(-77.3 -508)" opacity="0.95"><rect x="74.8" y="430" width="5" height="78" fill="#2e3363"/><circle cx="77.3" cy="428" r="6" fill="#fb923c" opacity="0.9"/><circle cx="77.3" cy="428" r="16" fill="#fb923c" opacity="0.12"/></g>
  <g transform="translate(91 697.3) scale(1.5) translate(-91 -697.3)" opacity="0.95"><rect x="86" y="675.3" width="10" height="22" rx="4" fill="#2e3363"/><rect x="86" y="679.3" width="10" height="3" fill="#fb923c" opacity="0.5"/></g>
  <g transform="translate(441.8 260.9) scale(1.5) translate(-441.8 -260.9)" opacity="0.95"><g><rect x="428.8" y="224.9" width="26" height="36" rx="3" fill="#2e3363"/><rect x="426.8" y="232.9" width="30" height="4" fill="#2d3160"/><rect x="426.8" y="246.9" width="30" height="4" fill="#2d3160"/></g></g>
  <g transform="translate(459.8 472.5) scale(1.5) translate(-459.8 -472.5)" opacity="0.95"><rect x="457.3" y="394.5" width="5" height="78" fill="#2e3363"/><circle cx="459.8" cy="392.5" r="6" fill="#fb923c" opacity="0.9"/><circle cx="459.8" cy="392.5" r="16" fill="#fb923c" opacity="0.12"/></g>
  <g transform="translate(437.9 770.3) scale(1.5) translate(-437.9 -770.3)" opacity="0.95"><rect x="432.9" y="748.3" width="10" height="22" rx="4" fill="#2e3363"/><rect x="432.9" y="752.3" width="10" height="3" fill="#fb923c" opacity="0.5"/></g>
</svg>
