<svg xmlns="http://www.w3.org/2000/svg" width="540" height="960" viewBox="0 0 540 960" preserveAspectRatio="none">
  <defs>
    <linearGradient id="sky" x1="0" y1="0" x2="0" y2="1">
      <stop offset="0" stop-color="#0b0a22"/>
      <stop offset="0.55" stop-color="#1e1b4b"/>
      <stop offset="1" stop-color="#4a3369"/>
    </linearGradient>
    <linearGradient id="horizon" x1="0" y1="0" x2="0" y2="1">
      <stop offset="0" stop-color="#fb923c" stop-opacity="0"/>
      <stop offset="1" stop-color="#fb923c" stop-opacity="0.2"/>
    </linearGradient>
  </defs>
  <rect width="540" height="960" fill="url(#sky)"/>
  <rect y="480" width="540" height="480" fill="url(#horizon)"/>
  <g fill="#f8fafc" opacity="0.4"><circle cx="343.8" cy="15.3" r="1.8"/><circle cx="261.4" cy="429.4" r="1.1"/><circle cx="98.6" cy="187.6" r="1.8"/><circle cx="115.2" cy="127.1" r="1.1"/><circle cx="503.3" cy="663.7" r="2"/><circle cx="445.9" cy="110.1" r="1.2"/><circle cx="332" cy="392.1" r="2.1"/><circle cx="480" cy="119" r="1.7"/><circle cx="249.9" cy="117.7" r="1.4"/><circle cx="321.6" cy="32.5" r="1"/><circle cx="535.9" cy="192.9" r="1.9"/><circle cx="51.3" cy="115.6" r="0.9"/><circle cx="402.5" cy="601.1" r="2.1"/><circle cx="176.8" cy="171" r="1.5"/></g><ellipse cx="270" cy="960" rx="486" ry="200" fill="#fb923c" opacity="0.18"/>
</svg>
