<svg xmlns="http://www.w3.org/2000/svg" width="540" height="960" viewBox="0 0 540 960" preserveAspectRatio="none">
  <defs>
    <linearGradient id="ground" x1="0" y1="0" x2="0" y2="1">
      <stop offset="0" stop-color="#232022"/>
      <stop offset="0.55" stop-color="#332c2b"/>
      <stop offset="1" stop-color="#48372f"/>
    </linearGradient>
    <linearGradient id="glowL" x1="0" y1="0" x2="1" y2="0">
      <stop offset="0" stop-color="#e0722c" stop-opacity="0.32"/>
      <stop offset="1" stop-color="#e0722c" stop-opacity="0"/>
    </linearGradient>
    <linearGradient id="glowR" x1="1" y1="0" x2="0" y2="0">
      <stop offset="0" stop-color="#e0722c" stop-opacity="0.32"/>
      <stop offset="1" stop-color="#e0722c" stop-opacity="0"/>
    </linearGradient>
  </defs>
  <rect width="540" height="960" fill="url(#ground)"/>
  <rect x="0" y="0" width="226.8" height="960" fill="url(#glowL)"/><rect x="313.2" y="0" width="226.8" height="960" fill="url(#glowR)"/><circle cx="343.8" cy="21.8" r="5.7" fill="#fb923c" opacity="0.1"/><circle cx="345" cy="221.5" r="2.9" fill="#fb923c" opacity="0.1"/><circle cx="371.9" cy="204.9" r="2.9" fill="#fb923c" opacity="0.1"/><circle cx="503.3" cy="948.1" r="6.1" fill="#fb923c" opacity="0.1"/><circle cx="88.4" cy="283.7" r="5.1" fill="#fb923c" opacity="0.1"/><circle cx="487.5" cy="853.3" r="2.9" fill="#fb923c" opacity="0.1"/><circle cx="249.9" cy="168.1" r="4.3" fill="#fb923c" opacity="0.1"/><circle cx="26.2" cy="146.3" r="7" fill="#fb923c" opacity="0.1"/><circle cx="434.8" cy="91.3" r="2.9" fill="#fb923c" opacity="0.1"/><circle cx="402.5" cy="858.7" r="6.8" fill="#fb923c" opacity="0.1"/><circle cx="137.4" cy="453.8" r="3.8" fill="#fb923c" opacity="0.1"/><circle cx="67" cy="749" r="6.3" fill="#fb923c" opacity="0.2"/><ellipse cx="270" cy="196.1" rx="378" ry="64.6" fill="#232022" opacity="0.25"/><ellipse cx="270" cy="455" rx="378" ry="48.4" fill="#232022" opacity="0.25"/><ellipse cx="270" cy="663.5" rx="378" ry="63.7" fill="#232022" opacity="0.25"/>
</svg>
