<svg xmlns="http://www.w3.org/2000/svg" width="540" height="960" viewBox="0 0 540 960" preserveAspectRatio="none">
  <defs>
    <linearGradient id="sky" x1="0" y1="0" x2="0" y2="1">
      <stop offset="0" stop-color="#3d9be2"/>
      <stop offset="0.55" stop-color="#7fc4ef"/>
      <stop offset="1" stop-color="#d2f0fb"/>
    </linearGradient>
    <linearGradient id="horizon" x1="0" y1="0" x2="0" y2="1">
      <stop offset="0" stop-color="#e8fbf0" stop-opacity="0"/>
      <stop offset="1" stop-color="#e8fbf0" stop-opacity="0.4"/>
    </linearGradient>
  </defs>
  <rect width="540" height="960" fill="url(#sky)"/>
  <rect y="480" width="540" height="480" fill="url(#horizon)"/>
  <circle cx="380" cy="130" r="66" fill="#ffedad" opacity="0.25"/><circle cx="380" cy="130" r="43.5" fill="#ffedad" opacity="0.4"/><circle cx="380" cy="130" r="30" fill="#fffbe6"/><g fill="#ffffff" opacity="0.8"><ellipse cx="332.9" cy="92.6" rx="99.6" ry="18.8"/><ellipse cx="288.1" cy="101.1" rx="54.8" ry="15"/><ellipse cx="372.7" cy="99.2" rx="59.8" ry="16"/></g><g fill="#ffffff" opacity="0.7"><ellipse cx="146.1" cy="181.7" rx="71.7" ry="20.9"/><ellipse cx="113.8" cy="191.1" rx="39.4" ry="16.7"/><ellipse cx="174.8" cy="189" rx="43" ry="17.8"/></g><g fill="#ffffff" opacity="0.8"><ellipse cx="127" cy="194.2" rx="110.9" ry="23.9"/><ellipse cx="77.1" cy="205" rx="61" ry="19.1"/><ellipse cx="171.4" cy="202.6" rx="66.5" ry="20.3"/></g><g fill="#ffffff" opacity="0.8"><ellipse cx="419.8" cy="171.2" rx="72.7" ry="20.1"/><ellipse cx="387.1" cy="180.2" rx="40" ry="16.1"/><ellipse cx="448.9" cy="178.2" rx="43.6" ry="17.1"/></g>
</svg>
