<svg xmlns="http://www.w3.org/2000/svg" width="540" height="960" viewBox="0 0 540 960">
  <rect x="-32" y="-9.8" width="80" height="223.8" fill="#1e2148"/><g fill="#fb923c" opacity="0.22"><rect x="-22" y="4.2" width="10" height="12"/><rect x="-22" y="38.2" width="10" height="12"/><rect x="-22" y="72.2" width="10" height="12"/><rect x="-22" y="106.2" width="10" height="12"/><rect x="18" y="140.2" width="10" height="12"/><rect x="18" y="174.2" width="10" height="12"/></g>
  <rect x="-2.4" y="285.1" width="28" height="231.6" fill="#1e2148"/><rect x="10.1" y="261.1" width="3" height="24" fill="#1e2148"/><circle cx="11.6" cy="261.1" r="3" fill="#38bdf8" opacity="0.8"/>
  <rect x="-29.2" y="528.3" width="77.1" height="179.7" fill="#1e2148"/><g fill="#fb923c" opacity="0.22"><rect x="-19.2" y="576.3" width="10" height="12"/><rect x="19.3" y="610.3" width="10" height="12"/><rect x="-19.2" y="678.3" width="10" height="12"/><rect x="19.3" y="678.3" width="10" height="12"/></g>
  <rect x="481.6" y="74.4" width="68" height="160.4" fill="#1e2148"/><g fill="#fb923c" opacity="0.22"><rect x="491.6" y="88.4" width="10" height="12"/><rect x="525.6" y="88.4" width="10" height="12"/><rect x="491.6" y="122.4" width="10" height="12"/><rect x="525.6" y="122.4" width="10" height="12"/><rect x="491.6" y="190.4" width="10" height="12"/></g>
  <rect x="517" y="262.1" width="28" height="233.7" fill="#1e2148"/><rect x="529.5" y="238.1" width="3" height="24" fill="#1e2148"/><circle cx="531" cy="238.1" r="3" fill="#38bdf8" opacity="0.8"/>
  <rect x="486.8" y="520.9" width="69.9" height="164.9" fill="#1e2148"/><g fill="#fb923c" opacity="0.22"><rect x="496.8" y="568.9" width="10" height="12"/><rect x="496.8" y="602.9" width="10" height="12"/></g>
</svg>
