<svg xmlns="http://www.w3.org/2000/svg" width="540" height="960" viewBox="0 0 540 960">
  <polygon points="-32,214 -32,26.2 8,-17.8 48,-9.2 48,214" fill="#2f2b27"/><rect x="-22" y="30.2" width="10" height="12" fill="#0d0a09" opacity="0.5"/><rect x="-22" y="64.2" width="10" height="12" fill="#fb923c" opacity="0.7"/><rect x="-22" y="98.2" width="10" height="12" fill="#0d0a09" opacity="0.5"/><rect x="18" y="132.2" width="10" height="12" fill="#0d0a09" opacity="0.5"/><rect x="18" y="166.2" width="10" height="12" fill="#0d0a09" opacity="0.5"/><rect x="-22" y="200.2" width="10" height="12" fill="#0d0a09" opacity="0.5"/><rect x="-8" y="135.7" width="32" height="78.3" fill="#0d0a09" opacity="0.4"/>
  <ellipse cx="9.3" cy="516.7" rx="47.4" ry="12" fill="#2f2b27"/><rect x="-15.8" y="507" width="15.6" height="9.8" transform="rotate(-5.5 -15.8 507)" fill="#2c2724"/><rect x="-17.1" y="508.3" width="17.8" height="20.4" transform="rotate(-4.5 -17.1 508.3)" fill="#2c2724"/><rect x="-16" y="514.4" width="12.4" height="8.1" transform="rotate(-0.3 -16 514.4)" fill="#2c2724"/><rect x="24" y="492" width="6.8" height="4.9" transform="rotate(2.1 24 492)" fill="#3a352f"/><rect x="39.6" y="512.7" width="11.1" height="10.6" transform="rotate(-30.1 39.6 512.7)" fill="#3a352f"/>
  <polygon points="-14.9,708 -14.9,562.7 22.8,536.4 60.4,551.5 60.4,708" fill="#2f2b27"/><rect x="-4.9" y="618.4" width="10" height="12" fill="#0d0a09" opacity="0.5"/><rect x="32.8" y="618.4" width="10" height="12" fill="#0d0a09" opacity="0.5"/><rect x="-4.9" y="652.4" width="10" height="12" fill="#0d0a09" opacity="0.5"/><rect x="32.8" y="652.4" width="10" height="12" fill="#fb923c" opacity="0.7"/><rect x="-4.9" y="686.4" width="10" height="12" fill="#fb923c" opacity="0.7"/><rect x="32.8" y="686.4" width="10" height="12" fill="#0d0a09" opacity="0.5"/><rect x="7.7" y="650.7" width="30.1" height="57.3" fill="#0d0a09" opacity="0.4"/>
  <polygon points="492.1,248.6 492.1,81 527.7,35.9 563.3,59.1 563.3,248.6" fill="#2f2b27"/><rect x="502.1" y="83.9" width="10" height="12" fill="#0d0a09" opacity="0.5"/><rect x="537.7" y="83.9" width="10" height="12" fill="#0d0a09" opacity="0.5"/><rect x="537.7" y="117.9" width="10" height="12" fill="#0d0a09" opacity="0.5"/><rect x="537.7" y="151.9" width="10" height="12" fill="#0d0a09" opacity="0.5"/><rect x="537.7" y="185.9" width="10" height="12" fill="#0d0a09" opacity="0.5"/><rect x="502.1" y="219.9" width="10" height="12" fill="#fb923c" opacity="0.7"/><rect x="502.1" y="253.9" width="10" height="12" fill="#0d0a09" opacity="0.5"/><rect x="537.7" y="253.9" width="10" height="12" fill="#0d0a09" opacity="0.5"/><rect x="513.5" y="177" width="28.5" height="71.6" fill="#0d0a09" opacity="0.4"/>
  <ellipse cx="520.5" cy="486.5" rx="43.3" ry="12" fill="#2f2b27"/><rect x="493.7" y="461.2" width="16.9" height="12.5" transform="rotate(-2.4 493.7 461.2)" fill="#2c2724"/><rect x="505.2" y="484.5" width="10.1" height="7.2" transform="rotate(-12.3 505.2 484.5)" fill="#2c2724"/><rect x="528.7" y="471.2" width="9.3" height="9.4" transform="rotate(-21.1 528.7 471.2)" fill="#3a352f"/><rect x="489.9" y="466.8" width="7.5" height="6.4" transform="rotate(-13.7 489.9 466.8)" fill="#2c2724"/><rect x="527.4" y="462.8" width="14.2" height="14.1" transform="rotate(-38.4 527.4 462.8)" fill="#2c2724"/><rect x="549.8" y="476" width="13.2" height="9.8" transform="rotate(-21 549.8 476)" fill="#2c2724"/>
  <polygon points="488.8,748.5 488.8,521.7 515.9,482.1 543,511.4 543,748.5" fill="#2f2b27"/><rect x="525.9" y="598.1" width="10" height="12" fill="#fb923c" opacity="0.7"/><rect x="498.8" y="632.1" width="10" height="12" fill="#0d0a09" opacity="0.5"/><rect x="525.9" y="700.1" width="10" height="12" fill="#fb923c" opacity="0.7"/><rect x="498.8" y="734.1" width="10" height="12" fill="#fb923c" opacity="0.7"/><rect x="525.9" y="734.1" width="10" height="12" fill="#0d0a09" opacity="0.5"/><rect x="505.1" y="658.1" width="21.7" height="90.4" fill="#0d0a09" opacity="0.4"/>
</svg>
