<svg xmlns="http://www.w3.org/2000/svg" width="540" height="960" viewBox="0 0 540 960">
  <!-- causeway slab: continuous full-height, uniform -> wraps seamlessly -->
  <rect x="50" y="0" width="440" height="960" fill="#4a443f"/>
  <rect x="50" y="0" width="6" height="960" fill="#3a352f"/>
  <rect x="484" y="0" width="6" height="960" fill="#3a352f"/>
  <!-- center road (the marching lane stays clear of props) -->
  <rect x="170" y="0" width="200" height="960" fill="#403a35"/>
  <rect x="170" y="0" width="6" height="960" fill="#2c2724"/>
  <rect x="364" y="0" width="6" height="960" fill="#2c2724"/>
  <g fill="#a89b8b" opacity="0.3">
    <rect x="266" y="40" width="8" height="28.8"/>
    <rect x="266" y="160" width="8" height="25.2"/>
    <rect x="266" y="280" width="8" height="24.5"/>
    <rect x="266" y="520" width="8" height="27.2"/>
    <rect x="266" y="640" width="8" height="24.3"/>
    <rect x="266" y="760" width="8" height="34.4"/>
    <rect x="266" y="880" width="8" height="40"/>
  </g>
  <rect x="64" y="100" width="92" height="130" rx="4" stroke="#a89b8b" stroke-width="2.5" fill="none" opacity="0.4"/><rect x="64" y="290" width="92" height="130" rx="4" stroke="#a89b8b" stroke-width="2.5" fill="none" opacity="0.4"/><rect x="64" y="480" width="92" height="130" rx="4" stroke="#a89b8b" stroke-width="2.5" fill="none" opacity="0.4"/><rect x="64" y="670" width="92" height="130" rx="4" stroke="#a89b8b" stroke-width="2.5" fill="none" opacity="0.4"/><rect x="384" y="100" width="92" height="130" rx="4" stroke="#a89b8b" stroke-width="2.5" fill="none" opacity="0.4"/><rect x="384" y="290" width="92" height="130" rx="4" stroke="#a89b8b" stroke-width="2.5" fill="none" opacity="0.4"/><rect x="384" y="480" width="92" height="130" rx="4" stroke="#a89b8b" stroke-width="2.5" fill="none" opacity="0.4"/><rect x="384" y="670" width="92" height="130" rx="4" stroke="#a89b8b" stroke-width="2.5" fill="none" opacity="0.4"/><ellipse cx="439.6" cy="236" rx="40.9" ry="13.5" fill="#0d0a09" opacity="0.2"/><ellipse cx="325.9" cy="743.4" rx="26.7" ry="13.9" fill="#0d0a09" opacity="0.2"/><ellipse cx="301.2" cy="400.9" rx="22" ry="21.5" fill="#0d0a09" opacity="0.2"/><ellipse cx="357" cy="426.4" rx="44.8" ry="18" fill="#0d0a09" opacity="0.2"/><ellipse cx="212.6" cy="588.4" rx="21.9" ry="19.5" fill="#0d0a09" opacity="0.2"/><ellipse cx="103.1" cy="258.1" rx="43.9" ry="20" fill="#0d0a09" opacity="0.2"/><g stroke="#0d0a09" stroke-width="2" fill="none" opacity="0.5"><path d="M64.1 282.7 L82.6 316.1 L73.5 351.7 L65.9 382.4 L82.5 424.7"/><path d="M434.8 671.7 L432.7 705.7 L427.4 740.6 L410.7 782.4"/><path d="M379.4 361.5 L361.7 393.5 L356 426.6 L340.2 460.4"/><path d="M175.6 509.1 L200.9 541.1 L194.3 579.9 L200.8 603.8 L205.6 627.1"/><path d="M165.4 273.3 L149.5 309.5 L172.7 339.7 L192 380.2 L216.5 409.6"/><path d="M379.4 55.8 L397.9 81 L381.2 100.1 L392.1 138.4 L369.8 171.7 L355.2 215.6"/><path d="M144.4 105.9 L135.5 145.4 L111.7 168.9 L112.6 197"/></g>
  <rect x="57.3" y="290.8" width="7.3" height="4.4" transform="rotate(27.4 57.3 290.8)" fill="#2c2724" opacity="0.8"/>
  <rect x="51.6" y="540.6" width="10.3" height="4.3" transform="rotate(7.2 51.6 540.6)" fill="#2c2724" opacity="0.8"/>
  <rect x="47.3" y="102.2" width="5.1" height="6.6" transform="rotate(53 47.3 102.2)" fill="#2c2724" opacity="0.8"/>
  <rect x="59.3" y="131.4" width="5.3" height="7.9" transform="rotate(29.9 59.3 131.4)" fill="#2c2724" opacity="0.8"/>
  <rect x="54.1" y="311.4" width="9.7" height="5" transform="rotate(13.4 54.1 311.4)" fill="#2c2724" opacity="0.8"/>
  <rect x="54.5" y="665.8" width="9.1" height="8.8" transform="rotate(44.4 54.5 665.8)" fill="#2c2724" opacity="0.8"/>
  <rect x="488.1" y="777.8" width="10.5" height="6.6" transform="rotate(9.4 488.1 777.8)" fill="#2c2724" opacity="0.8"/>
  <rect x="470.6" y="86.1" width="8.1" height="5.8" transform="rotate(16.3 470.6 86.1)" fill="#2c2724" opacity="0.8"/>
  <rect x="471.9" y="784.7" width="11.1" height="9.4" transform="rotate(32.3 471.9 784.7)" fill="#2c2724" opacity="0.8"/>
  <rect x="495.2" y="285.2" width="8.1" height="8.9" transform="rotate(10.3 495.2 285.2)" fill="#2c2724" opacity="0.8"/>
  <rect x="488" y="837.5" width="10.6" height="7.6" transform="rotate(27 488 837.5)" fill="#2c2724" opacity="0.8"/>
  <rect x="470.3" y="270.7" width="9.5" height="5.3" transform="rotate(20.7 470.3 270.7)" fill="#2c2724" opacity="0.8"/>
  <g><rect x="73.6" y="78.2" width="56" height="88" rx="12" fill="#1c1815"/><rect x="81.6" y="92.2" width="40" height="54" rx="8" fill="#0d0a09"/><rect x="83.6" y="98.2" width="36" height="10" fill="#fb923c" opacity="0.45"/><circle cx="87.6" cy="118.2" r="5" fill="#e0722c" opacity="0.5"/></g><circle cx="108.6" cy="62.4" r="18.8" fill="#0e0c0c" opacity="0.2"/><circle cx="118.1" cy="29.7" r="30.2" fill="#0e0c0c" opacity="0.2"/><circle cx="126.2" cy="-2" r="33.2" fill="#0e0c0c" opacity="0.2"/>
  <circle cx="120" cy="291.5" r="30.7" fill="#e0722c" opacity="0.28"/><circle cx="120" cy="291.5" r="19.7" fill="#fb923c" opacity="0.32"/><path d="M117.5 305.5 q-9.9 -20.3 0 -40.6 q8.8 20.3 0 40.6 z" fill="#fb923c" opacity="0.9"/><path d="M128.6 305.5 q-9.1 -14 0 -28.1 q8.8 14.1 0 28.1 z" fill="#e0722c" opacity="0.9"/><path d="M120 301.5 q-3 -15.4 0 -26.4 q3 11.1 0 25.2 z" fill="#ffe6a3" opacity="0.85"/>
  <g><rect x="75.9" y="387.4" width="56" height="88" rx="12" fill="#1c1815"/><rect x="83.9" y="401.4" width="40" height="54" rx="8" fill="#0d0a09"/><rect x="85.9" y="407.4" width="36" height="10" fill="#fb923c" opacity="0.45"/><circle cx="89.9" cy="427.4" r="5" fill="#e0722c" opacity="0.5"/></g><circle cx="93.4" cy="367.1" r="23.4" fill="#0e0c0c" opacity="0.2"/><circle cx="93.3" cy="346.8" r="30.6" fill="#0e0c0c" opacity="0.2"/><circle cx="105.3" cy="312.3" r="38.2" fill="#0e0c0c" opacity="0.2"/><circle cx="107.9" cy="286.7" r="43.3" fill="#0e0c0c" opacity="0.2"/>
  <ellipse cx="104.9" cy="641.1" rx="46.7" ry="17.8" fill="#0d0a09" opacity="0.55"/><ellipse cx="104.9" cy="641.1" rx="28" ry="10.7" fill="#e0722c" opacity="0.18"/><ellipse cx="104.9" cy="641.1" rx="46.7" ry="17.8" fill="none" stroke="#2c2724" stroke-width="3" opacity="0.6"/>
  <g><rect x="73.3" y="718.6" width="56" height="88" rx="12" fill="#1c1815"/><rect x="81.3" y="732.6" width="40" height="54" rx="8" fill="#0d0a09"/><rect x="83.3" y="738.6" width="36" height="10" fill="#fb923c" opacity="0.45"/><circle cx="87.3" cy="758.6" r="5" fill="#e0722c" opacity="0.5"/></g><circle cx="90.2" cy="700.4" r="18.2" fill="#0e0c0c" opacity="0.2"/><circle cx="120.2" cy="678.3" r="28.8" fill="#0e0c0c" opacity="0.2"/><circle cx="108.7" cy="644.9" r="33" fill="#0e0c0c" opacity="0.2"/>
  <g><rect x="406.4" y="43.7" width="56" height="88" rx="12" fill="#1c1815"/><rect x="414.4" y="57.7" width="40" height="54" rx="8" fill="#0d0a09"/><rect x="416.4" y="63.7" width="36" height="10" fill="#fb923c" opacity="0.45"/><circle cx="420.4" cy="83.7" r="5" fill="#e0722c" opacity="0.5"/></g><circle cx="438.7" cy="29.1" r="23.7" fill="#0e0c0c" opacity="0.2"/><circle cx="446.4" cy="-1.7" r="26.2" fill="#0e0c0c" opacity="0.2"/><circle cx="444.4" cy="-33.3" r="38.1" fill="#0e0c0c" opacity="0.2"/>
  <circle cx="436.7" cy="280.4" r="34.7" fill="#e0722c" opacity="0.28"/><circle cx="436.7" cy="280.4" r="16.1" fill="#fb923c" opacity="0.32"/><path d="M440.1 294.4 q-9.6 -22.9 0 -45.9 q7.2 23 0 45.9 z" fill="#fb923c" opacity="0.9"/><path d="M443.1 294.4 q-8.5 -23.2 0 -46.4 q6.2 23.2 0 46.4 z" fill="#e0531f" opacity="0.9"/><path d="M432.5 294.4 q-7.5 -20.5 0 -41.1 q8.9 20.6 0 41.1 z" fill="#e0722c" opacity="0.9"/><path d="M436.7 290.4 q-3 -11.2 0 -25.9 q3 14.6 0 22.8 z" fill="#ffe6a3" opacity="0.85"/>
  <g><rect x="394.6" y="404.2" width="56" height="88" rx="12" fill="#1c1815"/><rect x="402.6" y="418.2" width="40" height="54" rx="8" fill="#0d0a09"/><rect x="404.6" y="424.2" width="36" height="10" fill="#fb923c" opacity="0.45"/><circle cx="408.6" cy="444.2" r="5" fill="#e0722c" opacity="0.5"/></g><circle cx="432.7" cy="390.7" r="18" fill="#0e0c0c" opacity="0.2"/><circle cx="422.8" cy="353" r="25.6" fill="#0e0c0c" opacity="0.2"/><circle cx="416.6" cy="329.7" r="39.9" fill="#0e0c0c" opacity="0.2"/><circle cx="419.3" cy="294.7" r="41.8" fill="#0e0c0c" opacity="0.2"/>
  <ellipse cx="438.9" cy="656.6" rx="39.6" ry="17.8" fill="#0d0a09" opacity="0.55"/><ellipse cx="438.9" cy="656.6" rx="23.8" ry="10.7" fill="#e0722c" opacity="0.18"/><ellipse cx="438.9" cy="656.6" rx="39.6" ry="17.8" fill="none" stroke="#2c2724" stroke-width="3" opacity="0.6"/>
  <g><rect x="391.3" y="734.3" width="56" height="88" rx="12" fill="#1c1815"/><rect x="399.3" y="748.3" width="40" height="54" rx="8" fill="#0d0a09"/><rect x="401.3" y="754.3" width="36" height="10" fill="#fb923c" opacity="0.45"/><circle cx="405.3" cy="774.3" r="5" fill="#e0722c" opacity="0.5"/></g><circle cx="425.6" cy="714" r="22.1" fill="#0e0c0c" opacity="0.2"/><circle cx="421" cy="692.6" r="27.3" fill="#0e0c0c" opacity="0.2"/><circle cx="437.6" cy="664.1" r="37.9" fill="#0e0c0c" opacity="0.2"/><circle cx="433.2" cy="630.8" r="46.4" fill="#0e0c0c" opacity="0.2"/>
</svg>
