<svg xmlns="http://www.w3.org/2000/svg" width="540" height="960" viewBox="0 0 540 960">
  <!-- causeway slab: continuous full-height, uniform -> wraps seamlessly -->
  <rect x="50" y="0" width="440" height="960" fill="#7c8bb0"/>
  <rect x="50" y="0" width="6" height="960" fill="#97a5d8"/>
  <rect x="484" y="0" width="6" height="960" fill="#97a5d8"/>
  <!-- center road (the marching lane stays clear of props) -->
  <rect x="170" y="0" width="200" height="960" fill="#8697b8"/>
  <rect x="170" y="0" width="6" height="960" fill="#a5b0d4"/>
  <rect x="364" y="0" width="6" height="960" fill="#a5b0d4"/>
  <g fill="#f8fafc" opacity="0.5">
    <rect x="266" y="40" width="8" height="40"/>
    <rect x="266" y="160" width="8" height="40"/>
    <rect x="266" y="280" width="8" height="40"/>
    <rect x="266" y="400" width="8" height="40"/>
    <rect x="266" y="520" width="8" height="40"/>
    <rect x="266" y="640" width="8" height="40"/>
    <rect x="266" y="760" width="8" height="40"/>
    <rect x="266" y="880" width="8" height="40"/>
  </g>
  <rect x="64" y="100" width="92" height="130" rx="4" stroke="#f8fafc" stroke-width="2.5" fill="none" opacity="0.4"/><rect x="64" y="290" width="92" height="130" rx="4" stroke="#f8fafc" stroke-width="2.5" fill="none" opacity="0.4"/><rect x="64" y="480" width="92" height="130" rx="4" stroke="#f8fafc" stroke-width="2.5" fill="none" opacity="0.4"/><rect x="64" y="670" width="92" height="130" rx="4" stroke="#f8fafc" stroke-width="2.5" fill="none" opacity="0.4"/><rect x="384" y="100" width="92" height="130" rx="4" stroke="#f8fafc" stroke-width="2.5" fill="none" opacity="0.4"/><rect x="384" y="290" width="92" height="130" rx="4" stroke="#f8fafc" stroke-width="2.5" fill="none" opacity="0.4"/><rect x="384" y="480" width="92" height="130" rx="4" stroke="#f8fafc" stroke-width="2.5" fill="none" opacity="0.4"/><rect x="384" y="670" width="92" height="130" rx="4" stroke="#f8fafc" stroke-width="2.5" fill="none" opacity="0.4"/>
  <g><rect x="70.7" y="55.2" width="56" height="88" rx="12" fill="#97a5d8"/><rect x="78.7" y="69.2" width="40" height="54" rx="8" fill="#8c9cc4"/><rect x="78.7" y="69.2" width="40" height="6" fill="#38bdf8" opacity="0.8"/><circle cx="82.7" cy="135.2" r="4" fill="#fb923c" opacity="0.6"/><circle cx="114.7" cy="135.2" r="4" fill="#fb923c" opacity="0.6"/></g>
  <rect x="96.8" y="226.1" width="5" height="78" fill="#97a5d8"/><circle cx="99.3" cy="224.1" r="6" fill="#fb923c" opacity="0.9"/><circle cx="99.3" cy="224.1" r="16" fill="#fb923c" opacity="0.12"/>
  <g><rect x="87.1" y="387.6" width="56" height="88" rx="12" fill="#97a5d8"/><rect x="95.1" y="401.6" width="40" height="54" rx="8" fill="#8c9cc4"/><rect x="95.1" y="401.6" width="40" height="6" fill="#38bdf8" opacity="0.8"/><circle cx="99.1" cy="467.6" r="4" fill="#fb923c" opacity="0.6"/><circle cx="131.1" cy="467.6" r="4" fill="#fb923c" opacity="0.6"/></g>
  <rect x="96.8" y="584.6" width="12" height="34" rx="5" fill="#e2e8f0" opacity="0.7"/><rect x="99.8" y="592.6" width="6" height="8" fill="#97a5d8"/>
  <g><rect x="90.3" y="716.9" width="56" height="88" rx="12" fill="#97a5d8"/><rect x="98.3" y="730.9" width="40" height="54" rx="8" fill="#8c9cc4"/><rect x="98.3" y="730.9" width="40" height="6" fill="#38bdf8" opacity="0.8"/><circle cx="102.3" cy="796.9" r="4" fill="#fb923c" opacity="0.6"/><circle cx="134.3" cy="796.9" r="4" fill="#fb923c" opacity="0.6"/></g>
  <g><rect x="411.9" y="35.3" width="56" height="88" rx="12" fill="#97a5d8"/><rect x="419.9" y="49.3" width="40" height="54" rx="8" fill="#8c9cc4"/><rect x="419.9" y="49.3" width="40" height="6" fill="#38bdf8" opacity="0.8"/><circle cx="423.9" cy="115.3" r="4" fill="#fb923c" opacity="0.6"/><circle cx="455.9" cy="115.3" r="4" fill="#fb923c" opacity="0.6"/></g>
  <rect x="420.5" y="242.4" width="5" height="78" fill="#97a5d8"/><circle cx="423" cy="240.4" r="6" fill="#fb923c" opacity="0.9"/><circle cx="423" cy="240.4" r="16" fill="#fb923c" opacity="0.12"/>
  <g><rect x="409.3" y="401" width="56" height="88" rx="12" fill="#97a5d8"/><rect x="417.3" y="415" width="40" height="54" rx="8" fill="#8c9cc4"/><rect x="417.3" y="415" width="40" height="6" fill="#38bdf8" opacity="0.8"/><circle cx="421.3" cy="481" r="4" fill="#fb923c" opacity="0.6"/><circle cx="453.3" cy="481" r="4" fill="#fb923c" opacity="0.6"/></g>
  <rect x="419" y="612.2" width="12" height="34" rx="5" fill="#e2e8f0" opacity="0.7"/><rect x="422" y="620.2" width="6" height="8" fill="#97a5d8"/>
  <g><rect x="391.5" y="749.8" width="56" height="88" rx="12" fill="#97a5d8"/><rect x="399.5" y="763.8" width="40" height="54" rx="8" fill="#8c9cc4"/><rect x="399.5" y="763.8" width="40" height="6" fill="#38bdf8" opacity="0.8"/><circle cx="403.5" cy="829.8" r="4" fill="#fb923c" opacity="0.6"/><circle cx="435.5" cy="829.8" r="4" fill="#fb923c" opacity="0.6"/></g>
</svg>
